<svg xmlns="http://www.w3.org/2000/svg" xmlns:xlink="http://www.w3.org/1999/xlink" version="1.1" x="0px" y="0px" viewBox="0 0 405.2 69.9" enable-background="new 0 0 405.2 69.9" xml:space="preserve"><g><path fill="#20B8EB" d="M194.8 49.4c-0.9 2.1-2.2 4-3.8 5.5c-1.6 1.6-3.4 2.8-5.6 3.7c-4.2 1.8-9.3 1.8-13.5 0 c-2.1-0.9-3.9-2.2-5.5-3.7c-1.6-1.6-2.8-3.4-3.7-5.5c-0.9-2.1-1.4-4.3-1.4-6.7c0-2.4 0.5-4.7 1.4-6.8c0.9-2.1 2.2-4 3.7-5.6 c1.6-1.6 3.4-2.8 5.5-3.7c2.1-0.9 4.3-1.3 6.7-1.3c2.4 0 4.7 0.5 6.8 1.3c2.1 0.9 4 2.2 5.6 3.7c1.6 1.6 2.8 3.5 3.8 5.6 c0.9 2.1 1.3 4.4 1.3 6.8C196.1 45 195.7 47.3 194.8 49.4 M197.2 24.1c-2.4-2.4-5.2-4.3-8.3-5.7c-3.2-1.4-6.5-2.1-10-2.1 c-3.7 0.1-7.2 0.9-10.5 2.3c-3.2 1.4-6 3.3-8.4 5.6c-2.4 2.3-4.2 5.1-5.5 8.2c-1.3 3.1-2 6.5-2 10.1c0 3.7 0.7 7.2 2.1 10.4 c1.4 3.2 3.3 5.9 5.7 8.3c2.4 2.3 5.2 4.1 8.3 5.4c3.1 1.3 6.6 2 10.2 2c3.7 0 7.2-0.7 10.3-2.1c3.2-1.4 6-3.3 8.3-5.7 c2.3-2.4 4.2-5.2 5.6-8.3c1.4-3.1 2.1-6.5 2.1-10.1c0-3.6-0.7-7-2.1-10.2C201.5 29.3 199.5 26.5 197.2 24.1 M339.5 1.5 c-0.9 0.8-1.3 1.9-1.3 3.1v59.7c0 1.2 0.4 2.3 1.3 3.1c0.9 0.9 1.9 1.3 3.1 1.3c1.2 0 2.3-0.4 3.2-1.3c0.8-0.8 1.3-1.9 1.3-3.1V4.7 c0-1.2-0.4-2.3-1.3-3.1C344-0.2 341.2-0.2 339.5 1.5 M324.1 1.5c-0.9 0.8-1.3 1.9-1.3 3.1v59.7c0 1.2 0.4 2.3 1.3 3.1 c0.8 0.9 1.9 1.3 3.1 1.3c1.2 0 2.3-0.4 3.1-1.3c0.9-0.8 1.3-1.9 1.3-3.1V4.7c0-1.2-0.5-2.3-1.3-3.1C328.6-0.2 325.8-0.2 324.1 1.5 M251.5 49.5c-0.9 2.1-2.2 4-3.7 5.5c-1.6 1.6-3.4 2.8-5.6 3.7c-4.2 1.8-9.2 1.8-13.3 0.1c-2.1-0.9-3.9-2.1-5.4-3.5 c-1.6-1.5-2.8-3.3-3.8-5.3c-1-1.9-1.5-4.1-1.6-6.4v-0.8c0.1-2.5 0.6-4.9 1.6-7c1-2.1 2.2-4 3.8-5.5c1.5-1.5 3.4-2.8 5.4-3.6 c2-0.9 4.2-1.3 6.6-1.3c2.4 0 4.7 0.5 6.8 1.4c2.1 0.9 4 2.2 5.6 3.7c1.6 1.6 2.8 3.4 3.7 5.6c0.9 2.1 1.4 4.4 1.4 6.8 C252.9 45.1 252.4 47.4 251.5 49.5 M253.9 24.2c-2.4-2.4-5.2-4.3-8.3-5.7c-3.1-1.4-6.5-2.1-10-2.1h0c-4.1 0.2-7.8 1.2-11.2 3.1 c-2.3 1.4-4.5 2.9-6.4 4.6V4.7c0-1.2-0.4-2.3-1.3-3.1c-1.7-1.7-4.6-1.7-6.3 0c-0.8 0.8-1.3 1.9-1.3 3.1v59.7c0 1.2 0.4 2.3 1.3 3.1 c1.7 1.7 4.6 1.7 6.3 0c0.9-0.9 1.3-1.9 1.3-3.1v-1.9c1.9 1.7 4.1 3 6.5 4.1c3.3 1.5 7 2.2 10.9 2.2c3.7 0 7.1-0.7 10.3-2.1 c3.2-1.4 6-3.3 8.3-5.6c2.3-2.4 4.2-5.2 5.6-8.3c1.4-3.1 2.1-6.5 2.1-10.1c0-3.6-0.7-7.1-2.1-10.2 C258.2 29.4 256.3 26.6 253.9 24.2 M275.4 38c0.4-1.5 1-2.9 1.7-4.2c1-1.7 2.3-3.2 3.8-4.5c1.5-1.3 3.2-2.3 5.1-3 c3.8-1.5 8.3-1.5 12.1 0c1.9 0.8 3.6 1.8 5.2 3c1.5 1.3 2.8 2.8 3.8 4.5c0.8 1.3 1.4 2.7 1.8 4.2H275.4z M310.3 23.9 c-2.4-2.3-5.1-4.2-8.2-5.5c-3.1-1.4-6.4-2.1-9.9-2.1c-3.7 0.1-7.2 0.9-10.4 2.3c-3.2 1.4-6 3.3-8.4 5.6c-2.3 2.3-4.2 5.1-5.5 8.2 c-1.3 3.1-2 6.6-2 10.1c0 3.7 0.7 7.2 2.1 10.4c1.4 3.2 3.3 5.9 5.7 8.3c2.4 2.3 5.2 4.1 8.3 5.4c3.1 1.3 6.5 2 10.2 2 c3.9 0 7.3-0.6 10.3-1.7c3-1.1 5.8-3.1 8.2-5.7c0.9-0.9 1.3-1.9 1.3-3.1s-0.4-2.3-1.3-3.1c-1.7-1.7-4.6-1.7-6.3 0 c-1.6 1.6-3.5 2.8-5.5 3.6c-3.9 1.6-8.7 1.8-12.8 0.2c-2-0.8-3.7-1.8-5.2-3.1c-1.5-1.3-2.8-2.8-3.8-4.6c-0.8-1.3-1.4-2.8-1.7-4.3 h38.7c1.1 0 2.2-0.4 3.1-1.2c0.7-0.6 1.5-1.7 1.3-3.7c-0.1-3.5-0.9-6.9-2.3-10C314.6 28.9 312.7 26.2 310.3 23.9 M393.8 49.6 c-0.9 2.1-2.2 3.9-3.8 5.5c-1.6 1.5-3.4 2.8-5.5 3.6c-4.2 1.7-9.2 1.7-13.3-0.1c-2.1-0.9-3.9-2.2-5.5-3.7c-1.6-1.6-2.8-3.4-3.7-5.5 c-0.9-2.1-1.3-4.3-1.3-6.7c0-2.4 0.5-4.7 1.3-6.8c0.9-2.1 2.2-4 3.7-5.6c1.6-1.6 3.4-2.8 5.5-3.7c2.1-0.9 4.3-1.3 6.7-1.3 c2.4 0 4.7 0.5 6.8 1.3c2.1 0.9 4 2.2 5.6 3.7c1.6 1.6 2.8 3.4 3.7 5.6c0.9 2.1 1.4 4.4 1.4 6.7C395.3 45.1 394.8 47.5 393.8 49.6 M402.2 32.4c-1.4-3.2-3.3-6-5.7-8.3c-2.4-2.4-5.2-4.3-8.3-5.7c-6.5-2.9-14.3-2.7-20.5-0.1c-3.2 1.4-6 3.3-8.4 5.6 c-2.3 2.4-4.2 5.2-5.5 8.4c-1.3 3.2-2 6.7-2 10.3c0 3.7 0.7 7.3 2.1 10.4c1.4 3.2 3.3 6 5.7 8.3c2.4 2.3 5.2 4.1 8.3 5.4 c6.5 2.7 14.7 2.8 21.2-0.9c2.4-1.3 4.5-2.9 6.4-4.7v3.3c0 1.2 0.4 2.3 1.3 3.1c0.9 0.8 1.9 1.3 3.1 1.3c1.2 0 2.3-0.4 3.1-1.3 c0.9-0.9 1.3-1.9 1.3-3.1V42.6C404.3 39 403.6 35.6 402.2 32.4 M38.8 55.1c-1.6 1.5-3.5 2.8-5.5 3.6c-4.1 1.7-9.3 1.7-13.4-0.1 c-2.1-0.9-3.9-2.1-5.5-3.7c-1.6-1.6-2.8-3.4-3.7-5.5c-0.9-2.1-1.3-4.3-1.3-6.7c0-2.4 0.4-4.7 1.3-6.8c0.9-2.1 2.2-4 3.7-5.6 c1.6-1.6 3.4-2.8 5.5-3.7c4.2-1.8 9.3-1.8 13.4-0.1c2.1 0.9 3.9 2 5.5 3.4c1.7 1.7 4.6 1.7 6.3 0c1.1-1.1 1.4-2.4 1-3.8 c-0.4-1.2-0.9-2-1.4-2.4c-0.7-0.6-1.6-1.4-2.8-2.3c-1.2-0.9-2.5-1.7-4-2.4c-1.5-0.8-3.2-1.4-5-1.9c-1.9-0.6-3.9-0.8-6.1-0.8h0 c-3.7 0.1-7.2 0.9-10.4 2.3c-3.2 1.4-6 3.3-8.4 5.6c-2.4 2.4-4.2 5.1-5.6 8.3c-1.4 3.1-2 6.6-2 10.2c0 3.7 0.7 7.2 2.1 10.4 c1.4 3.2 3.3 6 5.7 8.3c2.4 2.3 5.2 4.1 8.3 5.4c3.2 1.3 6.6 1.9 10.2 1.9c2.2 0 4.3-0.2 6.2-0.7c1.9-0.5 3.7-1.1 5.2-1.8 c1.6-0.7 2.9-1.5 4.1-2.4c1.1-0.8 2-1.6 2.7-2.2c1-1 1.5-2.1 1.5-3.4c0.1-1.3-0.4-2.4-1.2-3.2C43.4 53.4 40.5 53.5 38.8 55.1 M90.8 49.4c-0.9 2.1-2.2 4-3.7 5.5c-1.6 1.6-3.5 2.8-5.6 3.7c-4.2 1.8-9.3 1.8-13.5 0c-2.1-0.9-4-2.2-5.5-3.7 c-1.6-1.6-2.8-3.4-3.7-5.5c-0.9-2.1-1.4-4.3-1.4-6.7c0-2.4 0.5-4.6 1.4-6.8c0.9-2.1 2.1-4 3.7-5.6c1.6-1.6 3.4-2.8 5.5-3.7 c2.1-0.9 4.3-1.3 6.7-1.3c2.4 0 4.7 0.5 6.8 1.3c2.1 0.9 4 2.2 5.6 3.7c1.6 1.6 2.8 3.5 3.7 5.6c0.9 2.1 1.3 4.4 1.3 6.8 C92.2 45 91.7 47.3 90.8 49.4 M93.2 24.1c-2.4-2.4-5.2-4.3-8.3-5.7c-3.2-1.4-6.5-2.1-10-2.1h0c-3.7 0.1-7.2 0.9-10.4 2.3 c-3.2 1.4-6 3.3-8.4 5.6c-2.3 2.3-4.2 5.1-5.5 8.2c-1.3 3.1-2 6.6-2 10.1c0 3.7 0.7 7.3 2.1 10.4c1.4 3.2 3.3 5.9 5.7 8.3 c2.4 2.3 5.2 4.1 8.3 5.4c3.1 1.3 6.6 2 10.1 2c3.7 0 7.2-0.7 10.3-2.1c3.2-1.4 6-3.3 8.3-5.7c2.4-2.4 4.2-5.2 5.6-8.3 c1.4-3.2 2.1-6.6 2.1-10.1c0-3.6-0.7-7-2.1-10.2C97.5 29.3 95.6 26.4 93.2 24.1 M143.2 55.1c-1.6 1.5-3.5 2.8-5.6 3.6 c-4.1 1.7-9.2 1.7-13.4-0.1c-2.1-0.9-3.9-2.1-5.5-3.7c-1.6-1.6-2.8-3.4-3.7-5.5c-0.9-2.1-1.4-4.3-1.4-6.7c0-2.4 0.5-4.7 1.4-6.8 c0.9-2.1 2.2-4 3.7-5.6c1.6-1.6 3.4-2.8 5.5-3.7c4.2-1.8 9.3-1.8 13.4-0.1c2.1 0.9 4 2 5.5 3.4c1.7 1.7 4.6 1.7 6.3 0 c1.4-1.4 1.3-2.8 1-3.8c-0.4-1.2-0.9-2-1.4-2.4c-0.7-0.6-1.7-1.4-2.8-2.3c-1.2-0.9-2.5-1.7-4-2.4c-1.5-0.8-3.2-1.4-5-1.9 c-1.9-0.6-3.9-0.8-6.1-0.8h0c-3.7 0.1-7.2 0.9-10.4 2.3c-3.2 1.4-6 3.3-8.4 5.6c-2.3 2.3-4.2 5.1-5.5 8.3c-1.3 3.1-2 6.5-2 10.2 c0 3.7 0.7 7.2 2.1 10.4c1.4 3.2 3.3 5.9 5.7 8.2c2.4 2.3 5.2 4.1 8.3 5.4c3.1 1.3 6.6 1.9 10.2 1.9c2.2 0 4.3-0.2 6.2-0.7 s3.7-1.1 5.2-1.8c1.6-0.7 2.9-1.5 4.1-2.4c1.1-0.8 2-1.6 2.7-2.2c1-1 1.5-2.1 1.6-3.4c0-1.3-0.4-2.4-1.3-3.2 C147.7 53.4 144.8 53.5 143.2 55.1"/></g></svg>