<?xml version="1.0" encoding="utf-8"?>
<!-- Generator: Adobe Illustrator 18.1.0, SVG Export Plug-In . SVG Version: 6.00 Build 0)  -->
<!DOCTYPE svg PUBLIC "-//W3C//DTD SVG 1.1//EN" "http://www.w3.org/Graphics/SVG/1.1/DTD/svg11.dtd">
<svg version="1.1" id="Layer_1" xmlns="http://www.w3.org/2000/svg" xmlns:xlink="http://www.w3.org/1999/xlink" x="0px" y="0px"
	 viewBox="0 0 647.1 115.6" enable-background="new 0 0 647.1 115.6" xml:space="preserve">
<g>
	<path fill="#ffffff" d="M230,90.3c-2.6,2.4-5.5,4.4-8.8,5.7c-6.5,2.7-14.6,2.8-21.2-0.1c-3.3-1.4-6.2-3.4-8.7-5.9
		c-2.5-2.5-4.5-5.4-5.9-8.7c-1.4-3.3-2.1-6.8-2.1-10.6c0-3.8,0.7-7.4,2.1-10.7c1.4-3.3,3.4-6.3,5.9-8.8c2.5-2.5,5.4-4.5,8.7-5.9
		c6.6-2.8,14.7-2.8,21.2-0.1c3.3,1.4,6.2,3.2,8.7,5.4c2.7,2.7,7.2,2.7,9.9,0c2.2-2.2,2-4.5,1.5-6c-0.6-1.8-1.4-3.1-2.3-3.9
		c-1.1-1-2.6-2.2-4.4-3.6c-1.8-1.4-3.9-2.7-6.3-3.9c-2.4-1.2-5-2.2-7.9-3.1c-2.9-0.9-6.2-1.3-9.7-1.3h0c-5.9,0.2-11.4,1.5-16.5,3.7
		c-5.1,2.2-9.5,5.2-13.2,8.9c-3.7,3.7-6.6,8.1-8.8,13c-2.1,5-3.2,10.3-3.2,16.1c0,5.9,1.1,11.5,3.3,16.5c2.2,5,5.2,9.4,9,13.1
		c3.8,3.6,8.2,6.5,13.1,8.6c5,2,10.4,3.1,16.1,3.1c3.5,0,6.8-0.4,9.9-1.1c3-0.7,5.8-1.7,8.2-2.8c2.5-1.2,4.6-2.4,6.4-3.7
		c1.8-1.3,3.2-2.5,4.2-3.5c1.5-1.5,2.4-3.3,2.5-5.3c0.1-2-0.6-3.8-2-5.1C237.1,87.6,232.6,87.6,230,90.3z M151,41.2
		c-3.8-3.8-8.2-6.8-13.1-9c-5-2.2-10.3-3.4-15.8-3.4h0c-5.9,0.2-11.5,1.5-16.5,3.7c-5.1,2.2-9.5,5.2-13.2,8.9
		c-3.7,3.7-6.7,8.1-8.8,13c-2.1,5-3.2,10.4-3.2,16c0,5.9,1.1,11.5,3.3,16.5c2.2,5,5.2,9.4,8.9,13.1c3.8,3.6,8.2,6.5,13.2,8.6
		c5,2.1,10.4,3.1,16.1,3.1c5.8,0,11.3-1.1,16.3-3.3c5-2.2,9.4-5.2,13.2-8.9c3.7-3.8,6.7-8.2,8.8-13.1c2.2-5,3.3-10.3,3.3-15.9
		c0-5.7-1.1-11.1-3.4-16.2C157.8,49.4,154.8,45,151,41.2z M147.2,81.2c-1.4,3.3-3.4,6.2-5.9,8.7c-2.5,2.5-5.5,4.5-8.8,5.9
		c-6.7,2.8-14.8,2.8-21.4,0c-3.3-1.4-6.3-3.4-8.7-5.9c-2.5-2.5-4.5-5.4-5.9-8.7c-1.4-3.3-2.1-6.9-2.1-10.6c0-3.7,0.7-7.3,2.1-10.7
		c1.4-3.4,3.4-6.3,5.9-8.8c2.5-2.5,5.4-4.5,8.7-5.9c3.3-1.4,6.9-2.1,10.6-2.1c3.8,0,7.4,0.7,10.7,2.1c3.3,1.4,6.3,3.4,8.8,5.9
		c2.5,2.5,4.5,5.5,5.9,8.8c1.4,3.3,2.2,7,2.2,10.7C149.4,74.3,148.7,77.9,147.2,81.2z M65.1,90.3c-2.5,2.4-5.5,4.4-8.7,5.7
		c-6.5,2.7-14.6,2.8-21.2-0.1c-3.3-1.4-6.3-3.4-8.7-5.9c-2.5-2.5-4.5-5.4-5.9-8.7c-1.4-3.3-2.1-6.9-2.1-10.6c0-3.7,0.7-7.3,2.1-10.7
		c1.4-3.4,3.4-6.3,5.9-8.8c2.5-2.5,5.4-4.5,8.7-5.9c6.6-2.8,14.7-2.8,21.2-0.1c3.3,1.4,6.2,3.2,8.7,5.4c2.7,2.7,7.2,2.7,9.9,0
		c1.7-1.7,2.3-3.8,1.5-6c-0.6-1.8-1.4-3.1-2.3-3.9c-1.1-1-2.6-2.2-4.4-3.6c-1.8-1.4-3.9-2.7-6.2-3.9c-2.4-1.2-5-2.2-7.9-3.1
		C52.8,29.5,49.6,29,46,29h0c-5.9,0.2-11.5,1.5-16.5,3.7c-5.1,2.2-9.5,5.2-13.2,8.9c-3.7,3.7-6.7,8.1-8.8,13
		c-2.1,5-3.2,10.4-3.2,16.1c0,5.9,1.1,11.5,3.3,16.5c2.2,5,5.2,9.4,8.9,13.1c3.8,3.6,8.2,6.5,13.2,8.6c5,2,10.4,3.1,16.1,3.1
		c3.5,0,6.8-0.4,9.9-1.1c3-0.7,5.8-1.7,8.2-2.8c2.5-1.1,4.6-2.4,6.4-3.7c1.8-1.3,3.2-2.5,4.2-3.5c1.6-1.6,2.4-3.3,2.5-5.3
		c0.1-2-0.6-3.8-2-5.1C72.3,87.6,67.7,87.6,65.1,90.3z M639.4,54.4c-2.2-5-5.3-9.4-9-13.2c-3.7-3.7-8.2-6.8-13.1-9
		c-10.3-4.6-22.6-4.3-32.3-0.1c-5.1,2.2-9.5,5.2-13.3,8.9c-3.7,3.8-6.7,8.2-8.8,13.3c-2.1,5.1-3.2,10.5-3.2,16.2
		c0,5.9,1.1,11.5,3.3,16.5c2.2,5,5.2,9.4,9,13.1c3.8,3.6,8.2,6.5,13.2,8.6c10.4,4.3,23.2,4.3,33.5-1.5c3.8-2.1,7.2-4.6,10.1-7.4v5.3
		c0,1.9,0.7,3.6,2.1,5c1.4,1.3,3,2,5,2c1.9,0,3.6-0.7,5-2c1.3-1.4,2-3,2-5V70.5C642.8,64.9,641.6,59.4,639.4,54.4z M626.2,81.5
		c-1.5,3.3-3.5,6.2-6,8.6c-2.5,2.4-5.4,4.4-8.7,5.7c-6.6,2.8-14.6,2.7-21-0.1c-3.3-1.4-6.2-3.4-8.7-5.9c-2.5-2.5-4.5-5.4-5.9-8.7
		c-1.4-3.3-2.1-6.8-2.1-10.6c0-3.7,0.7-7.3,2.1-10.7c1.4-3.3,3.4-6.3,5.9-8.8c2.5-2.5,5.4-4.5,8.8-5.9c3.3-1.4,6.8-2.1,10.6-2.1
		c3.8,0,7.4,0.7,10.7,2.1c3.4,1.4,6.3,3.4,8.8,5.9c2.5,2.5,4.5,5.5,5.9,8.8c1.4,3.3,2.1,7,2.1,10.6
		C628.5,74.5,627.7,78.2,626.2,81.5z M494.2,40.9c-3.8-3.7-8.1-6.6-12.9-8.7c-4.9-2.2-10.1-3.3-15.7-3.3c0,0,0,0,0,0
		c-5.9,0.2-11.5,1.5-16.5,3.7c-5.1,2.2-9.5,5.2-13.2,8.9c-3.7,3.7-6.7,8.1-8.8,13c-2.1,5-3.2,10.4-3.2,16c0,5.9,1.1,11.5,3.3,16.5
		c2.1,5,5.2,9.4,8.9,13.1c3.8,3.6,8.2,6.5,13.1,8.6c5,2.1,10.4,3.1,16.1,3.1c6.1,0,11.6-0.9,16.3-2.7c4.8-1.8,9.2-4.9,12.9-9
		c1.4-1.4,2-3,2-5c0-1.9-0.7-3.6-2-5c-2.7-2.7-7.3-2.7-9.9,0c-2.5,2.4-5.5,4.4-8.8,5.8c-6.1,2.6-13.7,2.8-20.2,0.3
		c-3.1-1.2-5.8-2.8-8.2-4.8c-2.4-2-4.4-4.5-6.1-7.3c-1.2-2.1-2.2-4.4-2.8-6.8h61.2c1.8,0,3.4-0.7,4.9-1.9c1.2-1,2.4-2.8,2.1-5.8
		c-0.2-5.6-1.5-10.9-3.7-15.8C501,48.8,498,44.5,494.2,40.9z M438.9,63.2c0.6-2.3,1.6-4.5,2.8-6.6c1.6-2.7,3.6-5.1,6-7.1
		c2.4-2,5.1-3.6,8.2-4.8c6-2.3,13.1-2.3,19.1,0c3,1.2,5.7,2.8,8.1,4.7c2.4,2,4.4,4.4,6.1,7.1c1.2,2.1,2.2,4.3,2.8,6.6H438.9z
		 M405,41.4c-3.8-3.7-8.2-6.8-13.1-9c-5-2.2-10.3-3.3-15.8-3.3h0c-6.4,0.2-12.3,1.9-17.6,4.9c-3.7,2.1-7.1,4.6-10.1,7.3V10.5
		c0-1.9-0.7-3.6-2-5c-2.7-2.7-7.2-2.7-10,0c-1.3,1.3-2,3.1-2,5v94.4c0,1.9,0.7,3.6,2,5c2.7,2.7,7.2,2.7,10,0c1.3-1.4,2-3,2-5v-3
		c3,2.6,6.5,4.8,10.2,6.5c5.3,2.3,11,3.5,17.2,3.5c5.8,0,11.3-1.1,16.3-3.3c5-2.1,9.4-5.2,13.2-8.9c3.7-3.7,6.7-8.1,8.8-13.1
		c2.2-5,3.3-10.3,3.3-15.9c0-5.7-1.1-11.1-3.3-16.2C411.8,49.6,408.8,45.1,405,41.4z M401.2,81.3c-1.4,3.3-3.4,6.3-5.9,8.7
		c-2.5,2.5-5.5,4.5-8.8,5.9c-6.6,2.8-14.5,2.9-21.1,0.1c-3.3-1.4-6.2-3.3-8.6-5.6c-2.5-2.4-4.5-5.1-6-8.3c-1.5-3.1-2.3-6.5-2.4-10.1
		v-1.3c0.1-4,0.9-7.7,2.5-11c1.5-3.3,3.5-6.3,6-8.8c2.4-2.4,5.3-4.4,8.6-5.7c3.2-1.4,6.7-2.1,10.4-2.1c3.8,0,7.4,0.7,10.7,2.1
		c3.4,1.4,6.3,3.4,8.8,5.9c2.5,2.5,4.5,5.4,5.9,8.8c1.4,3.4,2.1,7,2.1,10.7C403.4,74.5,402.7,78,401.2,81.3z M516,5.5
		c-1.3,1.3-2.1,3.1-2.1,5v94.4c0,1.9,0.7,3.6,2,5c1.3,1.3,3,2,5,2c1.9,0,3.6-0.7,5-2c1.4-1.4,2.1-3,2.1-5V10.5c0-1.9-0.7-3.6-2.1-5
		C523.2,2.9,518.7,2.9,516,5.5z M540.3,5.5c-1.4,1.4-2,3-2,5v94.4c0,1.9,0.7,3.6,2,5c1.4,1.3,3,2,5,2c1.9,0,3.6-0.7,5-2
		c1.4-1.4,2-3,2-5V10.5c0-1.9-0.7-3.6-2-5C547.5,2.9,543,2.9,540.3,5.5z M315.3,41.2c-3.8-3.7-8.2-6.8-13.1-9
		c-5-2.2-10.3-3.4-15.9-3.4h0c-5.9,0.2-11.4,1.5-16.5,3.7c-5.1,2.2-9.5,5.2-13.2,8.9c-3.7,3.7-6.7,8.1-8.8,13
		c-2.1,5-3.2,10.3-3.2,16c0,5.9,1.1,11.5,3.3,16.5c2.2,5,5.2,9.4,9,13.1c3.8,3.6,8.2,6.5,13.1,8.6c5,2.1,10.4,3.1,16.1,3.1
		c5.8,0,11.3-1.1,16.3-3.3c5-2.2,9.4-5.2,13.2-8.9c3.7-3.8,6.7-8.2,8.8-13.1c2.2-5,3.3-10.3,3.3-15.9c0-5.7-1.1-11.1-3.4-16.2
		C322.1,49.4,319.1,45,315.3,41.2z M311.5,81.2c-1.4,3.3-3.4,6.2-5.9,8.7c-2.5,2.5-5.4,4.5-8.8,5.9c-6.7,2.8-14.8,2.8-21.3,0
		c-3.3-1.4-6.2-3.4-8.8-5.9c-2.5-2.5-4.5-5.4-5.9-8.7c-1.4-3.3-2.1-6.8-2.1-10.6c0-3.8,0.7-7.4,2.1-10.7c1.4-3.3,3.4-6.3,5.9-8.8
		c2.5-2.5,5.4-4.5,8.8-5.9c3.3-1.4,6.8-2.1,10.6-2.1c3.8,0,7.4,0.7,10.7,2.1c3.4,1.4,6.3,3.4,8.8,5.9c2.5,2.5,4.5,5.4,5.9,8.8
		c1.4,3.3,2.1,7,2.1,10.7C313.7,74.3,313,77.9,311.5,81.2z"/>
	<path fill="#00AEEF" d="M635.8,112.5c-2.1,0-3.8-0.7-5.3-2.2c-1.4-1.4-2.2-3.2-2.2-5.3v-4.3c-2.8,2.5-6,4.8-9.5,6.7
		c-5.3,3-11.6,4.6-18.2,4.6c-5.4,0-10.8-1.1-15.7-3.1c-5-2.1-9.5-5-13.3-8.7c-3.8-3.7-6.9-8.1-9.1-13.2c-2.2-5.1-3.3-10.7-3.3-16.7
		c0-5.8,1.1-11.3,3.2-16.4c2.1-5.1,5.1-9.6,8.9-13.4c3.7-3.8,8.2-6.8,13.4-9c5-2.1,10.7-3.3,16.4-3.3c5.7,0,11.4,1.2,16.3,3.4
		c5,2.3,9.5,5.3,13.3,9.1c3.8,3.8,6.8,8.3,9.1,13.3c2.3,5.1,3.4,10.6,3.4,16.3v34.5c0,2.1-0.7,3.8-2.2,5.3
		C639.6,111.8,637.8,112.5,635.8,112.5z M629.2,98.8v6.3c0,1.8,0.6,3.4,1.9,4.7c1.3,1.3,2.8,1.9,4.6,1.9c1.8,0,3.4-0.6,4.7-1.9
		c1.3-1.3,1.9-2.8,1.9-4.6V70.5c0-5.6-1.1-11-3.3-16c-2.2-4.9-5.2-9.3-8.9-13c-3.7-3.7-8.1-6.7-13-8.9c-4.8-2.2-10.4-3.3-16-3.3
		c-5.6,0-11.1,1.1-16,3.2c-5,2.1-9.5,5.1-13.1,8.8c-3.7,3.7-6.6,8.2-8.7,13.2c-2.1,5-3.2,10.4-3.2,16c0,5.9,1.1,11.3,3.2,16.3
		c2.2,5,5.1,9.3,8.9,12.9c3.7,3.6,8.1,6.5,13,8.5c4.8,2,10.1,3,15.4,3c6.4,0,12.5-1.6,17.7-4.5c3.7-2.1,7.1-4.6,10.1-7.3L629.2,98.8
		z M545.2,112.4c-2.1,0-3.8-0.7-5.3-2.2c-1.4-1.4-2.2-3.2-2.2-5.3V10.5c0-2.1,0.7-3.9,2.2-5.3c1.4-1.4,3.3-2.1,5.3-2.1
		c2,0,3.9,0.8,5.3,2.1c1.4,1.4,2.2,3.3,2.2,5.3v94.4c0,2.1-0.7,3.8-2.2,5.3C549.1,111.6,547.3,112.4,545.2,112.4z M545.2,4
		c-1.8,0-3.4,0.7-4.7,1.9c-1.3,1.3-1.9,2.8-1.9,4.7v94.4c0,1.8,0.6,3.4,1.9,4.6c1.3,1.3,2.8,1.9,4.7,1.9c1.8,0,3.4-0.6,4.7-1.9
		c1.3-1.3,1.9-2.8,1.9-4.6V10.5c0-1.8-0.7-3.4-1.9-4.7C548.7,4.6,547,4,545.2,4z M520.9,112.4c-2.1,0-3.8-0.7-5.3-2.2
		c-1.4-1.4-2.2-3.2-2.2-5.3V10.5c0-2,0.8-3.9,2.2-5.3c1.4-1.4,3.2-2.2,5.3-2.2c2,0,3.9,0.8,5.3,2.2c1.4,1.4,2.2,3.2,2.2,5.3v94.4
		c0,2.1-0.7,3.8-2.2,5.3C524.8,111.6,523,112.4,520.9,112.4z M520.9,4c-1.8,0-3.4,0.7-4.6,1.9c-1.3,1.2-1.9,2.9-1.9,4.7v94.4
		c0,1.8,0.6,3.4,1.9,4.6c1.3,1.3,2.8,1.9,4.6,1.9c1.8,0,3.4-0.6,4.7-1.9c1.3-1.3,1.9-2.8,1.9-4.6V10.5c0-1.8-0.7-3.4-1.9-4.7
		C524.4,4.6,522.7,4,520.9,4z M375.8,112.4c-6.2,0-12-1.2-17.4-3.6c-3.5-1.5-6.7-3.5-9.6-5.9v2c0,2.1-0.7,3.8-2.2,5.3
		c-1.4,1.4-3.3,2.2-5.3,2.2c-2,0-3.9-0.8-5.3-2.2c-1.4-1.4-2.2-3.2-2.2-5.3V10.5c0-2,0.8-3.9,2.2-5.3c1.4-1.4,3.3-2.2,5.3-2.2
		c2,0,3.9,0.8,5.3,2.2c1.4,1.4,2.2,3.2,2.2,5.3v29.7c2.8-2.5,6-4.7,9.4-6.7c5.4-3.1,11.3-4.7,17.8-5c5.6,0,11,1.1,16.1,3.4
		c5,2.2,9.5,5.3,13.3,9.1c3.8,3.8,6.8,8.3,9.1,13.3c2.2,5.1,3.4,10.6,3.4,16.3c0,5.7-1.1,11.1-3.3,16.1c-2.2,5-5.2,9.4-8.9,13.2
		c-3.8,3.8-8.2,6.8-13.3,9C387.2,111.2,381.7,112.4,375.8,112.4z M347.9,101l0.7,0.6c3,2.6,6.4,4.7,10.1,6.4
		c5.2,2.3,10.9,3.5,17,3.5c5.8,0,11.2-1.1,16.2-3.2c5-2.1,9.3-5.1,13-8.8c3.7-3.7,6.6-8.1,8.7-13c2.1-4.9,3.2-10.2,3.2-15.7
		c0-5.7-1.1-11-3.3-16c-2.2-4.9-5.2-9.3-8.9-13c-3.7-3.7-8.1-6.7-13-8.9c-4.9-2.2-10.2-3.3-15.7-3.3c-6.3,0.2-12.2,1.9-17.4,4.9
		c-3.7,2.1-7,4.5-10,7.2l-0.7,0.7V10.5c0-1.8-0.7-3.4-1.9-4.7c-1.2-1.2-2.9-1.9-4.7-1.9c-1.8,0-3.4,0.7-4.7,1.9
		c-1.3,1.3-1.9,2.9-1.9,4.6v94.4c0,1.8,0.6,3.4,1.9,4.6c1.2,1.2,2.9,1.9,4.7,1.9c1.8,0,3.4-0.7,4.7-1.9c1.3-1.3,1.9-2.8,1.9-4.6V101
		z M210.7,112.4c-5.7,0-11.2-1.1-16.2-3.1c-5-2.1-9.5-5-13.3-8.7c-3.8-3.7-6.9-8.1-9.1-13.2c-2.2-5.1-3.3-10.7-3.3-16.6
		c0-5.8,1.1-11.2,3.2-16.2c2.1-5,5.1-9.4,8.9-13.2c3.7-3.7,8.2-6.8,13.4-9c5.1-2.2,10.7-3.5,16.7-3.7c3.6,0,6.9,0.4,9.9,1.3
		c2.9,0.8,5.5,1.9,7.9,3.1c2.4,1.2,4.5,2.5,6.3,3.9c1.9,1.4,3.4,2.6,4.5,3.6c0.9,0.8,1.7,2.1,2.4,4c0.5,1.6,0.7,4.1-1.6,6.4
		c-1.4,1.4-3.3,2.1-5.3,2.1c-2,0-3.9-0.8-5.3-2.2c-2.5-2.2-5.4-3.9-8.6-5.3c-6.3-2.7-14.5-2.6-20.9,0.1c-3.2,1.4-6.1,3.3-8.6,5.8
		c-2.5,2.5-4.4,5.4-5.8,8.7c-1.4,3.3-2.1,6.8-2.1,10.5c0,3.7,0.7,7.2,2.1,10.4c1.4,3.2,3.4,6.1,5.8,8.6c2.5,2.4,5.3,4.4,8.6,5.8
		c3.2,1.4,6.8,2.1,10.5,2.1c3.6,0,7.2-0.7,10.3-2c3.2-1.4,6.1-3.3,8.7-5.7c1.3-1.3,3.2-2.1,5.2-2.1c2,0,3.9,0.8,5.3,2.1
		c1.5,1.5,2.2,3.3,2.1,5.5c-0.1,2.1-1,4-2.6,5.6c-1.1,1.1-2.5,2.2-4.3,3.6c-1.8,1.3-4,2.6-6.5,3.8c-2.4,1.1-5.2,2.1-8.3,2.8
		C217.6,112,214.2,112.4,210.7,112.4z M210.9,29.5c-5.8,0.2-11.3,1.4-16.4,3.6c-5,2.2-9.4,5.2-13.1,8.8c-3.6,3.6-6.6,8-8.7,12.9
		c-2.1,4.9-3.1,10.2-3.1,15.9c0,5.9,1.1,11.3,3.2,16.3c2.2,5,5.1,9.3,8.9,12.9c3.7,3.6,8.1,6.5,13,8.5c4.9,2,10.3,3.1,15.9,3.1
		c3.5,0,6.8-0.4,9.8-1.1c3-0.7,5.7-1.7,8.1-2.8c2.5-1.1,4.6-2.4,6.3-3.7c1.8-1.3,3.1-2.4,4.2-3.5c1.5-1.5,2.3-3.1,2.3-5
		c0.1-1.9-0.6-3.5-1.8-4.8c-1.2-1.2-2.9-1.9-4.7-1.9c-1.8,0-3.4,0.7-4.6,1.9c-2.6,2.5-5.6,4.4-8.9,5.8c-3.2,1.4-6.9,2.1-10.7,2.1
		c-3.8,0-7.6-0.7-10.9-2.2c-3.3-1.4-6.3-3.4-8.9-6c-2.5-2.5-4.6-5.5-6-8.9c-1.5-3.3-2.2-7-2.2-10.8c0-3.8,0.7-7.5,2.2-10.9
		c1.4-3.4,3.5-6.4,6-8.9c2.5-2.5,5.5-4.5,8.9-6c6.6-2.8,15-2.8,21.5-0.1c3.3,1.4,6.3,3.2,8.9,5.5c1.3,1.2,2.9,1.9,4.7,1.9
		c1.8,0,3.4-0.7,4.7-1.9c2-2,1.9-4.1,1.4-5.5c-0.6-1.7-1.3-3-2.1-3.7c-1.1-1-2.5-2.1-4.4-3.5c-1.8-1.3-3.9-2.6-6.2-3.8
		c-2.4-1.2-5-2.2-7.8-3C217.6,29.9,214.4,29.5,210.9,29.5z M45.8,112.4c-5.7,0-11.2-1.1-16.2-3.1c-5-2.1-9.5-5-13.3-8.7
		c-3.8-3.7-6.9-8.1-9-13.2C5,82.3,3.9,76.7,3.9,70.7c0-5.7,1.1-11.2,3.2-16.2c2.1-5,5.1-9.4,8.9-13.2c3.7-3.7,8.2-6.8,13.3-9
		c5.1-2.2,10.7-3.5,16.7-3.7c3.6,0,6.9,0.4,9.8,1.3c2.8,0.8,5.5,1.9,8,3.1c2.3,1.2,4.5,2.5,6.3,3.9c1.9,1.5,3.4,2.6,4.4,3.6
		c1,0.8,1.8,2.2,2.4,4.1c0.8,2.4,0.2,4.6-1.6,6.4c-1.4,1.4-3.3,2.1-5.3,2.1c-2,0-3.9-0.8-5.3-2.1c-2.4-2.1-5.3-3.9-8.6-5.3
		C49.8,43,41.6,43,35.3,45.7c-3.3,1.4-6.2,3.4-8.6,5.8c-2.4,2.4-4.4,5.3-5.8,8.6c-1.4,3.3-2.1,6.8-2.1,10.5c0,3.7,0.7,7.2,2.1,10.4
		c1.4,3.3,3.4,6.1,5.8,8.6c2.5,2.4,5.3,4.4,8.6,5.8c6.3,2.7,14.5,2.7,20.9,0.1c3.2-1.4,6.1-3.3,8.6-5.7c1.3-1.3,3.3-2.1,5.2-2.1
		c2,0,3.9,0.8,5.3,2.1c1.5,1.5,2.2,3.3,2.1,5.5c-0.1,2.1-0.9,4-2.6,5.6c-1.1,1.1-2.5,2.3-4.3,3.6c-1.8,1.4-4,2.6-6.5,3.8
		c-2.5,1.2-5.3,2.1-8.3,2.9C52.7,112,49.3,112.4,45.8,112.4z M46,29.5c-5.8,0.2-11.3,1.4-16.4,3.6c-5,2.2-9.4,5.2-13.1,8.8
		c-3.7,3.7-6.6,8-8.7,12.9c-2.1,4.9-3.2,10.3-3.2,15.9C4.7,76.6,5.8,82.1,8,87c2.1,4.9,5.1,9.3,8.8,12.9c3.7,3.6,8.1,6.5,13,8.5
		c4.9,2,10.3,3.1,15.9,3.1c3.5,0,6.8-0.4,9.8-1.1c3-0.7,5.7-1.7,8.1-2.8c2.4-1.1,4.6-2.3,6.3-3.7c1.7-1.3,3.1-2.5,4.2-3.5
		c1.5-1.5,2.3-3.1,2.3-5c0.1-1.9-0.6-3.5-1.8-4.8c-1.2-1.2-2.9-1.9-4.7-1.9c-1.8,0-3.4,0.7-4.6,1.9c-2.6,2.5-5.5,4.4-8.9,5.8
		c-6.5,2.8-15,2.7-21.5-0.1c-3.4-1.4-6.3-3.4-8.9-6c-2.5-2.5-4.5-5.5-6-8.9c-1.4-3.3-2.2-7-2.2-10.8c0-3.8,0.7-7.5,2.2-10.9
		c1.5-3.4,3.5-6.4,6-8.9c2.5-2.5,5.5-4.5,8.9-6c6.6-2.8,15-2.8,21.5-0.1c3.3,1.4,6.3,3.3,8.8,5.5c1.3,1.2,2.9,1.9,4.7,1.9
		c1.8,0,3.4-0.7,4.7-1.9c1.6-1.6,2.1-3.5,1.4-5.5c-0.6-1.7-1.3-3-2.1-3.7c-1.1-1-2.5-2.1-4.4-3.5c-1.8-1.3-3.9-2.6-6.2-3.8
		c-2.4-1.2-5-2.2-7.8-3C52.7,29.9,49.5,29.5,46,29.5z M465.3,112.2c-5.8,0-11.2-1-16.2-3.1c-5-2.1-9.5-5-13.3-8.7
		c-3.8-3.7-6.9-8.2-9-13.2c-2.2-5.1-3.3-10.7-3.3-16.7c0-5.8,1.1-11.2,3.2-16.2c2.1-5,5.1-9.4,8.9-13.2c3.7-3.7,8.2-6.8,13.3-9
		c5.1-2.2,10.7-3.5,16.7-3.7c5.6,0,11,1.1,15.9,3.3c4.9,2.2,9.2,5.1,13.1,8.8c3.8,3.7,6.9,8,9.1,13c2.2,5,3.5,10.4,3.7,15.9
		c0.4,3.4-1.2,5.3-2.2,6.2c-1.6,1.4-3.3,2-5.2,2h-60.7c0.6,2.1,1.4,4.2,2.6,6.2c1.6,2.7,3.6,5.2,6,7.2c2.3,2,5,3.6,8.1,4.7
		c6.2,2.4,13.9,2.2,19.9-0.3c3.2-1.4,6.1-3.3,8.6-5.7c1.3-1.3,3.3-2.1,5.2-2.1c2,0,3.9,0.8,5.3,2.1c1.4,1.5,2.2,3.2,2.2,5.3
		c0,2.1-0.7,3.8-2.2,5.3c-3.8,4.2-8.2,7.3-13.1,9.1C477,111.3,471.5,112.2,465.3,112.2z M465.6,29.3c-5.8,0.2-11.4,1.4-16.4,3.6
		c-5,2.2-9.4,5.2-13.1,8.8c-3.7,3.7-6.6,8-8.7,12.9c-2.1,4.9-3.2,10.2-3.2,15.9c0,5.8,1.1,11.3,3.2,16.3c2.1,4.9,5.1,9.3,8.8,12.9
		c3.7,3.6,8.1,6.5,13,8.5c4.9,2,10.2,3.1,15.9,3.1c6.1,0,11.5-0.9,16.2-2.6c4.7-1.8,9-4.8,12.7-8.9c1.3-1.3,1.9-2.9,1.9-4.7
		c0-1.8-0.6-3.4-1.9-4.7c-1.2-1.2-2.9-1.9-4.7-1.9c-1.8,0-3.4,0.7-4.6,1.9c-2.6,2.5-5.6,4.4-8.9,5.9c-6.2,2.6-14.2,2.7-20.5,0.3
		c-3.1-1.2-5.9-2.8-8.3-4.9c-2.5-2.1-4.5-4.6-6.2-7.4c-1.3-2.2-2.2-4.5-2.8-6.9l-0.1-0.5h61.8c1.7,0,3.2-0.6,4.6-1.8
		c1.1-0.9,2.3-2.6,1.9-5.4c-0.2-5.5-1.5-10.8-3.7-15.7c-2.2-4.9-5.2-9.1-8.9-12.7c-3.7-3.6-8-6.5-12.8-8.6
		C476.3,30.4,471.1,29.3,465.6,29.3z M286.1,112.2c-5.8,0-11.2-1-16.2-3.1c-5-2.1-9.5-5-13.3-8.7c-3.8-3.7-6.9-8.1-9.1-13.2
		c-2.2-5.1-3.3-10.7-3.3-16.7c0-5.7,1.1-11.2,3.2-16.2c2.1-5,5.1-9.4,8.9-13.2c3.7-3.7,8.2-6.8,13.3-9c5.1-2.2,10.7-3.5,16.7-3.7
		c5.6,0,11,1.1,16.1,3.4c5,2.2,9.5,5.3,13.2,9.1c3.8,3.8,6.9,8.3,9.1,13.3c2.3,5.1,3.4,10.6,3.4,16.3c0,5.7-1.1,11.1-3.3,16.1
		c-2.2,5-5.2,9.4-8.9,13.2c-3.8,3.8-8.3,6.8-13.3,9C297.5,111.1,292,112.2,286.1,112.2z M286.4,29.3c-5.8,0.2-11.3,1.4-16.4,3.6
		c-5,2.2-9.4,5.2-13.1,8.8c-3.7,3.7-6.6,8-8.7,12.9c-2.1,4.9-3.2,10.2-3.2,15.9c0,5.9,1.1,11.3,3.2,16.3c2.1,5,5.1,9.3,8.9,12.9
		c3.7,3.6,8.1,6.5,13,8.5c4.9,2,10.2,3.1,15.9,3.1c5.7,0,11.2-1.1,16.2-3.2c4.9-2.1,9.3-5.1,13-8.8c3.7-3.7,6.6-8.1,8.7-13
		c2.2-4.9,3.2-10.2,3.2-15.7c0-5.6-1.1-11-3.3-16c-2.2-4.9-5.2-9.3-8.9-13c-3.7-3.7-8.1-6.7-13-8.9
		C297.1,30.4,291.9,29.3,286.4,29.3z M121.8,112.2c-5.8,0-11.2-1-16.2-3.1c-5-2.1-9.5-5-13.3-8.7c-3.8-3.7-6.9-8.2-9.1-13.2
		c-2.2-5.1-3.3-10.7-3.3-16.7c0-5.8,1.1-11.2,3.2-16.2c2.1-5,5.1-9.4,8.9-13.2c3.7-3.7,8.2-6.8,13.4-9c5.1-2.2,10.7-3.5,16.7-3.7
		c5.6,0,11,1.1,16,3.4c5,2.2,9.5,5.3,13.3,9.1c3.8,3.8,6.9,8.3,9.1,13.3c2.3,5.1,3.4,10.6,3.4,16.3c0,5.6-1.1,11-3.3,16.1
		c-2.2,5-5.2,9.4-8.9,13.2c-3.8,3.8-8.2,6.9-13.3,9C133.2,111.1,127.7,112.2,121.8,112.2z M122.1,29.3c-5.8,0.2-11.3,1.4-16.4,3.6
		c-5,2.2-9.4,5.1-13.1,8.8c-3.7,3.7-6.6,8-8.7,12.9c-2.1,4.9-3.2,10.2-3.2,15.9c0,5.9,1.1,11.4,3.2,16.3c2.1,4.9,5.1,9.3,8.8,12.9
		c3.7,3.6,8.1,6.5,13,8.5c4.9,2,10.2,3.1,15.9,3.1c5.8,0,11.2-1.1,16.1-3.2c5-2.1,9.3-5.1,13-8.8c3.7-3.7,6.6-8.1,8.8-13
		c2.1-4.9,3.2-10.2,3.2-15.7c0-5.6-1.1-11-3.3-16c-2.2-4.9-5.2-9.3-8.9-13c-3.7-3.7-8.1-6.7-13-8.9
		C132.8,30.4,127.6,29.3,122.1,29.3z M375.8,98.5c-3.7,0-7.4-0.7-10.6-2.1c-3.3-1.4-6.3-3.3-8.7-5.7c-2.5-2.4-4.5-5.2-6.1-8.4
		c-1.5-3.2-2.4-6.6-2.5-10.3v-1.3c0.1-4.1,1-7.8,2.5-11.2c1.6-3.4,3.6-6.4,6.1-8.9c2.5-2.5,5.4-4.4,8.7-5.8
		c3.3-1.4,6.8-2.1,10.6-2.1c3.8,0,7.5,0.7,10.9,2.2c3.4,1.5,6.4,3.5,8.9,6c2.5,2.5,4.6,5.5,6,8.9c1.4,3.4,2.2,7,2.2,10.9
		c0,3.8-0.7,7.4-2.2,10.8c-1.5,3.4-3.5,6.3-6,8.9c-2.5,2.5-5.5,4.5-8.9,6C383.4,97.8,379.6,98.5,375.8,98.5z M375.8,43.6
		c-3.6,0-7,0.7-10.2,2c-3.2,1.3-6,3.2-8.4,5.6c-2.4,2.4-4.4,5.3-5.9,8.6c-1.5,3.3-2.3,6.9-2.4,10.9V72c0.1,3.5,0.9,6.9,2.4,9.9
		c1.5,3.1,3.5,5.8,5.9,8.2c2.4,2.3,5.3,4.1,8.5,5.5c6.3,2.7,14.4,2.6,20.8-0.1c3.3-1.4,6.2-3.4,8.7-5.8c2.4-2.4,4.4-5.3,5.8-8.6
		c1.4-3.2,2.1-6.7,2.1-10.4c0-3.7-0.7-7.3-2.1-10.5c-1.4-3.3-3.4-6.2-5.8-8.6c-2.4-2.4-5.3-4.4-8.7-5.8
		C383,44.4,379.5,43.6,375.8,43.6z M286.1,98.3c-3.8,0-7.5-0.7-10.8-2.2c-3.3-1.4-6.3-3.4-8.9-6c-2.5-2.5-4.5-5.5-6-8.9
		c-1.4-3.3-2.2-7-2.2-10.8c0-3.8,0.7-7.5,2.2-10.9c1.4-3.4,3.5-6.4,6-8.9c2.6-2.5,5.6-4.6,8.9-6c3.3-1.4,7-2.2,10.8-2.2
		c3.8,0,7.5,0.7,10.9,2.2c3.4,1.4,6.4,3.4,8.9,6c2.5,2.6,4.6,5.6,6,8.9c1.5,3.4,2.2,7.1,2.2,10.9c0,3.8-0.7,7.4-2.2,10.8
		c-1.5,3.4-3.5,6.4-6,8.9c-2.5,2.5-5.5,4.5-8.9,6C293.7,97.6,289.9,98.3,286.1,98.3z M286.1,43.5c-3.7,0-7.2,0.7-10.4,2.1
		c-3.2,1.4-6.1,3.3-8.6,5.8c-2.4,2.5-4.4,5.4-5.8,8.6c-1.4,3.3-2.1,6.8-2.1,10.5c0,3.7,0.7,7.2,2.1,10.4c1.4,3.2,3.3,6.1,5.8,8.6
		c2.5,2.5,5.4,4.4,8.6,5.8c6.4,2.7,14.5,2.7,21,0c3.3-1.4,6.2-3.3,8.6-5.8c2.4-2.4,4.4-5.3,5.8-8.6c1.4-3.2,2.1-6.7,2.1-10.4
		c0-3.7-0.7-7.2-2.1-10.5c-1.4-3.3-3.4-6.2-5.8-8.7c-2.5-2.4-5.4-4.4-8.6-5.8C293.4,44.2,289.8,43.5,286.1,43.5z M121.8,98.3
		c-3.8,0-7.5-0.8-10.8-2.2c-3.4-1.5-6.4-3.5-8.9-6c-2.5-2.5-4.5-5.5-6-8.9c-1.5-3.3-2.2-7-2.2-10.8c0-3.8,0.7-7.4,2.2-10.9
		c1.4-3.4,3.5-6.4,6-8.9c2.5-2.5,5.5-4.5,8.9-6c3.3-1.4,7-2.2,10.8-2.2c3.8,0,7.5,0.7,10.9,2.2c3.4,1.4,6.4,3.4,8.9,6
		c2.5,2.5,4.5,5.5,6,8.9c1.4,3.4,2.2,7.1,2.2,10.9c0,3.8-0.7,7.5-2.2,10.8c-1.5,3.4-3.5,6.3-6,8.9c-2.5,2.5-5.6,4.5-8.9,6
		C129.4,97.6,125.6,98.3,121.8,98.3z M121.8,43.5c-3.7,0-7.2,0.7-10.5,2.1c-3.3,1.4-6.2,3.4-8.6,5.8c-2.4,2.4-4.4,5.4-5.8,8.7
		c-1.4,3.3-2.1,6.8-2.1,10.5c0,3.7,0.7,7.2,2.1,10.4c1.4,3.3,3.4,6.2,5.8,8.6c2.4,2.4,5.3,4.4,8.6,5.8c6.4,2.7,14.5,2.7,21,0
		c3.3-1.4,6.2-3.3,8.7-5.8c2.4-2.4,4.4-5.3,5.8-8.6c1.4-3.2,2.1-6.7,2.1-10.4c0-3.7-0.7-7.2-2.1-10.5c-1.4-3.3-3.3-6.2-5.8-8.7
		c-2.5-2.5-5.4-4.4-8.7-5.8C129.1,44.2,125.5,43.5,121.8,43.5z M601.1,98.3c-3.8,0-7.5-0.8-10.8-2.2c-3.4-1.4-6.3-3.5-8.9-6
		c-2.5-2.5-4.5-5.5-6-8.9c-1.4-3.4-2.2-7-2.2-10.8c0-3.8,0.7-7.5,2.2-10.9c1.4-3.4,3.5-6.4,6-8.9c2.6-2.5,5.6-4.5,8.9-6
		c3.3-1.4,6.9-2.2,10.8-2.2c3.8,0,7.5,0.7,10.9,2.2c3.4,1.4,6.4,3.4,9,6c2.6,2.5,4.5,5.6,6,8.9c1.4,3.4,2.2,7,2.2,10.8
		c-0.2,4.1-1.1,7.8-2.6,11.2c-1.5,3.4-3.6,6.3-6.1,8.8c-2.5,2.5-5.5,4.4-8.8,5.8C608.5,97.6,604.8,98.3,601.1,98.3z M601.2,43.5
		c-3.7,0-7.2,0.7-10.4,2.1c-3.2,1.4-6.1,3.3-8.6,5.8c-2.5,2.5-4.4,5.4-5.8,8.6c-1.4,3.3-2.1,6.8-2.1,10.5c0,3.7,0.7,7.2,2.1,10.4
		c1.4,3.3,3.4,6.1,5.8,8.6c2.5,2.5,5.4,4.4,8.6,5.8c6.3,2.7,14.4,2.7,20.7,0.1c3.2-1.4,6.1-3.3,8.5-5.7c2.4-2.4,4.4-5.2,5.9-8.5
		c1.5-3.3,2.3-6.9,2.5-10.9c0-3.6-0.7-7.1-2.1-10.4c-1.4-3.3-3.3-6.2-5.8-8.7c-2.4-2.4-5.4-4.4-8.7-5.8
		C608.4,44.2,604.9,43.5,601.2,43.5z M492.5,63.7h-54.2l0.2-0.6c0.7-2.3,1.6-4.6,2.8-6.7c1.6-2.8,3.6-5.2,6.1-7.2
		c2.4-2,5.2-3.6,8.3-4.8c6-2.3,13.4-2.3,19.4,0c3,1.2,5.8,2.8,8.3,4.8c2.4,2,4.5,4.5,6.2,7.2c1.2,2.1,2.2,4.3,2.9,6.7L492.5,63.7z
		 M439.5,62.8h51.8c-0.6-2.1-1.5-4-2.6-5.9c-1.6-2.7-3.6-5-6-7c-2.4-1.9-5.1-3.5-8-4.7c-5.8-2.3-13-2.3-18.8,0c-3,1.1-5.7,2.7-8,4.7
		c-2.3,1.9-4.3,4.3-5.9,7C441,58.7,440.1,60.7,439.5,62.8z"/>
</g>
</svg>
