<?xml version="1.0" standalone="no"?>
<!DOCTYPE svg PUBLIC "-//W3C//DTD SVG 1.1//EN" "http://www.w3.org/Graphics/SVG/1.1/DTD/svg11.dtd" >
<svg xmlns="http://www.w3.org/2000/svg">
<metadata></metadata>
<defs>
<font id="gilroymedium_italic" horiz-adv-x="497" >
<font-face units-per-em="2048" ascent="1638" descent="-410" />
<missing-glyph horiz-adv-x="512" />
<glyph unicode="&#xfb01;" horiz-adv-x="1085" d="M109 852l30 172h164l6 31q36 210 166 307.5t354 97.5q85 0 205 -26l-28 -162q-91 16 -197 16q-142 0 -221 -53.5t-101 -179.5l-6 -31h557l-180 -1024h-178l149 852h-376l-152 -852h-178l151 852h-165z" />
<glyph unicode="&#xfb02;" horiz-adv-x="1085" d="M109 852l30 172h164l6 31q36 210 166 307.5t354 97.5q124 0 281 -30l-252 -1430h-178l227 1296q-74 4 -106 4q-137 0 -213.5 -57t-100.5 -188l-6 -31h213l-28 -172h-213l-152 -852h-178l151 852h-165z" />
<glyph horiz-adv-x="0" />
<glyph horiz-adv-x="682" />
<glyph unicode=" "  horiz-adv-x="512" />
<glyph unicode="&#x09;" horiz-adv-x="512" />
<glyph unicode="&#xa0;" horiz-adv-x="512" />
<glyph unicode="!" d="M45 113q9 57 52.5 94t103.5 37q56 0 88 -40t22 -95q-11 -57 -53.5 -94.5t-103.5 -37.5q-55 0 -86.5 40t-22.5 96zM164 420l67 604l72 410h215l-72 -410l-143 -604h-139z" />
<glyph unicode="&#x22;" horiz-adv-x="681" d="M209 1004l51 430h178l-100 -430h-129zM516 1004l51 430h178l-100 -430h-129z" />
<glyph unicode="#" horiz-adv-x="1239" d="M47 457l51 147h238l78 225h-242l51 150h242l121 352h157l-120 -352h249l121 352h156l-121 -352h236l-52 -150h-235l-78 -225h240l-52 -147h-239l-121 -355h-156l121 355h-250l-120 -355h-158l121 355h-238zM494 604h249l78 225h-250z" />
<glyph unicode="$" horiz-adv-x="1148" d="M33 291l172 86q57 -186 266 -215l86 491q-31 14 -53 24.5t-52.5 26t-52 30t-47.5 33.5t-43.5 38.5t-36 43.5t-28.5 50.5t-17 57t-6 65.5t8 74q18 90 66.5 161.5t115 114t140 65t149.5 23.5l31 178h129l-33 -190q224 -50 316 -266l-170 -84q-66 132 -178 166l-84 -476 q138 -59 196 -100q182 -126 140 -344q-22 -115 -94 -198.5t-170.5 -125t-217.5 -47.5l-30 -178h-129l32 185q-155 19 -259 100t-146 211zM420 1079q-9 -44 0.5 -80.5t36.5 -64.5t57.5 -48t75.5 -42l78 430q-88 -6 -158.5 -58t-89.5 -137zM600 162q100 12 168.5 66.5 t87.5 138.5q10 46 0 83t-38.5 64.5t-60 47t-79.5 40.5z" />
<glyph unicode="%" horiz-adv-x="1492" d="M152 205l1138 1065l99 -60l-1141 -1067zM225 1147q22 132 127.5 222.5t251.5 90.5q139 0 216 -99.5t52 -232.5q-26 -130 -128 -216.5t-246 -86.5q-137 0 -216 96t-57 226zM385 1143q-12 -72 25.5 -120t109.5 -48q71 0 126 49t67 119t-25 118t-108 48q-72 0 -127.5 -48 t-67.5 -118zM694 301q22 131 127 220t250 89q137 0 214.5 -98t53.5 -229t-127.5 -219.5t-246.5 -88.5q-139 0 -217 97.5t-54 228.5zM854 293q-12 -71 24.5 -118.5t108.5 -47.5t126.5 48t66.5 118q12 71 -24.5 118.5t-108.5 47.5q-73 0 -127.5 -48t-65.5 -118z" />
<glyph unicode="&#x26;" horiz-adv-x="1372" d="M96 414q48 258 344 395q-76 134 -51 281q29 168 157.5 269t309.5 101q153 0 262 -78t154 -215l-170 -90q-26 93 -94.5 146t-161.5 53q-63 0 -119 -23t-97 -72t-52 -116q-20 -122 84 -260l307 -402q74 107 127 259l151 -97q-68 -177 -170 -305l164 -215l-162 -84l-129 170 q-193 -158 -438 -158q-220 0 -336.5 123t-79.5 318zM287 408q-20 -116 48 -185t204 -69q171 0 307 114l-309 406q-215 -85 -250 -266z" />
<glyph unicode="'" horiz-adv-x="374" d="M209 1004l51 430h178l-100 -430h-129z" />
<glyph unicode="(" horiz-adv-x="573" d="M158 731q80 462 385 907h178q-305 -449 -387 -921q-82 -474 61 -922h-178q-144 446 -59 936z" />
<glyph unicode=")" horiz-adv-x="571" d="M-76 -205q305 448 387 922t-61 921h178q144 -446 59 -936q-80 -462 -385 -907h-178z" />
<glyph unicode="*" horiz-adv-x="808" d="M225 1118l23 131l184 -10l-82 152l123 69l62 -168l122 168l109 -69l-133 -152l186 10l-22 -131l-185 8l82 -149l-121 -70l-63 168l-121 -168l-110 70l133 149z" />
<glyph unicode="+" horiz-adv-x="1116" d="M139 633l29 170h356l64 354h170l-64 -354h355l-29 -170h-354l-64 -357h-170l64 357h-357z" />
<glyph unicode="," horiz-adv-x="518" d="M-27 -287l170 498h205l-221 -498h-154z" />
<glyph unicode="-" horiz-adv-x="1054" d="M160 543l28 172h748l-29 -172h-747z" />
<glyph unicode="." d="M45 113q9 57 52.5 94t103.5 37q56 0 88 -40t22 -95q-11 -57 -53.5 -94.5t-103.5 -37.5q-55 0 -86.5 40t-22.5 96z" />
<glyph unicode="/" horiz-adv-x="1081" d="M-51 -205l1138 1843h115l-1136 -1843h-117z" />
<glyph unicode="0" horiz-adv-x="1294" d="M116.5 429.5q-16.5 139.5 14.5 305.5q60 339 235 532t443 193q128 0 223.5 -56.5t148.5 -157.5t69 -240.5t-15 -305.5q-60 -340 -234.5 -533.5t-443.5 -193.5q-127 0 -222.5 57t-148.5 158.5t-69.5 241zM322 717q-47 -267 21 -412t243 -145q173 0 293.5 145t167.5 412 t-22.5 413t-242.5 146t-293.5 -146t-166.5 -413z" />
<glyph unicode="1" horiz-adv-x="729" d="M168 1303l401 131h164l-252 -1434h-190l215 1227v-4l-320 -90z" />
<glyph unicode="2" horiz-adv-x="1079" d="M-16 0l26 156l598 516q112 94 180 178.5t84 169.5q22 120 -40 188t-168 68q-191 0 -322 -195l-152 97q93 139 222 210.5t274 71.5q86 0 161.5 -31.5t130 -88.5t78 -144t5.5 -190q-21 -125 -102 -230t-224 -227l-432 -365h639l-31 -184h-927z" />
<glyph unicode="3" horiz-adv-x="1095" d="M12 264l168 92q49 -196 285 -196q133 0 229 70t119 194q21 126 -50 196t-204 70h-49l-57 121l397 444h-621l29 179h860l-26 -168l-381 -424q150 -36 234.5 -150.5t55.5 -281.5q-37 -208 -195.5 -322.5t-363.5 -114.5q-161 0 -276 75t-154 216z" />
<glyph unicode="4" horiz-adv-x="1173" d="M8 272l29 179l684 983h215l-684 -983h516l72 405h190l-72 -405h175l-29 -179h-176l-47 -272h-191l47 272h-729z" />
<glyph unicode="5" horiz-adv-x="1118" d="M31 281l172 90q20 -104 95.5 -157.5t193.5 -53.5q133 0 228 70t118 194q21 126 -49 196t-203 70h-404l183 744h784l-31 -179h-606l-94 -381h205q88 0 168.5 -32t139.5 -89.5t86 -147t9 -195.5q-37 -209 -192.5 -323t-362.5 -114q-165 0 -283 79t-157 229z" />
<glyph unicode="6" horiz-adv-x="1101" d="M49 471q35 188 160 307l553 656h229l-422 -498q16 2 52 2q211 0 330 -142t81 -354q-38 -214 -193 -341.5t-378 -127.5q-214 0 -332 142.5t-80 355.5zM240 457q-25 -136 42.5 -218.5t204.5 -82.5t234.5 82.5t122.5 218.5q23 135 -45.5 217t-204.5 82q-138 0 -234.5 -81.5 t-119.5 -217.5z" />
<glyph unicode="7" horiz-adv-x="1003" d="M121 0l729 1253h-682l31 181h895l-29 -170l-735 -1264h-209z" />
<glyph unicode="8" horiz-adv-x="1138" d="M57 408q20 116 95 203.5t190 138.5q-73 54 -107 135t-16 182q18 99 68.5 176.5t121.5 123.5t153.5 69.5t170.5 23.5q82 0 156 -27.5t129.5 -78t80.5 -132t7 -180.5q-18 -104 -79 -181.5t-153 -125.5q95 -57 139.5 -150t24.5 -206q-36 -196 -188 -301t-373 -105 q-133 0 -236.5 52t-155.5 152.5t-28 230.5zM248 406q-21 -120 52.5 -185t205.5 -65q135 0 229 64.5t117 185.5q19 118 -55.5 182.5t-202.5 64.5q-133 0 -229 -64t-117 -183zM408 1051q-18 -108 47 -169t168 -61q110 0 192 60.5t100 169.5q20 113 -42 170t-168 57 q-69 0 -129 -22.5t-107 -75.5t-61 -129z" />
<glyph unicode="9" horiz-adv-x="1105" d="M141 995q37 213 193.5 339t380.5 126q141 0 244 -65t148 -179t21 -255q-29 -172 -147 -293l-563 -668h-230l422 500q-18 -2 -55 -2q-139 0 -242.5 64.5t-149.5 178.5t-22 254zM332 979q-25 -136 44 -218.5t206 -82.5t235 82.5t121 218.5q25 136 -44 217.5t-206 81.5 t-235 -82t-121 -217z" />
<glyph unicode=":" d="M45 113q9 57 52.5 94t103.5 37q56 0 88 -40t22 -95q-11 -57 -53.5 -94.5t-103.5 -37.5q-55 0 -86.5 40t-22.5 96zM186 918q9 57 52.5 94t103.5 37q56 0 88.5 -40.5t22.5 -95.5q-11 -57 -54 -94t-104 -37q-55 0 -86.5 40t-22.5 96z" />
<glyph unicode=";" horiz-adv-x="526" d="M-27 -287l170 498h205l-221 -498h-154zM217 918q9 57 52.5 94t103.5 37q55 0 88 -40t22 -96q-11 -57 -53.5 -94t-103.5 -37q-55 0 -86.5 40t-22.5 96z" />
<glyph unicode="&#x3c;" horiz-adv-x="1071" d="M135 631l15 86l14 88l911 369l-37 -203l-686 -264l594 -263l-33 -182z" />
<glyph unicode="=" horiz-adv-x="1095" d="M96 424l33 170h868l-30 -170h-871zM172 840l29 170h870l-31 -170h-868z" />
<glyph unicode="&#x3e;" horiz-adv-x="1071" d="M70 262l36 203l687 262l-594 264l30 183l779 -369l-15 -88l-16 -86z" />
<glyph unicode="?" horiz-adv-x="1101" d="M207 1167q74 144 209 218.5t293 74.5q83 0 157 -27t128 -76.5t78.5 -127t8.5 -170.5q-11 -64 -42 -120.5t-71.5 -99t-87.5 -82t-94 -76.5t-87 -75t-69 -85.5t-38 -100.5h-189q12 69 43 129.5t71.5 105t87.5 85t94 77t86.5 73t68 81.5t37.5 94q18 103 -41.5 157t-169.5 54 q-100 0 -182.5 -52t-132.5 -153zM311 113q9 57 52.5 94t103.5 37q56 0 88.5 -40t22.5 -95q-11 -57 -54 -94.5t-104 -37.5q-55 0 -86.5 40t-22.5 96z" />
<glyph unicode="@" horiz-adv-x="1617" d="M80 532q27 151 107.5 285t195.5 229.5t263.5 151t305.5 55.5q92 0 175 -21.5t146 -60.5t116 -92t86 -116t55 -133t23 -143t-9 -146q-19 -112 -58.5 -196.5t-91.5 -133t-109.5 -72.5t-119.5 -24q-84 0 -141.5 43.5t-69.5 124.5q-101 -101 -237 -101q-135 0 -212 100 t-52 240t129 230t243 90q123 0 197 -103l14 86h158l-80 -452q-31 -180 96 -180q90 0 163.5 88.5t105.5 271.5q31 178 -28 325t-192.5 230.5t-314.5 83.5q-141 0 -275.5 -51t-240.5 -139.5t-181 -214.5t-100 -269q-26 -145 5.5 -272.5t110 -218t202.5 -143t276 -52.5 q207 0 359 57l-13 -65q-151 -53 -356 -53q-219 0 -381.5 100t-234.5 274.5t-35 386.5zM610 512q-13 -82 31.5 -132t122.5 -50q77 0 139.5 50.5t77.5 131.5q13 81 -31 131.5t-121 50.5q-79 0 -141.5 -50.5t-77.5 -131.5z" />
<glyph unicode="A" horiz-adv-x="1316" d="M-76 0l789 1434h215l282 -1434h-200l-58 322h-645l-176 -322h-207zM403 500h517l-129 710z" />
<glyph unicode="B" horiz-adv-x="1259" d="M63 0l252 1434h545q175 0 281 -117q85 -94 85 -221q0 -31 -5 -64q-15 -94 -69 -170t-136 -123q86 -51 127 -141q29 -63 29 -138q0 -31 -5 -65q-26 -169 -159 -282t-330 -113h-615zM285 178h417q103 0 182 68t97 166q3 21 3 41q0 71 -42 123q-54 67 -149 67h-426zM397 817 h381q91 0 164 63.5t90 155.5q3 20 3 39q0 66 -40 116q-52 64 -147 64h-373z" />
<glyph unicode="C" horiz-adv-x="1515" d="M117 737q35 206 158 371.5t303.5 258.5t382.5 93q209 0 359 -94t224 -258l-170 -90q-120 258 -424 258q-243 0 -425 -160t-222 -399q-10 -59 -10 -112q0 -167 96 -287q127 -158 365 -158q155 0 285.5 69t217.5 195l158 -100q-117 -162 -296 -256.5t-382 -94.5 q-162 0 -293 62t-210 166q-80 103 -112 243q-17 76 -17 156q0 67 12 137z" />
<glyph unicode="D" horiz-adv-x="1474" d="M63 0l252 1434h559q140 0 257 -60t191 -160t104 -236q16 -73 16 -149q0 -65 -12 -133q-35 -197 -148 -355.5t-286 -249.5t-373 -91h-560zM285 180h364q222 0 390 154.5t208 384.5q10 58 10 111q1 86 -25 162q-40 122 -141.5 191.5t-246.5 69.5h-369z" />
<glyph unicode="E" horiz-adv-x="1085" d="M63 0l252 1434h846l-31 -181h-655l-78 -440h604l-32 -178h-604l-80 -455h665l-30 -180h-857z" />
<glyph unicode="F" horiz-adv-x="1056" d="M63 0l252 1434h826l-33 -181h-633l-82 -465h608l-32 -180h-609l-106 -608h-191z" />
<glyph unicode="G" horiz-adv-x="1615" d="M107 542q-4 34 -4 68q0 66 14 135q37 204 159 367t304 255.5t389 92.5q210 0 361 -94t231 -260l-170 -90q-133 260 -435 260q-164 0 -304 -72.5t-231 -198.5t-118 -284q-9 -55 -9 -107q0 -58 12 -112q22 -103 81 -179t158 -119.5t227 -43.5q215 0 365.5 105t208.5 274 h-523l31 172h719l-14 -84q-24 -139 -93 -259t-171.5 -207.5t-241 -137.5t-293.5 -50q-112 0 -211.5 28t-175 79t-134 122t-90 157t-42.5 183z" />
<glyph unicode="H" horiz-adv-x="1382" d="M63 0l252 1434h191l-107 -609h697l106 609h189l-252 -1434h-189l113 645h-696l-113 -645h-191z" />
<glyph unicode="I" d="M63 0l252 1434h191l-252 -1434h-191z" />
<glyph unicode="J" horiz-adv-x="1140" d="M29 238l172 92q52 -170 264 -170q136 0 224.5 65t111.5 195l178 1014h190l-178 -1018q-21 -115 -73 -202t-125.5 -139t-160 -77t-183.5 -25q-158 0 -266.5 67t-153.5 198z" />
<glyph unicode="K" horiz-adv-x="1208" d="M63 0l252 1434h191l-113 -646l711 646h242l-771 -707l529 -727h-213l-512 705l-125 -705h-191z" />
<glyph unicode="L" horiz-adv-x="999" d="M63 0l252 1434h191l-221 -1254h620l-33 -180h-809z" />
<glyph unicode="M" horiz-adv-x="1648" d="M63 0l252 1434h209l316 -766l594 766h223l-252 -1434h-188l196 1114l-604 -774h-25l-331 793l-199 -1133h-191z" />
<glyph unicode="N" horiz-adv-x="1388" d="M63 0l252 1434h146l559 -1076l186 1076h191l-252 -1434h-146l-557 1075l-188 -1075h-191z" />
<glyph unicode="O" horiz-adv-x="1644" d="M117 737q27 153 105 287t191 230t260 151t306 55q153 0 282 -63t211 -167q82 -105 118 -247q20 -81 21 -165q0 -64 -12 -130q-37 -204 -159 -367t-307 -255.5t-400 -92.5q-203 0 -359 105q-154 104 -224 280q-45 115 -46 241q0 67 13 138zM305 717q-10 -55 -10 -107 q0 -94 32 -176q49 -128 163 -201t270 -73q120 0 231 42t195.5 115t143.5 174.5t79 217.5q10 55 10 107q-1 95 -33 179q-50 130 -165 205.5t-273 75.5q-239 0 -420 -160t-223 -399z" />
<glyph unicode="P" horiz-adv-x="1206" d="M63 0l252 1434h506q209 0 319 -133q85 -102 85 -244q0 -42 -8 -88q-32 -200 -185 -328.5t-391 -128.5h-297l-90 -512h-191zM375 690h287q150 0 247.5 84t120.5 215q6 32 6 60q0 81 -46 134q-62 72 -193 72h-322z" />
<glyph unicode="Q" horiz-adv-x="1654" d="M117 737q36 205 158.5 370t307.5 259t396 94q153 0 282 -63t211.5 -167.5t117.5 -246.5q21 -81 21 -165q0 -64 -12 -130q-26 -148 -99.5 -276.5t-184.5 -223.5l115 -141l-140 -115l-125 152q-201 -111 -432 -111q-151 0 -279.5 62t-211.5 165t-118 244q-19 78 -19 160 q0 65 12 133zM305 717q-10 -55 -10 -107q0 -93 32 -176q49 -127 163 -200.5t270 -73.5q155 0 289 67l-240 293l141 113l250 -305q168 156 209 381q10 55 10 107q0 95 -33 179q-49 130 -164.5 205.5t-273.5 75.5q-239 0 -420 -160t-223 -399z" />
<glyph unicode="R" horiz-adv-x="1251" d="M63 0l252 1434h570q117 0 210.5 -64.5t137.5 -172.5q29 -72 30 -149q0 -39 -8 -79q-26 -145 -124.5 -251.5t-239.5 -146.5l233 -571h-196l-221 549h-357l-96 -549h-191zM381 721h383q109 0 197.5 78.5t107.5 189.5q6 28 6 54q0 76 -48 134q-64 78 -173 78h-379z" />
<glyph unicode="S" horiz-adv-x="1198" d="M39 326l168 88q26 -121 113.5 -188.5t238.5 -67.5q138 0 228 56.5t110 152.5q6 25 6 47q-1 30 -11 55q-18 44 -69.5 77t-96 51.5t-126.5 45.5q-33 12 -60.5 22.5t-60 25t-58.5 29.5t-53.5 33t-48.5 39t-40 45t-31 52t-19.5 59.5t-7.5 68.5t8 77q18 92 68 164t119.5 115 t148.5 65t162 22q177 0 292.5 -85.5t164.5 -225.5l-168 -86q-77 213 -303 213q-107 0 -189.5 -52.5t-103.5 -144.5q-5 -24 -5 -46q-1 -30 9 -55q16 -44 66.5 -77.5t94.5 -53t124 -48.5q73 -26 116 -43.5t108.5 -57.5t99 -83t51.5 -113q10 -38 11 -80q0 -36 -8 -76 q-24 -121 -102.5 -206.5t-189.5 -126t-246 -40.5q-206 0 -338 93.5t-172 259.5z" />
<glyph unicode="T" horiz-adv-x="1105" d="M168 1253l31 181h1034l-31 -181h-424l-221 -1253h-188l221 1253h-422z" />
<glyph unicode="U" horiz-adv-x="1341" d="M129 481l166 953h190l-166 -945q-7 -40 -8 -77q0 -98 54 -162q73 -90 241 -90q171 0 277.5 91t132.5 238l166 945h188l-166 -953q-43 -240 -207 -374t-397 -134q-161 0 -277.5 64t-168.5 180q-34 77 -34 168q0 46 9 96z" />
<glyph unicode="V" horiz-adv-x="1261" d="M178 1434h193l200 -1203l623 1203h215l-760 -1434h-215z" />
<glyph unicode="W" horiz-adv-x="2048" d="M213 1434h188l123 -1184l557 1184h193l141 -1184l541 1184h203l-664 -1434h-221l-139 1145l-541 -1145h-221z" />
<glyph unicode="X" horiz-adv-x="1208" d="M-55 0l594 750l-314 684h201l240 -525l417 525h224l-557 -705l333 -729h-200l-262 569l-451 -569h-225z" />
<glyph unicode="Y" horiz-adv-x="1196" d="M178 1434h199l266 -600l475 600h223l-624 -779l-115 -655h-190l116 659z" />
<glyph unicode="Z" horiz-adv-x="1075" d="M-10 0l28 166l881 1087h-670l31 181h901l-28 -164l-881 -1090h706l-32 -180h-936z" />
<glyph unicode="[" horiz-adv-x="593" d="M-10 -205l327 1843h435l-29 -172h-258l-264 -1499h258l-33 -172h-436z" />
<glyph unicode="\" horiz-adv-x="1081" d="M276 1638h107l494 -1843h-107z" />
<glyph unicode="]" horiz-adv-x="593" d="M-86 -205l31 172h258l264 1499h-256l29 172h436l-326 -1843h-436z" />
<glyph unicode="^" horiz-adv-x="1064" d="M131 799l481 635h160l260 -635h-190l-172 434l-328 -434h-211z" />
<glyph unicode="_" horiz-adv-x="1064" d="M-68 -309l29 172h911l-28 -172h-912z" />
<glyph unicode="`" horiz-adv-x="462" d="M203 1434l162 -271h172l-123 271h-211z" />
<glyph unicode="a" horiz-adv-x="1298" d="M82 535q28 157 116 276t209.5 179.5t256.5 60.5q126 0 225 -56.5t153 -160.5l33 190h178l-180 -1024h-178l27 145q-158 -172 -410 -172q-145 0 -254 79q-110 78 -156 207q-30 83 -29 173q0 50 9 103zM260 520q-7 -39 -7 -74q-1 -110 65 -192q86 -108 243 -109 q155 0 275.5 101.5t146.5 257.5q7 41 7 78q0 43 -10 83q-18 73 -62.5 118.5t-107 70.5t-134.5 25q-94 0 -179.5 -39.5t-151 -123t-85.5 -196.5z" />
<glyph unicode="b" horiz-adv-x="1296" d="M45 0l252 1434h178l-100 -572q77 90 182.5 139.5t230.5 49.5q141 0 249.5 -74t157.5 -200q32 -83 33 -176q0 -47 -9 -97q-26 -147 -108.5 -267t-213.5 -192t-285 -72q-124 0 -215.5 58t-140.5 159l-33 -190h-178zM313 512q-6 -36 -6 -70q1 -111 67 -192q86 -105 240 -105 q157 0 277.5 107.5t148.5 267.5q7 38 7 73q0 109 -65 185q-86 102 -241 101q-154 0 -276.5 -104.5t-151.5 -262.5z" />
<glyph unicode="c" horiz-adv-x="1124" d="M82 535q38 225 212.5 370.5t403.5 145.5q153 0 266 -72.5t158 -194.5l-157 -82q-31 81 -104 128t-177 47q-155 0 -275.5 -101.5t-148.5 -255.5q-7 -40 -7 -76q0 -108 62 -188q83 -106 240 -106q103 0 191 49t143 133l143 -94q-78 -125 -210.5 -195t-289.5 -70 q-113 0 -207 45t-153.5 120.5t-84.5 179.5q-14 58 -14 118q0 49 9 99z" />
<glyph unicode="d" horiz-adv-x="1300" d="M82 535q28 157 116 276t209.5 179.5t256.5 60.5q127 0 226.5 -57.5t151.5 -162.5l107 603h178l-252 -1434h-178l27 147q-160 -174 -412 -174q-145 0 -254 79q-110 78 -156 207q-30 83 -29 173q0 50 9 103zM260 520q-7 -39 -7 -74q-1 -110 65 -192q86 -108 242.5 -108.5 t276.5 101t148 257.5q7 40 7 77q0 44 -10 84q-19 73 -63.5 118.5t-106.5 70.5t-134 25q-148 0 -269 -95.5t-149 -263.5z" />
<glyph unicode="e" horiz-adv-x="1196" d="M82 532q38 224 211 371.5t397 147.5q152 0 262 -74t156 -198q28 -77 28 -162q0 -52 -10 -107q-5 -32 -20 -80h-856q0 -137 85 -213t226 -76q101 0 185 40t141 112l133 -96q-78 -107 -206.5 -165.5t-272.5 -58.5q-160 0 -275 74.5t-163 202.5q-31 82 -31 174q0 53 10 108z M276 588h682v21q0 131 -71 199q-77 74 -207 75q-143 0 -251.5 -79.5t-152.5 -215.5z" />
<glyph unicode="f" horiz-adv-x="663" d="M109 852l30 172h164l6 31q38 212 171 316q115 91 296 91q26 0 53 -2l-32 -172q-21 2 -40 2q-227 0 -270 -235l-6 -31h271l-31 -172h-268l-152 -852h-178l151 852h-165z" />
<glyph unicode="g" horiz-adv-x="1300" d="M37 -186l158 82q70 -166 309 -166q167 0 271 82t130 231l21 121q-73 -86 -176 -133t-224 -47q-116 0 -209 45t-150 120.5t-80 176.5q-13 57 -13 117q0 47 8 96q23 150 110.5 268.5t211 181t258.5 62.5q127 0 227.5 -57t152.5 -163l35 193h176l-172 -981 q-41 -234 -201 -356.5t-386 -122.5q-164 0 -283.5 65.5t-173.5 184.5zM260 524q-6 -37 -6 -70q0 -113 67 -194q87 -104 246 -104q147 0 264 91t152 240l10 54q3 23 3 44q0 78 -34 141q-44 79 -119 117t-165 38q-95 0 -183 -41.5t-153 -124.5t-82 -191z" />
<glyph unicode="h" horiz-adv-x="1155" d="M45 0l252 1434h178l-96 -545q132 162 350 162q181 0 273 -115q69 -85 69 -213q0 -44 -8 -94l-111 -629h-178l109 618q6 37 6 69q1 78 -37 126q-54 68 -176 68q-132 0 -230 -83.5t-127 -254.5v2l-96 -545h-178z" />
<glyph unicode="i" horiz-adv-x="450" d="M45 0l180 1024h178l-180 -1024h-178zM250 1329q8 51 47 86t92 35q49 0 79 -36q23 -28 22 -64q0 -10 -1 -21q-9 -51 -48.5 -85t-92.5 -34q-50 0 -78 36q-22 28 -22 62q0 10 2 21z" />
<glyph unicode="j" horiz-adv-x="493" d="M-203 -436l31 172q18 -1 34 -1q85 0 136 39q61 47 82 165l190 1085h179l-191 -1085q-37 -215 -150 -302q-98 -75 -258 -75q-26 0 -53 2zM293 1329q8 50 47.5 85.5t91.5 35.5q51 0 80 -36q22 -27 22 -62q0 -11 -2 -23q-8 -51 -47.5 -85t-93.5 -34q-50 0 -78 36 q-22 27 -22 62q0 10 2 21z" />
<glyph unicode="k" horiz-adv-x="1028" d="M45 0l252 1434h178l-149 -854l514 444h229l-577 -496l415 -528h-205l-391 504l-88 -504h-178z" />
<glyph unicode="l" horiz-adv-x="452" d="M47 0l109 623l153 872h178l-262 -1495h-178z" />
<glyph unicode="m" horiz-adv-x="1738" d="M45 0l180 1024h178l-22 -123q133 150 324 150q100 0 171 -46.5t103 -132.5q70 89 162 134t190 45q165 0 257 -113q69 -85 69 -211q0 -43 -8 -90l-113 -637h-178l110 631q6 35 6 65q0 74 -35 120q-49 65 -153 65q-112 0 -194.5 -75t-110.5 -231l-100 -575h-179l111 631 q6 37 6 68q1 72 -31 117q-46 65 -147 65q-112 0 -200 -76t-115 -230v3l-103 -578h-178z" />
<glyph unicode="n" horiz-adv-x="1155" d="M45 0l180 1024h178l-24 -135q132 162 350 162q181 0 273 -115q69 -85 69 -213q0 -44 -8 -94l-111 -629h-178l109 618q6 37 6 69q1 78 -37 126q-54 68 -176 68q-132 0 -230 -83.5t-127 -254.5v2l-96 -545h-178z" />
<glyph unicode="o" horiz-adv-x="1234" d="M80 530q21 120 83 220t148 165t189.5 100.5t210.5 35.5q106 0 197.5 -41t153.5 -112q62 -72 88 -176q15 -58 14 -122q0 -50 -9 -102q-21 -122 -81.5 -223t-145 -166t-185 -100.5t-204.5 -35.5q-110 0 -204 41t-158 112q-63 72 -91 178q-15 59 -16 122q0 50 10 104z M258 512q-6 -38 -6 -73q0 -45 10 -85q18 -71 60 -116q42 -44 102 -68q57 -23 123 -23h6q71 0 139.5 24t127.5 69t101.5 116.5t57.5 159.5q7 39 7 74q0 42 -10 80q-18 70 -61 114.5t-103 68.5t-130 24q-69 -1 -137 -25t-126.5 -68.5t-101.5 -115t-59 -156.5z" />
<glyph unicode="p" horiz-adv-x="1298" d="M-27 -410l252 1434h178l-26 -152q158 179 409 179q142 0 251.5 -77t158.5 -206q32 -85 32 -178q0 -48 -9 -98q-27 -157 -114 -277t-208.5 -181t-257.5 -61q-127 0 -228 58t-153 164l-106 -605h-179zM315 522q-7 -40 -7 -77q0 -45 10 -85q20 -73 65 -119t107.5 -71 t134.5 -25q94 0 179.5 39.5t150.5 123t85 196.5q6 37 6 71q0 112 -66 195q-85 109 -241 109q-155 0 -275.5 -100.5t-148.5 -256.5z" />
<glyph unicode="q" horiz-adv-x="1298" d="M82 535q28 157 116 276t209.5 179.5t256.5 60.5q126 0 225 -56.5t153 -160.5l33 190h178l-252 -1434h-178l99 555q-158 -172 -410 -172q-145 0 -254 78.5t-156 207.5q-29 83 -29 173q0 50 9 103zM260 520q-7 -39 -7 -74q0 -111 65 -192q87 -109 243 -109 q155 0 275.5 100.5t146.5 256.5q7 41 7 78q0 44 -10 83q-18 73 -62.5 119.5t-107 71.5t-134.5 25q-94 0 -179.5 -39.5t-151 -123t-85.5 -196.5z" />
<glyph unicode="r" horiz-adv-x="673" d="M45 0l180 1024h178l-26 -150q123 168 333 168h17l-33 -186h-14q-54 0 -104 -14q-56 -16 -109.5 -49.5t-93 -97.5t-54.5 -152v2l-96 -545h-178z" />
<glyph unicode="s" horiz-adv-x="968" d="M37 221l160 82q15 -72 78 -117t159 -45q91 0 151 35t72 100q2 10 2 20q-1 32 -21 56q-26 32 -73.5 51t-106.5 37.5t-116.5 42.5t-102.5 57.5t-67 91.5q-13 35 -13 78q0 27 5 58q23 125 132.5 204t256.5 79q128 0 219.5 -55.5t136.5 -157.5l-157 -82q-21 64 -77.5 96.5 t-129.5 32.5q-71 0 -130.5 -34t-72.5 -101q-2 -11 -1 -20q0 -32 19 -56q26 -32 73.5 -51.5t106 -37.5t116.5 -42t103 -57.5t67 -91.5q13 -36 14 -80q0 -28 -6 -58q-24 -135 -135.5 -209t-278.5 -74q-152 0 -249 67t-134 181z" />
<glyph unicode="t" horiz-adv-x="776" d="M98 852l33 172h201l41 233l188 54l-51 -287h274l-30 -172h-273l-98 -555q-5 -26 -5 -47q0 -38 18 -60q26 -32 87 -34h21q55 0 129 4l-29 -160q-70 -10 -129 -10q-129 0 -200 49q-78 54 -78 174q0 39 8 84l96 555h-203z" />
<glyph unicode="u" horiz-adv-x="1155" d="M92 395l111 629h178l-109 -618q-6 -37 -6 -69q0 -78 38 -126q54 -68 175 -68q132 0 230 83.5t127 254.5v-2l96 545h178l-180 -1024h-178l24 135q-132 -162 -350 -162q-182 0 -274 115q-69 85 -68 213q0 45 8 94z" />
<glyph unicode="v" horiz-adv-x="983" d="M106 1024h181l143 -821l430 821h199l-557 -1024h-201z" />
<glyph unicode="w" horiz-adv-x="1583" d="M141 1024h176l95 -778l372 778h179l-2 -4l106 -776l360 780h195l-500 -1024h-182l-104 760l-369 -760h-186z" />
<glyph unicode="x" horiz-adv-x="1054" d="M-59 0l485 535l-283 489h197l207 -356l323 356h222l-459 -506l301 -518h-197l-225 387l-350 -387h-221z" />
<glyph unicode="y" horiz-adv-x="1054" d="M6 -410l29 166q12 -1 23 -1q83 0 144 45q71 51 136 161l31 49l-263 1014h181l202 -809l443 809h198l-608 -1087q-193 -348 -481 -348q-17 0 -35 1z" />
<glyph unicode="z" horiz-adv-x="923" d="M-14 0l22 119l645 735h-495l30 170h748l-23 -119l-645 -735h537l-29 -170h-790z" />
<glyph unicode="{" horiz-adv-x="731" d="M123 633l33 172q103 -2 154.5 32t70.5 144l57 330q36 202 147 282.5t306 65.5l-31 -172q-110 11 -166.5 -25.5t-77.5 -150.5l-57 -330q-21 -118 -67 -179.5t-125 -88.5q135 -57 100 -256l-57 -330q-21 -112 22.5 -149.5t155.5 -26.5l-29 -172q-188 -15 -274 75.5 t-54 272.5l58 330q19 111 -20.5 144.5t-145.5 31.5z" />
<glyph unicode="|" horiz-adv-x="485" d="M-8 -410l332 1885h178l-332 -1885h-178z" />
<glyph unicode="}" horiz-adv-x="729" d="M-88 -221l31 172q110 -11 166 25.5t77 150.5l58 330q21 118 67 179.5t125 88.5q-135 57 -100 256l57 330q21 112 -22.5 149.5t-155.5 26.5l29 172q188 15 273.5 -75.5t53.5 -272.5l-57 -330q-19 -111 20.5 -144.5t145.5 -31.5l-33 -172q-103 2 -154.5 -32t-70.5 -144 l-57 -330q-36 -202 -147 -282.5t-306 -65.5z" />
<glyph unicode="~" horiz-adv-x="1220" d="M135 637q74 187 219.5 232.5t319.5 -66.5q93 -60 157 -69.5t106 23.5t79 111l141 -73q-74 -186 -217.5 -231t-321.5 67q-92 58 -156.5 67t-107 -23.5t-80.5 -109.5z" />
<glyph unicode="&#xa1;" d="M-20 -410l71 410l144 604h139l-68 -604l-71 -410h-215zM186 915q11 57 54 94.5t104 37.5q55 0 86.5 -40t22.5 -96q-9 -57 -52.5 -94t-103.5 -37q-56 0 -88.5 40t-22.5 95z" />
<glyph unicode="&#xa2;" horiz-adv-x="1124" d="M119 739q38 225 212.5 370.5t403.5 145.5q49 0 107 -10l92 189h115l-109 -220q78 -34 134.5 -92t84.5 -133l-158 -82q-38 101 -139 148l-342 -695q34 -6 72 -6q103 0 191 49.5t143 133.5l143 -95q-78 -125 -210 -194.5t-290 -69.5q-61 0 -131 17l-96 -195h-115l115 233 q-129 68 -190.5 205t-32.5 301zM297 725q-19 -106 15.5 -193t111.5 -135l336 682q-12 2 -39 2q-155 0 -275.5 -101t-148.5 -255z" />
<glyph unicode="&#xa3;" horiz-adv-x="1196" d="M-14 0l32 184h181l69 398h-143l31 168h143l47 272q39 217 166.5 327.5t314.5 110.5q136 0 239 -75.5t144 -206.5l-161 -86q-35 93 -92 138.5t-152 45.5q-100 0 -174 -63.5t-96 -190.5l-48 -272h455l-31 -168h-454l-70 -398h723l-33 -184h-1091z" />
<glyph unicode="&#xa4;" horiz-adv-x="1124" d="M41 301l170 145q-75 122 -49 277q27 154 141 268l-117 142l80 69l119 -143q131 92 291 92q149 0 248 -90l168 143l65 -71l-170 -146q76 -122 49 -276q-27 -155 -141 -269l117 -141l-82 -68l-117 142q-136 -90 -291 -90q-147 0 -248 88l-168 -144zM340 717 q-22 -110 40 -186t173 -76t198 75.5t109 186.5q19 113 -42 187.5t-173 74.5q-111 0 -198.5 -75t-106.5 -187z" />
<glyph unicode="&#xa5;" horiz-adv-x="1196" d="M119 340l22 135h355l20 113h-354l22 133h316l-322 713h199l266 -600l475 600h223l-571 -713h315l-22 -133h-358l-19 -113h356l-22 -135h-358l-60 -340h-190l59 340h-352z" />
<glyph unicode="&#xa6;" horiz-adv-x="485" d="M-8 -410l133 758h178l-133 -758h-178zM190 717l134 758h178l-133 -758h-179z" />
<glyph unicode="&#xa7;" horiz-adv-x="1075" d="M39 39l160 86q59 -191 270 -191q92 0 153.5 37t73.5 107q7 35 -7 67t-37 55t-67.5 48.5t-78.5 41.5t-91 40q-3 1 -5 2q-63 28 -110 59.5t-86 76t-54.5 103.5t-3.5 129q29 156 186 246q-65 95 -43 217q24 138 133.5 217.5t265.5 79.5q128 0 224.5 -65.5t142.5 -184.5 l-154 -80q-65 164 -227 164q-79 0 -137.5 -36.5t-71.5 -106.5q-4 -28 2 -53.5t26.5 -48t40 -39.5t59 -38t64.5 -33t74 -34q64 -29 111.5 -61t88 -76.5t56.5 -103.5t4 -129q-29 -152 -178 -246q72 -96 51 -221q-26 -139 -138 -218t-283 -79q-311 0 -414 268zM334 690 q-11 -74 35 -123.5t141 -87.5q154 -66 197 -92q98 59 114 154q13 74 -36 124t-150 93q-125 53 -182 90q-103 -60 -119 -158z" />
<glyph unicode="&#xa8;" horiz-adv-x="671" d="M176 1268q6 44 43 75t82 31q44 0 70 -31t20 -75q-9 -45 -46 -77t-81 -32t-70.5 32.5t-17.5 76.5zM565 1268q6 44 43 75t82 31q44 0 70 -31t20 -75q-9 -45 -46 -77t-81 -32t-70.5 32.5t-17.5 76.5z" />
<glyph unicode="&#xa9;" horiz-adv-x="1636" d="M108.5 530.5q-11.5 95.5 8.5 198.5q27 151 107.5 286.5t195 232.5t261.5 153.5t300 56.5q119 0 225.5 -39t185.5 -108t134 -164t71.5 -206.5t-2.5 -235.5q-36 -202 -162.5 -369.5t-312.5 -264t-391 -96.5q-99 0 -190.5 27.5t-164 77t-130.5 119t-91 153t-44.5 179z M182 717q-25 -139 6.5 -265t106.5 -217t190.5 -144.5t251.5 -53.5q186 0 356.5 91t286 247t148.5 342q24 139 -7.5 265t-106.5 217t-190 144.5t-251 53.5q-186 0 -356.5 -91t-286 -247t-148.5 -342zM461 731q29 165 158 273t299 108q104 0 188.5 -53t128.5 -141l-145 -74 q-30 53 -81 80.5t-114 27.5q-104 0 -178 -69.5t-90 -165.5q-18 -94 33 -165t149 -71q67 0 128 31t97 86l133 -84q-65 -90 -164 -141t-212 -51q-107 0 -190.5 56t-121 150.5t-18.5 202.5z" />
<glyph unicode="&#xab;" horiz-adv-x="1050" d="M160 633l286 375h203l-293 -385l154 -363h-193zM508 631l289 377h202l-294 -387l153 -361h-192z" />
<glyph unicode="&#xac;" horiz-adv-x="1085" d="M133 633l31 170h860l-72 -410h-178l41 240h-682z" />
<glyph unicode="&#xad;" horiz-adv-x="1054" d="M160 543l28 172h748l-29 -172h-747z" />
<glyph unicode="&#xae;" horiz-adv-x="1636" d="M108.5 530.5q-11.5 95.5 8.5 198.5q27 151 107.5 286.5t195 232.5t261.5 153.5t300 56.5q119 0 225.5 -39t185.5 -108t134 -164t71.5 -206.5t-2.5 -235.5q-36 -202 -162.5 -369.5t-312.5 -264t-391 -96.5q-99 0 -190.5 27.5t-164 77t-130.5 119t-91 153t-44.5 179z M182 717q-25 -139 6.5 -265t106.5 -217t190.5 -144.5t251.5 -53.5q186 0 356.5 91t286 247t148.5 342q24 139 -7.5 265t-106.5 217t-190 144.5t-251 53.5q-186 0 -356.5 -91t-286 -247t-148.5 -342zM545 338l133 758h264q126 0 192 -77.5t46 -182.5q-27 -158 -168 -215 l106 -283h-164l-88 256h-14h-104l-46 -256h-157zM772 737h107q61 0 97.5 28.5t45.5 76.5q9 52 -18 79t-89 27h-106z" />
<glyph unicode="&#xaf;" horiz-adv-x="634" d="M158 1178l26 149h553l-26 -149h-553z" />
<glyph unicode="&#xb0;" horiz-adv-x="800" d="M225 1350q23 133 129.5 221t247.5 88q135 0 213 -96.5t55 -229.5q-24 -136 -126 -222.5t-252 -86.5q-135 0 -213 97t-54 229zM387 1341q-12 -71 22.5 -117t108.5 -46q73 0 126.5 46.5t64.5 116.5q12 70 -25.5 117t-108.5 47t-123.5 -47t-64.5 -117z" />
<glyph unicode="&#xb1;" horiz-adv-x="1118" d="M55 160l31 170h881l-31 -170h-881zM166 782l31 170h354l57 324h170l-57 -324h356l-30 -170h-355l-57 -321h-170l57 321h-356z" />
<glyph unicode="&#xb4;" horiz-adv-x="458" d="M156 1163h176l248 271h-220z" />
<glyph unicode="&#xb5;" horiz-adv-x="1249" d="M-27 -410l252 1434h178l-110 -629q-17 -122 36.5 -187t174.5 -65q131 0 228 83t126 255v-2l96 545h179l-138 -782q-6 -34 10 -53t50 -19h78l-31 -170h-105q-68 0 -116.5 33.5t-63.5 91.5q-135 -152 -342 -152q-152 0 -239 97l-84 -480h-179z" />
<glyph unicode="&#xb6;" horiz-adv-x="1249" d="M162 1026q32 173 174 290.5t317 117.5h670l-27 -162h-125l-294 -1682h-170l294 1682h-206l-295 -1682h-170l176 1004q-114 1 -200.5 61t-124.5 159t-19 212z" />
<glyph unicode="&#xb7;" d="M152 717q9 57 52 94t103 37q56 0 88.5 -40t22.5 -95q-11 -57 -54 -94t-104 -37q-55 0 -86 39.5t-22 95.5z" />
<glyph unicode="&#xb8;" horiz-adv-x="512" d="M-127 -442l25 135q132 -10 204 7t80 56q6 36 -36.5 55t-120.5 19l28 170h154l-17 -92q73 -15 114.5 -63.5t29.5 -112.5q-7 -44 -31.5 -77t-74.5 -59.5t-139.5 -36.5t-215.5 -1z" />
<glyph unicode="&#xbb;" horiz-adv-x="1052" d="M94 258l295 387l-153 361h192l158 -371l-289 -377h-203zM444 258l293 385l-153 363h192l158 -373l-287 -375h-203z" />
<glyph unicode="&#xbc;" horiz-adv-x="1677" d="M162 1348l258 86h135l-145 -820h-158l115 643l-189 -53zM164 0l1061 1434h153l-1061 -1434h-153zM913 145l25 146l383 528h176l-377 -528h228l32 180h154l-31 -180h96l-24 -146h-98l-25 -145h-156l27 145h-410z" />
<glyph unicode="&#xbd;" horiz-adv-x="1656" d="M162 1348l258 86h135l-145 -820h-158l115 643l-189 -53zM164 0l1061 1434h153l-1061 -1434h-153zM920 0l20 117l385 321q54 44 80.5 78t32.5 70q9 50 -19 80t-86 30q-98 0 -174 -123l-127 78q52 90 137.5 142.5t186.5 52.5q123 0 191 -75t48 -193q-10 -64 -53 -121.5 t-125 -124.5l-227 -185h342l-27 -147h-585z" />
<glyph unicode="&#xbe;" horiz-adv-x="1875" d="M84 764l139 72q19 -52 56 -76.5t100 -24.5q71 0 115 32.5t53 88.5q11 56 -23.5 89.5t-103.5 33.5h-19l-51 102l199 205h-344l26 148h539l-22 -136l-203 -208q87 -25 131 -91.5t29 -154.5q-21 -121 -115 -188.5t-234 -67.5q-204 0 -272 176zM362 0l1061 1434h154 l-1061 -1434h-154zM1112 145l25 146l383 528h176l-377 -528h227l33 180h154l-31 -180h96l-24 -146h-99l-24 -145h-156l27 145h-410z" />
<glyph unicode="&#xbf;" horiz-adv-x="1101" d="M20 -35q11 64 42 120.5t71.5 99t88 82t94.5 76.5t87 75t69 85.5t38 100.5h188q-16 -94 -68 -172.5t-116.5 -132.5t-128.5 -104t-113 -109.5t-61 -126.5q-18 -103 41.5 -157t169.5 -54q100 0 182.5 52t132.5 153l158 -96q-74 -144 -209 -218.5t-293 -74.5q-83 0 -157 27 t-128.5 76.5t-79 127t-8.5 170.5zM524 915q11 57 54 94.5t104 37.5q55 0 86.5 -40t22.5 -96q-9 -57 -52.5 -94t-103.5 -37q-56 0 -88.5 40t-22.5 95z" />
<glyph unicode="&#xc0;" horiz-adv-x="1316" d="M-76 0l789 1434h215l282 -1434h-200l-58 322h-645l-176 -322h-207zM403 500h517l-129 710zM618 1843h211l123 -270h-172z" />
<glyph unicode="&#xc1;" horiz-adv-x="1316" d="M-76 0l789 1434h215l282 -1434h-200l-58 322h-645l-176 -322h-207zM403 500h517l-129 710zM723 1573l205 270h219l-248 -270h-176z" />
<glyph unicode="&#xc2;" horiz-adv-x="1316" d="M-76 0l789 1434h215l282 -1434h-200l-58 322h-645l-176 -322h-207zM403 500h517l-129 710zM526 1567l265 276h196l170 -276h-184l-96 166l-156 -166h-195z" />
<glyph unicode="&#xc3;" horiz-adv-x="1316" d="M-76 0l789 1434h215l282 -1434h-200l-58 322h-645l-176 -322h-207zM403 500h517l-129 710zM539 1583q14 100 52 164t88 83.5t105.5 8.5t106.5 -53q29 -24 47.5 -36.5t37 -18.5t31 3.5t23 33t17.5 65.5h151q-14 -99 -52 -162.5t-87.5 -83t-104.5 -8.5t-106 53 q-29 24 -47.5 36.5t-37.5 18t-31.5 -3.5t-23.5 -33.5t-18 -66.5h-151z" />
<glyph unicode="&#xc4;" horiz-adv-x="1316" d="M-76 0l789 1434h215l282 -1434h-200l-58 322h-645l-176 -322h-207zM403 500h517l-129 710zM561 1677q6 44 43 75.5t82 31.5q44 0 70 -31.5t20 -75.5q-9 -45 -46 -76.5t-81 -31.5t-70.5 32t-17.5 76zM950 1677q6 44 43 75.5t82 31.5q44 0 70 -31.5t20 -75.5 q-9 -45 -46 -76.5t-81 -31.5t-70.5 32t-17.5 76z" />
<glyph unicode="&#xc5;" horiz-adv-x="1316" d="M-76 0l760 1380q-44 30 -62.5 80t-9.5 109q15 92 88.5 151.5t173.5 59.5q105 0 159 -66.5t40 -159.5q-9 -59 -44.5 -106t-88.5 -74l270 -1374h-200l-58 322h-645l-176 -322h-207zM403 500h517l-129 710zM745 1563q-6 -41 15 -68t65 -27q45 0 77 27t38 66q7 42 -15 68 t-65 26t-74.5 -25t-40.5 -67z" />
<glyph unicode="&#xc6;" horiz-adv-x="1802" d="M-90 0l1120 1434h848l-31 -181h-608l-78 -440h572l-33 -178h-572l-79 -455h618l-31 -180h-805l58 322h-508l-252 -322h-219zM520 500h400l114 657z" />
<glyph unicode="&#xc7;" horiz-adv-x="1515" d="M117 737q35 206 158 371.5t303.5 258.5t382.5 93q209 0 359 -94t224 -258l-170 -90q-120 258 -424 258q-243 0 -425 -160t-222 -399q-41 -240 86 -398.5t365 -158.5q155 0 285.5 69t217.5 195l158 -100q-105 -148 -264.5 -240t-341.5 -107l-12 -69q73 -15 114 -63.5 t29 -112.5q-7 -44 -31.5 -77t-74.5 -59.5t-139.5 -36.5t-215.5 -1l25 135q132 -10 204 7t80 56q6 36 -36.5 55t-120.5 19l24 147q-191 20 -326.5 128.5t-190.5 274.5t-21 357z" />
<glyph unicode="&#xc8;" horiz-adv-x="1085" d="M63 0l252 1434h846l-31 -181h-655l-78 -440h604l-32 -178h-604l-80 -455h665l-30 -180h-857zM539 1843h211l122 -270h-172z" />
<glyph unicode="&#xc9;" horiz-adv-x="1085" d="M63 0l252 1434h846l-31 -181h-655l-78 -440h604l-32 -178h-604l-80 -455h665l-30 -180h-857zM643 1573l205 270h219l-248 -270h-176z" />
<glyph unicode="&#xca;" horiz-adv-x="1085" d="M63 0l252 1434h846l-31 -181h-655l-78 -440h604l-32 -178h-604l-80 -455h665l-30 -180h-857zM446 1567l265 276h196l170 -276h-184l-96 166l-156 -166h-195z" />
<glyph unicode="&#xcb;" horiz-adv-x="1085" d="M63 0l252 1434h846l-31 -181h-655l-78 -440h604l-32 -178h-604l-80 -455h665l-30 -180h-857zM481 1677q6 44 43 75.5t82 31.5q44 0 70 -31.5t20 -75.5q-9 -45 -46 -76.5t-81 -31.5t-70.5 32t-17.5 76zM870 1677q6 44 43 75.5t82 31.5q44 0 70 -31.5t20 -75.5 q-9 -45 -46 -76.5t-81 -31.5t-70.5 32t-17.5 76z" />
<glyph unicode="&#xcc;" d="M63 0l252 1434h191l-252 -1434h-191zM209 1843l162 -270h172l-123 270h-211z" />
<glyph unicode="&#xcd;" d="M63 0l252 1434h191l-252 -1434h-191zM313 1573h176l248 270h-219z" />
<glyph unicode="&#xce;" d="M63 0l252 1434h191l-252 -1434h-191zM117 1567l264 276h197l170 -276h-185l-96 166l-156 -166h-194z" />
<glyph unicode="&#xcf;" d="M63 0l252 1434h191l-252 -1434h-191zM152 1677q6 44 43 75.5t81 31.5t70.5 -31.5t20.5 -75.5q-9 -45 -46 -76.5t-81 -31.5t-70.5 32t-17.5 76zM541 1677q6 44 43 75.5t82 31.5q44 0 70 -31.5t20 -75.5q-9 -45 -46 -76.5t-81 -31.5t-70.5 32t-17.5 76z" />
<glyph unicode="&#xd0;" horiz-adv-x="1525" d="M78 627l28 172h150l111 635h559q140 0 257 -60t190.5 -160t103.5 -235.5t4 -282.5q-35 -197 -148 -355.5t-286 -249.5t-373 -91h-559l110 627h-147zM336 180h364q222 0 390 154.5t208 384.5q25 151 -15.5 272.5t-141.5 191.5t-246 70h-369l-80 -454h408l-29 -172h-409z " />
<glyph unicode="&#xd1;" horiz-adv-x="1388" d="M63 0l252 1434h146l559 -1076l186 1076h191l-252 -1434h-146l-557 1075l-188 -1075h-191zM575 1583q14 100 52.5 164t88.5 83.5t105.5 8.5t106.5 -53q29 -24 47 -36.5t37 -18.5t31 3.5t22.5 33t17.5 65.5h152q-14 -99 -52 -162.5t-87.5 -83t-104.5 -8.5t-106 53 q-29 24 -47.5 36.5t-37.5 18t-31.5 -3.5t-23.5 -33.5t-18 -66.5h-152z" />
<glyph unicode="&#xd2;" horiz-adv-x="1644" d="M117 737q27 153 105 287t191 230t260 151t306 55q153 0 282 -63t211.5 -167.5t118 -246.5t8.5 -295q-37 -204 -159 -367t-307 -255.5t-400 -92.5q-203 0 -358.5 104.5t-225 280.5t-32.5 379zM305 717q-27 -155 22 -282.5t163 -201t270 -73.5q120 0 231 42t195.5 115 t143.5 174.5t79 217.5q27 156 -22.5 286t-165 205.5t-273.5 75.5q-239 0 -420 -160t-223 -399zM782 1849l162 -270h172l-123 270h-211z" />
<glyph unicode="&#xd3;" horiz-adv-x="1644" d="M117 737q27 153 105 287t191 230t260 151t306 55q153 0 282 -63t211.5 -167.5t118 -246.5t8.5 -295q-37 -204 -159 -367t-307 -255.5t-400 -92.5q-203 0 -358.5 104.5t-225 280.5t-32.5 379zM305 717q-27 -155 22 -282.5t163 -201t270 -73.5q120 0 231 42t195.5 115 t143.5 174.5t79 217.5q27 156 -22.5 286t-165 205.5t-273.5 75.5q-239 0 -420 -160t-223 -399zM887 1579h176l248 270h-219z" />
<glyph unicode="&#xd4;" horiz-adv-x="1644" d="M117 737q27 153 105 287t191 230t260 151t306 55q153 0 282 -63t211.5 -167.5t118 -246.5t8.5 -295q-37 -204 -159 -367t-307 -255.5t-400 -92.5q-203 0 -358.5 104.5t-225 280.5t-32.5 379zM305 717q-27 -155 22 -282.5t163 -201t270 -73.5q120 0 231 42t195.5 115 t143.5 174.5t79 217.5q27 156 -22.5 286t-165 205.5t-273.5 75.5q-239 0 -420 -160t-223 -399zM690 1573l264 276h197l170 -276h-184l-97 166l-155 -166h-195z" />
<glyph unicode="&#xd5;" horiz-adv-x="1644" d="M117 737q27 153 105 287t191 230t260 151t306 55q153 0 282 -63t211.5 -167.5t118 -246.5t8.5 -295q-37 -204 -159 -367t-307 -255.5t-400 -92.5q-203 0 -358.5 104.5t-225 280.5t-32.5 379zM305 717q-27 -155 22 -282.5t163 -201t270 -73.5q120 0 231 42t195.5 115 t143.5 174.5t79 217.5q27 156 -22.5 286t-165 205.5t-273.5 75.5q-239 0 -420 -160t-223 -399zM702 1589q14 100 52.5 164t88.5 83.5t105.5 8.5t106.5 -53q29 -24 47 -36.5t37 -18.5t31 3.5t22.5 33t17.5 65.5h152q-14 -99 -52 -162.5t-87.5 -83t-104.5 -8.5t-106 53 q-29 24 -47.5 36.5t-37.5 18t-31.5 -3.5t-23.5 -33.5t-18 -66.5h-152z" />
<glyph unicode="&#xd6;" horiz-adv-x="1644" d="M117 737q27 153 105 287t191 230t260 151t306 55q153 0 282 -63t211.5 -167.5t118 -246.5t8.5 -295q-37 -204 -159 -367t-307 -255.5t-400 -92.5q-203 0 -358.5 104.5t-225 280.5t-32.5 379zM305 717q-27 -155 22 -282.5t163 -201t270 -73.5q120 0 231 42t195.5 115 t143.5 174.5t79 217.5q27 156 -22.5 286t-165 205.5t-273.5 75.5q-239 0 -420 -160t-223 -399zM725 1683q6 44 43 75.5t82 31.5q44 0 70 -31.5t20 -75.5q-9 -45 -46 -76.5t-81 -31.5t-70.5 32t-17.5 76zM1114 1683q6 44 43 75.5t82 31.5q44 0 70 -31.5t20 -75.5 q-9 -45 -46 -76.5t-81 -31.5t-70.5 32t-17.5 76z" />
<glyph unicode="&#xd7;" horiz-adv-x="993" d="M90 440l326 281l-228 272l129 115l230 -272l317 272l111 -115l-326 -280l230 -273l-131 -114l-230 274l-317 -274z" />
<glyph unicode="&#xd8;" horiz-adv-x="1662" d="M119 59l141 142q-86 106 -120 244.5t-7 291.5q37 205 158.5 370t307 259t398.5 94q232 0 398 -135l116 117l107 -70l-135 -133q90 -109 126 -252.5t9 -298.5q-38 -204 -159.5 -367t-307 -255.5t-399.5 -92.5q-235 0 -404 140l-123 -121zM324 510.5q20 -97.5 75 -172.5 l856 850q-122 88 -288 88q-158 0 -296.5 -74t-229.5 -201.5t-117 -283.5q-20 -109 0 -206.5zM485 250q120 -90 293 -90q241 0 424 156.5t225 392.5q40 230 -81 393z" />
<glyph unicode="&#xd9;" horiz-adv-x="1341" d="M129 481l166 953h190l-166 -945q-27 -150 46 -239.5t241 -89.5q171 0 277.5 91t132.5 238l166 945h188l-166 -953q-43 -240 -207 -374t-397 -134q-161 0 -277.5 64t-168 180t-25.5 264zM631 1843l162 -270h172l-123 270h-211z" />
<glyph unicode="&#xda;" horiz-adv-x="1341" d="M129 481l166 953h190l-166 -945q-27 -150 46 -239.5t241 -89.5q171 0 277.5 91t132.5 238l166 945h188l-166 -953q-43 -240 -207 -374t-397 -134q-161 0 -277.5 64t-168 180t-25.5 264zM735 1573h176l248 270h-219z" />
<glyph unicode="&#xdb;" horiz-adv-x="1341" d="M129 481l166 953h190l-166 -945q-27 -150 46 -239.5t241 -89.5q171 0 277.5 91t132.5 238l166 945h188l-166 -953q-43 -240 -207 -374t-397 -134q-161 0 -277.5 64t-168 180t-25.5 264zM539 1567l264 276h196l170 -276h-184l-96 166l-156 -166h-194z" />
<glyph unicode="&#xdc;" horiz-adv-x="1341" d="M129 481l166 953h190l-166 -945q-27 -150 46 -239.5t241 -89.5q171 0 277.5 91t132.5 238l166 945h188l-166 -953q-43 -240 -207 -374t-397 -134q-161 0 -277.5 64t-168 180t-25.5 264zM573 1677q6 44 43 75.5t82 31.5q44 0 70 -31.5t20 -75.5q-9 -45 -45.5 -76.5 t-80.5 -31.5q-45 0 -71.5 32t-17.5 76zM963 1677q6 44 43 75.5t81 31.5t70.5 -31.5t20.5 -75.5q-9 -45 -46 -76.5t-81 -31.5t-70.5 32t-17.5 76z" />
<glyph unicode="&#xdd;" horiz-adv-x="1196" d="M178 1434h199l266 -600l475 600h223l-624 -779l-115 -655h-190l116 659zM657 1573l205 270h219l-247 -270h-177z" />
<glyph unicode="&#xde;" horiz-adv-x="1208" d="M63 0l252 1434h191l-45 -256h317q208 0 317.5 -133t78.5 -332q-32 -199 -185.5 -328t-390.5 -129h-299l-45 -256h-191zM330 434h288q149 0 247.5 84t121.5 215q20 122 -42.5 194t-190.5 72h-324z" />
<glyph unicode="&#xdf;" horiz-adv-x="1071" d="M45 0l186 1055q34 198 161 301.5t313 103.5q166 0 259.5 -96.5t65.5 -233.5q-9 -47 -33.5 -90.5t-54 -76t-57.5 -61t-49 -56.5t-25 -51q-6 -33 14 -76.5t51.5 -90.5t62 -99t47 -119t5.5 -134q-25 -149 -148.5 -226t-348.5 -58l28 160q264 -19 297 153q9 49 -10 103.5 t-51.5 103t-65.5 96t-52.5 99.5t-10.5 98q7 40 40 83t69.5 75t71 77.5t42.5 89.5q13 76 -35 119t-137 43q-41 0 -80.5 -12t-79 -38.5t-69 -76.5t-41.5 -118l-187 -1047h-178z" />
<glyph unicode="&#xe0;" horiz-adv-x="1298" d="M82 535q28 157 116 276t209.5 179.5t256.5 60.5q126 0 225 -56.5t153 -160.5l33 190h178l-180 -1024h-178l27 145q-158 -172 -410 -172q-145 0 -254 78.5t-155.5 207.5t-20.5 276zM260 520q-28 -158 58.5 -266.5t242.5 -108.5q155 0 275.5 101.5t146.5 257.5 q16 88 -2.5 161t-63 118.5t-107 70.5t-134.5 25q-94 0 -179.5 -39.5t-151 -123t-85.5 -196.5zM508 1434h211l123 -271h-172z" />
<glyph unicode="&#xe1;" horiz-adv-x="1298" d="M82 535q28 157 116 276t209.5 179.5t256.5 60.5q126 0 225 -56.5t153 -160.5l33 190h178l-180 -1024h-178l27 145q-158 -172 -410 -172q-145 0 -254 78.5t-155.5 207.5t-20.5 276zM260 520q-28 -158 58.5 -266.5t242.5 -108.5q155 0 275.5 101.5t146.5 257.5 q16 88 -2.5 161t-63 118.5t-107 70.5t-134.5 25q-94 0 -179.5 -39.5t-151 -123t-85.5 -196.5zM612 1163l205 271h219l-248 -271h-176z" />
<glyph unicode="&#xe2;" horiz-adv-x="1298" d="M82 535q28 157 116 276t209.5 179.5t256.5 60.5q126 0 225 -56.5t153 -160.5l33 190h178l-180 -1024h-178l27 145q-158 -172 -410 -172q-145 0 -254 78.5t-155.5 207.5t-20.5 276zM260 520q-28 -158 58.5 -266.5t242.5 -108.5q155 0 275.5 101.5t146.5 257.5 q16 88 -2.5 161t-63 118.5t-107 70.5t-134.5 25q-94 0 -179.5 -39.5t-151 -123t-85.5 -196.5zM416 1157l264 277h197l170 -277h-185l-96 166l-156 -166h-194z" />
<glyph unicode="&#xe3;" horiz-adv-x="1298" d="M82 535q28 157 116 276t209.5 179.5t256.5 60.5q126 0 225 -56.5t153 -160.5l33 190h178l-180 -1024h-178l27 145q-158 -172 -410 -172q-145 0 -254 78.5t-155.5 207.5t-20.5 276zM260 520q-28 -158 58.5 -266.5t242.5 -108.5q155 0 275.5 101.5t146.5 257.5 q16 88 -2.5 161t-63 118.5t-107 70.5t-134.5 25q-94 0 -179.5 -39.5t-151 -123t-85.5 -196.5zM428 1174q11 81 38.5 138.5t63.5 85t79 34.5t86.5 -8t84.5 -48q29 -24 47.5 -36.5t37 -18.5t31 3.5t23 33t17.5 65.5h151q-14 -99 -52 -162t-87.5 -82.5t-104.5 -8.5t-106 53 q-29 24 -47.5 36.5t-37.5 18t-31 -3.5t-23 -33.5t-18 -66.5h-152z" />
<glyph unicode="&#xe4;" horiz-adv-x="1298" d="M82 535q28 157 116 276t209.5 179.5t256.5 60.5q126 0 225 -56.5t153 -160.5l33 190h178l-180 -1024h-178l27 145q-158 -172 -410 -172q-145 0 -254 78.5t-155.5 207.5t-20.5 276zM260 520q-28 -158 58.5 -266.5t242.5 -108.5q155 0 275.5 101.5t146.5 257.5 q16 88 -2.5 161t-63 118.5t-107 70.5t-134.5 25q-94 0 -179.5 -39.5t-151 -123t-85.5 -196.5zM451 1268q6 44 42.5 75t81.5 31q44 0 70.5 -31t20.5 -75q-9 -45 -46 -77t-81 -32t-70.5 32.5t-17.5 76.5zM840 1268q6 44 43 75t82 31q44 0 70 -31t20 -75q-9 -45 -46 -77 t-81 -32t-70.5 32.5t-17.5 76.5z" />
<glyph unicode="&#xe5;" horiz-adv-x="1298" d="M82 535q28 157 116 276t209.5 179.5t256.5 60.5q126 0 225 -56.5t153 -160.5l33 190h178l-180 -1024h-178l27 145q-158 -172 -410 -172q-145 0 -254 78.5t-155.5 207.5t-20.5 276zM260 520q-28 -158 58.5 -266.5t242.5 -108.5q155 0 275.5 101.5t146.5 257.5 q16 88 -2.5 161t-63 118.5t-107 70.5t-134.5 25q-94 0 -179.5 -39.5t-151 -123t-85.5 -196.5zM535 1343q15 92 88.5 151.5t173.5 59.5q105 0 158.5 -66t39.5 -159q-15 -93 -88.5 -152t-175.5 -59q-103 0 -157 66t-39 159zM668 1337q-6 -41 15 -67.5t65 -26.5q45 0 76.5 26.5 t37.5 65.5q7 43 -15 69t-65 26t-74 -25t-40 -68z" />
<glyph unicode="&#xe6;" horiz-adv-x="2101" d="M82 535q28 157 116 276t209.5 179.5t256.5 60.5q128 0 227 -55.5t151 -159.5l33 188h174l-26 -154q160 181 407 181q142 0 244 -75.5t143 -199t15 -266.5q-4 -22 -21 -80h-856q-1 -138 82.5 -213.5t224.5 -75.5q209 0 330 152l135 -96q-87 -104 -207.5 -164t-257.5 -60 q-130 0 -222.5 53t-139.5 148l-31 -174h-174l27 154q-76 -86 -181 -133.5t-229 -47.5q-145 0 -254 78.5t-155.5 207.5t-20.5 276zM258 520q-26 -158 60.5 -266.5t242.5 -108.5q155 0 275.5 101.5t146.5 257.5q16 88 -2.5 161t-63 118.5t-107 70.5t-134.5 25 q-146 0 -266.5 -95.5t-151.5 -263.5zM1184 588h680q4 143 -73.5 219t-203.5 76q-143 0 -250 -80t-153 -215z" />
<glyph unicode="&#xe7;" horiz-adv-x="1124" d="M82 535q38 225 212.5 370.5t403.5 145.5q153 0 266 -72.5t158 -194.5l-157 -82q-31 81 -104 128t-177 47q-155 0 -275.5 -101.5t-148.5 -255.5q-28 -157 55 -263.5t240 -106.5q103 0 191 49t143 133l143 -94q-70 -113 -185.5 -182t-254.5 -81l-12 -67q73 -15 114 -63.5 t29 -112.5q-7 -44 -31.5 -77t-74.5 -59.5t-139.5 -36.5t-215.5 -1l25 135q132 -10 204 7t80 56q6 36 -36.5 55t-120.5 19l24 152q-189 34 -290 191t-66 362z" />
<glyph unicode="&#xe8;" horiz-adv-x="1196" d="M82 532q38 224 211 371.5t397 147.5q152 0 262.5 -74t156 -198t17.5 -269q-5 -32 -20 -80h-856q0 -137 85 -213t226 -76q101 0 185 40t141 112l133 -96q-78 -107 -206.5 -165.5t-272.5 -58.5q-160 0 -275 74.5t-163 202.5t-21 282zM276 588h682q6 146 -71 220.5 t-207 74.5q-143 0 -251.5 -79.5t-152.5 -215.5zM508 1436h211l123 -271h-172z" />
<glyph unicode="&#xe9;" horiz-adv-x="1196" d="M82 532q38 224 211 371.5t397 147.5q152 0 262.5 -74t156 -198t17.5 -269q-5 -32 -20 -80h-856q0 -137 85 -213t226 -76q101 0 185 40t141 112l133 -96q-78 -107 -206.5 -165.5t-272.5 -58.5q-160 0 -275 74.5t-163 202.5t-21 282zM276 588h682q6 146 -71 220.5 t-207 74.5q-143 0 -251.5 -79.5t-152.5 -215.5zM612 1165l205 271h219l-248 -271h-176z" />
<glyph unicode="&#xea;" horiz-adv-x="1196" d="M82 532q38 224 211 371.5t397 147.5q152 0 262.5 -74t156 -198t17.5 -269q-5 -32 -20 -80h-856q0 -137 85 -213t226 -76q101 0 185 40t141 112l133 -96q-78 -107 -206.5 -165.5t-272.5 -58.5q-160 0 -275 74.5t-163 202.5t-21 282zM276 588h682q6 146 -71 220.5 t-207 74.5q-143 0 -251.5 -79.5t-152.5 -215.5zM416 1159l264 277h197l170 -277h-185l-96 166l-156 -166h-194z" />
<glyph unicode="&#xeb;" horiz-adv-x="1196" d="M82 532q38 224 211 371.5t397 147.5q152 0 262.5 -74t156 -198t17.5 -269q-5 -32 -20 -80h-856q0 -137 85 -213t226 -76q101 0 185 40t141 112l133 -96q-78 -107 -206.5 -165.5t-272.5 -58.5q-160 0 -275 74.5t-163 202.5t-21 282zM276 588h682q6 146 -71 220.5 t-207 74.5q-143 0 -251.5 -79.5t-152.5 -215.5zM451 1270q6 44 42.5 75t81.5 31q44 0 70.5 -31t20.5 -75q-9 -45 -46 -77t-81 -32t-70.5 32.5t-17.5 76.5zM840 1270q6 44 43 75t82 31q44 0 70 -31t20 -75q-9 -45 -46 -77t-81 -32t-70.5 32.5t-17.5 76.5z" />
<glyph unicode="&#xec;" horiz-adv-x="450" d="M45 0l180 1024h178l-180 -1024h-178zM164 1434l90 -277h170l-55 277h-205z" />
<glyph unicode="&#xed;" horiz-adv-x="450" d="M45 0l180 1024h178l-180 -1024h-178zM256 1157h172l182 277h-211z" />
<glyph unicode="&#xee;" horiz-adv-x="450" d="M45 0l180 1024h178l-180 -1024h-178zM61 1157l228 277h196l133 -277h-186l-67 143l-113 -143h-191z" />
<glyph unicode="&#xef;" horiz-adv-x="450" d="M45 0l180 1024h178l-180 -1024h-178zM98 1270q7 44 45 76t82 32t70 -32t18 -76q-7 -44 -45 -75.5t-82 -31.5t-70 31.5t-18 75.5zM403 1270q6 44 43.5 76t81.5 32t70.5 -32t19.5 -76q-9 -45 -45.5 -76t-80.5 -31t-70 31.5t-19 75.5z" />
<glyph unicode="&#xf0;" horiz-adv-x="1193" d="M74 500q38 211 204 333.5t373 104.5q50 -3 105 -16l-127 227l-281 -143l25 145l196 102l-100 181h186l62 -107l258 133l-25 -147l-174 -88l268 -463q36 -63 54.5 -151.5t5.5 -168.5q-27 -148 -112.5 -255.5t-206 -159.5t-263.5 -52q-99 0 -189 40t-154.5 107.5t-94.5 167 t-10 210.5zM252 487q-27 -150 60.5 -246t234.5 -96q142 0 247 81.5t132 230.5q10 56 3.5 110.5t-28.5 91.5q-78 129 -268 129q-150 0 -253.5 -79.5t-127.5 -221.5z" />
<glyph unicode="&#xf1;" horiz-adv-x="1155" d="M45 0l180 1024h178l-24 -135q132 162 350 162q181 0 273.5 -115t60.5 -307l-111 -629h-178l109 618q22 127 -31.5 195t-175.5 68q-132 0 -230 -83.5t-127 -254.5v2l-96 -545h-178zM381 1180q11 81 38.5 138.5t63.5 85t79 34.5t86.5 -8t84.5 -48q29 -24 47.5 -36.5t37 -18 t31 3.5t23 33t17.5 66h151q-14 -99 -52 -162.5t-87.5 -83t-104.5 -8.5t-106 53q-29 24 -47.5 36.5t-37.5 18t-31.5 -3.5t-23.5 -33.5t-18 -66.5h-151z" />
<glyph unicode="&#xf2;" horiz-adv-x="1234" d="M80 530q21 120 83 220t148 165t189.5 100.5t210.5 35.5q106 0 197.5 -41t153 -112.5t88 -176t5.5 -223.5q-21 -122 -81.5 -223t-145 -166t-185 -100.5t-204.5 -35.5q-110 0 -204 41t-158 112.5t-91.5 177t-5.5 226.5zM258 512q-14 -87 4 -158t60.5 -115.5t102 -68.5 t128.5 -23q71 0 139.5 24t127.5 69t101.5 116.5t57.5 159.5q15 85 -3 154.5t-61 114t-103 68.5t-130 24q-69 -1 -137 -25t-126.5 -68.5t-101.5 -115t-59 -156.5zM508 1440l162 -271h172l-123 271h-211z" />
<glyph unicode="&#xf3;" horiz-adv-x="1234" d="M80 530q21 120 83 220t148 165t189.5 100.5t210.5 35.5q106 0 197.5 -41t153 -112.5t88 -176t5.5 -223.5q-21 -122 -81.5 -223t-145 -166t-185 -100.5t-204.5 -35.5q-110 0 -204 41t-158 112.5t-91.5 177t-5.5 226.5zM258 512q-14 -87 4 -158t60.5 -115.5t102 -68.5 t128.5 -23q71 0 139.5 24t127.5 69t101.5 116.5t57.5 159.5q15 85 -3 154.5t-61 114t-103 68.5t-130 24q-69 -1 -137 -25t-126.5 -68.5t-101.5 -115t-59 -156.5zM612 1169h176l248 271h-219z" />
<glyph unicode="&#xf4;" horiz-adv-x="1234" d="M80 530q21 120 83 220t148 165t189.5 100.5t210.5 35.5q106 0 197.5 -41t153 -112.5t88 -176t5.5 -223.5q-21 -122 -81.5 -223t-145 -166t-185 -100.5t-204.5 -35.5q-110 0 -204 41t-158 112.5t-91.5 177t-5.5 226.5zM258 512q-14 -87 4 -158t60.5 -115.5t102 -68.5 t128.5 -23q71 0 139.5 24t127.5 69t101.5 116.5t57.5 159.5q15 85 -3 154.5t-61 114t-103 68.5t-130 24q-69 -1 -137 -25t-126.5 -68.5t-101.5 -115t-59 -156.5zM416 1163l264 277h197l170 -277h-185l-96 166l-156 -166h-194z" />
<glyph unicode="&#xf5;" horiz-adv-x="1234" d="M80 530q21 120 83 220t148 165t189.5 100.5t210.5 35.5q106 0 197.5 -41t153 -112.5t88 -176t5.5 -223.5q-21 -122 -81.5 -223t-145 -166t-185 -100.5t-204.5 -35.5q-110 0 -204 41t-158 112.5t-91.5 177t-5.5 226.5zM258 512q-14 -87 4 -158t60.5 -115.5t102 -68.5 t128.5 -23q71 0 139.5 24t127.5 69t101.5 116.5t57.5 159.5q15 85 -3 154.5t-61 114t-103 68.5t-130 24q-69 -1 -137 -25t-126.5 -68.5t-101.5 -115t-59 -156.5zM428 1180q11 81 38.5 138.5t63.5 85t79 34.5t86.5 -8t84.5 -48q29 -24 47.5 -36.5t37 -18t31 3.5t23 33 t17.5 66h151q-14 -99 -52 -162.5t-87.5 -83t-104.5 -8.5t-106 53q-29 24 -47.5 36.5t-37.5 18t-31 -3.5t-23 -33.5t-18 -66.5h-152z" />
<glyph unicode="&#xf6;" horiz-adv-x="1234" d="M80 530q21 120 83 220t148 165t189.5 100.5t210.5 35.5q106 0 197.5 -41t153 -112.5t88 -176t5.5 -223.5q-21 -122 -81.5 -223t-145 -166t-185 -100.5t-204.5 -35.5q-110 0 -204 41t-158 112.5t-91.5 177t-5.5 226.5zM258 512q-14 -87 4 -158t60.5 -115.5t102 -68.5 t128.5 -23q71 0 139.5 24t127.5 69t101.5 116.5t57.5 159.5q15 85 -3 154.5t-61 114t-103 68.5t-130 24q-69 -1 -137 -25t-126.5 -68.5t-101.5 -115t-59 -156.5zM451 1274q6 44 42.5 75t81.5 31q44 0 70.5 -31t20.5 -75q-9 -45 -46 -77t-81 -32t-70.5 32.5t-17.5 76.5z M840 1274q6 44 43 75t82 31q44 0 70 -31t20 -75q-9 -45 -46 -77t-81 -32t-70.5 32.5t-17.5 76.5z" />
<glyph unicode="&#xf7;" horiz-adv-x="1177" d="M133 633l31 170h952l-31 -170h-952zM426 334q9 55 52.5 90t101.5 35q54 0 85.5 -39t22.5 -94q-11 -56 -53.5 -91.5t-99.5 -35.5q-54 0 -86 39.5t-23 95.5zM563 1110q9 55 52.5 90t99.5 35q55 0 87 -38.5t23 -94.5q-11 -56 -53.5 -91.5t-99.5 -35.5q-54 0 -86.5 40 t-22.5 95z" />
<glyph unicode="&#xf8;" horiz-adv-x="1234" d="M55 43l107 102q-124 157 -82 385q21 120 83 220t148 165t189.5 100.5t210.5 35.5q173 0 295 -101l88 86l92 -55l-109 -104q117 -157 78 -379q-28 -162 -121.5 -283.5t-222 -181.5t-272.5 -60q-174 0 -303 99l-86 -84zM258 512q-23 -144 39 -238l573 549q-82 54 -188 54 q-69 -1 -137 -25t-126.5 -68.5t-101.5 -115t-59 -156.5zM369 199q76 -52 184 -52q71 0 139.5 24t127.5 69t101.5 116.5t57.5 159.5q23 139 -37 232z" />
<glyph unicode="&#xf9;" horiz-adv-x="1155" d="M92 395l111 629h178l-109 -618q-22 -127 31.5 -195t175.5 -68q132 0 230 83.5t127 254.5v-2l96 545h178l-180 -1024h-178l24 135q-132 -162 -350 -162q-181 0 -273.5 115t-60.5 307zM446 1434h211l123 -271h-172z" />
<glyph unicode="&#xfa;" horiz-adv-x="1155" d="M92 395l111 629h178l-109 -618q-22 -127 31.5 -195t175.5 -68q132 0 230 83.5t127 254.5v-2l96 545h178l-180 -1024h-178l24 135q-132 -162 -350 -162q-181 0 -273.5 115t-60.5 307zM551 1163l205 271h219l-248 -271h-176z" />
<glyph unicode="&#xfb;" horiz-adv-x="1155" d="M92 395l111 629h178l-109 -618q-22 -127 31.5 -195t175.5 -68q132 0 230 83.5t127 254.5v-2l96 545h178l-180 -1024h-178l24 135q-132 -162 -350 -162q-181 0 -273.5 115t-60.5 307zM354 1157l264 277h197l170 -277h-184l-96 166l-156 -166h-195z" />
<glyph unicode="&#xfc;" horiz-adv-x="1155" d="M92 395l111 629h178l-109 -618q-22 -127 31.5 -195t175.5 -68q132 0 230 83.5t127 254.5v-2l96 545h178l-180 -1024h-178l24 135q-132 -162 -350 -162q-181 0 -273.5 115t-60.5 307zM389 1268q6 44 43 75t82 31q44 0 70 -31t20 -75q-9 -45 -46 -77t-81 -32t-70.5 32.5 t-17.5 76.5zM778 1268q6 44 43 75t82 31q44 0 70 -31t20 -75q-9 -45 -46 -77t-81 -32t-70.5 32.5t-17.5 76.5z" />
<glyph unicode="&#xfd;" horiz-adv-x="1054" d="M6 -410l29 166q97 -7 167.5 44t135.5 161l31 49l-263 1014h181l202 -809l443 809h198l-608 -1087q-204 -369 -516 -347zM487 1163l205 271h219l-247 -271h-177z" />
<glyph unicode="&#xfe;" horiz-adv-x="1298" d="M-27 -410l324 1844h178l-98 -564q160 181 409 181q142 0 251.5 -77t158 -206t23.5 -276q-27 -157 -114 -277t-208.5 -181t-257.5 -61q-127 0 -228 58t-153 164l-106 -605h-179zM315 522q-16 -89 3.5 -162t64.5 -119t107.5 -71t134.5 -25q94 0 179.5 39.5t150.5 123 t85 196.5q26 158 -59.5 266.5t-241.5 108.5q-155 0 -275.5 -100.5t-148.5 -256.5z" />
<glyph unicode="&#xff;" horiz-adv-x="1054" d="M6 -410l29 166q97 -7 167.5 44t135.5 161l31 49l-263 1014h181l202 -809l443 809h198l-608 -1087q-204 -369 -516 -347zM326 1268q6 44 43 75t82 31q44 0 70 -31t20 -75q-9 -45 -46 -77t-81 -32t-70.5 32.5t-17.5 76.5zM715 1268q6 44 43 75t82 31q44 0 70 -31t20 -75 q-9 -45 -46 -77t-81 -32t-70.5 32.5t-17.5 76.5z" />
<glyph unicode="&#x152;" horiz-adv-x="1875" d="M117 729q36 205 156.5 372t302.5 263t387 96q101 0 194 -26h795l-31 -181h-604l-78 -440h567l-32 -178h-568l-80 -455h615l-31 -180h-805q-106 -27 -198 -27q-151 0 -275.5 60.5t-202.5 162.5t-109 241.5t-3 291.5zM305 717q-27 -156 16.5 -282.5t152 -200.5t261.5 -74 q123 0 203 30l186 1055q-85 31 -188 31q-154 0 -289 -74t-225 -201.5t-117 -283.5z" />
<glyph unicode="&#x153;" horiz-adv-x="2095" d="M80 524q26 148 111 267t220 189.5t294 70.5q142 0 247.5 -73t153.5 -196q83 125 213.5 197t284.5 72q143 0 250 -73.5t153 -198.5t18 -269q-7 -47 -20 -80h-856q0 -137 85 -213t226 -76q206 0 326 152l133 -96q-77 -106 -204.5 -165t-262.5 -59q-159 0 -269 72t-155 197 q-85 -126 -216 -197.5t-286 -71.5t-267 76t-158 202t-21 273zM258 512q-27 -157 55 -261t240 -104q154 0 277 105t149 260q29 155 -57 260t-240 105q-158 0 -277 -104t-147 -261zM1178 588h680q6 146 -71.5 220.5t-207.5 74.5q-142 0 -249.5 -79t-151.5 -216z" />
<glyph unicode="&#x178;" horiz-adv-x="1196" d="M178 1434h199l266 -600l475 600h223l-624 -779l-115 -655h-190l116 659zM496 1677q6 44 43 75.5t82 31.5q44 0 70 -31.5t20 -75.5q-9 -45 -46 -76.5t-81 -31.5t-70.5 32t-17.5 76zM885 1677q6 44 43 75.5t82 31.5q44 0 70 -31.5t20 -75.5q-9 -45 -46 -76.5t-81 -31.5 t-70.5 32t-17.5 76z" />
<glyph unicode="&#x2c6;" horiz-adv-x="712" d="M154 1157l264 277h196l170 -277h-184l-96 166l-156 -166h-194z" />
<glyph unicode="&#x2dc;" horiz-adv-x="696" d="M162 1174q11 81 38.5 138.5t63.5 85t79 34.5t86.5 -8t84.5 -48q29 -24 47.5 -36.5t37 -18.5t31 3.5t23 33t17.5 65.5h151q-14 -99 -52 -162t-87.5 -82.5t-104.5 -8.5t-106 53q-29 24 -47.5 36.5t-37.5 18t-31.5 -3.5t-23.5 -33.5t-18 -66.5h-151z" />
<glyph unicode="&#x2000;" horiz-adv-x="924" />
<glyph unicode="&#x2001;" horiz-adv-x="1849" />
<glyph unicode="&#x2002;" horiz-adv-x="924" />
<glyph unicode="&#x2003;" horiz-adv-x="1849" />
<glyph unicode="&#x2004;" horiz-adv-x="616" />
<glyph unicode="&#x2005;" horiz-adv-x="462" />
<glyph unicode="&#x2006;" horiz-adv-x="308" />
<glyph unicode="&#x2007;" horiz-adv-x="308" />
<glyph unicode="&#x2008;" horiz-adv-x="231" />
<glyph unicode="&#x2009;" horiz-adv-x="369" />
<glyph unicode="&#x200a;" horiz-adv-x="102" />
<glyph unicode="&#x2010;" horiz-adv-x="1054" d="M160 543l28 172h748l-29 -172h-747z" />
<glyph unicode="&#x2011;" horiz-adv-x="1054" d="M160 543l28 172h748l-29 -172h-747z" />
<glyph unicode="&#x2012;" horiz-adv-x="1054" d="M160 543l28 172h748l-29 -172h-747z" />
<glyph unicode="&#x2013;" horiz-adv-x="1312" d="M160 543l28 172h1006l-31 -172h-1003z" />
<glyph unicode="&#x2014;" horiz-adv-x="1517" d="M160 543l28 172h1211l-31 -172h-1208z" />
<glyph unicode="&#x2018;" horiz-adv-x="518" d="M190 936l222 498h153l-170 -498h-205z" />
<glyph unicode="&#x2019;" horiz-adv-x="518" d="M190 938l170 498h205l-221 -498h-154z" />
<glyph unicode="&#x201a;" horiz-adv-x="518" d="M-27 -287l170 498h205l-221 -498h-154z" />
<glyph unicode="&#x201c;" horiz-adv-x="835" d="M190 936l222 498h153l-170 -498h-205zM508 936l221 498h154l-170 -498h-205z" />
<glyph unicode="&#x201d;" horiz-adv-x="835" d="M190 938l170 498h205l-221 -498h-154zM508 938l170 498h205l-221 -498h-154z" />
<glyph unicode="&#x201e;" horiz-adv-x="835" d="M-27 -287l170 498h205l-221 -498h-154zM291 -287l170 498h205l-222 -498h-153z" />
<glyph unicode="&#x2022;" horiz-adv-x="655" d="M137 727q17 96 93.5 158.5t177.5 62.5q93 0 148 -70.5t38 -166.5q-19 -97 -94 -160.5t-174 -63.5q-96 0 -152 71.5t-37 168.5z" />
<glyph unicode="&#x2026;" horiz-adv-x="1327" d="M45 113q9 57 52.5 94t103.5 37q56 0 88 -40t22 -95q-11 -57 -53.5 -94.5t-103.5 -37.5q-55 0 -86.5 40t-22.5 96zM461 113q9 57 52 94t103 37q56 0 88.5 -40t22.5 -95q-11 -57 -54 -94.5t-104 -37.5q-55 0 -86 40t-22 96zM874 113q9 57 52.5 94t103.5 37q56 0 88.5 -40 t22.5 -95q-11 -57 -54 -94.5t-104 -37.5q-55 0 -86.5 40t-22.5 96z" />
<glyph unicode="&#x202f;" horiz-adv-x="369" />
<glyph unicode="&#x2039;" horiz-adv-x="702" d="M160 633l289 375h202l-295 -385l156 -363h-193z" />
<glyph unicode="&#x203a;" horiz-adv-x="704" d="M94 258l295 385l-156 363h193l160 -373l-289 -375h-203z" />
<glyph unicode="&#x205f;" horiz-adv-x="462" />
<glyph unicode="&#x20ac;" horiz-adv-x="1232" d="M43 539l25 133h137q4 38 8 59q2 18 10 49h-137l23 131h147q83 258 248.5 403.5t390.5 145.5q146 0 249 -75t148 -207l-168 -88q-60 186 -260 186q-138 0 -243 -93.5t-168 -271.5h485l-23 -131h-499l-13 -63q-1 -7 -4 -22.5t-4 -22.5h502l-25 -133h-487q-5 -183 68 -281 t215 -98q201 0 323 194l150 -94q-87 -138 -214 -212.5t-288 -74.5q-216 0 -332.5 153.5t-111.5 412.5h-152z" />
<glyph unicode="&#x2122;" horiz-adv-x="960" d="M223 1346l17 88h329l-16 -88h-117l-55 -322h-94l55 322h-119zM545 1024l71 410h95l77 -193l150 193h106l-71 -410h-94l45 256l-152 -184h-8l-80 182l-45 -254h-94z" />
<glyph unicode="&#x25fc;" horiz-adv-x="1024" d="M0 0v1024h1024v-1024h-1024z" />
<glyph unicode="&#xfb03;" horiz-adv-x="1642" d="M109 852l30 172h164l6 31q37 214 169.5 317t350.5 88l-32 -172q-132 11 -209 -45t-101 -188l-6 -31h381l8 51q36 210 165 308t349 98q90 0 211 -27l-26 -162q-99 17 -197 17q-143 0 -221.5 -53.5t-101.5 -180.5l-9 -51h557l-180 -1024h-178l150 852h-379l-150 -852h-178 l149 852h-378l-152 -852h-178l151 852h-165z" />
<glyph unicode="&#xfb04;" horiz-adv-x="1642" d="M109 852l30 172h164l6 31q37 214 169.5 317t350.5 88l-32 -172q-132 11 -209 -45t-101 -188l-6 -31h381l8 51q36 210 166 308t353 98q120 0 282 -31l-254 -1450h-178l231 1317q-74 4 -108 4q-137 0 -213.5 -57.5t-99.5 -188.5l-9 -51h213l-30 -172h-213l-150 -852h-178 l149 852h-378l-152 -852h-178l151 852h-165z" />
</font>
</defs>
</svg>
