<?xml version="1.0" standalone="no"?>
<!DOCTYPE svg PUBLIC "-//W3C//DTD SVG 1.1//EN" "http://www.w3.org/Graphics/SVG/1.1/DTD/svg11.dtd" >
<svg xmlns="http://www.w3.org/2000/svg">
<metadata></metadata>
<defs>
<font id="gilroyblack_italic" horiz-adv-x="1259" >
<font-face units-per-em="2048" ascent="1638" descent="-410" />
<missing-glyph horiz-adv-x="464" />
<glyph unicode="&#xfb01;" horiz-adv-x="1171" d="M66 698l55 326h129q39 228 184.5 334t409.5 106q134 0 260 -30l-51 -297q-111 18 -224 18q-215 0 -239 -131h573l-180 -1024h-340l123 698h-234l-122 -698h-340l123 698h-127z" />
<glyph unicode="&#xfb02;" horiz-adv-x="1171" d="M66 698l55 326h129q39 228 184.5 334t409.5 106q186 0 391 -41l-252 -1423h-340l207 1174q-20 2 -62 2q-78 0 -130.5 -38t-67.5 -114h135l-57 -326h-136l-122 -698h-340l123 698h-127z" />
<glyph horiz-adv-x="0" />
<glyph horiz-adv-x="682" />
<glyph unicode=" "  horiz-adv-x="464" />
<glyph unicode="&#x09;" horiz-adv-x="464" />
<glyph unicode="&#xa0;" horiz-adv-x="464" />
<glyph unicode="!" horiz-adv-x="602" d="M31 188q15 88 86.5 148.5t163.5 60.5q89 0 140 -64.5t36 -152.5q-15 -91 -85 -150t-167 -59q-87 0 -138 63.5t-36 153.5zM162 522l20 502l72 410h418l-72 -410l-156 -502h-282z" />
<glyph unicode="&#x22;" horiz-adv-x="905" d="M201 903l53 531h315l-135 -531h-233zM608 903l51 531h316l-133 -531h-234z" />
<glyph unicode="#" horiz-adv-x="1292" d="M20 399l82 246h211l49 143h-208l82 246h210l103 297h262l-102 -297h168l102 297h262l-102 -297h204l-81 -246h-207l-49 -143h206l-82 -246h-208l-103 -297h-262l102 297h-167l-103 -297h-262l102 297h-209zM575 645h168l50 143h-168z" />
<glyph unicode="$" horiz-adv-x="1161" d="M2 315l324 168q52 -135 166 -164l45 248l-29 13q-40 17 -74.5 34t-70.5 39t-63 45t-53.5 53t-42 62t-28 71.5t-11.5 83t7 95.5q22 127 100 219t186.5 136.5t235.5 45.5l31 174h143l-32 -188q121 -28 211 -105t139 -198l-316 -168q-37 85 -98 119l-41 -232q2 -1 6 -2t6 -2 q151 -62 215 -106q160 -111 152 -304q-1 -35 -8 -73q-34 -191 -175.5 -296t-353.5 -114l-30 -174h-144l33 180q-170 21 -280.5 111t-149.5 229zM532 1030q-11 -61 68 -104l33 192q-41 -7 -68 -31t-33 -57zM635 319q44 10 70 35.5t32 59.5q10 57 -67 98z" />
<glyph unicode="%" horiz-adv-x="1685" d="M176 1100q24 153 142 258.5t290 105.5q108 0 188 -56t113 -145t15 -188q-31 -147 -146.5 -246.5t-281.5 -99.5q-161 0 -251.5 112t-68.5 259zM236 227l1118 1024l129 -84l-1118 -1026zM449 1098q-9 -46 14 -77.5t67 -31.5q46 0 81.5 32.5t43.5 76.5q8 45 -16.5 75.5 t-69.5 30.5q-44 0 -78 -30.5t-42 -75.5zM836 348q24 151 142.5 255t287.5 104q107 0 187 -55t113 -143.5t15 -186.5q-29 -148 -145 -249.5t-281 -101.5q-109 0 -188.5 54t-113 140t-17.5 183zM1106 338q-9 -45 14.5 -76t67.5 -31q46 0 81.5 32t43.5 75q8 47 -16 77.5 t-70 30.5q-44 0 -78.5 -31t-42.5 -77z" />
<glyph unicode="&#x26;" horiz-adv-x="1425" d="M57 428q45 255 312 389q-56 126 -35 254q29 181 171 287t345 106q356 0 477 -325l-332 -174q-54 151 -166 151q-52 0 -88 -28t-45 -78q-5 -33 8 -70t27.5 -59t50.5 -72l189 -256q60 102 100 211l277 -176q-89 -177 -185 -299l156 -213l-303 -154l-109 146 q-172 -99 -385 -99q-165 0 -279.5 62.5t-161 166t-24.5 230.5zM428 440q-11 -65 31 -109t133 -44q69 0 133 28l-193 260q-4 4 -4 7q-42 -26 -68 -64.5t-32 -77.5z" />
<glyph unicode="'" horiz-adv-x="497" d="M201 903l53 531h315l-135 -531h-233z" />
<glyph unicode="(" horiz-adv-x="669" d="M109.5 252q-17.5 246 23.5 496q82 470 383 890h342q-305 -449 -387 -921q-82 -474 61 -922h-335q-70 211 -87.5 457z" />
<glyph unicode=")" horiz-adv-x="667" d="M-117 -205q305 448 387 922t-61 921h336q70 -210 87.5 -456.5t-24.5 -495.5q-82 -471 -383 -891h-342z" />
<glyph unicode="*" horiz-adv-x="829" d="M186 1042l35 197l182 -20l-90 143l174 102l58 -168l117 168l153 -102l-141 -143l190 20l-35 -197l-182 21l90 -143l-174 -103l-57 168l-117 -168l-153 103l139 143z" />
<glyph unicode="+" horiz-adv-x="1146" d="M90 555l60 324h327l58 327h323l-57 -327h327l-57 -324h-328l-57 -328h-326l58 328h-328z" />
<glyph unicode="," horiz-adv-x="618" d="M-53 -287l184 643h377l-287 -643h-274z" />
<glyph unicode="-" horiz-adv-x="1024" d="M102 455l58 323h798l-57 -323h-799z" />
<glyph unicode="." horiz-adv-x="591" d="M27 188q15 89 85.5 149t163.5 60q88 0 139 -64t36 -153q-15 -91 -84 -150t-166 -59q-87 0 -138 63.5t-36 153.5z" />
<glyph unicode="/" horiz-adv-x="1064" d="M-76 -205l1135 1843h153l-1134 -1843h-154z" />
<glyph unicode="0" horiz-adv-x="1290" d="M90 737q60 339 243.5 533t463.5 194q187 0 309 -99.5t163.5 -273t2.5 -395.5q-61 -340 -244 -533.5t-463 -193.5q-186 0 -308 99.5t-164 273t-3 395.5zM457 717q-71 -391 155 -391q224 0 295 391q34 197 -4 294t-153 97q-225 0 -293 -391z" />
<glyph unicode="1" horiz-adv-x="849" d="M150 1294l413 140h316l-252 -1434h-367l182 1032l-260 -63z" />
<glyph unicode="2" horiz-adv-x="1105" d="M-45 0l45 266l569 502q79 69 121.5 121.5t50.5 101.5q9 52 -17 84.5t-79 32.5q-120 0 -217 -156l-297 183q98 164 245 246.5t316 82.5q95 0 179.5 -35t144 -96.5t86.5 -153.5t8 -198q-22 -125 -87 -219.5t-192 -204.5l-237 -203h426l-62 -354h-1003z" />
<glyph unicode="3" horiz-adv-x="1122" d="M-12 293l336 174q23 -72 65 -106.5t119 -34.5q80 0 126.5 36t57.5 99q9 61 -26.5 97t-110.5 36h-76l-104 209l266 280h-469l61 351h932l-51 -289l-289 -305q124 -52 189.5 -160.5t40.5 -253.5q-17 -94 -56 -170t-94 -129t-125 -89t-147.5 -52.5t-163.5 -16.5 q-179 0 -305 81.5t-176 242.5z" />
<glyph unicode="4" horiz-adv-x="1183" d="M-20 219l59 334l569 881h418l-573 -881h215l45 258h364l-45 -258h144l-60 -334h-143l-39 -219h-365l39 219h-628z" />
<glyph unicode="5" horiz-adv-x="1124" d="M-12 293l338 176q22 -71 69.5 -107t128.5 -36q76 0 124 35.5t59 95.5q11 61 -23 98t-106 37h-461l207 842h845l-61 -351h-502l-39 -153h88q99 0 182.5 -33t143 -94t84.5 -158t4 -215q-20 -115 -75.5 -204.5t-135 -144.5t-174 -83.5t-199.5 -28.5q-186 0 -314.5 81 t-182.5 243z" />
<glyph unicode="6" horiz-adv-x="1146" d="M29 496q30 176 143 299l530 639h428l-382 -463q189 -36 290 -179.5t68 -336.5q-40 -224 -202 -355t-404 -131q-166 0 -283 69.5t-165.5 189.5t-22.5 268zM393 475q-14 -82 26.5 -126t117.5 -44q76 0 132.5 44.5t71.5 125.5q15 82 -26 127t-117 45q-78 0 -134 -45 t-71 -127z" />
<glyph unicode="7" horiz-adv-x="1003" d="M39 0l606 1079h-545l64 355h969l-52 -304l-632 -1130h-410z" />
<glyph unicode="8" horiz-adv-x="1165" d="M31 422q20 109 85.5 196t170.5 142q-129 116 -97 293q23 130 102 224t192.5 139.5t250.5 45.5q99 0 184.5 -30t146 -84.5t87 -138t8.5 -183.5q-33 -185 -198 -287q83 -61 117.5 -154.5t15.5 -199.5q-36 -198 -186.5 -306t-401.5 -108q-258 0 -385.5 125.5t-91.5 325.5z M403 455q-13 -68 27 -108t117 -40q76 0 129.5 40t66.5 108q10 70 -28.5 109.5t-114.5 39.5q-78 0 -131.5 -39.5t-65.5 -109.5zM530 1008q-9 -57 22 -90t97 -33q63 0 108 33.5t54 89.5q9 55 -23.5 88.5t-95.5 33.5q-66 0 -109.5 -33t-52.5 -89z" />
<glyph unicode="9" horiz-adv-x="1146" d="M88 0l383 463q-189 36 -290 179.5t-68 336.5q40 224 202 354.5t404 130.5q166 0 283 -69.5t165.5 -189t22.5 -267.5q-30 -176 -143 -299l-531 -639h-428zM477 958q-14 -82 26.5 -127t117.5 -45q78 0 133.5 45t70.5 127q14 82 -26 126t-117 44q-76 0 -133 -44.5 t-72 -125.5z" />
<glyph unicode=":" horiz-adv-x="591" d="M27 188q15 89 85.5 149t163.5 60q88 0 139 -64t36 -153q-15 -91 -84 -150t-166 -59q-87 0 -138 63.5t-36 153.5zM143 846q15 89 86 149t164 60q88 0 138.5 -64t35.5 -153q-15 -91 -84 -150t-166 -59q-87 0 -138 63.5t-36 153.5z" />
<glyph unicode=";" horiz-adv-x="618" d="M-57 -287l184 643h377l-287 -643h-274zM168 846q15 89 86 149t164 60q88 0 138.5 -64t35.5 -153q-15 -91 -84 -150t-166 -59q-87 0 -138 63.5t-36 153.5z" />
<glyph unicode="&#x3c;" horiz-adv-x="1067" d="M82 565l53 303l993 400l-67 -371l-588 -199l520 -198l-61 -334z" />
<glyph unicode="=" horiz-adv-x="1046" d="M41 330l57 325h899l-57 -325h-899zM119 778l59 326h899l-59 -326h-899z" />
<glyph unicode="&#x3e;" horiz-adv-x="1067" d="M10 166l68 371l590 198l-521 199l60 334l850 -400l-53 -303z" />
<glyph unicode="?" horiz-adv-x="1122" d="M150 1126q84 165 237 251.5t334 86.5q97 0 180 -31.5t140 -86.5t81.5 -137t7.5 -177q-13 -72 -48 -134.5t-78.5 -103t-92.5 -79.5t-90 -66.5t-71.5 -61t-36.5 -65.5h-346q11 68 43 125.5t72 95t86.5 73.5t85.5 63t68 62t36 71q8 44 -17.5 71t-74.5 27q-74 0 -126.5 -43.5 t-95.5 -126.5zM268 188q15 88 86.5 148.5t163.5 60.5q89 0 140 -64.5t36 -152.5q-15 -91 -85 -150t-167 -59q-87 0 -138 63.5t-36 153.5z" />
<glyph unicode="@" horiz-adv-x="1574" d="M55.5 286q-16.5 114 3.5 244q36 204 157 368.5t306 259.5t398 95q93 0 177 -22t148.5 -61t118.5 -93t87.5 -117.5t56.5 -134.5t24.5 -144t-8.5 -146q-39 -217 -147 -329t-271 -112q-97 0 -163.5 43.5t-90.5 116.5q-86 -80 -207 -80q-133 0 -204 104t-44 252 q26 145 119.5 232.5t216.5 87.5q113 0 182 -88l13 63h278l-86 -483q-11 -64 8 -96.5t74 -32.5q78 0 140 79t92 251q30 171 -29 315t-190.5 227.5t-305.5 83.5q-182 0 -344.5 -84t-272 -232t-142.5 -331q-24 -141 7.5 -265t108 -212t195 -139t262.5 -51q177 0 319 45l-16 -88 q-137 -41 -315 -41q-130 0 -243.5 37.5t-197 105.5t-141 163t-74 209zM676 512q-8 -46 14 -76t66 -30q43 0 74 29.5t40 76.5t-12 76.5t-65 29.5t-76 -29t-41 -77z" />
<glyph unicode="A" horiz-adv-x="1374" d="M-100 0l725 1434h446l221 -1434h-391l-22 207h-478l-98 -207h-403zM553 522h291l-53 496z" />
<glyph unicode="B" horiz-adv-x="1232" d="M23 0l251 1434h545q213 0 332 -118q94 -94 94 -230q0 -35 -6 -74q-34 -186 -184 -281q128 -97 128 -260q0 -31 -5 -65q-26 -182 -172 -294t-390 -112h-593zM446 328h222q60 0 101 33.5t50 87.5q3 16 3 29q0 34 -20 58q-28 32 -89 33h-224zM545 881h180q56 0 95 29t48 83 q2 13 2 24q0 35 -20 59q-28 30 -84 30h-182z" />
<glyph unicode="C" horiz-adv-x="1478" d="M96 737q26 157 102.5 292t188 230.5t255.5 150t300 54.5q211 0 359.5 -91t226.5 -251l-336 -178q-81 162 -285 162q-167 0 -291 -108t-155 -281q-8 -45 -8 -86q0 -113 61 -193q83 -110 246 -110q206 0 336 172l301 -195q-115 -159 -288 -247.5t-374 -88.5q-163 0 -296 60 t-217 162.5t-118 244.5q-19 80 -20 165q0 66 12 136z" />
<glyph unicode="D" horiz-adv-x="1452" d="M23 0l251 1434h584q185 0 328.5 -99t209.5 -269q43 -111 43 -236q0 -66 -12 -134q-55 -308 -280 -502t-541 -194h-583zM461 354h196q156 0 269.5 101.5t144.5 267.5q7 43 7 81q0 106 -56 178q-76 96 -225 97h-207z" />
<glyph unicode="E" horiz-adv-x="1095" d="M23 0l251 1434h912l-62 -342h-542l-37 -201h495l-61 -336h-492l-36 -211h553l-60 -344h-921z" />
<glyph unicode="F" horiz-adv-x="1060" d="M23 0l251 1434h881l-61 -355h-514l-41 -233h501l-61 -354h-504l-86 -492h-366z" />
<glyph unicode="G" horiz-adv-x="1595" d="M96 737q35 210 155 375.5t301.5 258.5t391.5 93q211 0 364.5 -90t235.5 -248l-336 -180q-89 160 -301 160q-167 0 -291 -108t-155 -281q-8 -46 -8 -87q0 -116 63 -200q87 -113 258 -113q264 0 371 189h-332l55 315h723l-24 -145q-54 -325 -277.5 -516t-548.5 -191 q-165 0 -299.5 60t-219 163t-118.5 244q-20 80 -20 165q0 66 12 136z" />
<glyph unicode="H" horiz-adv-x="1361" d="M23 0l251 1434h367l-94 -531h403l94 531h365l-252 -1434h-364l96 551h-404l-96 -551h-366z" />
<glyph unicode="I" horiz-adv-x="591" d="M23 0l251 1434h367l-252 -1434h-366z" />
<glyph unicode="J" horiz-adv-x="1165" d="M8 266l332 178q22 -64 60 -91t106 -27q167 0 192 145l170 963h367l-172 -969q-43 -250 -193.5 -373t-390.5 -123q-184 0 -298.5 73.5t-172.5 223.5z" />
<glyph unicode="K" horiz-adv-x="1292" d="M23 0l251 1434h367l-102 -582l489 582h428l-610 -713l364 -721h-379l-327 653l-115 -653h-366z" />
<glyph unicode="L" horiz-adv-x="993" d="M23 0l251 1434h367l-190 -1080h493l-61 -354h-860z" />
<glyph unicode="M" horiz-adv-x="1689" d="M23 0l251 1434h367l233 -619l474 619h389l-252 -1434h-365l135 774l-448 -577h-37l-244 587l-137 -784h-366z" />
<glyph unicode="N" horiz-adv-x="1382" d="M23 0l251 1434h285l373 -750l133 750h365l-252 -1434h-283l-373 750l-133 -750h-366z" />
<glyph unicode="O" horiz-adv-x="1617" d="M96 739q26 149 99 281t182.5 230.5t259.5 156t319 57.5q162 0 295.5 -63.5t215.5 -168.5q83 -106 117 -246q20 -81 19 -164q0 -61 -10 -124q-26 -150 -98 -282t-180.5 -232t-258 -157.5t-319.5 -57.5q-164 0 -298.5 64t-216.5 171q-84 106 -118 246q-20 80 -19 163 q0 62 11 126zM461 717q-8 -45 -8 -85q1 -114 65 -195q88 -109 252 -109q166 0 298 109.5t161 279.5q7 42 7 81q0 116 -67 198q-90 110 -256 110q-165 0 -293 -109t-159 -280z" />
<glyph unicode="P" horiz-adv-x="1212" d="M23 0l251 1434h541q217 0 343 -147q100 -117 99 -285q0 -44 -6 -91q-31 -217 -189.5 -349t-408.5 -132h-188l-76 -430h-366zM526 778h179q71 0 120.5 42t61.5 112q3 19 3 35q0 45 -26 75q-36 40 -110 41h-174z" />
<glyph unicode="Q" horiz-adv-x="1628" d="M88 543q-4 37 -4 74q0 60 12 122q25 149 100 281t185.5 230.5t260 156t314.5 57.5q162 0 295.5 -63.5t215.5 -169t117 -245.5q20 -80 20 -164q0 -61 -11 -124q-44 -265 -229 -462l104 -138l-270 -204l-113 147q-159 -72 -348 -72q-107 0 -204.5 29t-172 81.5 t-134.5 124.5t-92.5 157.5t-45.5 181.5zM461 717q-8 -45 -8 -85q0 -115 65 -195q87 -109 252 -109q47 0 86 8l-164 213l273 205l180 -236q67 93 84 199q7 43 7 81q0 116 -67 198q-90 110 -256 110q-165 0 -293 -109t-159 -280z" />
<glyph unicode="R" horiz-adv-x="1269" d="M23 0l253 1434h562q139 0 249 -68t163 -188q36 -81 36 -172q0 -43 -8 -88q-24 -137 -105.5 -239.5t-205.5 -158.5l196 -520h-368l-168 463h-156l-82 -463h-366zM524 774h211h3q64 0 112 44t61 116q3 18 3 34q0 48 -27 82q-36 46 -109 46h-196z" />
<glyph unicode="S" horiz-adv-x="1204" d="M-6 326l325 168q59 -179 263 -179q87 0 132.5 27t53.5 72q4 23 -5 42.5t-23 32.5t-46.5 28t-55.5 23.5t-70 24.5q-29 10 -44 15q-49 17 -90.5 35t-82.5 42.5t-70.5 52.5t-56 63.5t-38.5 76.5q-12 42 -17 92q-1 15 -1 30q0 37 8 77q23 132 104 227.5t195.5 141.5t249.5 46 q180 0 310.5 -84.5t191.5 -242.5l-314 -168q-67 149 -217 149q-64 0 -101.5 -25.5t-45.5 -66.5q-2 -10 -2 -19q-1 -40 39 -67q48 -34 184 -80q35 -12 61 -22t60 -24t58.5 -28.5t53 -33t48 -39.5t39.5 -46t32 -55q10 -30 18 -65q7 -33 8 -71v-6q0 -42 -9 -87 q-36 -202 -192 -308t-396 -106q-229 0 -371 95.5t-186 261.5z" />
<glyph unicode="T" horiz-adv-x="1116" d="M121 1079l61 355h1075l-63 -355h-352l-191 -1079h-366l190 1079h-354z" />
<glyph unicode="U" horiz-adv-x="1320" d="M86 471l170 963h367l-164 -928q-4 -25 -4 -46q0 -134 174 -134q201 0 233 180l162 928h367l-170 -963q-43 -242 -213 -372t-414 -130q-262 -1 -404 141q-112 112 -112 272q0 43 8 89z" />
<glyph unicode="V" horiz-adv-x="1310" d="M152 1434h380l93 -1008l444 1008h414l-699 -1434h-438z" />
<glyph unicode="W" horiz-adv-x="2056" d="M172 1434h371l71 -904l414 904h293l98 -904l385 904h402l-652 -1434h-387l-88 809l-370 -809h-387z" />
<glyph unicode="X" horiz-adv-x="1294" d="M-80 0l561 743l-293 691h398l149 -355l269 355h426l-541 -717l303 -717h-395l-162 381l-289 -381h-426z" />
<glyph unicode="Y" horiz-adv-x="1292" d="M162 1434h389l154 -461l315 461h434l-604 -809l-111 -625h-366l110 625z" />
<glyph unicode="Z" horiz-adv-x="1110" d="M-23 0l50 283l641 796h-492l64 355h970l-47 -283l-639 -797h512l-61 -354h-998z" />
<glyph unicode="[" horiz-adv-x="673" d="M-35 -205l326 1843h540l-55 -325h-201l-210 -1192h200l-59 -326h-541z" />
<glyph unicode="\" horiz-adv-x="1064" d="M250 1638h139l498 -1843h-139z" />
<glyph unicode="]" horiz-adv-x="673" d="M-86 -205l57 326h201l211 1192h-201l58 325h540l-325 -1843h-541z" />
<glyph unicode="^" horiz-adv-x="1187" d="M96 709l539 725h242l282 -725h-356l-105 323l-225 -323h-377z" />
<glyph unicode="_" horiz-adv-x="1054" d="M-106 -381l57 324h952l-57 -324h-952z" />
<glyph unicode="`" horiz-adv-x="643" d="M203 1434l194 -297h316l-125 297h-385z" />
<glyph unicode="a" d="M46 360q-1 24 -1 48q0 58 8 118q16 103 62 196.5t115 168t167.5 118.5t210.5 44q196 0 283 -142l20 113h340l-180 -1024h-340l14 80q-118 -109 -299 -109q-90 0 -163.5 30.5t-121 83.5t-79 124t-36.5 151zM393 512q-4 -26 -4 -50q1 -66 35 -112q48 -62 143 -61 q95 0 165 59.5t89 157.5v6q4 26 4 50q-1 66 -35 112q-48 62 -145 61q-97 0 -166 -61t-86 -162z" />
<glyph unicode="b" d="M8 0l252 1434h340l-86 -494q116 113 289 113q141 0 243 -79q100 -78 142 -206q26 -81 27 -170q0 -52 -9 -106q-25 -145 -96 -261.5t-188 -188t-260 -71.5q-204 0 -293 146l-21 -117h-340zM438 512q-4 -26 -4 -50q0 -69 37 -113q50 -60 145 -60t164 60t86 163q5 28 5 53 q1 67 -35 110q-48 60 -144 60q-94 0 -165 -60.5t-89 -162.5z" />
<glyph unicode="c" horiz-adv-x="1089" d="M53 532q37 227 209.5 374t401.5 147q161 0 272.5 -73t167.5 -196l-309 -161q-45 98 -160 98q-91 0 -159 -57t-83 -150q-4 -24 -5 -45q0 -61 36 -106q48 -60 135 -60q117 0 191 103l270 -173q-77 -129 -206.5 -195.5t-281.5 -66.5q-163 0 -281.5 75t-170.5 203 q-35 87 -35 187q0 47 8 96z" />
<glyph unicode="d" horiz-adv-x="1261" d="M46 360q-1 24 -1 48q0 58 8 118q16 103 62 196.5t115 168t167.5 118.5t210.5 44q197 0 285 -144l92 525h340l-252 -1434h-340l15 82q-121 -111 -302 -111q-90 0 -163.5 30.5t-121 83.5t-79 124t-36.5 151zM393 512q-4 -26 -4 -50q0 -66 35 -112q48 -62 145 -61 q94 0 163 57.5t89 153.5l4 20q3 22 3 42q0 68 -37 114q-48 58 -144 58.5t-166.5 -60.5t-87.5 -162z" />
<glyph unicode="e" horiz-adv-x="1163" d="M53 532q37 224 209 372.5t402 148.5q152 0 265.5 -71.5t163.5 -195.5q32 -81 32 -171q0 -49 -9 -101q-8 -58 -35 -127h-702q29 -125 196 -125q123 0 203 74l217 -199q-178 -166 -446 -166q-134 0 -238.5 44.5t-166 121.5t-85.5 179q-14 58 -14 120q0 47 8 96zM420 625 h387q-11 141 -162 141t-225 -141z" />
<glyph unicode="f" horiz-adv-x="677" d="M66 698l55 326h129q40 226 190 340q133 102 347 102q28 0 57 -2l-56 -315q-15 1 -29 1q-145 0 -169 -126h176l-57 -326h-177l-122 -698h-340l123 698h-127z" />
<glyph unicode="g" horiz-adv-x="1267" d="M2 -190l301 157q57 -110 209 -110q94 0 157.5 46t80.5 138l14 78q-120 -107 -291 -107q-117 0 -205 45.5t-136.5 121.5t-66.5 171q-10 50 -10 103q0 46 8 94q15 96 59 185.5t112 161.5t167 115.5t213 43.5q199 0 289 -150l21 121h336l-175 -983q-22 -128 -79.5 -223 t-140 -150t-178.5 -81.5t-206 -26.5q-172 0 -298.5 64t-180.5 186zM403 532q-4 -24 -4 -45q0 -62 37 -106q49 -59 146 -59q90 0 159.5 52.5t92.5 137.5l6 41q1 12 1 23q0 69 -43 114q-51 53 -141 53q-97 0 -168 -59.5t-86 -151.5z" />
<glyph unicode="h" horiz-adv-x="1183" d="M8 0l252 1434h340l-90 -514q117 133 299 133q166 0 255 -116q64 -83 64 -214q0 -52 -10 -111l-108 -612h-340l100 569q4 22 4 41q0 50 -26 80q-35 40 -105 41q-77 0 -129.5 -47t-69.5 -139v2l-96 -547h-340z" />
<glyph unicode="i" horiz-adv-x="536" d="M8 0l180 1024h340l-180 -1024h-340zM213 1305q12 77 77.5 135.5t149.5 58.5q82 1 130 -57q37 -45 37 -102q0 -17 -3 -35q-12 -81 -77.5 -139t-149.5 -58q-81 0 -129 59q-38 46 -38 104q0 16 3 34z" />
<glyph unicode="j" horiz-adv-x="567" d="M-188 -440l55 315q11 -1 21 -1q62 0 98 26q41 30 53 100l180 1024h340l-180 -1024q-44 -252 -178 -353q-118 -89 -329 -89q-29 0 -60 2zM244 1305q12 77 77.5 135.5t149.5 58.5q82 0 130 -57q37 -45 37 -102q0 -17 -3 -35q-12 -81 -77.5 -139t-149.5 -58q-81 0 -130 59 q-37 46 -37 104q0 16 3 34z" />
<glyph unicode="k" horiz-adv-x="1099" d="M8 0l252 1434h340l-143 -816l325 406h392l-431 -514l267 -510h-365l-217 451l-80 -451h-340z" />
<glyph unicode="l" horiz-adv-x="538" d="M10 0l115 657l147 838h340l-147 -848l-115 -647h-340z" />
<glyph unicode="m" horiz-adv-x="1740" d="M8 0l180 1024h340l-16 -94q53 56 126.5 89.5t158.5 33.5q87 0 149.5 -35.5t95.5 -102.5q135 138 314 138q174 0 265 -115q66 -83 66 -208q0 -48 -10 -103l-108 -627h-342l102 588q4 22 4 41q-1 39 -17 65q-24 38 -87 37q-64 0 -106 -37t-60 -102l-105 -592h-340l103 588 q3 20 3 38q0 42 -18 68q-26 38 -88 37q-130 0 -169 -158l-101 -573h-340z" />
<glyph unicode="n" horiz-adv-x="1183" d="M8 0l180 1024h340l-18 -104q56 63 134 98t165 35q166 0 255 -116q64 -83 64 -214q0 -52 -10 -111l-108 -612h-340l100 569q4 22 4 41q0 50 -26 80q-35 40 -105 41q-77 0 -129.5 -47t-69.5 -139v2l-96 -547h-340z" />
<glyph unicode="o" horiz-adv-x="1193" d="M47 406q-2 22 -2 45q0 47 10 94q19 101 70 191t128 161.5t186 113.5t235 42q124 0 223 -50t156.5 -131.5t80.5 -183.5q13 -57 13 -114q0 -45 -8 -91q-18 -100 -69.5 -191.5t-129 -163.5t-185 -114.5t-227.5 -42.5q-89 0 -165.5 23.5t-131 64t-96 96t-61.5 118.5t-27 133z M391 512q-5 -25 -4 -48q-1 -63 33 -106q46 -59 135 -59q90 0 157.5 59t84.5 154q5 25 5 48q0 63 -34 106q-46 59 -137 59q-88 0 -155.5 -59t-84.5 -154z" />
<glyph unicode="p" d="M-63 -410l251 1434h340l-14 -84q116 113 291 113q140 0 241 -78.5t142 -206.5q26 -82 26 -172q0 -51 -8 -104q-24 -143 -94.5 -259.5t-188.5 -189t-261 -72.5q-201 0 -293 146l-93 -527h-339zM436 506q-3 -21 -3 -40q0 -71 39 -118q48 -59 142 -59q96 0 165.5 60.5 t86.5 162.5q5 29 5 55q0 64 -33 107q-48 61 -144 61q-95 0 -164.5 -58t-89.5 -157z" />
<glyph unicode="q" d="M47 360q-2 26 -2 51q0 57 8 115q16 103 62 196.5t115 168t167.5 118.5t210.5 44q196 0 283 -142l20 113h340l-252 -1434h-340l86 490q-118 -109 -299 -109q-90 0 -163.5 30.5t-120.5 83.5t-78.5 124t-36.5 151zM393 512q-4 -26 -4 -50q0 -66 35 -112q47 -61 143 -61 q97 0 167 61t87 162q4 26 4 50q0 66 -35 112q-47 61 -145 61q-97 0 -166 -61t-86 -162z" />
<glyph unicode="r" horiz-adv-x="778" d="M8 0l180 1024h340l-34 -193q46 103 138.5 158t207.5 55l-64 -376q-24 3 -48 3l-58 -5q-53 -8 -104.5 -33t-90 -79t-51.5 -130l4 33l-80 -457h-340z" />
<glyph unicode="s" horiz-adv-x="968" d="M-20 223l299 146q45 -117 170 -117q90 0 98 49q4 24 -21.5 41t-69 30t-96.5 28t-103.5 41t-90.5 62q-38 36 -56 98q-10 34 -10 74q0 32 6 68q18 105 91 177.5t162.5 102.5t187.5 30q141 0 248 -58.5t157 -169.5l-288 -139q-39 91 -127 94q-35 2 -60 -12.5t-31 -42.5 q-5 -25 14 -43t54 -28t79.5 -22.5t91 -26.5t88.5 -39t72.5 -61.5t42.5 -93.5q6 -27 6 -58q0 -35 -7 -77q-15 -81 -58.5 -142t-107 -95.5t-136 -51t-155.5 -16.5q-169 0 -281 60.5t-169 191.5z" />
<glyph unicode="t" horiz-adv-x="806" d="M59 698l58 326h153l33 184l359 103l-52 -287h215l-59 -326h-213l-51 -297q-2 -14 -3 -25q1 -46 37 -60q30 -11 93 -12q31 0 69 3l-53 -307q-81 -11 -149 -11q-172 0 -258 70q-88 72 -89 221q0 52 11 113l53 305h-154z" />
<glyph unicode="u" horiz-adv-x="1183" d="M66 412l108 612h340l-100 -569q-4 -22 -4 -41q0 -50 26 -80q35 -40 105 -41q77 0 129 47t69 139v-2l97 547h340l-181 -1024h-340l19 104q-56 -63 -134 -98t-165 -35q-166 0 -255 116q-64 83 -64 214q0 52 10 111z" />
<glyph unicode="v" horiz-adv-x="1091" d="M90 1024h346l84 -582l287 582h375l-553 -1024h-346z" />
<glyph unicode="w" horiz-adv-x="1617" d="M111 1024h340l47 -557l241 557h297l60 -547l229 547h371l-494 -1024h-332l-55 514l-223 -514h-348z" />
<glyph unicode="x" horiz-adv-x="1124" d="M-90 0l467 532l-273 492h361l133 -240l209 240h393l-450 -512l284 -512h-360l-146 260l-227 -260h-391z" />
<glyph unicode="y" horiz-adv-x="1124" d="M-6 -410l57 320q110 0 166 28t102 103l-229 983h361l106 -592l266 592h391l-520 -993q-133 -255 -303 -357q-143 -87 -327 -87q-35 0 -70 3z" />
<glyph unicode="z" horiz-adv-x="931" d="M-39 0l43 233l432 476h-330l56 315h799l-41 -233l-435 -476h371l-55 -315h-840z" />
<glyph unicode="{" horiz-adv-x="743" d="M92 557l58 326q74 -8 113 12.5t52 89.5l50 275q38 222 168.5 318t369.5 81l-55 -316q-65 9 -99.5 -10t-43.5 -73l-50 -275q-18 -106 -61.5 -165.5t-122.5 -98.5q125 -76 90 -266l-47 -275q-9 -54 19.5 -73t95.5 -11l-58 -315q-225 -15 -329 94t-70 305l49 275 q12 63 -21.5 86.5t-107.5 15.5z" />
<glyph unicode="|" horiz-adv-x="567" d="M-49 -410l332 1885h342l-332 -1885h-342z" />
<glyph unicode="}" horiz-adv-x="743" d="M-88 -221l55 315q65 -9 100 10.5t44 73.5l49 275q18 106 61.5 165.5t122.5 98.5q-125 76 -90 266l47 274q9 54 -19.5 73t-95.5 11l58 316q225 15 329 -94.5t70 -305.5l-49 -274q-12 -63 21.5 -86.5t107.5 -15.5l-57 -326q-74 8 -113.5 -12.5t-52.5 -89.5l-49 -275 q-38 -222 -169 -318t-370 -81z" />
<glyph unicode="~" horiz-adv-x="1241" d="M88 606q39 113 102 191.5t138.5 114t160 34t168.5 -42.5q135 -67 201 -61t117 102l248 -125q-39 -113 -102.5 -191.5t-138.5 -114t-159.5 -34t-167.5 42.5q-136 68 -202 62t-117 -103z" />
<glyph unicode="&#xa1;" horiz-adv-x="602" d="M-70 -410l72 410l156 502h282l-20 -502l-72 -410h-418zM145 844q15 91 85 150t167 59q87 0 138 -63.5t36 -153.5q-15 -88 -86 -148.5t-163 -60.5q-89 0 -140.5 64.5t-36.5 152.5z" />
<glyph unicode="&#xa2;" horiz-adv-x="1089" d="M88 737q37 227 209 373.5t401 146.5q68 0 123 -12l94 189h134l-113 -230q136 -68 203 -215l-310 -162q-19 40 -49 64l-190 -383h4q117 0 190 102l271 -172q-77 -129 -206.5 -195.5t-281.5 -66.5q-60 0 -135 14l-94 -190h-133l114 231q-133 68 -195 203t-36 303zM428 719 q-19 -112 49 -170l187 377q-89 -2 -155 -59t-81 -148z" />
<glyph unicode="&#xa3;" horiz-adv-x="1177" d="M-39 0l64 354h127l34 203h-104l51 287h105l28 162q21 119 70.5 208.5t120 143t154.5 80t180 26.5q165 0 281 -81.5t175 -237.5l-332 -168q-24 70 -60.5 103.5t-92.5 33.5q-53 0 -88 -31t-45 -88l-27 -151h389l-51 -287h-387l-37 -203h623l-62 -354h-1116z" />
<glyph unicode="&#xa4;" horiz-adv-x="1091" d="M20 313l168 142q-74 116 -47 268q27 150 133 262l-114 139l94 82l119 -143q130 84 280 84q142 0 242 -78l166 141l82 -92l-166 -139q74 -116 47 -268q-27 -150 -133 -262l115 -140l-99 -80l-114 140q-129 -82 -279 -82q-147 0 -246 80l-168 -144zM469 717 q-11 -53 14.5 -84t79.5 -31q52 0 88 31t47 84q8 53 -17.5 83.5t-78.5 30.5q-52 0 -88 -30.5t-45 -83.5z" />
<glyph unicode="&#xa5;" horiz-adv-x="1292" d="M113 295l32 190h314l14 84h-313l35 193h233l-266 672h389l154 -461l315 461h434l-502 -672h234l-35 -193h-311l-15 -84h312l-33 -190h-313l-52 -295h-366l51 295h-311z" />
<glyph unicode="&#xa6;" horiz-adv-x="567" d="M-49 -410l133 758h342l-133 -758h-342zM150 717l133 758h342l-133 -758h-342z" />
<glyph unicode="&#xa7;" horiz-adv-x="1124" d="M14 27l291 151q32 -66 75.5 -95.5t106.5 -29.5q107 0 117 68q3 16 -2 30t-19 26.5t-30 22.5t-42 21.5t-47.5 20.5t-54 22t-55.5 23q-57 26 -103.5 59.5t-85 81t-54 112.5t-2.5 140q29 158 163 240q-42 86 -20 210q16 88 59.5 154t106.5 104.5t135 57t152 18.5 q305 0 417 -266l-284 -131q-53 121 -150 121q-40 0 -65.5 -18.5t-30.5 -49.5q-3 -17 1.5 -31.5t18 -27.5t28.5 -23.5t41.5 -22.5t46.5 -20.5t55 -22.5t57 -24q56 -24 101 -56.5t82 -78t52 -108t2 -134.5q-25 -151 -162 -243q54 -89 31 -219q-16 -89 -61.5 -155.5 t-112 -105.5t-145.5 -58t-170 -19q-337 0 -443 256zM446 672q-8 -43 21.5 -69t95.5 -54q10 -4 55.5 -21.5t71.5 -29.5q39 25 47 71q4 23 -2.5 40t-27 31.5t-37 22.5t-52.5 23l-131 53q-32 -23 -41 -67z" />
<glyph unicode="&#xa8;" horiz-adv-x="755" d="M172 1260q10 67 67.5 115t125.5 48q66 0 105.5 -48t27.5 -115q-10 -67 -66.5 -115.5t-124.5 -48.5q-67 0 -106.5 48t-28.5 116zM571 1260q10 67 66.5 115t124.5 48q67 0 106.5 -47.5t28.5 -115.5q-10 -67 -67 -115.5t-125 -48.5q-66 0 -106 48.5t-28 115.5z" />
<glyph unicode="&#xa9;" horiz-adv-x="1595" d="M96 733q36 203 156 368.5t301 261t385 95.5q148 0 278.5 -61.5t217.5 -163.5t126 -242.5t13 -290.5q-37 -203 -157 -368.5t-300 -261t-383 -95.5q-150 0 -281 61.5t-218 163.5t-126 242.5t-12 290.5zM186 727q-24 -134 8.5 -258t107 -213.5t187.5 -143t244 -53.5 q179 0 340.5 86t270 234.5t139.5 327.5t-34 333t-203 244t-312 90q-178 0 -339 -86t-269.5 -234t-139.5 -327zM434 737q29 162 151.5 272.5t297.5 110.5q103 0 189.5 -56t137.5 -149l-256 -133q-25 60 -98 60q-56 0 -96.5 -37.5t-48.5 -87.5q-11 -49 16.5 -87t79.5 -38 q73 0 121 61l227 -143q-66 -93 -167.5 -145t-209.5 -52q-92 0 -165 36t-116 95.5t-60 135.5t-3 157z" />
<glyph unicode="&#xab;" horiz-adv-x="1165" d="M133 633l289 399h297l-295 -409l151 -390h-284zM551 623l295 409h299l-305 -422l149 -377h-284z" />
<glyph unicode="&#xac;" horiz-adv-x="1165" d="M80 555l57 324h1022l-100 -570h-346l43 246h-676z" />
<glyph unicode="&#xad;" horiz-adv-x="1024" d="M102 455l58 323h798l-57 -323h-799z" />
<glyph unicode="&#xae;" horiz-adv-x="1595" d="M96 733q36 203 156 368.5t301 261t385 95.5q148 0 278.5 -61.5t217.5 -163.5t126 -242.5t13 -290.5q-37 -203 -157 -368.5t-300 -261t-383 -95.5q-150 0 -281 61.5t-218 163.5t-126 242.5t-12 290.5zM186 727q-24 -134 8.5 -258t107 -213.5t187.5 -143t244 -53.5 q179 0 340.5 86t270 234.5t139.5 327.5t-34 333t-203 244t-312 90q-178 0 -339 -86t-269.5 -234t-139.5 -327zM463 338l133 758h360q116 0 190.5 -86t53.5 -203q-26 -146 -137 -217l98 -252h-278l-64 199h-53l-35 -199h-268zM803 752h49q64 0 76 55q4 29 -10.5 41t-45.5 12 h-49z" />
<glyph unicode="&#xaf;" horiz-adv-x="716" d="M152 1135l45 266h634l-47 -266h-632z" />
<glyph unicode="&#xb0;" horiz-adv-x="849" d="M203 1311q25 151 141.5 249.5t276.5 98.5q155 0 244.5 -109t62.5 -260q-27 -149 -143 -247.5t-277 -98.5q-102 0 -179 51t-110 135t-16 181zM473 1300q-6 -40 14.5 -66t61.5 -26t70.5 25.5t35.5 66.5q8 41 -12.5 68t-60.5 27t-71 -27t-38 -68z" />
<glyph unicode="&#xb1;" horiz-adv-x="1146" d="M0 43l59 326h979l-57 -326h-981zM127 760l57 323h328l49 279h324l-49 -279h329l-59 -323h-326l-49 -279h-325l49 279h-328z" />
<glyph unicode="&#xb4;" horiz-adv-x="643" d="M152 1137h333l279 297h-406z" />
<glyph unicode="&#xb5;" horiz-adv-x="1245" d="M-63 -410l251 1434h340l-100 -565h2q-14 -84 20.5 -125t104.5 -41q74 0 125.5 42.5t69.5 125.5l100 563h340l-115 -657q-5 -29 8.5 -45.5t42.5 -16.5h52l-54 -305h-147q-146 0 -217 96q-119 -125 -293 -125q-65 0 -121 21l-70 -402h-339z" />
<glyph unicode="&#xb6;" horiz-adv-x="1488" d="M127 993q32 190 187.5 315.5t349.5 125.5h913l-55 -328h-138l-266 -1516h-323l266 1516h-131l-266 -1516h-324l162 924q-126 1 -220.5 68.5t-135.5 177t-19 233.5z" />
<glyph unicode="&#xb7;" horiz-adv-x="591" d="M121 721q15 89 86 149t164 60q88 0 138.5 -64t35.5 -153q-15 -91 -84 -150t-166 -59q-87 0 -138 63.5t-36 153.5z" />
<glyph unicode="&#xb8;" horiz-adv-x="561" d="M-129 -453l39 224q192 -15 201 28q3 18 -24.5 28t-78.5 13l29 160h274l-16 -94q43 -19 71.5 -63t16.5 -113q-13 -70 -66 -113.5t-164.5 -62.5t-281.5 -7z" />
<glyph unicode="&#xbb;" horiz-adv-x="1167" d="M63 233l306 422l-150 377h285l153 -389l-295 -410h-299zM489 233l295 410l-151 389h285l157 -399l-289 -400h-297z" />
<glyph unicode="&#xbc;" horiz-adv-x="1673" d="M129 0l1069 1434h244l-1069 -1434h-244zM145 1339l277 95h233l-145 -820h-270l94 525l-166 -41zM881 115l41 235l311 469h289l-301 -469h79l23 129h248l-23 -129h72l-41 -235h-72l-20 -115h-250l20 115h-376z" />
<glyph unicode="&#xbd;" horiz-adv-x="1662" d="M129 0l1069 1434h244l-1069 -1434h-244zM145 1339l277 95h233l-145 -820h-270l94 525l-166 -41zM895 0l31 182l344 289q30 26 41 36.5t23 26.5t14 31q9 45 -41 45q-58 0 -115 -92l-205 129q129 201 363 201q128 0 208 -78.5t56 -206.5q-11 -66 -54 -120.5t-124 -120.5 l-101 -82h228l-41 -240h-627z" />
<glyph unicode="&#xbe;" horiz-adv-x="1794" d="M53 778l228 121q15 -43 41 -62.5t69 -19.5q68 0 74 53q4 25 -11 38.5t-44 13.5h-60l-67 139l135 135h-252l43 238h586l-33 -179l-160 -161q72 -32 107 -94.5t20 -145.5q-24 -137 -119 -202.5t-245 -65.5q-251 0 -312 192zM250 0l1069 1434h244l-1069 -1434h-244z M1001 115l41 235l312 469h288l-301 -469h80l23 129h248l-23 -129h72l-41 -235h-72l-20 -115h-250l20 115h-377z" />
<glyph unicode="&#xbf;" horiz-adv-x="1122" d="M-8 -8q15 85 61.5 156t102.5 117t110.5 84t95.5 76.5t48 76.5h346q-11 -68 -43 -125.5t-72 -95t-86.5 -73.5t-85.5 -63t-68 -62t-36 -71q-8 -44 17.5 -71t74.5 -27q74 0 126 43t95 127l295 -186q-84 -165 -237 -251.5t-335 -86.5q-97 0 -180 31.5t-140 86.5t-81.5 137 t-7.5 177zM428 844q15 91 85 150t167 59q87 0 138 -63.5t36 -153.5q-15 -88 -86.5 -148.5t-163.5 -60.5q-89 0 -140 64.5t-36 152.5z" />
<glyph unicode="&#xc0;" horiz-adv-x="1374" d="M-100 0l725 1434h446l221 -1434h-391l-22 207h-478l-98 -207h-403zM543 1843h385l125 -297h-316zM553 522h291l-53 496z" />
<glyph unicode="&#xc1;" horiz-adv-x="1374" d="M-100 0l725 1434h446l221 -1434h-391l-22 207h-478l-98 -207h-403zM553 522h291l-53 496zM684 1546l207 297h405l-278 -297h-334z" />
<glyph unicode="&#xc2;" horiz-adv-x="1374" d="M-100 0l725 1434h446l221 -1434h-391l-22 207h-478l-98 -207h-403zM467 1526l272 317h342l162 -317h-305l-59 114l-103 -114h-309zM553 522h291l-53 496z" />
<glyph unicode="&#xc3;" horiz-adv-x="1374" d="M-100 0l725 1434h446l221 -1434h-391l-22 207h-478l-98 -207h-403zM500 1532q10 99 42 170.5t76.5 107.5t98 49.5t107 3.5t102.5 -38q25 -16 41 -22.5t32.5 -6t26.5 17.5t16 50h250q-11 -99 -43.5 -171t-77 -108t-98 -49t-107 -2.5t-102.5 39.5q-26 15 -41.5 21.5 t-32 5.5t-26.5 -18t-16 -50h-248zM553 522h291l-53 496z" />
<glyph unicode="&#xc4;" horiz-adv-x="1374" d="M-100 0l725 1434h446l221 -1434h-391l-22 207h-478l-98 -207h-403zM526 1669q10 67 67.5 115.5t125.5 48.5q66 0 105.5 -48.5t27.5 -115.5q-10 -67 -66 -115.5t-124 -48.5q-67 0 -107 48t-29 116zM553 522h291l-53 496zM926 1669q10 67 66 115.5t124 48.5q67 0 106.5 -48 t28.5 -116q-10 -67 -67 -115.5t-125 -48.5q-66 0 -105.5 48.5t-27.5 115.5z" />
<glyph unicode="&#xc5;" horiz-adv-x="1374" d="M-100 0l716 1415q-43 70 -28 168q20 116 111.5 190t218.5 74q125 0 195 -81t48 -197q-18 -100 -86 -168l217 -1401h-391l-22 207h-478l-98 -207h-403zM553 522h291l-53 496zM807 1577q-5 -29 9.5 -47.5t45.5 -18.5q34 0 55.5 17.5t26.5 46.5q6 29 -9.5 48t-49.5 19 q-31 0 -52 -18t-26 -47z" />
<glyph unicode="&#xc6;" horiz-adv-x="1812" d="M-100 0l1071 1434h932l-62 -344h-473l-35 -199h424l-61 -336h-420l-37 -211h481l-59 -344h-840l37 207h-393l-154 -207h-411zM700 522h213l66 373z" />
<glyph unicode="&#xc7;" horiz-adv-x="1478" d="M96 737q26 157 102.5 292t188 230.5t255.5 150t300 54.5q211 0 359.5 -91t226.5 -251l-336 -178q-81 162 -285 162q-167 0 -291 -108t-155 -281q-30 -169 53 -279t246 -110q206 0 336 172l301 -195q-97 -134 -236 -218.5t-303 -109.5l-12 -71q43 -19 71.5 -63t16.5 -113 q-13 -70 -66 -113.5t-164.5 -62.5t-281.5 -7l39 224q192 -15 201 28q3 18 -24.5 28t-78.5 13l27 144q-264 51 -400.5 260t-89.5 493z" />
<glyph unicode="&#xc8;" horiz-adv-x="1095" d="M23 0l251 1434h912l-62 -342h-542l-37 -201h495l-61 -336h-492l-36 -211h553l-60 -344h-921zM426 1843h385l125 -297h-315z" />
<glyph unicode="&#xc9;" horiz-adv-x="1095" d="M23 0l251 1434h912l-62 -342h-542l-37 -201h495l-61 -336h-492l-36 -211h553l-60 -344h-921zM567 1546l207 297h406l-279 -297h-334z" />
<glyph unicode="&#xca;" horiz-adv-x="1095" d="M23 0l251 1434h912l-62 -342h-542l-37 -201h495l-61 -336h-492l-36 -211h553l-60 -344h-921zM350 1526l273 317h342l161 -317h-305l-59 114l-103 -114h-309z" />
<glyph unicode="&#xcb;" horiz-adv-x="1095" d="M23 0l251 1434h912l-62 -342h-542l-37 -201h495l-61 -336h-492l-36 -211h553l-60 -344h-921zM410 1669q10 67 67 115.5t125 48.5q66 0 105.5 -48.5t27.5 -115.5q-10 -67 -66 -115.5t-124 -48.5q-67 0 -106.5 48t-28.5 116zM809 1669q10 67 66 115.5t124 48.5 q67 0 107 -48t29 -116q-10 -67 -67.5 -115.5t-125.5 -48.5q-66 0 -105.5 48.5t-27.5 115.5z" />
<glyph unicode="&#xcc;" horiz-adv-x="591" d="M23 0l251 1434h367l-252 -1434h-366zM154 1843l194 -297h316l-125 297h-385z" />
<glyph unicode="&#xcd;" horiz-adv-x="591" d="M23 0l251 1434h367l-252 -1434h-366zM295 1546h334l278 297h-405z" />
<glyph unicode="&#xce;" horiz-adv-x="591" d="M23 0l251 1434h367l-252 -1434h-366zM78 1526l272 317h342l162 -317h-305l-60 114l-102 -114h-309z" />
<glyph unicode="&#xcf;" horiz-adv-x="591" d="M23 0l251 1434h367l-252 -1434h-366zM137 1669q10 67 67.5 115.5t125.5 48.5q66 0 105.5 -48.5t27.5 -115.5q-10 -67 -66.5 -115.5t-124.5 -48.5q-67 0 -106.5 48t-28.5 116zM537 1669q10 67 66 115.5t124 48.5q67 0 106.5 -48t28.5 -116q-10 -67 -67 -115.5t-125 -48.5 q-66 0 -105.5 48.5t-27.5 115.5z" />
<glyph unicode="&#xd0;" horiz-adv-x="1513" d="M27 539l57 323h152l100 572h584q185 0 328.5 -99t209.5 -269.5t31 -369.5q-55 -308 -280 -502t-541 -194h-584l94 539h-151zM522 354h197q156 0 269.5 101.5t144.5 267.5q27 163 -49.5 259.5t-225.5 96.5h-207l-39 -217h271l-58 -323h-270z" />
<glyph unicode="&#xd1;" horiz-adv-x="1382" d="M23 0l251 1434h285l373 -750l133 750h365l-252 -1434h-283l-373 750l-133 -750h-366zM504 1532q10 99 42 170.5t76.5 107.5t98 49.5t107 3.5t102.5 -38q25 -16 41.5 -22.5t32.5 -6t26.5 17.5t16.5 50h249q-11 -99 -43.5 -171t-77 -108t-98 -49t-107 -2.5t-102.5 39.5 q-26 15 -41.5 21.5t-32 5.5t-26.5 -18t-16 -50h-248z" />
<glyph unicode="&#xd2;" horiz-adv-x="1617" d="M96 739q26 149 99 281t182.5 230.5t259.5 156t319 57.5q162 0 295.5 -63.5t215.5 -169t116.5 -245t9.5 -288.5q-26 -150 -98 -282t-180.5 -232t-258 -157.5t-319.5 -57.5q-164 0 -298.5 64t-217 170.5t-117 246.5t-8.5 289zM461 717q-31 -171 56.5 -280t252.5 -109 q166 0 298 109.5t161 279.5q30 170 -60 279.5t-256 109.5q-165 0 -293 -109t-159 -280zM670 1864l194 -297h316l-125 297h-385z" />
<glyph unicode="&#xd3;" horiz-adv-x="1617" d="M96 739q26 149 99 281t182.5 230.5t259.5 156t319 57.5q162 0 295.5 -63.5t215.5 -169t116.5 -245t9.5 -288.5q-26 -150 -98 -282t-180.5 -232t-258 -157.5t-319.5 -57.5q-164 0 -298.5 64t-217 170.5t-117 246.5t-8.5 289zM461 717q-31 -171 56.5 -280t252.5 -109 q166 0 298 109.5t161 279.5q30 170 -60 279.5t-256 109.5q-165 0 -293 -109t-159 -280zM811 1567h334l278 297h-405z" />
<glyph unicode="&#xd4;" horiz-adv-x="1617" d="M96 739q26 149 99 281t182.5 230.5t259.5 156t319 57.5q162 0 295.5 -63.5t215.5 -169t116.5 -245t9.5 -288.5q-26 -150 -98 -282t-180.5 -232t-258 -157.5t-319.5 -57.5q-164 0 -298.5 64t-217 170.5t-117 246.5t-8.5 289zM461 717q-31 -171 56.5 -280t252.5 -109 q166 0 298 109.5t161 279.5q30 170 -60 279.5t-256 109.5q-165 0 -293 -109t-159 -280zM594 1546l272 318h342l162 -318h-305l-59 115l-103 -115h-309z" />
<glyph unicode="&#xd5;" horiz-adv-x="1617" d="M96 739q26 149 99 281t182.5 230.5t259.5 156t319 57.5q162 0 295.5 -63.5t215.5 -169t116.5 -245t9.5 -288.5q-26 -150 -98 -282t-180.5 -232t-258 -157.5t-319.5 -57.5q-164 0 -298.5 64t-217 170.5t-117 246.5t-8.5 289zM461 717q-31 -171 56.5 -280t252.5 -109 q166 0 298 109.5t161 279.5q30 170 -60 279.5t-256 109.5q-165 0 -293 -109t-159 -280zM627 1552q10 99 42 170.5t76.5 107.5t98 49.5t107 3.5t102.5 -38q25 -16 41 -22.5t32.5 -6t26.5 17.5t16 50h250q-11 -99 -43.5 -171t-77 -108t-98 -49t-107 -2.5t-102.5 39.5 q-26 15 -41.5 21.5t-32.5 5.5t-27 -18t-16 -50h-247z" />
<glyph unicode="&#xd6;" horiz-adv-x="1617" d="M96 739q26 149 99 281t182.5 230.5t259.5 156t319 57.5q162 0 295.5 -63.5t215.5 -169t116.5 -245t9.5 -288.5q-26 -150 -98 -282t-180.5 -232t-258 -157.5t-319.5 -57.5q-164 0 -298.5 64t-217 170.5t-117 246.5t-8.5 289zM461 717q-31 -171 56.5 -280t252.5 -109 q166 0 298 109.5t161 279.5q30 170 -60 279.5t-256 109.5q-165 0 -293 -109t-159 -280zM653 1690q10 67 67.5 115t125.5 48q66 0 105.5 -48t27.5 -115q-10 -67 -66.5 -115.5t-124.5 -48.5q-67 0 -106.5 48t-28.5 116zM1053 1690q10 67 66 115t124 48q67 0 106.5 -47.5 t28.5 -115.5q-10 -67 -67 -115.5t-125 -48.5q-66 0 -105.5 48.5t-27.5 115.5z" />
<glyph unicode="&#xd7;" horiz-adv-x="1101" d="M78 479l280 244l-196 231l254 230l200 -238l275 238l207 -230l-281 -243l197 -232l-254 -229l-203 237l-274 -237z" />
<glyph unicode="&#xd8;" horiz-adv-x="1628" d="M66 63l155 158q-79 105 -109.5 240t-5.5 278q26 149 99.5 281t183 230.5t259.5 156t319 57.5q217 0 376 -108l109 108l150 -94l-129 -131q87 -107 122 -248t9 -293q-26 -150 -98 -282t-180.5 -232t-258 -157.5t-319.5 -57.5q-239 0 -406 129l-127 -129zM471 717 q-21 -129 21 -221l577 581q-69 29 -145 29q-165 0 -293.5 -109t-159.5 -280zM610 369q71 -41 170 -41q166 0 298 109.5t161 279.5q26 143 -37 250z" />
<glyph unicode="&#xd9;" horiz-adv-x="1320" d="M86 471l170 963h367l-164 -928q-32 -180 170 -180q201 0 233 180l162 928h367l-170 -963q-43 -242 -213 -372t-414 -130q-262 0 -404 141.5t-104 360.5zM518 1843l195 -297h315l-125 297h-385z" />
<glyph unicode="&#xda;" horiz-adv-x="1320" d="M86 471l170 963h367l-164 -928q-32 -180 170 -180q201 0 233 180l162 928h367l-170 -963q-43 -242 -213 -372t-414 -130q-262 0 -404 141.5t-104 360.5zM659 1546h334l279 297h-406z" />
<glyph unicode="&#xdb;" horiz-adv-x="1320" d="M86 471l170 963h367l-164 -928q-32 -180 170 -180q201 0 233 180l162 928h367l-170 -963q-43 -242 -213 -372t-414 -130q-262 0 -404 141.5t-104 360.5zM442 1526l273 317h342l162 -317h-306l-59 114l-102 -114h-310z" />
<glyph unicode="&#xdc;" horiz-adv-x="1320" d="M86 471l170 963h367l-164 -928q-32 -180 170 -180q201 0 233 180l162 928h367l-170 -963q-43 -242 -213 -372t-414 -130q-262 0 -404 141.5t-104 360.5zM502 1669q10 67 67 115.5t125 48.5q66 0 105.5 -48.5t27.5 -115.5q-10 -67 -66 -115.5t-124 -48.5q-67 0 -106.5 48 t-28.5 116zM901 1669q10 67 66.5 115.5t124.5 48.5q67 0 106.5 -48t28.5 -116q-10 -67 -67.5 -115.5t-125.5 -48.5q-66 0 -105.5 48.5t-27.5 115.5z" />
<glyph unicode="&#xdd;" horiz-adv-x="1292" d="M162 1434h389l154 -461l315 461h434l-604 -809l-111 -625h-366l110 625zM643 1546l207 297h405l-278 -297h-334z" />
<glyph unicode="&#xde;" horiz-adv-x="1212" d="M23 0l253 1434h365l-37 -213h174q105 0 193.5 -38.5t147.5 -107t85.5 -167t9.5 -212.5q-31 -217 -189.5 -349t-408.5 -132h-190l-37 -215h-366zM487 565h181q71 0 120.5 41t61.5 111q13 71 -23 112t-110 41h-174z" />
<glyph unicode="&#xdf;" horiz-adv-x="1130" d="M8 0l185 1040q34 201 162 312.5t362 111.5q93 0 173 -30.5t131.5 -80t76 -115.5t12.5 -136q-9 -49 -32 -95t-46 -74.5t-44 -63.5t-27 -64q-7 -35 5.5 -80t33.5 -87.5t42 -98.5t30.5 -113.5t-1.5 -132.5q-11 -64 -36.5 -115.5t-71.5 -97t-113.5 -69.5t-162.5 -33t-218 12 l51 303q205 -30 223 90q8 40 -13 99t-49.5 110t-50 109.5t-14.5 97.5q7 40 37.5 87t62 92.5t38.5 80.5q10 49 -14 76.5t-74 27.5q-53 0 -88.5 -31t-45.5 -90l-184 -1042h-340z" />
<glyph unicode="&#xe0;" d="M46 360.5q-5 80.5 7 165.5q16 103 62 196.5t115 168t167.5 118.5t210.5 44q196 0 283 -142l20 113h340l-180 -1024h-340l14 80q-118 -109 -299 -109q-90 0 -163.5 30.5t-121 83.5t-79 124t-36.5 151.5zM393 512q-17 -100 30.5 -161.5t143.5 -61.5q95 0 165 59.5t89 157.5 v6q17 100 -30.5 161.5t-145.5 61.5q-97 0 -166 -61t-86 -162zM395 1434h385l125 -297h-315z" />
<glyph unicode="&#xe1;" d="M46 360.5q-5 80.5 7 165.5q16 103 62 196.5t115 168t167.5 118.5t210.5 44q196 0 283 -142l20 113h340l-180 -1024h-340l14 80q-118 -109 -299 -109q-90 0 -163.5 30.5t-121 83.5t-79 124t-36.5 151.5zM393 512q-17 -100 30.5 -161.5t143.5 -61.5q95 0 165 59.5t89 157.5 v6q17 100 -30.5 161.5t-145.5 61.5q-97 0 -166 -61t-86 -162zM537 1137l206 297h406l-279 -297h-333z" />
<glyph unicode="&#xe2;" d="M46 360.5q-5 80.5 7 165.5q16 103 62 196.5t115 168t167.5 118.5t210.5 44q196 0 283 -142l20 113h340l-180 -1024h-340l14 80q-118 -109 -299 -109q-90 0 -163.5 30.5t-121 83.5t-79 124t-36.5 151.5zM319 1116l273 318h342l162 -318h-305l-60 115l-102 -115h-310z M393 512q-17 -100 30.5 -161.5t143.5 -61.5q95 0 165 59.5t89 157.5v6q17 100 -30.5 161.5t-145.5 61.5q-97 0 -166 -61t-86 -162z" />
<glyph unicode="&#xe3;" d="M46 360.5q-5 80.5 7 165.5q16 103 62 196.5t115 168t167.5 118.5t210.5 44q196 0 283 -142l20 113h340l-180 -1024h-340l14 80q-118 -109 -299 -109q-90 0 -163.5 30.5t-121 83.5t-79 124t-36.5 151.5zM352 1122q10 99 42 170.5t76.5 107.5t98 49.5t107 3.5t102.5 -38 q25 -16 41.5 -22.5t32.5 -6t26.5 17.5t16.5 50h250q-11 -99 -43.5 -171t-77 -108t-98 -49t-107 -2.5t-102.5 39.5q-26 15 -41.5 21.5t-32.5 5.5t-27 -18t-16 -50h-248zM393 512q-17 -100 30.5 -161.5t143.5 -61.5q95 0 165 59.5t89 157.5v6q17 100 -30.5 161.5t-145.5 61.5 q-97 0 -166 -61t-86 -162z" />
<glyph unicode="&#xe4;" d="M46 360.5q-5 80.5 7 165.5q16 103 62 196.5t115 168t167.5 118.5t210.5 44q196 0 283 -142l20 113h340l-180 -1024h-340l14 80q-118 -109 -299 -109q-90 0 -163.5 30.5t-121 83.5t-79 124t-36.5 151.5zM379 1260q10 67 67 115t125 48q66 0 106 -48t28 -115 q-10 -67 -66.5 -115.5t-124.5 -48.5q-67 0 -106.5 48t-28.5 116zM393 512q-17 -100 30.5 -161.5t143.5 -61.5q95 0 165 59.5t89 157.5v6q17 100 -30.5 161.5t-145.5 61.5q-97 0 -166 -61t-86 -162zM778 1260q10 67 66.5 115t124.5 48q67 0 106.5 -47.5t28.5 -115.5 q-10 -67 -67.5 -115.5t-125.5 -48.5q-66 0 -105.5 48.5t-27.5 115.5z" />
<glyph unicode="&#xe5;" d="M46 360.5q-5 80.5 7 165.5q16 103 62 196.5t115 168t167.5 118.5t210.5 44q196 0 283 -142l20 113h340l-180 -1024h-340l14 80q-118 -109 -299 -109q-90 0 -163.5 30.5t-121 83.5t-79 124t-36.5 151.5zM393 512q-17 -100 30.5 -161.5t143.5 -61.5q95 0 165 59.5t89 157.5 v6q17 100 -30.5 161.5t-145.5 61.5q-97 0 -166 -61t-86 -162zM473 1368q20 116 111.5 190t218.5 74q125 0 195.5 -81t48.5 -197q-21 -117 -110.5 -189.5t-219.5 -72.5q-125 0 -194.5 80t-49.5 196zM692 1362q-5 -29 10 -47.5t46 -18.5q34 0 55 17.5t26 46.5q6 29 -9.5 48 t-49.5 19q-31 0 -52 -18t-26 -47z" />
<glyph unicode="&#xe6;" horiz-adv-x="1935" d="M44 391.5q-5 67.5 9 136.5q13 80 44.5 156t82.5 143t115.5 117t149 79.5t178.5 29.5q184 0 272 -119l16 90h310l-13 -70q130 99 297 99q139 0 235.5 -72t134 -194.5t13.5 -272.5q-13 -67 -37 -127h-702q29 -125 199 -125q122 0 202 74l217 -199q-178 -166 -387 -166 q-217 0 -321 129l-19 -100h-309l14 86q-125 -115 -292 -115q-78 0 -144 22t-112 61.5t-81 92.5t-51 115t-21 129.5zM391 512q-17 -99 31.5 -159t144.5 -60q95 0 165 59t89 156v4q17 99 -31.5 159t-144.5 60t-166.5 -60t-87.5 -159zM1190 625h389q-6 74 -50 107.5t-112 33.5 q-153 0 -227 -141z" />
<glyph unicode="&#xe7;" horiz-adv-x="1089" d="M53 532q37 227 209.5 374t401.5 147q161 0 272.5 -73t167.5 -196l-309 -161q-45 98 -160 98q-91 0 -159 -57t-83 -150q-17 -91 31 -151t135 -60q117 0 191 103l270 -173q-121 -202 -367 -251l-14 -76q43 -19 71.5 -63t16.5 -113q-13 -70 -66 -113.5t-164.5 -62.5 t-281.5 -7l39 224q192 -15 201 28q3 18 -24.5 28t-78.5 13l27 152q-178 47 -267.5 195t-58.5 345z" />
<glyph unicode="&#xe8;" horiz-adv-x="1163" d="M53 532q37 224 209 372.5t402 148.5q152 0 265.5 -71.5t163.5 -195.5t23 -272q-8 -58 -35 -127h-702q29 -125 196 -125q123 0 203 74l217 -199q-178 -166 -446 -166q-134 0 -238.5 44.5t-166 121.5t-85.5 178.5t-6 216.5zM389 1448h385l125 -297h-315zM420 625h387 q-11 141 -162 141t-225 -141z" />
<glyph unicode="&#xe9;" horiz-adv-x="1163" d="M53 532q37 224 209 372.5t402 148.5q152 0 265.5 -71.5t163.5 -195.5t23 -272q-8 -58 -35 -127h-702q29 -125 196 -125q123 0 203 74l217 -199q-178 -166 -446 -166q-134 0 -238.5 44.5t-166 121.5t-85.5 178.5t-6 216.5zM420 625h387q-11 141 -162 141t-225 -141z M530 1151l207 297h406l-279 -297h-334z" />
<glyph unicode="&#xea;" horiz-adv-x="1163" d="M53 532q37 224 209 372.5t402 148.5q152 0 265.5 -71.5t163.5 -195.5t23 -272q-8 -58 -35 -127h-702q29 -125 196 -125q123 0 203 74l217 -199q-178 -166 -446 -166q-134 0 -238.5 44.5t-166 121.5t-85.5 178.5t-6 216.5zM313 1130l273 318h342l162 -318h-306l-59 115 l-102 -115h-310zM420 625h387q-11 141 -162 141t-225 -141z" />
<glyph unicode="&#xeb;" horiz-adv-x="1163" d="M53 532q37 224 209 372.5t402 148.5q152 0 265.5 -71.5t163.5 -195.5t23 -272q-8 -58 -35 -127h-702q29 -125 196 -125q123 0 203 74l217 -199q-178 -166 -446 -166q-134 0 -238.5 44.5t-166 121.5t-85.5 178.5t-6 216.5zM373 1274q10 67 67 115.5t125 48.5 q66 0 105.5 -48.5t27.5 -115.5q-10 -67 -66 -115.5t-124 -48.5q-67 0 -106.5 48t-28.5 116zM420 625h387q-11 141 -162 141t-225 -141zM772 1274q10 67 66.5 115.5t124.5 48.5q67 0 106.5 -48t28.5 -116q-10 -67 -67.5 -115.5t-125.5 -48.5q-66 0 -105.5 48.5t-27.5 115.5z " />
<glyph unicode="&#xec;" horiz-adv-x="536" d="M8 0l180 1024h340l-180 -1024h-340zM123 1434l96 -308h318l-43 308h-371z" />
<glyph unicode="&#xed;" horiz-adv-x="536" d="M8 0l180 1024h340l-180 -1024h-340zM207 1126h323l199 308h-387z" />
<glyph unicode="&#xee;" horiz-adv-x="536" d="M8 0l180 1024h340l-180 -1024h-340zM16 1116l244 318h340l133 -318h-289l-45 98l-75 -98h-308z" />
<glyph unicode="&#xef;" horiz-adv-x="536" d="M8 0l180 1024h340l-180 -1024h-340zM61 1270q10 64 65 110.5t120 46.5q66 0 104.5 -46t26.5 -111q-11 -65 -66 -111.5t-121 -46.5q-65 0 -103 47t-26 111zM426 1270q12 65 67 111t119 46t103 -46t28 -111q-12 -65 -67 -111.5t-119 -46.5t-103 46.5t-28 111.5z" />
<glyph unicode="&#xf0;" horiz-adv-x="1159" d="M45 492q34 185 175.5 308t328.5 132l-60 112l-288 -102l43 248l139 49l-104 195h368l47 -82l297 106l-43 -250l-141 -51l235 -409q35 -61 52 -139t4 -158q-24 -149 -110 -259t-210 -165.5t-270 -55.5q-110 0 -204 37.5t-159 103.5t-93 165t-7 215zM383 467 q-15 -85 27.5 -134.5t128.5 -49.5q84 0 144 49t75 135q10 58 -15 106q-45 70 -141 70q-84 0 -144 -46.5t-75 -129.5z" />
<glyph unicode="&#xf1;" horiz-adv-x="1183" d="M8 0l180 1024h340l-18 -104q56 63 134 98t165 35q166 0 255 -116t54 -325l-108 -612h-340l100 569q13 81 -22 121.5t-105 40.5q-77 0 -129.5 -47t-69.5 -139v2l-96 -547h-340zM330 1143q10 99 42 170.5t76.5 107.5t98 49.5t107 3.5t102.5 -38q25 -16 41 -22.5t32.5 -6 t26.5 17.5t16 50h250q-11 -99 -43.5 -171t-77 -108t-98 -49t-107 -2.5t-102.5 39.5q-26 15 -41.5 21.5t-32 5.5t-26.5 -18t-16 -50h-248z" />
<glyph unicode="&#xf2;" horiz-adv-x="1193" d="M47 406.5q-7 69.5 8 138.5q19 101 70 191t128 161.5t186 113.5t235 42q124 0 223 -50t156.5 -131.5t80.5 -183t5 -205.5q-18 -100 -69.5 -191.5t-129 -163.5t-185 -114.5t-227.5 -42.5q-89 0 -165.5 23.5t-131 64t-96 96t-61.5 119t-27 133zM385 1454l195 -297h315 l-125 297h-385zM391 512q-17 -95 29.5 -154t134.5 -59q90 0 157.5 59t84.5 154t-29.5 154t-136.5 59q-88 0 -155.5 -59t-84.5 -154z" />
<glyph unicode="&#xf3;" horiz-adv-x="1193" d="M47 406.5q-7 69.5 8 138.5q19 101 70 191t128 161.5t186 113.5t235 42q124 0 223 -50t156.5 -131.5t80.5 -183t5 -205.5q-18 -100 -69.5 -191.5t-129 -163.5t-185 -114.5t-227.5 -42.5q-89 0 -165.5 23.5t-131 64t-96 96t-61.5 119t-27 133zM391 512q-17 -95 29.5 -154 t134.5 -59q90 0 157.5 59t84.5 154t-29.5 154t-136.5 59q-88 0 -155.5 -59t-84.5 -154zM526 1157h334l279 297h-406z" />
<glyph unicode="&#xf4;" horiz-adv-x="1193" d="M47 406.5q-7 69.5 8 138.5q19 101 70 191t128 161.5t186 113.5t235 42q124 0 223 -50t156.5 -131.5t80.5 -183t5 -205.5q-18 -100 -69.5 -191.5t-129 -163.5t-185 -114.5t-227.5 -42.5q-89 0 -165.5 23.5t-131 64t-96 96t-61.5 119t-27 133zM309 1137l273 317h342 l161 -317h-305l-59 114l-103 -114h-309zM391 512q-17 -95 29.5 -154t134.5 -59q90 0 157.5 59t84.5 154t-29.5 154t-136.5 59q-88 0 -155.5 -59t-84.5 -154z" />
<glyph unicode="&#xf5;" horiz-adv-x="1193" d="M47 406.5q-7 69.5 8 138.5q19 101 70 191t128 161.5t186 113.5t235 42q124 0 223 -50t156.5 -131.5t80.5 -183t5 -205.5q-18 -100 -69.5 -191.5t-129 -163.5t-185 -114.5t-227.5 -42.5q-89 0 -165.5 23.5t-131 64t-96 96t-61.5 119t-27 133zM342 1143q10 99 42 170.5 t76.5 107.5t98 49.5t107 3.5t102.5 -38q25 -16 41.5 -22.5t32.5 -6t26.5 17.5t16.5 50h250q-11 -99 -43.5 -171t-77 -108t-98 -49t-107 -2.5t-102.5 39.5q-26 15 -41.5 21.5t-32.5 5.5t-27 -18t-16 -50h-248zM391 512q-17 -95 29.5 -154t134.5 -59q90 0 157.5 59t84.5 154 t-29.5 154t-136.5 59q-88 0 -155.5 -59t-84.5 -154z" />
<glyph unicode="&#xf6;" horiz-adv-x="1193" d="M47 406.5q-7 69.5 8 138.5q19 101 70 191t128 161.5t186 113.5t235 42q124 0 223 -50t156.5 -131.5t80.5 -183t5 -205.5q-18 -100 -69.5 -191.5t-129 -163.5t-185 -114.5t-227.5 -42.5q-89 0 -165.5 23.5t-131 64t-96 96t-61.5 119t-27 133zM369 1280q10 67 67 115.5 t125 48.5q66 0 105.5 -48.5t27.5 -115.5q-10 -67 -66 -115.5t-124 -48.5q-67 0 -106.5 48t-28.5 116zM391 512q-17 -95 29.5 -154t134.5 -59q90 0 157.5 59t84.5 154t-29.5 154t-136.5 59q-88 0 -155.5 -59t-84.5 -154zM768 1280q10 67 66 115.5t124 48.5q67 0 107 -48 t29 -116q-10 -67 -67.5 -115.5t-125.5 -48.5q-66 0 -105.5 48.5t-27.5 115.5z" />
<glyph unicode="&#xf7;" horiz-adv-x="1128" d="M80 555l57 324h983l-57 -324h-983zM332 303q15 83 79 137t146 54q83 0 130.5 -58.5t33.5 -140.5q-15 -83 -78.5 -137t-146.5 -54t-130.5 58.5t-33.5 140.5zM479 1139q15 83 79 136.5t147 53.5t129.5 -58.5t31.5 -140.5q-13 -83 -76.5 -136.5t-146.5 -53.5t-130.5 58.5 t-33.5 140.5z" />
<glyph unicode="&#xf8;" horiz-adv-x="1193" d="M41 45l100 102q-62 82 -84 186.5t-2 211.5q19 101 70 191t128 161.5t186 113.5t235 42q153 0 274 -80l74 76l129 -72l-100 -103q61 -81 84 -183.5t4 -207.5q-18 -100 -68.5 -191.5t-126.5 -163.5t-184.5 -114.5t-231.5 -42.5q-163 0 -284 80l-74 -76zM395 512 q-10 -60 4 -100l297 305q-36 8 -61 8q-89 0 -156 -59t-84 -154zM496 309q33 -10 63 -10q90 0 157.5 59t84.5 154q9 56 -4 102z" />
<glyph unicode="&#xf9;" horiz-adv-x="1183" d="M66 412l108 612h340l-100 -569q-13 -81 22 -121.5t105 -40.5q77 0 129 47t69 139v-2l97 547h340l-181 -1024h-340l19 104q-56 -63 -134 -98t-165 -35q-166 0 -255 116t-54 325zM360 1434h385l125 -297h-315z" />
<glyph unicode="&#xfa;" horiz-adv-x="1183" d="M66 412l108 612h340l-100 -569q-13 -81 22 -121.5t105 -40.5q77 0 129 47t69 139v-2l97 547h340l-181 -1024h-340l19 104q-56 -63 -134 -98t-165 -35q-166 0 -255 116t-54 325zM502 1137l207 297h405l-278 -297h-334z" />
<glyph unicode="&#xfb;" horiz-adv-x="1183" d="M66 412l108 612h340l-100 -569q-13 -81 22 -121.5t105 -40.5q77 0 129 47t69 139v-2l97 547h340l-181 -1024h-340l19 104q-56 -63 -134 -98t-165 -35q-166 0 -255 116t-54 325zM285 1116l272 318h342l162 -318h-305l-60 115l-102 -115h-309z" />
<glyph unicode="&#xfc;" horiz-adv-x="1183" d="M66 412l108 612h340l-100 -569q-13 -81 22 -121.5t105 -40.5q77 0 129 47t69 139v-2l97 547h340l-181 -1024h-340l19 104q-56 -63 -134 -98t-165 -35q-166 0 -255 116t-54 325zM344 1260q10 67 67.5 115t125.5 48q66 0 105.5 -48t27.5 -115q-10 -67 -66.5 -115.5 t-124.5 -48.5q-67 0 -106.5 48t-28.5 116zM743 1260q10 67 66.5 115t124.5 48q67 0 106.5 -47.5t28.5 -115.5q-10 -67 -67 -115.5t-125 -48.5q-66 0 -106 48.5t-28 115.5z" />
<glyph unicode="&#xfd;" horiz-adv-x="1124" d="M-6 -410l57 320q110 0 166 28t102 103l-229 983h361l106 -592l266 592h391l-520 -993q-133 -255 -303 -357.5t-397 -83.5zM465 1137l207 297h405l-278 -297h-334z" />
<glyph unicode="&#xfe;" d="M-63 -410l323 1844h340l-86 -494q116 113 291 113q140 0 241 -78.5t142 -206.5t18 -276q-24 -143 -94.5 -259.5t-188.5 -189t-261 -72.5q-201 0 -293 146l-93 -527h-339zM438 512q-17 -102 31.5 -162.5t144.5 -60.5t165.5 60.5t86.5 162.5q19 102 -28.5 162.5 t-143.5 60.5t-166.5 -60.5t-89.5 -162.5z" />
<glyph unicode="&#xff;" horiz-adv-x="1124" d="M-6 -410l57 320q110 0 166 28t102 103l-229 983h361l106 -592l266 592h391l-520 -993q-133 -255 -303 -357.5t-397 -83.5zM307 1260q10 67 67.5 115t125.5 48q66 0 105.5 -48t27.5 -115q-10 -67 -66.5 -115.5t-124.5 -48.5q-67 0 -106.5 48t-28.5 116zM707 1260 q10 67 66 115t124 48q67 0 106.5 -47.5t28.5 -115.5q-10 -67 -67 -115.5t-125 -48.5q-66 0 -105.5 48.5t-27.5 115.5z" />
<glyph unicode="&#x152;" horiz-adv-x="1912" d="M94 729q24 147 98 280.5t184 234.5t259 160.5t311 59.5q131 0 230 -30l-64 -361q-79 33 -209 33q-164 0 -287.5 -108.5t-154.5 -280.5t52 -280.5t247 -108.5q135 0 227 32l189 1074h827l-59 -344h-463l-35 -199h412l-60 -336h-409l-37 -211h471l-62 -344h-837 q-115 -31 -222 -31q-159 0 -287.5 61.5t-205.5 165.5t-108.5 242.5t-6.5 290.5z" />
<glyph unicode="&#x153;" horiz-adv-x="1910" d="M46 394.5q-7 68.5 7 137.5q17 101 65.5 193t123 166t182.5 118t233 44q119 0 210.5 -46t148.5 -130q165 176 416 176q142 0 250.5 -71.5t157.5 -195.5t24 -272q-8 -58 -35 -127h-703q29 -125 197 -125q123 0 203 74l217 -199q-178 -166 -430 -166q-274 0 -393 176 q-162 -176 -412 -176q-88 0 -162 22.5t-126 61.5t-91.5 93t-57.5 116t-25 130.5zM393 512q-17 -94 30 -153.5t136 -59.5q90 0 158.5 59t85.5 154q17 94 -31 153.5t-137 59.5q-90 0 -157.5 -59t-84.5 -154zM1167 625h387q-11 141 -161 141q-73 0 -131.5 -35.5t-94.5 -105.5z " />
<glyph unicode="&#x178;" horiz-adv-x="1292" d="M162 1434h389l154 -461l315 461h434l-604 -809l-111 -625h-366l110 625zM485 1669q10 67 67.5 115.5t125.5 48.5q66 0 105.5 -48.5t27.5 -115.5q-10 -67 -66 -115.5t-124 -48.5q-67 0 -107 48t-29 116zM885 1669q10 67 66 115.5t124 48.5q67 0 106.5 -48t28.5 -116 q-10 -67 -67 -115.5t-125 -48.5q-66 0 -105.5 48.5t-27.5 115.5z" />
<glyph unicode="&#x2c6;" horiz-adv-x="858" d="M147 1116l273 318h342l162 -318h-306l-59 115l-102 -115h-310z" />
<glyph unicode="&#x2dc;" horiz-adv-x="815" d="M162 1122q10 99 42 170.5t76.5 107.5t98 49.5t107 3.5t102.5 -38q25 -16 41.5 -22.5t32.5 -6t26.5 17.5t16.5 50h249q-11 -99 -43.5 -171t-77 -108t-98 -49t-107 -2.5t-102.5 39.5q-26 15 -41.5 21.5t-32 5.5t-26.5 -18t-16 -50h-248z" />
<glyph unicode="&#x2000;" horiz-adv-x="943" />
<glyph unicode="&#x2001;" horiz-adv-x="1887" />
<glyph unicode="&#x2002;" horiz-adv-x="943" />
<glyph unicode="&#x2003;" horiz-adv-x="1887" />
<glyph unicode="&#x2004;" horiz-adv-x="629" />
<glyph unicode="&#x2005;" horiz-adv-x="471" />
<glyph unicode="&#x2006;" horiz-adv-x="314" />
<glyph unicode="&#x2007;" horiz-adv-x="314" />
<glyph unicode="&#x2008;" horiz-adv-x="235" />
<glyph unicode="&#x2009;" horiz-adv-x="377" />
<glyph unicode="&#x200a;" horiz-adv-x="104" />
<glyph unicode="&#x2010;" horiz-adv-x="1024" d="M102 455l58 323h798l-57 -323h-799z" />
<glyph unicode="&#x2011;" horiz-adv-x="1024" d="M102 455l58 323h798l-57 -323h-799z" />
<glyph unicode="&#x2012;" horiz-adv-x="1024" d="M102 455l58 323h798l-57 -323h-799z" />
<glyph unicode="&#x2013;" horiz-adv-x="1253" d="M102 455l58 323h1028l-58 -323h-1028z" />
<glyph unicode="&#x2014;" horiz-adv-x="1458" d="M102 455l58 323h1233l-58 -323h-1233z" />
<glyph unicode="&#x2018;" horiz-adv-x="618" d="M131 791l287 643h274l-184 -643h-377z" />
<glyph unicode="&#x2019;" horiz-adv-x="618" d="M137 791l185 643h376l-286 -643h-275z" />
<glyph unicode="&#x201a;" horiz-adv-x="618" d="M-53 -287l184 643h377l-287 -643h-274z" />
<glyph unicode="&#x201c;" horiz-adv-x="1075" d="M131 791l287 643h274l-184 -643h-377zM588 791l286 643h275l-184 -643h-377z" />
<glyph unicode="&#x201d;" horiz-adv-x="1075" d="M137 791l185 643h376l-286 -643h-275zM594 791l184 643h377l-287 -643h-274z" />
<glyph unicode="&#x201e;" horiz-adv-x="1075" d="M-53 -287l184 643h377l-287 -643h-274zM403 -287l185 643h377l-287 -643h-275z" />
<glyph unicode="&#x2022;" horiz-adv-x="817" d="M111 729q25 137 138 230.5t255 93.5q137 0 218 -101.5t56 -238.5q-25 -142 -135.5 -237t-255.5 -95q-138 0 -219.5 103.5t-56.5 244.5z" />
<glyph unicode="&#x2026;" horiz-adv-x="1613" d="M27 188q15 89 85.5 149t163.5 60q88 0 139 -64t36 -153q-15 -91 -84 -150t-166 -59q-87 0 -138 63.5t-36 153.5zM537 188q15 89 85.5 149t163.5 60q88 0 139 -64t36 -153q-15 -91 -84 -150t-166 -59q-87 0 -138 63.5t-36 153.5zM1049 188q15 89 85.5 149t163.5 60 q88 0 139 -64t36 -153q-15 -91 -84 -150t-166 -59q-87 0 -138 63.5t-36 153.5z" />
<glyph unicode="&#x202f;" horiz-adv-x="377" />
<glyph unicode="&#x2039;" horiz-adv-x="745" d="M133 633l295 399h297l-301 -409l156 -390h-285z" />
<glyph unicode="&#x203a;" horiz-adv-x="747" d="M63 233l302 410l-156 389h285l161 -399l-295 -400h-297z" />
<glyph unicode="&#x205f;" horiz-adv-x="471" />
<glyph unicode="&#x20ac;" horiz-adv-x="1294" d="M27 512l30 172h123q5 42 8 57l2 15h-120l30 172h136q83 254 255 395t412 141q166 0 283 -82.5t172 -228.5l-322 -170q-55 125 -180 125q-160 0 -242 -180h340l-30 -172h-365q-3 -9 -8 -39l-6 -33h366l-30 -172h-342q18 -186 180 -186q126 0 223 147l283 -178 q-90 -159 -230 -242.5t-323 -83.5q-228 0 -360.5 148t-141.5 395h-143z" />
<glyph unicode="&#x2122;" horiz-adv-x="985" d="M199 1292l24 142h361l-27 -142h-102l-47 -268h-150l47 268h-106zM549 1024l72 410h143l55 -138l107 138h159l-71 -410h-144l33 193l-104 -125h-15l-59 122l-33 -190h-143z" />
<glyph unicode="&#x25fc;" horiz-adv-x="1024" d="M0 0v1024h1024v-1024h-1024z" />
<glyph unicode="&#xfb03;" horiz-adv-x="1751" d="M66 698l55 326h129q40 228 189.5 341.5t404.5 98.5l-56 -315q-172 13 -198 -125h237l4 20q40 223 185 332t399 109q141 0 271 -31l-52 -297q-117 19 -223 19q-215 0 -237 -132l-5 -20h574l-180 -1024h-342l122 698h-231l-123 -698h-342l123 698h-238l-122 -698h-340 l123 698h-127z" />
<glyph unicode="&#xfb04;" horiz-adv-x="1751" d="M66 698l55 326h129q40 232 189 343.5t405 96.5l-56 -315q-172 13 -198 -125h237l4 20q39 228 185 334.5t409 106.5q187 0 392 -41l-254 -1444h-342l211 1194q-20 2 -62 2q-78 0 -130.5 -38.5t-65.5 -113.5l-5 -20h134l-56 -326h-135l-123 -698h-342l123 698h-238 l-122 -698h-340l123 698h-127z" />
</font>
</defs>
</svg>
