<?xml version="1.0" standalone="no"?>
<!DOCTYPE svg PUBLIC "-//W3C//DTD SVG 1.1//EN" "http://www.w3.org/Graphics/SVG/1.1/DTD/svg11.dtd" >
<svg xmlns="http://www.w3.org/2000/svg">
<metadata></metadata>
<defs>
<font id="gilroysemibold_italic" horiz-adv-x="522" >
<font-face units-per-em="2048" ascent="1638" descent="-410" />
<missing-glyph horiz-adv-x="512" />
<glyph unicode="&#xfb01;" horiz-adv-x="1112" d="M100 811l37 213h156l4 20q36 216 169 316t368 100q108 0 221 -26l-35 -203q-93 16 -201 16q-132 0 -207 -46t-94 -157l-4 -20h561l-180 -1024h-221l143 811h-340l-143 -811h-221l143 811h-156z" />
<glyph unicode="&#xfb02;" horiz-adv-x="1112" d="M100 811l37 213h156l4 20q36 216 169 316t368 100q150 0 311 -37l-250 -1423h-221l221 1264q-33 2 -96 2q-120 0 -190.5 -53t-90.5 -169l-4 -20h191l-37 -213h-191l-143 -811h-221l143 811h-156z" />
<glyph horiz-adv-x="0" />
<glyph horiz-adv-x="682" />
<glyph unicode=" "  horiz-adv-x="512" />
<glyph unicode="&#x09;" horiz-adv-x="512" />
<glyph unicode="&#xa0;" horiz-adv-x="512" />
<glyph unicode="!" d="M41 133q11 64 61.5 107t118.5 43q63 0 100.5 -46.5t26.5 -109.5q-12 -66 -62 -109t-120 -43q-63 0 -99.5 46.5t-25.5 111.5zM164 451l55 573l72 410h266l-72 -410l-147 -573h-174z" />
<glyph unicode="&#x22;" horiz-adv-x="727" d="M207 983l47 451h215l-109 -451h-153zM535 983l47 451h215l-109 -451h-153z" />
<glyph unicode="#" horiz-adv-x="1249" d="M39 440l59 174h234l69 205h-233l59 174h234l117 338h182l-117 -338h229l117 338h182l-116 -338h229l-59 -174h-230l-69 -205h229l-57 -174h-232l-116 -338h-183l117 338h-229l-117 -338h-182l116 338h-233zM514 614h229l70 205h-229z" />
<glyph unicode="$" horiz-adv-x="1146" d="M25 297l213 109q55 -173 235 -199l76 424q-32 14 -55.5 25.5t-54.5 27.5t-53.5 31t-48.5 34t-44 39.5t-36 44.5t-28 51.5t-17 58.5t-6.5 67t7.5 75q14 74 49 136.5t82.5 105.5t106 73.5t120.5 44.5t125 15l31 178h133l-35 -190q115 -26 197.5 -96.5t124.5 -175.5 l-209 -109q-59 118 -152 150l-71 -404q133 -62 182 -93q165 -107 170 -275q1 -43 -8 -91q-34 -176 -169 -274t-325 -107l-30 -178h-134l33 185q-158 19 -263.5 102t-145.5 215zM453 1065q-14 -70 22.5 -114.5t116.5 -82.5l63 363q-75 -6 -132 -50t-70 -116zM606 205 q85 13 141 60.5t70 115.5q16 69 -23 113.5t-122 83.5z" />
<glyph unicode="%" horiz-adv-x="1529" d="M168 213l1126 1053l111 -70l-1129 -1053zM213 1135q21 136 128 230.5t261 94.5q96 0 167.5 -50t100 -129t11.5 -167q-27 -132 -131 -220.5t-254 -88.5q-95 0 -165.5 47t-101 122.5t-16.5 160.5zM403 1133q-12 -62 20.5 -105t96.5 -43t112.5 43t59.5 105 q11 64 -21.5 106.5t-97.5 42.5q-64 0 -111.5 -42.5t-58.5 -106.5zM723 311q23 135 128.5 227.5t258.5 92.5q96 0 167 -49.5t100 -127.5t12 -165q-24 -131 -129.5 -222.5t-253.5 -91.5q-145 0 -225 101.5t-58 234.5zM911 303q-11 -63 22 -105t97 -42q63 0 112 43t60 104 q11 64 -22 107t-97 43t-112.5 -43t-59.5 -107z" />
<glyph unicode="&#x26;" horiz-adv-x="1386" d="M86 418q49 257 334 395q-68 127 -45 270q29 173 161.5 275t319.5 102q158 0 268.5 -77t157.5 -222l-211 -112q-26 87 -85.5 134.5t-145.5 47.5q-87 0 -153 -47t-79 -135q-10 -62 12 -118t70 -120l277 -369q63 96 120 250l189 -119q-70 -172 -178 -307l162 -215l-201 -104 l-123 164q-190 -138 -424 -138q-224 0 -343 126t-83 319zM326 420q-19 -101 42 -164t187 -63q140 0 256 83l-283 375q-177 -77 -202 -231z" />
<glyph unicode="'" horiz-adv-x="399" d="M207 983l47 451h215l-109 -451h-153z" />
<glyph unicode="(" horiz-adv-x="602" d="M152 733q81 463 387 905h221q-305 -449 -387 -921q-82 -474 61 -922h-221q-146 449 -61 938z" />
<glyph unicode=")" horiz-adv-x="600" d="M-86 -205q305 448 387 922t-61 921h221q146 -449 61 -938q-81 -463 -387 -905h-221z" />
<glyph unicode="*" horiz-adv-x="813" d="M217 1100l27 147l182 -12l-84 147l135 78l60 -170l120 170l119 -78l-135 -147l188 12l-26 -147l-185 12l84 -147l-133 -78l-59 170l-121 -170l-121 78l135 147z" />
<glyph unicode="+" horiz-adv-x="1126" d="M131 612l37 209h346l61 346h209l-61 -346h346l-37 -209h-346l-61 -346h-209l61 346h-346z" />
<glyph unicode="," horiz-adv-x="542" d="M-35 -287l178 533h246l-237 -533h-187z" />
<glyph unicode="-" horiz-adv-x="1044" d="M145 516l37 213h758l-37 -213h-758z" />
<glyph unicode="." d="M41 133q11 64 61.5 107t118.5 43q63 0 100.5 -46.5t26.5 -109.5q-12 -66 -62 -109t-120 -43q-63 0 -99.5 46.5t-25.5 111.5z" />
<glyph unicode="/" horiz-adv-x="1075" d="M-55 -205l1136 1843h121l-1136 -1843h-121z" />
<glyph unicode="0" horiz-adv-x="1294" d="M120.5 342q-38.5 172 0.5 393q60 338 237.5 531.5t446.5 193.5q175 0 289 -98.5t152 -270.5t-1 -393q-60 -338 -236.5 -531.5t-445.5 -193.5q-175 0 -289.5 98.5t-153 270.5zM356 717q-43 -248 17.5 -381t218.5 -133q159 0 266.5 132.5t151.5 381.5q43 248 -17.5 381 t-218.5 133q-159 0 -266.5 -132.5t-151.5 -381.5z" />
<glyph unicode="1" horiz-adv-x="761" d="M166 1300l399 134h205l-252 -1434h-235l206 1176v-2l-301 -82z" />
<glyph unicode="2" horiz-adv-x="1085" d="M-27 0l33 184l590 510q104 89 165 165t73 151q19 103 -33 162t-146 59q-169 0 -293 -182l-186 120q93 144 225.5 217.5t284.5 73.5q87 0 164.5 -32.5t133.5 -90.5t80.5 -146.5t6.5 -191.5q-23 -125 -99.5 -228.5t-213.5 -219.5l-381 -324h581l-40 -227h-945z" />
<glyph unicode="3" horiz-adv-x="1105" d="M8 270l213 113q47 -180 256 -180q122 0 204 62t101 169t-41 168.5t-182 61.5h-55l-70 143l369 405h-586l39 222h881l-35 -201l-352 -389q141 -44 218.5 -156.5t49.5 -269.5q-19 -110 -73 -196t-131 -140t-168.5 -81.5t-192.5 -27.5q-165 0 -283.5 75.5t-161.5 221.5z" />
<glyph unicode="4" horiz-adv-x="1177" d="M2 258l39 219l653 957h267l-654 -957h438l66 373h238l-66 -373h164l-39 -219h-164l-45 -258h-237l45 258h-705z" />
<glyph unicode="5" horiz-adv-x="1120" d="M20 281l216 112q22 -93 90 -141.5t176 -48.5q118 0 200 62.5t101 168.5t-41 168t-178 62h-418l188 770h799l-37 -222h-575l-80 -319h174q89 0 169.5 -33t139.5 -92t85.5 -150.5t8.5 -199.5q-19 -110 -72.5 -196t-130 -140t-167.5 -81.5t-191 -27.5q-168 0 -289.5 78.5 t-167.5 229.5z" />
<glyph unicode="6" horiz-adv-x="1118" d="M47 479q29 172 141 293l562 662h284l-411 -482h4q141 0 248 -65.5t156 -182t24 -258.5q-38 -217 -195.5 -345t-384.5 -128q-146 0 -253.5 66t-154 182t-20.5 258zM283 463q-23 -122 38.5 -194t182.5 -72q119 0 205.5 72.5t109.5 193.5q21 122 -41 194t-182 72t-205.5 -72 t-107.5 -194z" />
<glyph unicode="7" horiz-adv-x="1003" d="M100 0l697 1208h-643l39 226h911l-35 -205l-709 -1229h-260z" />
<glyph unicode="8" horiz-adv-x="1150" d="M53 414q20 113 91.5 199.5t183.5 138.5q-69 53 -100 132t-13 177q24 133 103.5 225t186 133t232.5 41q87 0 163.5 -28t133.5 -80t82.5 -134t7.5 -182q-36 -198 -219 -299q89 -59 129.5 -152t22.5 -204q-36 -196 -188 -302t-380 -106q-144 0 -251 54t-157.5 155.5 t-27.5 231.5zM293 420q-20 -105 44.5 -164t182.5 -59q119 0 202 58.5t103 164.5q18 106 -47 164.5t-180 58.5q-117 0 -202 -58.5t-103 -164.5zM449 1038q-17 -92 37.5 -145t146.5 -53q95 0 166 52.5t88 145.5q17 95 -37 147t-148 52q-93 0 -165 -52t-88 -147z" />
<glyph unicode="9" horiz-adv-x="1120" d="M135 989q38 216 196 343.5t386 127.5q221 0 343.5 -145.5t84.5 -362.5q-29 -173 -148 -299l-555 -653h-282l407 481h-4q-141 0 -248 66t-156 183t-24 259zM371 971q-22 -120 40.5 -193t182.5 -73t206.5 72t108.5 194t-39.5 194t-181.5 72t-208 -72t-109 -194z" />
<glyph unicode=":" d="M41 133q11 64 61.5 107t118.5 43q63 0 100.5 -46.5t26.5 -109.5q-12 -66 -62 -109t-120 -43q-63 0 -99.5 46.5t-25.5 111.5zM176 901q11 64 61.5 107t118.5 43q63 0 100.5 -46.5t26.5 -109.5q-12 -66 -62 -109t-120 -43q-63 0 -99.5 46.5t-25.5 111.5z" />
<glyph unicode=";" horiz-adv-x="548" d="M-35 -287l178 533h246l-237 -533h-187zM203 901q11 64 61.5 107t118.5 43q63 0 100.5 -46.5t26.5 -109.5q-12 -66 -62 -109t-120 -43q-63 0 -99.5 46.5t-25.5 111.5z" />
<glyph unicode="&#x3c;" horiz-adv-x="1075" d="M121 614l37 205l938 379l-45 -246l-662 -247l576 -248l-39 -221z" />
<glyph unicode="=" horiz-adv-x="1085" d="M84 403l37 209h880l-38 -209h-879zM158 823l37 209h880l-37 -209h-880z" />
<glyph unicode="&#x3e;" horiz-adv-x="1075" d="M55 236l43 245l662 248l-574 248l39 221l801 -379l-16 -102l-19 -103z" />
<glyph unicode="?" horiz-adv-x="1118" d="M195 1157q76 146 216.5 224.5t305.5 78.5q87 0 164 -28t132 -79t79.5 -129.5t7.5 -172.5q-11 -63 -41 -119t-69 -97.5t-84 -80t-89.5 -73t-82.5 -69t-65 -75.5t-34 -86h-236q11 65 40 122.5t68 99.5t84 79.5t89.5 71.5t82 68t64.5 75t35 86q14 86 -35.5 132t-142.5 46 q-98 0 -173.5 -50.5t-121.5 -144.5zM307 133q11 64 61.5 107t118.5 43q63 0 100.5 -46.5t26.5 -109.5q-12 -66 -62 -109t-120 -43q-63 0 -99.5 46.5t-25.5 111.5z" />
<glyph unicode="@" horiz-adv-x="1607" d="M76 530q27 152 107 286t195 230t263 151.5t305 55.5q93 0 176.5 -22t147 -60.5t116.5 -92t85.5 -116.5t54.5 -133.5t23 -143.5t-9 -146q-39 -215 -145.5 -320.5t-245.5 -105.5q-89 0 -148.5 42t-74.5 119q-97 -94 -230 -94q-132 0 -206 101.5t-48 242.5q25 142 125.5 232 t231.5 90q122 0 192 -96l15 75h188l-82 -463q-13 -74 8 -119.5t86 -45.5q89 0 160.5 88t103.5 268q23 133 -6.5 251t-99.5 202t-180.5 133t-245.5 49q-186 0 -355.5 -87t-286.5 -241.5t-151 -343.5q-34 -192 30.5 -347.5t212 -244t349.5 -88.5q196 0 350 53l-12 -69 q-155 -49 -348 -49q-164 0 -299.5 58.5t-222 159t-122.5 241.5t-7 300zM633 512q-13 -71 24.5 -115.5t106.5 -44.5q67 0 119.5 44.5t64.5 115.5q13 72 -23.5 117t-103.5 45q-69 0 -122.5 -45t-65.5 -117z" />
<glyph unicode="A" horiz-adv-x="1341" d="M-80 0l772 1434h283l266 -1434h-252l-47 289h-610l-154 -289h-258zM451 510h454l-106 655z" />
<glyph unicode="B" horiz-adv-x="1249" d="M53 0l252 1434h545q180 0 290 -118q88 -95 88 -226q0 -31 -5 -64q-13 -91 -64.5 -165.5t-130.5 -123.5q80 -53 118 -139q26 -60 27 -132q0 -32 -6 -67q-24 -174 -160.5 -286.5t-349.5 -112.5h-604zM328 221h366q91 0 159.5 58.5t82.5 142.5q4 21 4 41q0 61 -35 103 q-46 58 -133 57h-375zM436 836h328q81 0 144.5 54t78.5 134q3 19 3 36q0 56 -34 98q-44 54 -131 54h-323z" />
<glyph unicode="C" horiz-adv-x="1503" d="M111 737q36 206 157.5 371.5t303 258.5t386.5 93q206 0 355 -91.5t223 -252.5l-213 -112q-106 227 -383 227q-225 0 -391 -145.5t-205 -368.5q-9 -55 -9 -106q0 -153 86 -263q115 -146 333 -145q144 0 262.5 62.5t197.5 174.5l193 -125q-115 -159 -292.5 -250.5 t-377.5 -91.5q-162 0 -293.5 61.5t-212 165.5t-113.5 244q-18 78 -18 161q0 65 11 132z" />
<glyph unicode="D" horiz-adv-x="1468" d="M53 0l252 1434h563q140 0 258 -59.5t193.5 -159t106.5 -235.5q17 -73 17 -149q0 -66 -13 -135q-35 -198 -149 -356.5t-288.5 -249t-376.5 -90.5h-563zM328 225h319q210 0 364 141t191 357q10 56 10 107q0 142 -76 242q-104 136 -307 136h-327z" />
<glyph unicode="E" horiz-adv-x="1085" d="M53 0l252 1434h860l-39 -226h-624l-66 -372h574l-39 -222h-574l-69 -389h637l-41 -225h-871z" />
<glyph unicode="F" horiz-adv-x="1060" d="M53 0l252 1434h840l-39 -226h-604l-72 -401h584l-39 -225h-584l-102 -582h-236z" />
<glyph unicode="G" horiz-adv-x="1611" d="M113 743q36 205 157 368.5t303 256t390 92.5q210 0 362 -92.5t234 -257.5l-216 -113q-119 234 -399 234q-227 0 -393 -143.5t-205 -366.5q-9 -55 -9 -106q0 -85 26 -159q42 -117 149 -185t262 -68q196 0 329.5 88t192.5 239h-471l37 211h717l-16 -98q-34 -196 -145 -348 t-283.5 -237t-380.5 -85q-167 0 -302 61.5t-217.5 166t-115.5 245.5q-18 78 -18 160q0 67 12 137z" />
<glyph unicode="H" horiz-adv-x="1372" d="M53 0l252 1434h236l-103 -588h615l102 588h236l-252 -1434h-236l109 621h-615l-108 -621h-236z" />
<glyph unicode="I" d="M53 0l252 1434h236l-252 -1434h-236z" />
<glyph unicode="J" horiz-adv-x="1150" d="M25 246l215 116q24 -83 82.5 -121t154.5 -38q126 0 202.5 60t96.5 171l176 1000h236l-176 -1002q-21 -119 -72.5 -208.5t-125.5 -143.5t-163 -80.5t-192 -26.5q-335 0 -434 273z" />
<glyph unicode="K" horiz-adv-x="1232" d="M53 0l252 1434h236l-111 -633l660 633h288l-729 -705l484 -729h-254l-467 698l-123 -698h-236z" />
<glyph unicode="L" horiz-adv-x="993" d="M53 0l252 1434h236l-213 -1209h585l-41 -225h-819z" />
<glyph unicode="M" horiz-adv-x="1658" d="M53 0l252 1434h248l295 -727l561 727h268l-252 -1434h-235l180 1020l-565 -719h-29l-305 739l-182 -1040h-236z" />
<glyph unicode="N" horiz-adv-x="1382" d="M53 0l252 1434h178l510 -985l172 985h236l-252 -1434h-178l-508 985l-174 -985h-236z" />
<glyph unicode="O" horiz-adv-x="1634" d="M111 737q37 207 158 371.5t306 258t400 93.5q152 0 281 -62t212 -166q82 -103 118 -245q20 -81 21 -165q0 -64 -12 -130q-38 -207 -159 -370.5t-306 -256t-401 -92.5q-203 0 -358.5 103.5t-225.5 279.5q-46 116 -46 245q0 66 12 136zM346 717q-9 -53 -9 -102 q0 -87 28 -161q44 -118 148 -184.5t247 -66.5q220 0 390 144.5t210 365.5q9 53 9 102q1 155 -91 268q-120 148 -340 148q-143 0 -270 -66.5t-212 -184t-110 -263.5z" />
<glyph unicode="P" horiz-adv-x="1208" d="M53 0l252 1434h510q141 0 242 -63.5t145 -173.5q30 -75 29 -162q0 -40 -6 -83q-32 -202 -186.5 -331t-393.5 -129h-270l-86 -492h-236zM414 713h256q130 0 215 72t106 188q5 28 5 53q0 73 -41 121q-55 65 -173 65h-280z" />
<glyph unicode="Q" horiz-adv-x="1644" d="M111 737q37 206 160 371t308 258.5t396 93.5q152 0 281 -62t212 -165.5t118 -245.5q21 -81 21 -165q0 -64 -12 -130q-52 -291 -272 -489l115 -144l-178 -139l-121 152q-193 -99 -410 -99q-148 0 -276 61.5t-212 164t-121 243.5q-20 82 -20 167q0 63 11 128zM346 717 q-9 -53 -9 -102q0 -87 28 -161q44 -118 148 -184.5t247 -66.5q125 0 235 49l-217 272l178 138l228 -285q138 138 176 336q9 53 9 102q0 155 -91 268q-121 148 -340 148q-143 0 -270 -66.5t-212 -184t-110 -263.5z" />
<glyph unicode="R" horiz-adv-x="1255" d="M53 0l252 1434h563q123 0 221.5 -66.5t145.5 -178.5q32 -76 32 -159q0 -39 -7 -78q-26 -143 -122 -249.5t-235 -151.5l225 -551h-239l-211 522h-297l-92 -522h-236zM418 733h338q97 0 174 69.5t96 170.5q5 25 5 49q0 70 -43 121q-57 69 -157 69h-329z" />
<glyph unicode="S" horiz-adv-x="1198" d="M29 326l213 110q25 -110 105 -172.5t220 -62.5q124 0 200.5 49t94.5 131q4 18 4 35q0 20 -6 38q-11 33 -32 56t-64.5 45.5t-79 36t-96.5 33.5q-34 12 -63.5 23t-61.5 25.5t-58.5 30t-53.5 34t-47.5 39.5t-39 45.5t-30 53t-18.5 60t-7 68.5t8 77q14 77 50 140.5t85.5 107 t112 73.5t128.5 44t134 14q176 0 295.5 -84.5t171.5 -228.5l-207 -109q-35 93 -101 144t-177 51q-97 0 -167 -45t-87 -123q-4 -17 -4 -33q0 -20 6 -39q10 -33 30.5 -56t61.5 -46t77.5 -37.5t94.5 -34.5q97 -35 152 -61t127 -79.5t97 -133.5q14 -44 14 -97q0 -42 -9 -90 q-34 -187 -184 -286t-367 -99q-212 0 -346.5 94t-175.5 259z" />
<glyph unicode="T" horiz-adv-x="1105" d="M154 1208l39 226h1044l-39 -226h-403l-213 -1208h-236l213 1208h-405z" />
<glyph unicode="U" horiz-adv-x="1333" d="M117 475l170 959h235l-166 -945q-6 -35 -6 -67q0 -86 46 -142q62 -78 214 -77q154 0 246 79.5t115 206.5l166 945h235l-170 -959q-42 -241 -206 -371.5t-398 -130.5q-249 1 -384 141q-105 110 -105 268q0 44 8 93z" />
<glyph unicode="V" horiz-adv-x="1277" d="M172 1434h244l170 -1153l577 1153h267l-740 -1434h-282z" />
<glyph unicode="W" horiz-adv-x="2045" d="M203 1434h235l107 -1125l522 1125h217l129 -1125l500 1125h254l-658 -1434h-272l-121 1047l-487 -1047h-273z" />
<glyph unicode="X" horiz-adv-x="1228" d="M-59 0l583 750l-305 684h252l213 -480l373 480h278l-551 -707l324 -727h-252l-231 520l-406 -520h-278z" />
<glyph unicode="Y" horiz-adv-x="1214" d="M172 1434h252l231 -564l430 564h281l-618 -791l-113 -643h-236l113 647z" />
<glyph unicode="Z" horiz-adv-x="1085" d="M-14 0l37 195l819 1013h-627l39 226h922l-33 -195l-819 -1014h655l-39 -225h-954z" />
<glyph unicode="[" horiz-adv-x="614" d="M-14 -205l325 1843h461l-37 -213h-239l-252 -1417h241l-39 -213h-460z" />
<glyph unicode="\" horiz-adv-x="1075" d="M270 1638h111l496 -1843h-111z" />
<glyph unicode="]" horiz-adv-x="614" d="M-86 -205l39 213h237l252 1417h-239l37 213h460l-325 -1843h-461z" />
<glyph unicode="^" horiz-adv-x="1105" d="M129 778l496 656h180l266 -656h-233l-156 404l-301 -404h-252z" />
<glyph unicode="_" horiz-adv-x="1064" d="M-78 -330l37 213h924l-37 -213h-924z" />
<glyph unicode="`" horiz-adv-x="514" d="M203 1434l174 -277h209l-123 277h-260z" />
<glyph unicode="a" horiz-adv-x="1292" d="M76 535q41 228 203 372t378 144q118 0 207 -50t140 -143l28 166h221l-180 -1024h-221l20 121q-145 -148 -374 -148q-149 0 -256 80.5t-150 208.5q-26 79 -26 164q0 53 10 109zM297 518q-6 -35 -6 -68q0 -98 57 -170q76 -96 215 -96q131 0 235 80.5t138 210.5l10 60 q2 21 2 41q0 112 -68 182q-80 82 -210 82q-133 0 -239.5 -86t-133.5 -236z" />
<glyph unicode="b" horiz-adv-x="1290" d="M39 0l252 1434h221l-96 -543q154 160 377 160q143 0 249 -76q106 -77 152 -203q30 -84 31 -176q0 -47 -8 -96q-18 -107 -68 -202t-125 -167.5t-178 -115t-219 -42.5q-118 0 -204.5 51t-133.5 142l-29 -166h-221zM350 512q-6 -35 -6 -67q0 -99 58 -169q76 -92 214 -92 q141 0 247.5 94.5t131.5 239.5q6 35 6 66q0 98 -57 166q-75 90 -213 90t-247.5 -92.5t-133.5 -235.5z" />
<glyph unicode="c" horiz-adv-x="1114" d="M76 535q25 149 112.5 266.5t219 183.5t284.5 66q155 0 267 -72t159 -195l-198 -102q-28 72 -92 112t-156 40q-138 0 -244 -88.5t-131 -227.5q-5 -33 -5 -63q0 -99 56 -171q74 -94 211 -94q90 0 167.5 43t125.5 117l178 -114q-78 -127 -208.5 -195t-284.5 -68 q-115 0 -211 44.5t-156.5 120t-86.5 179.5q-15 60 -15 124q0 46 8 94z" />
<glyph unicode="d" horiz-adv-x="1294" d="M76 535q41 228 203 372t378 144q118 0 207.5 -51t139.5 -144l102 578h221l-252 -1434h-221l23 123q-147 -150 -379 -150q-149 0 -256 80.5t-150 208.5q-26 79 -26 164q0 53 10 109zM297 518q-6 -35 -6 -67q0 -99 58 -171q77 -96 216 -96q131 0 235 81.5t138 211.5l10 60 q2 21 2 41q0 114 -68 182q-80 80 -210 80q-133 0 -240.5 -86t-134.5 -236z" />
<glyph unicode="e" horiz-adv-x="1193" d="M76 532q25 148 112 266.5t218 185.5t280 67q151 0 262.5 -72.5t159.5 -196.5q30 -78 30 -166q0 -51 -10 -106q-20 -78 -24 -92h-815q3 -119 78.5 -180.5t197.5 -61.5q182 0 289 129l162 -123q-82 -102 -204 -155.5t-265 -53.5q-164 0 -281.5 75.5t-165.5 202.5 q-32 84 -33 179q0 50 9 102zM319 600h601q1 126 -67 188t-181 62q-121 0 -215 -66.5t-138 -183.5z" />
<glyph unicode="f" horiz-adv-x="667" d="M100 811l37 213h156l4 20q37 217 173 324q120 94 310 94q26 0 54 -2l-37 -213q-21 2 -41 2q-202 0 -238 -205l-4 -20h242l-37 -213h-242l-143 -811h-221l143 811h-156z" />
<glyph unicode="g" horiz-adv-x="1294" d="M29 -188l198 102q66 -150 281 -150q149 0 241 73t117 210l19 107q-147 -160 -371 -160q-156 0 -265 77.5t-152 202.5q-28 79 -28 169q0 49 9 102q35 218 197 362t376 144q121 0 214 -52t143 -147l30 172h217l-172 -977q-22 -124 -76.5 -218.5t-133.5 -151.5t-174 -85 t-205 -28q-167 0 -288.5 64t-176.5 184zM299 528q-5 -33 -5 -63q0 -99 58 -170q77 -92 219 -92q138 0 244.5 87t132.5 226q7 35 7 67q0 37 -9 71q-16 63 -55.5 103.5t-95.5 62.5t-121 22q-134 0 -243.5 -86.5t-131.5 -227.5z" />
<glyph unicode="h" horiz-adv-x="1165" d="M39 0l252 1434h221l-94 -533q64 75 151 112.5t183 37.5q176 0 269 -114q69 -84 69 -212q0 -45 -9 -96l-110 -629h-221l106 606q6 34 6 63q0 73 -36 115q-50 60 -158 60q-113 0 -196.5 -67.5t-111.5 -207.5l-100 -569h-221z" />
<glyph unicode="i" horiz-adv-x="477" d="M39 0l180 1024h221l-180 -1024h-221zM240 1319q9 58 56.5 99.5t106.5 41.5q60 0 95 -41q27 -31 27 -73q0 -13 -3 -27q-9 -58 -56.5 -99.5t-109.5 -41.5q-59 0 -92 42q-26 33 -26 75q0 12 2 24z" />
<glyph unicode="j" horiz-adv-x="518" d="M-199 -436l39 213q17 -2 33 -2q77 0 124 36q57 43 75 148l186 1065h221l-186 -1065q-40 -228 -159 -319q-102 -78 -274 -78q-29 0 -59 2zM281 1319q9 58 56 99.5t107 41.5q58 0 93 -41q28 -33 28 -77q0 -11 -2 -23q-11 -58 -58.5 -99.5t-107.5 -41.5q-59 0 -92 42 q-26 32 -26 75q0 12 2 24z" />
<glyph unicode="k" horiz-adv-x="1044" d="M39 0l252 1434h221l-150 -846l465 436h271l-535 -502l371 -522h-246l-342 492l-86 -492h-221z" />
<glyph unicode="l" horiz-adv-x="479" d="M41 0l111 633l151 862h221l-153 -868l-109 -627h-221z" />
<glyph unicode="m" horiz-adv-x="1738" d="M39 0l180 1024h221l-20 -113q128 140 309 140q97 0 165 -42.5t101 -121.5q66 81 154.5 122.5t185.5 41.5q169 -1 261 -115q68 -84 68 -207q0 -44 -9 -94l-111 -635h-221l109 621q6 32 6 60q0 65 -30 105q-44 58 -138 58q-97 0 -168 -64t-96 -192l-105 -588h-221l108 621 q6 34 6 64q0 62 -27 101q-40 58 -132 58q-93 0 -165 -58t-103 -176l-107 -610h-221z" />
<glyph unicode="n" horiz-adv-x="1165" d="M39 0l180 1024h221l-22 -123q64 75 151 112.5t183 37.5q176 0 269 -114q69 -84 69 -212q0 -45 -9 -96l-110 -629h-221l106 606q6 34 6 63q0 73 -36 115q-50 60 -158 60q-110 0 -194.5 -67t-113.5 -202l-100 -575h-221z" />
<glyph unicode="o" horiz-adv-x="1226" d="M78 539q28 151 118.5 268t222.5 180.5t283 63.5q149 0 262 -75q112 -76 162 -204q33 -85 34 -179q0 -49 -9 -101q-41 -229 -216 -374t-394 -145q-159 0 -276 76q-117 75 -167 205q-31 82 -31 174q0 54 11 111zM299 512q-6 -37 -7 -71q0 -101 58 -166q76 -87 207 -87 q133 0 240.5 88t134.5 240q7 38 7 71q0 97 -58 162q-78 87 -209 87q-132 0 -239 -87.5t-134 -236.5z" />
<glyph unicode="p" horiz-adv-x="1292" d="M-35 -410l254 1434h221l-22 -129q150 156 375 156q107 0 196 -46t144 -122.5t78 -178.5q13 -59 13 -121q0 -45 -7 -91q-37 -226 -198 -372.5t-376 -146.5q-121 0 -211.5 51.5t-140.5 145.5l-103 -580h-223zM346 487q-2 -20 -2 -38q0 -114 69 -184q80 -81 210 -81 q134 0 239.5 86.5t132.5 237.5q6 35 6 68q0 98 -57 170q-76 94 -215 94q-131 0 -235 -81.5t-138 -211.5z" />
<glyph unicode="q" horiz-adv-x="1292" d="M76 535q41 228 203 372t378 144q118 0 207 -50t140 -143l28 166h221l-252 -1434h-221l94 531q-148 -148 -376 -148q-112 0 -202 47.5t-143.5 125.5t-74.5 180q-11 53 -11 108q0 50 9 101zM297 518q-6 -35 -6 -68q0 -99 57 -170q76 -96 215 -96q131 0 236 81.5t137 211.5 l10 55q2 21 2 41q0 114 -68 185q-80 82 -210 82q-133 0 -239.5 -86t-133.5 -236z" />
<glyph unicode="r" horiz-adv-x="702" d="M39 0l180 1024h221l-26 -154q117 172 329 172h17l-43 -239q-14 1 -28 1q-40 0 -79 -8q-53 -12 -105 -40t-91.5 -82.5t-57.5 -130.5l-96 -543h-221z" />
<glyph unicode="s" horiz-adv-x="966" d="M20 221l199 103q20 -67 76.5 -107.5t144.5 -40.5q78 0 127 28t58 81q6 33 -14 58.5t-57 40.5t-84.5 31.5t-97.5 31.5t-96 41.5t-80 59.5q-34 34 -48 88q-8 29 -7 61q0 30 6 63q24 133 140 212t264 79q131 0 227 -56t142 -157l-199 -101q-18 56 -67 85.5t-115 29.5 q-62 0 -111 -28t-59 -83q-2 -9 -1 -17q0 -28 20 -50q26 -28 72 -45t103 -33t113 -40t100 -58q44 -33 64 -93q12 -36 12 -79q0 -29 -6 -62q-25 -142 -140 -216.5t-284 -74.5q-155 0 -256.5 65t-145.5 183z" />
<glyph unicode="t" horiz-adv-x="784" d="M90 811l39 213h188l39 221l232 66l-51 -287h256l-39 -213h-254l-86 -492q-3 -20 -4 -36q0 -37 18 -57q25 -28 81 -30q16 -1 34 -1q45 0 104 4l-35 -199q-70 -9 -129 -9q-145 1 -219 55q-79 57 -80 182q0 42 9 91l86 492h-189z" />
<glyph unicode="u" horiz-adv-x="1165" d="M84 395l111 629h221l-107 -606q-6 -33 -6 -62q0 -72 36 -116q50 -60 159 -60q110 0 194 67t113 202l100 575h221l-180 -1024h-221l23 123q-64 -75 -151 -112.5t-183 -37.5q-176 0 -270 114q-69 84 -69 212q0 45 9 96z" />
<glyph unicode="v" horiz-adv-x="1003" d="M100 1024h228l121 -762l389 762h245l-553 -1024h-235z" />
<glyph unicode="w" horiz-adv-x="1587" d="M131 1024h221l82 -707l332 707h217l-2 -4l94 -703l320 707h241l-501 -1024h-217l-93 690l-325 -690h-228z" />
<glyph unicode="x" horiz-adv-x="1064" d="M-70 0l480 535l-279 489h242l184 -324l291 324h268l-454 -508l292 -516h-241l-199 350l-315 -350h-269z" />
<glyph unicode="y" horiz-adv-x="1064" d="M0 -410l37 207q11 -1 22 -1q87 0 147 42q67 48 128 156l18 29l-252 1001h228l176 -752l395 752h246l-580 -1057q-112 -208 -253 -298q-125 -80 -275 -80q-18 0 -37 1z" />
<glyph unicode="z" horiz-adv-x="927" d="M-18 0l26 147l586 668h-449l37 209h758l-25 -147l-587 -668h489l-37 -209h-798z" />
<glyph unicode="{" horiz-adv-x="733" d="M121 612l39 215q91 -5 139 25.5t66 126.5l55 315q36 211 151 295.5t322 69.5l-37 -213q-96 11 -147 -21.5t-68 -130.5l-55 -315q-19 -111 -62.5 -171.5t-117.5 -92.5q121 -62 88 -254l-56 -316q-18 -98 22 -130.5t140 -22.5l-39 -213q-194 -15 -286 81.5t-58 284.5 l55 316q18 96 -19.5 126t-131.5 25z" />
<glyph unicode="|" horiz-adv-x="507" d="M-18 -410l331 1885h222l-332 -1885h-221z" />
<glyph unicode="}" horiz-adv-x="733" d="M-88 -221l37 213q96 -11 147.5 21t67.5 130l55 316q19 111 62.5 171.5t117.5 92.5q-121 62 -88 254l56 315q18 98 -22 131t-140 23l39 213q194 15 286 -82t58 -285l-56 -315q-18 -96 20 -126.5t132 -25.5l-39 -215q-92 5 -139.5 -25t-65.5 -126l-55 -316 q-36 -211 -150.5 -295t-322.5 -69z" />
<glyph unicode="~" horiz-adv-x="1222" d="M123 631q38 97 96 159.5t128 87t151 12.5t164 -61q96 -55 157.5 -65t103.5 19t81 104l167 -88q-76 -194 -223 -246.5t-313 47.5q-95 55 -157 66t-104.5 -18.5t-80.5 -104.5z" />
<glyph unicode="&#xa1;" d="M-35 -410l72 410l147 573h174l-55 -573l-72 -410h-266zM174 897q12 66 62 109t120 43q63 0 99.5 -46.5t25.5 -111.5q-11 -64 -61.5 -107t-118.5 -43q-63 0 -100.5 46.5t-26.5 109.5z" />
<glyph unicode="&#xa2;" horiz-adv-x="1116" d="M113 739q25 149 112.5 266.5t219 183.5t284.5 66q53 0 111 -10l94 189h119l-109 -222q149 -67 211 -223l-199 -102q-37 87 -112 123l-303 -611q36 -4 55 -4q90 0 167.5 43t125.5 117l178 -115q-78 -127 -209 -194.5t-285 -67.5q-63 0 -133 17l-96 -195h-119l115 233 q-130 68 -192 204t-35 302zM334 723q-15 -93 14 -168t94 -117l295 598q-8 2 -28 2q-138 0 -244 -88.5t-131 -226.5z" />
<glyph unicode="&#xa3;" horiz-adv-x="1193" d="M-18 0l41 227h163l62 344h-133l37 207h131l43 238q39 222 169.5 333t323.5 111q145 0 251 -77t149 -212l-207 -108q-30 85 -82 126.5t-137 41.5q-86 0 -150 -54.5t-82 -160.5l-43 -238h436l-36 -207h-435l-61 -344h696l-41 -227h-1095z" />
<glyph unicode="&#xa4;" horiz-adv-x="1118" d="M35 303l170 146q-74 116 -47 272q27 154 141 268l-117 141l80 72l119 -143q136 90 291 90q146 0 246 -84l167 141l72 -76l-170 -145q74 -116 47 -272q-27 -152 -141 -269l117 -141l-84 -70l-117 142q-133 -90 -289 -90q-146 0 -248 86l-168 -142zM377 717 q-17 -95 34 -158t146 -63t168 62.5t90 158.5q17 95 -34 158t-146 63t-168 -62.5t-90 -158.5z" />
<glyph unicode="&#xa5;" horiz-adv-x="1214" d="M115 330l26 149h342l19 103h-342l26 149h289l-303 703h252l231 -564l430 564h281l-551 -703h293l-27 -149h-344l-18 -103h344l-27 -149h-344l-57 -330h-236l58 330h-342z" />
<glyph unicode="&#xa6;" horiz-adv-x="507" d="M-18 -410l133 758h221l-133 -758h-221zM180 717l133 758h222l-134 -758h-221z" />
<glyph unicode="&#xa7;" horiz-adv-x="1097" d="M37 35l199 106q55 -172 243 -172q81 0 133 31t62 90q7 36 -7.5 66t-60.5 60t-74.5 44.5t-101.5 46.5l-33 15q-296 128 -252 374q25 152 179 244q-57 90 -35 215q27 148 139.5 226.5t273.5 78.5q130 0 229.5 -65t149.5 -189l-188 -96q-62 152 -207 152q-68 0 -117 -31.5 t-59 -89.5q-4 -26 1.5 -48.5t26 -43.5t37.5 -35t57.5 -34.5t61.5 -30t72 -31.5q61 -26 109.5 -58t89 -77t57.5 -105.5t4 -130.5q-25 -154 -174 -248q65 -91 43 -217q-27 -152 -144 -231.5t-292 -79.5q-317 0 -422 264zM367 686q-10 -65 31.5 -108.5t125.5 -77.5 q14 -6 56.5 -23t73 -30.5t57.5 -28.5q77 50 92 129q11 67 -33 109.5t-137 80.5q-129 54 -170 78q-81 -48 -96 -129z" />
<glyph unicode="&#xa8;" horiz-adv-x="686" d="M174 1266q9 51 51.5 87t93.5 36t80.5 -36t20.5 -87t-51 -87t-93 -36t-81 36t-21 87zM563 1266q9 51 52 87t94 36t80 -36t20 -87t-50.5 -87t-92.5 -36t-81.5 36t-21.5 87z" />
<glyph unicode="&#xa9;" horiz-adv-x="1626" d="M111 729q27 151 107 286.5t194 232.5t260.5 153.5t300.5 56.5q148 0 275 -60.5t211 -161.5t120 -240.5t10 -290.5q-37 -203 -161 -370t-309 -263.5t-390 -96.5q-148 0 -275.5 60.5t-212 162t-121 241.5t-9.5 290zM182 717q-25 -137 7 -262.5t107 -216t189.5 -144 t249.5 -53.5q186 0 355 91t282.5 245.5t147.5 339.5q31 184 -33.5 340t-203 246t-318.5 90q-186 0 -355.5 -90.5t-283 -245.5t-144.5 -340zM455 733q29 165 156.5 274t295.5 109q105 0 192 -54.5t132 -143.5l-176 -91q-53 95 -170 95q-90 0 -156 -61t-80 -144 q-14 -82 30 -143.5t130 -61.5q59 0 111.5 27.5t85.5 74.5l159 -102q-67 -91 -168 -142t-211 -51t-193.5 57.5t-120 153t-17.5 203.5z" />
<glyph unicode="&#xab;" horiz-adv-x="1085" d="M154 633l286 379h228l-293 -387l153 -371h-217zM524 629l289 383h227l-295 -394l152 -364h-217z" />
<glyph unicode="&#xac;" horiz-adv-x="1105" d="M121 612l37 209h901l-80 -450h-221l43 241h-680z" />
<glyph unicode="&#xad;" horiz-adv-x="1044" d="M145 516l37 213h758l-37 -213h-758z" />
<glyph unicode="&#xae;" horiz-adv-x="1626" d="M111 729q27 151 107 286.5t194 232.5t260.5 153.5t300.5 56.5q148 0 275 -60.5t211 -161.5t120 -240.5t10 -290.5q-37 -203 -161 -370t-309 -263.5t-390 -96.5q-148 0 -275.5 60.5t-212 162t-121 241.5t-9.5 290zM182 717q-25 -137 7 -262.5t107 -216t189.5 -144 t249.5 -53.5q186 0 355 91t282.5 245.5t147.5 339.5q31 184 -33.5 340t-203 246t-318.5 90q-186 0 -355.5 -90.5t-283 -245.5t-144.5 -340zM522 338l133 758h285q124 0 193.5 -80t50.5 -189q-26 -152 -158 -215l104 -274h-196l-78 240h-6h-96l-43 -240h-189zM782 741h86 q53 0 85 24.5t38 65.5q19 91 -90 91h-88z" />
<glyph unicode="&#xaf;" horiz-adv-x="657" d="M158 1167l30 183h574l-31 -183h-573z" />
<glyph unicode="&#xb0;" horiz-adv-x="811" d="M217 1341q25 137 133.5 227.5t255.5 90.5q140 0 221 -100t58 -236q-25 -139 -130.5 -229t-258.5 -90q-140 0 -221 100.5t-58 236.5zM410 1331q-9 -62 21.5 -102.5t94.5 -40.5q63 0 109 40.5t57 102.5t-22 103t-95 41t-108 -41t-57 -103z" />
<glyph unicode="&#xb1;" horiz-adv-x="1128" d="M47 133l37 209h901l-37 -209h-901zM162 782l37 209h346l53 309h209l-53 -309h346l-37 -209h-346l-55 -311h-209l55 311h-346z" />
<glyph unicode="&#xb4;" horiz-adv-x="512" d="M154 1157h219l258 277h-273z" />
<glyph unicode="&#xb5;" horiz-adv-x="1255" d="M-35 -410l254 1434h221l-108 -618q-15 -109 34.5 -167.5t153.5 -58.5q116 0 202 73.5t112 223.5l96 547h221l-131 -748q-6 -31 9 -49t46 -18h76l-37 -209h-115q-68 0 -118.5 30t-73.5 85q-128 -142 -324 -142q-129 0 -215 70l-80 -453h-223z" />
<glyph unicode="&#xb6;" horiz-adv-x="1308" d="M152 1018q30 178 175.5 297t325.5 119h727l-34 -197h-125l-289 -1647h-209l289 1647h-185l-288 -1647h-209l172 983q-117 2 -205.5 64t-127 164t-17.5 217z" />
<glyph unicode="&#xb7;" d="M143 717q11 64 62 106.5t119 42.5q63 0 100.5 -46t26.5 -109q-12 -66 -62 -109t-121 -43q-63 0 -99.5 46.5t-25.5 111.5z" />
<glyph unicode="&#xb8;" d="M-127 -442l29 161q119 -10 184.5 4.5t71.5 47.5q11 58 -140 61l31 168h182l-16 -94q65 -15 103.5 -61.5t27.5 -114.5q-37 -206 -473 -172z" />
<glyph unicode="&#xbb;" horiz-adv-x="1087" d="M88 254l295 393l-152 365h218l155 -375l-289 -383h-227zM461 254l293 387l-154 371h217l158 -379l-287 -379h-227z" />
<glyph unicode="&#xbc;" horiz-adv-x="1673" d="M156 1346l262 88h164l-146 -820h-188l108 615l-180 -51zM158 0l1061 1434h174l-1061 -1434h-174zM903 139l31 172l360 508h211l-352 -508h176l29 162h182l-29 -162h91l-31 -172h-88l-25 -139h-182l24 139h-397z" />
<glyph unicode="&#xbd;" horiz-adv-x="1662" d="M156 1346l262 88h164l-146 -820h-188l108 615l-180 -51zM158 0l1061 1434h174l-1061 -1434h-174zM909 0l23 131l377 318q50 42 73 71.5t29 61.5q8 40 -15.5 65t-70.5 25q-49 0 -86.5 -29t-73.5 -86l-147 92q52 91 139 144t195 53q127 0 197.5 -76t49.5 -199 q-10 -64 -53 -119t-125 -122l-188 -156h307l-29 -174h-602z" />
<glyph unicode="&#xbe;" horiz-adv-x="1855" d="M74 766l166 86q20 -51 53 -73.5t90 -22.5q59 0 95 27.5t44 74.5q7 47 -22 75t-86 28h-31l-55 110l182 189h-315l28 174h553l-26 -148l-187 -194q83 -28 123 -93.5t25 -152.5q-23 -126 -116.5 -192t-236.5 -66q-215 0 -284 178zM340 0l1061 1434h174l-1061 -1434h-174z M1085 139l31 172l361 508h211l-353 -508h176l29 162h182l-28 -162h90l-31 -172h-88l-25 -139h-182l25 139h-398z" />
<glyph unicode="&#xbf;" horiz-adv-x="1118" d="M18 -27q11 63 41 119t69 97.5t84 80t89.5 73t82.5 69t65 75.5t34 86h236q-11 -65 -40 -122.5t-68 -99.5t-84 -79.5t-89.5 -71.5t-82 -68t-64.5 -75t-35 -86q-14 -86 35.5 -132t142.5 -46q98 0 173.5 50.5t121.5 144.5l195 -121q-76 -146 -217 -224.5t-306 -78.5 q-87 0 -164 28t-132 79t-79.5 129.5t-7.5 172.5zM504 897q12 66 62 109t120 43q63 0 99.5 -46.5t25.5 -111.5q-11 -64 -61.5 -107t-118.5 -43q-63 0 -100.5 46.5t-26.5 109.5z" />
<glyph unicode="&#xc0;" horiz-adv-x="1341" d="M-80 0l772 1434h283l266 -1434h-252l-47 289h-610l-154 -289h-258zM451 510h454l-106 655zM608 1843h260l123 -276h-209z" />
<glyph unicode="&#xc1;" horiz-adv-x="1341" d="M-80 0l772 1434h283l266 -1434h-252l-47 289h-610l-154 -289h-258zM451 510h454l-106 655zM715 1567l205 276h272l-258 -276h-219z" />
<glyph unicode="&#xc2;" horiz-adv-x="1341" d="M-80 0l772 1434h283l266 -1434h-252l-47 289h-610l-154 -289h-258zM451 510h454l-106 655zM518 1556l266 287h232l168 -287h-223l-78 150l-138 -150h-227z" />
<glyph unicode="&#xc3;" horiz-adv-x="1341" d="M-80 0l772 1434h283l266 -1434h-252l-47 289h-610l-154 -289h-258zM451 510h454l-106 655zM530 1571q13 107 54 175.5t95.5 90.5t114.5 11.5t115 -52.5q58 -52 92 -45.5t50 92.5h182q-13 -107 -54.5 -175.5t-95.5 -90.5t-114 -11.5t-115 52.5q-26 20 -43.5 31t-34.5 14.5 t-28 -5.5t-20 -30t-15 -57h-183z" />
<glyph unicode="&#xc4;" horiz-adv-x="1341" d="M-80 0l772 1434h283l266 -1434h-252l-47 289h-610l-154 -289h-258zM451 510h454l-106 655zM557 1675q9 51 51.5 87t93.5 36t80.5 -36t20.5 -87t-51 -87t-93 -36t-81 36t-21 87zM946 1675q9 51 52 87t94 36t80 -36t20 -87t-50.5 -87t-92.5 -36t-81.5 36t-21.5 87z" />
<glyph unicode="&#xc5;" horiz-adv-x="1341" d="M-80 0l748 1391q-37 33 -53 81t-7 103q17 98 95.5 160.5t185.5 62.5q110 0 168.5 -69.5t40.5 -167.5q-19 -115 -115 -177l258 -1384h-252l-47 289h-610l-154 -289h-258zM451 510h454l-106 655zM766 1569q-6 -38 13 -62t59 -24q42 0 71 23.5t35 60.5t-14.5 61.5 t-61.5 24.5q-40 0 -67 -23t-35 -61z" />
<glyph unicode="&#xc6;" horiz-adv-x="1802" d="M-90 0l1110 1434h862l-39 -226h-567l-66 -372h527l-39 -222h-527l-69 -389h579l-41 -225h-809l52 289h-477l-226 -289h-270zM578 510h344l100 569z" />
<glyph unicode="&#xc7;" horiz-adv-x="1503" d="M111 737q36 206 157.5 371.5t303 258.5t386.5 93q206 0 355 -91.5t223 -252.5l-213 -112q-106 227 -383 227q-225 0 -391 -145.5t-205 -368.5q-38 -223 77 -368.5t333 -145.5q144 0 262.5 62.5t197.5 174.5l193 -125q-102 -141 -255.5 -230t-330.5 -108l-12 -71 q65 -15 103.5 -61.5t27.5 -114.5q-37 -206 -473 -172l29 161q119 -10 184.5 4.5t71.5 47.5q11 58 -140 61l27 148q-187 23 -319 131t-186 272t-23 354z" />
<glyph unicode="&#xc8;" horiz-adv-x="1085" d="M53 0l252 1434h860l-39 -226h-624l-66 -372h574l-39 -222h-574l-69 -389h637l-41 -225h-871zM512 1843h260l123 -276h-209z" />
<glyph unicode="&#xc9;" horiz-adv-x="1085" d="M53 0l252 1434h860l-39 -226h-624l-66 -372h574l-39 -222h-574l-69 -389h637l-41 -225h-871zM618 1567l205 276h273l-258 -276h-220z" />
<glyph unicode="&#xca;" horiz-adv-x="1085" d="M53 0l252 1434h860l-39 -226h-624l-66 -372h574l-39 -222h-574l-69 -389h637l-41 -225h-871zM422 1556l266 287h232l167 -287h-223l-78 150l-137 -150h-227z" />
<glyph unicode="&#xcb;" horiz-adv-x="1085" d="M53 0l252 1434h860l-39 -226h-624l-66 -372h574l-39 -222h-574l-69 -389h637l-41 -225h-871zM461 1675q9 51 51.5 87t93.5 36t80.5 -36t20.5 -87t-51 -87t-93 -36t-81 36t-21 87zM850 1675q9 51 51.5 87t93.5 36t80.5 -36t20.5 -87t-51 -87t-93 -36t-81 36t-21 87z" />
<glyph unicode="&#xcc;" d="M53 0l252 1434h236l-252 -1434h-236zM199 1843l174 -276h209l-123 276h-260z" />
<glyph unicode="&#xcd;" d="M53 0l252 1434h236l-252 -1434h-236zM305 1567h219l258 276h-272z" />
<glyph unicode="&#xce;" d="M53 0l252 1434h236l-252 -1434h-236zM109 1556l266 287h231l168 -287h-223l-78 150l-137 -150h-227z" />
<glyph unicode="&#xcf;" d="M53 0l252 1434h236l-252 -1434h-236zM147 1675q9 51 52 87t94 36t80 -36t20 -87t-50.5 -87t-92.5 -36t-81.5 36t-21.5 87zM537 1675q9 51 51.5 87t93.5 36t80 -36t20 -87t-50.5 -87t-92.5 -36t-81 36t-21 87z" />
<glyph unicode="&#xd0;" horiz-adv-x="1531" d="M68 600l36 213h156l109 621h563q140 0 258 -59.5t193 -159t106 -235.5t4 -284q-35 -198 -148.5 -356.5t-288 -249t-376.5 -90.5h-563l104 600h-153zM391 225h320q210 0 364 141t191 357q37 213 -66.5 349t-306.5 136h-328l-69 -395h366l-37 -213h-368z" />
<glyph unicode="&#xd1;" horiz-adv-x="1382" d="M53 0l252 1434h178l510 -985l172 985h236l-252 -1434h-178l-508 985l-174 -985h-236zM551 1571q13 107 54 175.5t95.5 90.5t114.5 11.5t115 -52.5q58 -52 91.5 -45.5t49.5 92.5h182q-13 -107 -54.5 -175.5t-95.5 -90.5t-114 -11.5t-115 52.5q-26 20 -43.5 31t-34.5 14.5 t-28 -5.5t-20 -30t-15 -57h-182z" />
<glyph unicode="&#xd2;" horiz-adv-x="1634" d="M111 737q37 207 158 371.5t306 258t400 93.5q152 0 281 -62t212 -165.5t118.5 -245.5t8.5 -295q-38 -207 -159 -370.5t-306 -256t-401 -92.5q-203 0 -358.5 103.5t-225.5 279.5t-34 381zM346 717q-25 -146 19 -263.5t148 -184t247 -66.5q220 0 390 144.5t210 365.5 q38 222 -82.5 370t-339.5 148q-143 0 -270 -66.5t-212 -184t-110 -263.5zM756 1853l174 -276h209l-123 276h-260z" />
<glyph unicode="&#xd3;" horiz-adv-x="1634" d="M111 737q37 207 158 371.5t306 258t400 93.5q152 0 281 -62t212 -165.5t118.5 -245.5t8.5 -295q-38 -207 -159 -370.5t-306 -256t-401 -92.5q-203 0 -358.5 103.5t-225.5 279.5t-34 381zM346 717q-25 -146 19 -263.5t148 -184t247 -66.5q220 0 390 144.5t210 365.5 q38 222 -82.5 370t-339.5 148q-143 0 -270 -66.5t-212 -184t-110 -263.5zM862 1577h219l258 276h-272z" />
<glyph unicode="&#xd4;" horiz-adv-x="1634" d="M111 737q37 207 158 371.5t306 258t400 93.5q152 0 281 -62t212 -165.5t118.5 -245.5t8.5 -295q-38 -207 -159 -370.5t-306 -256t-401 -92.5q-203 0 -358.5 103.5t-225.5 279.5t-34 381zM346 717q-25 -146 19 -263.5t148 -184t247 -66.5q220 0 390 144.5t210 365.5 q38 222 -82.5 370t-339.5 148q-143 0 -270 -66.5t-212 -184t-110 -263.5zM666 1567l266 286h231l168 -286h-223l-78 149l-137 -149h-227z" />
<glyph unicode="&#xd5;" horiz-adv-x="1634" d="M111 737q37 207 158 371.5t306 258t400 93.5q152 0 281 -62t212 -165.5t118.5 -245.5t8.5 -295q-38 -207 -159 -370.5t-306 -256t-401 -92.5q-203 0 -358.5 103.5t-225.5 279.5t-34 381zM346 717q-25 -146 19 -263.5t148 -184t247 -66.5q220 0 390 144.5t210 365.5 q38 222 -82.5 370t-339.5 148q-143 0 -270 -66.5t-212 -184t-110 -263.5zM678 1581q13 107 54 175.5t95.5 90.5t114.5 11.5t115 -52.5q58 -52 91.5 -45.5t49.5 92.5h182q-13 -107 -54.5 -175.5t-95.5 -90.5t-114 -11.5t-115 52.5q-26 20 -43.5 31t-34.5 14.5t-28 -5.5 t-20 -30t-15 -57h-182z" />
<glyph unicode="&#xd6;" horiz-adv-x="1634" d="M111 737q37 207 158 371.5t306 258t400 93.5q152 0 281 -62t212 -165.5t118.5 -245.5t8.5 -295q-38 -207 -159 -370.5t-306 -256t-401 -92.5q-203 0 -358.5 103.5t-225.5 279.5t-34 381zM346 717q-25 -146 19 -263.5t148 -184t247 -66.5q220 0 390 144.5t210 365.5 q38 222 -82.5 370t-339.5 148q-143 0 -270 -66.5t-212 -184t-110 -263.5zM705 1686q9 51 51.5 86.5t93.5 35.5t80 -35.5t20 -86.5t-50.5 -87t-92.5 -36t-81 36t-21 87zM1094 1686q9 51 51.5 86.5t93.5 35.5t80 -35.5t20 -86.5t-50.5 -87t-92.5 -36t-81 36t-21 87z" />
<glyph unicode="&#xd7;" horiz-adv-x="1019" d="M94 455l307 266l-215 258l160 143l219 -260l299 260l137 -143l-309 -266l217 -258l-161 -144l-220 260l-301 -260z" />
<glyph unicode="&#xd8;" horiz-adv-x="1650" d="M104 61l144 144q-83 106 -115.5 243.5t-5.5 288.5q36 206 157 371t306.5 258.5t400.5 93.5q218 0 385 -125l113 113l121 -76l-133 -133q89 -108 124.5 -249.5t8.5 -297.5q-27 -154 -104.5 -287.5t-190 -228.5t-260.5 -149t-310 -54q-231 0 -399 133l-121 -120zM362 717 q-37 -195 58 -340l784 784q-106 70 -250 70q-219 0 -386.5 -146t-205.5 -368zM516 279q109 -76 258 -76q221 0 391.5 144.5t208.5 365.5q37 206 -69 354z" />
<glyph unicode="&#xd9;" horiz-adv-x="1333" d="M117 475l170 959h235l-166 -945q-23 -131 39.5 -208.5t214.5 -77.5q154 0 246 79.5t115 206.5l166 945h235l-170 -959q-42 -241 -206 -371.5t-398 -130.5q-249 0 -384 140.5t-97 361.5zM602 1843l174 -276h209l-123 276h-260z" />
<glyph unicode="&#xda;" horiz-adv-x="1333" d="M117 475l170 959h235l-166 -945q-23 -131 39.5 -208.5t214.5 -77.5q154 0 246 79.5t115 206.5l166 945h235l-170 -959q-42 -241 -206 -371.5t-398 -130.5q-249 0 -384 140.5t-97 361.5zM709 1567h219l258 276h-273z" />
<glyph unicode="&#xdb;" horiz-adv-x="1333" d="M117 475l170 959h235l-166 -945q-23 -131 39.5 -208.5t214.5 -77.5q154 0 246 79.5t115 206.5l166 945h235l-170 -959q-42 -241 -206 -371.5t-398 -130.5q-249 0 -384 140.5t-97 361.5zM512 1556l266 287h232l168 -287h-224l-77 150l-138 -150h-227z" />
<glyph unicode="&#xdc;" horiz-adv-x="1333" d="M117 475l170 959h235l-166 -945q-23 -131 39.5 -208.5t214.5 -77.5q154 0 246 79.5t115 206.5l166 945h235l-170 -959q-42 -241 -206 -371.5t-398 -130.5q-249 0 -384 140.5t-97 361.5zM551 1675q9 51 51.5 87t93.5 36t80.5 -36t20.5 -87t-51 -87t-93 -36t-81 36t-21 87z M940 1675q9 51 51.5 87t93.5 36t80.5 -36t20.5 -87t-51 -87t-93 -36t-81 36t-21 87z" />
<glyph unicode="&#xdd;" horiz-adv-x="1214" d="M172 1434h252l231 -564l430 564h281l-618 -791l-113 -643h-236l113 647zM647 1567l205 276h272l-258 -276h-219z" />
<glyph unicode="&#xde;" horiz-adv-x="1208" d="M53 0l252 1434h236l-43 -246h276q213 0 327 -137.5t81 -343.5q-30 -202 -185 -331.5t-395 -129.5h-270l-43 -246h-236zM371 467h256q131 0 215.5 72t105.5 188q21 109 -34 174.5t-175 65.5h-280z" />
<glyph unicode="&#xdf;" horiz-adv-x="1085" d="M39 0l186 1055q34 195 158.5 300t325.5 105q168 0 266 -98t72 -238q-10 -54 -42 -106.5t-64 -86t-61 -71t-34 -65.5q-5 -33 13.5 -77t47 -91t56.5 -99.5t43 -118t4 -130.5q-27 -153 -155.5 -234t-367.5 -55l35 196q121 -12 191 24t84 114q8 43 -10 94.5t-48 99l-60 95 t-48 98t-10 92.5q6 38 35.5 80.5t62.5 74t63.5 74t38.5 80.5q15 67 -27 105t-120 38q-80 0 -145 -48t-85 -156l-184 -1051h-221z" />
<glyph unicode="&#xe0;" horiz-adv-x="1292" d="M76 535q41 228 203 372t378 144q118 0 207 -50t140 -143l28 166h221l-180 -1024h-221l20 121q-145 -148 -374 -148q-149 0 -256 80.5t-150 208.5t-16 273zM297 518q-25 -143 51 -238.5t215 -95.5q131 0 235 80.5t138 210.5l10 60q14 142 -66 223.5t-210 81.5 q-133 0 -239.5 -86t-133.5 -236zM481 1434h260l123 -277h-209z" />
<glyph unicode="&#xe1;" horiz-adv-x="1292" d="M76 535q41 228 203 372t378 144q118 0 207 -50t140 -143l28 166h221l-180 -1024h-221l20 121q-145 -148 -374 -148q-149 0 -256 80.5t-150 208.5t-16 273zM297 518q-25 -143 51 -238.5t215 -95.5q131 0 235 80.5t138 210.5l10 60q14 142 -66 223.5t-210 81.5 q-133 0 -239.5 -86t-133.5 -236zM588 1157l205 277h272l-258 -277h-219z" />
<glyph unicode="&#xe2;" horiz-adv-x="1292" d="M76 535q41 228 203 372t378 144q118 0 207 -50t140 -143l28 166h221l-180 -1024h-221l20 121q-145 -148 -374 -148q-149 0 -256 80.5t-150 208.5t-16 273zM297 518q-25 -143 51 -238.5t215 -95.5q131 0 235 80.5t138 210.5l10 60q14 142 -66 223.5t-210 81.5 q-133 0 -239.5 -86t-133.5 -236zM391 1147l266 287h232l168 -287h-223l-78 149l-138 -149h-227z" />
<glyph unicode="&#xe3;" horiz-adv-x="1292" d="M76 535q41 228 203 372t378 144q118 0 207 -50t140 -143l28 166h221l-180 -1024h-221l20 121q-145 -148 -374 -148q-149 0 -256 80.5t-150 208.5t-16 273zM297 518q-25 -143 51 -238.5t215 -95.5q131 0 235 80.5t138 210.5l10 60q14 142 -66 223.5t-210 81.5 q-133 0 -239.5 -86t-133.5 -236zM403 1161q13 107 54 175.5t95.5 90.5t114.5 11.5t115 -52.5q58 -52 92 -45t50 93h182q-13 -107 -54.5 -175.5t-95.5 -91t-114.5 -12t-114.5 52.5q-26 20 -43.5 31t-34.5 14.5t-28 -5.5t-20 -30t-15 -57h-183z" />
<glyph unicode="&#xe4;" horiz-adv-x="1292" d="M76 535q41 228 203 372t378 144q118 0 207 -50t140 -143l28 166h221l-180 -1024h-221l20 121q-145 -148 -374 -148q-149 0 -256 80.5t-150 208.5t-16 273zM297 518q-25 -143 51 -238.5t215 -95.5q131 0 235 80.5t138 210.5l10 60q14 142 -66 223.5t-210 81.5 q-133 0 -239.5 -86t-133.5 -236zM430 1266q9 51 51.5 87t93.5 36t80.5 -36t20.5 -87t-51 -87t-93 -36t-81 36t-21 87zM819 1266q9 51 52 87t94 36t80 -36t20 -87t-50.5 -87t-92.5 -36t-81.5 36t-21.5 87z" />
<glyph unicode="&#xe5;" horiz-adv-x="1292" d="M76 535q41 228 203 372t378 144q118 0 207 -50t140 -143l28 166h221l-180 -1024h-221l20 121q-145 -148 -374 -148q-149 0 -256 80.5t-150 208.5t-16 273zM297 518q-25 -143 51 -238.5t215 -95.5q131 0 235 80.5t138 210.5l10 60q14 142 -66 223.5t-210 81.5 q-133 0 -239.5 -86t-133.5 -236zM518 1350q17 98 95.5 160.5t185.5 62.5q110 0 168.5 -70t40.5 -168q-15 -98 -92.5 -160.5t-186.5 -62.5q-108 0 -167 69.5t-44 168.5zM676 1343q-6 -38 13 -62t59 -24q42 0 71 23.5t35 60.5t-14.5 61.5t-61.5 24.5q-40 0 -67 -23t-35 -61z " />
<glyph unicode="&#xe6;" horiz-adv-x="2062" d="M76 535q41 228 203 372t378 144q120 0 209.5 -48t137.5 -137l28 158h211l-20 -121q148 148 374 148q142 0 243.5 -73.5t142 -197t14.5 -270.5q-5 -31 -25 -92h-815q3 -119 78 -180.5t197 -61.5q178 0 292 127l160 -123q-185 -207 -444 -207q-242 0 -350 174l-27 -147 h-211l22 133q-150 -160 -376 -160q-149 0 -256 80.5t-150 208.5t-16 273zM295 518q-25 -143 52 -238.5t216 -95.5q131 0 235 80.5t138 210.5l10 60q14 142 -66 223.5t-210 81.5q-133 0 -240.5 -86t-134.5 -236zM1190 600h598q0 124 -68.5 187t-177.5 63q-122 0 -215.5 -67 t-136.5 -183z" />
<glyph unicode="&#xe7;" horiz-adv-x="1114" d="M76 535q25 149 112.5 266.5t219 183.5t284.5 66q155 0 267 -72t159 -195l-198 -102q-28 72 -92 112t-156 40q-138 0 -244 -88.5t-131 -227.5q-23 -139 51 -233.5t211 -94.5q90 0 167.5 43t125.5 117l178 -114q-69 -112 -178.5 -178t-241.5 -81l-12 -71 q65 -15 103.5 -61.5t27.5 -114.5q-37 -206 -473 -172l29 161q119 -10 184.5 4.5t71.5 47.5q11 58 -140 61l29 152q-188 38 -288 193t-66 358z" />
<glyph unicode="&#xe8;" horiz-adv-x="1193" d="M76 532q25 148 112 266.5t218 185.5t280 67q151 0 262.5 -72.5t159.5 -196.5t20 -272q-20 -78 -24 -92h-815q3 -119 78.5 -180.5t197.5 -61.5q182 0 289 129l162 -123q-82 -102 -204 -155.5t-265 -53.5q-164 0 -281.5 75.5t-166 202.5t-23.5 281zM319 600h601 q1 126 -67 188t-181 62q-121 0 -215 -66.5t-138 -183.5zM483 1440h260l123 -277h-209z" />
<glyph unicode="&#xe9;" horiz-adv-x="1193" d="M76 532q25 148 112 266.5t218 185.5t280 67q151 0 262.5 -72.5t159.5 -196.5t20 -272q-20 -78 -24 -92h-815q3 -119 78.5 -180.5t197.5 -61.5q182 0 289 129l162 -123q-82 -102 -204 -155.5t-265 -53.5q-164 0 -281.5 75.5t-166 202.5t-23.5 281zM319 600h601 q1 126 -67 188t-181 62q-121 0 -215 -66.5t-138 -183.5zM590 1163l205 277h272l-258 -277h-219z" />
<glyph unicode="&#xea;" horiz-adv-x="1193" d="M76 532q25 148 112 266.5t218 185.5t280 67q151 0 262.5 -72.5t159.5 -196.5t20 -272q-20 -78 -24 -92h-815q3 -119 78.5 -180.5t197.5 -61.5q182 0 289 129l162 -123q-82 -102 -204 -155.5t-265 -53.5q-164 0 -281.5 75.5t-166 202.5t-23.5 281zM319 600h601 q1 126 -67 188t-181 62q-121 0 -215 -66.5t-138 -183.5zM393 1153l266 287h232l168 -287h-223l-78 150l-137 -150h-228z" />
<glyph unicode="&#xeb;" horiz-adv-x="1193" d="M76 532q25 148 112 266.5t218 185.5t280 67q151 0 262.5 -72.5t159.5 -196.5t20 -272q-20 -78 -24 -92h-815q3 -119 78.5 -180.5t197.5 -61.5q182 0 289 129l162 -123q-82 -102 -204 -155.5t-265 -53.5q-164 0 -281.5 75.5t-166 202.5t-23.5 281zM319 600h601 q1 126 -67 188t-181 62q-121 0 -215 -66.5t-138 -183.5zM432 1272q9 51 52 87t94 36t80 -36t20 -87t-50.5 -87t-92.5 -36t-81.5 36t-21.5 87zM821 1272q9 51 52 87t94 36t80 -36t20 -87t-50.5 -87t-92.5 -36t-81.5 36t-21.5 87z" />
<glyph unicode="&#xec;" horiz-adv-x="477" d="M39 0l180 1024h221l-180 -1024h-221zM156 1434l92 -287h207l-54 287h-245z" />
<glyph unicode="&#xed;" horiz-adv-x="477" d="M39 0l180 1024h221l-180 -1024h-221zM244 1147h213l184 287h-256z" />
<glyph unicode="&#xee;" horiz-adv-x="477" d="M39 0l180 1024h221l-180 -1024h-221zM49 1147l236 287h231l137 -287h-219l-57 127l-96 -127h-232z" />
<glyph unicode="&#xef;" horiz-adv-x="477" d="M39 0l180 1024h221l-180 -1024h-221zM86 1270q9 51 51.5 87t93.5 36t80.5 -36t20.5 -87t-51 -87t-93 -36t-81 36t-21 87zM412 1270q9 51 51.5 87t93.5 36t80 -36t20 -87t-50.5 -87t-92.5 -36t-80.5 36t-21.5 87z" />
<glyph unicode="&#xf0;" horiz-adv-x="1183" d="M70 498q24 142 115 249t222.5 155t272.5 26q3 0 9 -1t9 -1l-108 196l-287 -137l31 170l188 90l-104 189h229l60 -103l270 129l-31 -168l-170 -80l264 -452q36 -63 55.5 -149t6.5 -165q-20 -113 -75 -203.5t-133.5 -148.5t-174 -88.5t-201.5 -30.5q-100 0 -190.5 39 t-155 106t-93.5 166.5t-9 211.5zM291 481q-24 -132 50.5 -214.5t203.5 -82.5q127 0 219.5 73t116.5 204q16 107 -23 176q-67 113 -233 113q-131 0 -222 -71t-112 -198z" />
<glyph unicode="&#xf1;" horiz-adv-x="1165" d="M39 0l180 1024h221l-22 -123q64 75 151 112.5t183 37.5q176 0 269 -114t60 -308l-110 -629h-221l106 606q20 117 -29.5 177.5t-158.5 60.5q-110 0 -194.5 -67t-113.5 -202l-100 -575h-221zM367 1171q13 107 53.5 175.5t95 91t115 12t114.5 -52.5q58 -52 92 -45.5t50 92.5 h182q-13 -107 -54.5 -175.5t-95.5 -90.5t-114 -11.5t-115 52.5q-32 26 -53 36.5t-39.5 8t-30 -25t-18.5 -67.5h-182z" />
<glyph unicode="&#xf2;" horiz-adv-x="1226" d="M78 539q28 151 118.5 268t222.5 180.5t283 63.5q149 0 261.5 -75t163 -203.5t24.5 -280.5q-41 -229 -216 -374t-394 -145q-159 0 -276 76t-166.5 205.5t-20.5 284.5zM299 512q-25 -150 50.5 -237t207.5 -87q133 0 240.5 88t134.5 240q27 146 -51 233t-209 87 q-132 0 -239 -87.5t-134 -236.5zM481 1444l174 -277h209l-123 277h-260z" />
<glyph unicode="&#xf3;" horiz-adv-x="1226" d="M78 539q28 151 118.5 268t222.5 180.5t283 63.5q149 0 261.5 -75t163 -203.5t24.5 -280.5q-41 -229 -216 -374t-394 -145q-159 0 -276 76t-166.5 205.5t-20.5 284.5zM299 512q-25 -150 50.5 -237t207.5 -87q133 0 240.5 88t134.5 240q27 146 -51 233t-209 87 q-132 0 -239 -87.5t-134 -236.5zM588 1167h219l258 277h-272z" />
<glyph unicode="&#xf4;" horiz-adv-x="1226" d="M78 539q28 151 118.5 268t222.5 180.5t283 63.5q149 0 261.5 -75t163 -203.5t24.5 -280.5q-41 -229 -216 -374t-394 -145q-159 0 -276 76t-166.5 205.5t-20.5 284.5zM299 512q-25 -150 50.5 -237t207.5 -87q133 0 240.5 88t134.5 240q27 146 -51 233t-209 87 q-132 0 -239 -87.5t-134 -236.5zM391 1157l266 287h232l168 -287h-223l-78 150l-138 -150h-227z" />
<glyph unicode="&#xf5;" horiz-adv-x="1226" d="M78 539q28 151 118.5 268t222.5 180.5t283 63.5q149 0 261.5 -75t163 -203.5t24.5 -280.5q-41 -229 -216 -374t-394 -145q-159 0 -276 76t-166.5 205.5t-20.5 284.5zM299 512q-25 -150 50.5 -237t207.5 -87q133 0 240.5 88t134.5 240q27 146 -51 233t-209 87 q-132 0 -239 -87.5t-134 -236.5zM403 1171q13 107 54 175.5t95.5 91t115 12t114.5 -52.5q58 -52 92 -45.5t50 92.5h182q-13 -107 -54.5 -175.5t-95.5 -90.5t-114 -11.5t-115 52.5q-32 26 -53 36.5t-39.5 8t-30 -25t-18.5 -67.5h-183z" />
<glyph unicode="&#xf6;" horiz-adv-x="1226" d="M78 539q28 151 118.5 268t222.5 180.5t283 63.5q149 0 261.5 -75t163 -203.5t24.5 -280.5q-41 -229 -216 -374t-394 -145q-159 0 -276 76t-166.5 205.5t-20.5 284.5zM299 512q-25 -150 50.5 -237t207.5 -87q133 0 240.5 88t134.5 240q27 146 -51 233t-209 87 q-132 0 -239 -87.5t-134 -236.5zM430 1276q9 51 51.5 87t93.5 36t80.5 -36t20.5 -87t-51 -87t-93 -36t-81 36t-21 87zM819 1276q9 51 52 87t94 36t80 -36t20 -87t-50.5 -87t-92.5 -36t-81.5 36t-21.5 87z" />
<glyph unicode="&#xf7;" horiz-adv-x="1167" d="M121 612l37 209h962l-37 -209h-962zM403 328q10 63 59.5 104t112.5 41t99.5 -45.5t25.5 -108.5q-12 -63 -60.5 -103t-113.5 -40q-63 0 -99 44.5t-24 107.5zM541 1114q10 63 59.5 104.5t114.5 41.5q61 0 97.5 -45.5t25.5 -108.5q-10 -63 -58.5 -103t-113.5 -40 q-63 0 -99.5 44t-25.5 107z" />
<glyph unicode="&#xf8;" horiz-adv-x="1226" d="M55 45l105 102q-59 76 -81 178t-1 214q28 151 118.5 268t222.5 180.5t283 63.5q163 0 287 -93l84 82l107 -61l-109 -107q56 -74 77.5 -172.5t2.5 -207.5q-41 -231 -213 -375t-397 -144q-174 0 -297 93l-84 -82zM299 512q-20 -117 27 -203l497 488q-67 39 -151 39 q-132 0 -239 -87.5t-134 -236.5zM408 225q64 -37 149 -37q133 0 240.5 88t134.5 240q20 117 -25 197z" />
<glyph unicode="&#xf9;" horiz-adv-x="1165" d="M84 395l111 629h221l-107 -606q-20 -117 30 -177.5t159 -60.5q110 0 194 67t113 202l100 575h221l-180 -1024h-221l23 123q-64 -75 -151 -112.5t-183 -37.5q-176 0 -269.5 114t-60.5 308zM428 1434h260l123 -277h-209z" />
<glyph unicode="&#xfa;" horiz-adv-x="1165" d="M84 395l111 629h221l-107 -606q-20 -117 30 -177.5t159 -60.5q110 0 194 67t113 202l100 575h221l-180 -1024h-221l23 123q-64 -75 -151 -112.5t-183 -37.5q-176 0 -269.5 114t-60.5 308zM535 1157l204 277h273l-258 -277h-219z" />
<glyph unicode="&#xfb;" horiz-adv-x="1165" d="M84 395l111 629h221l-107 -606q-20 -117 30 -177.5t159 -60.5q110 0 194 67t113 202l100 575h221l-180 -1024h-221l23 123q-64 -75 -151 -112.5t-183 -37.5q-176 0 -269.5 114t-60.5 308zM338 1147l266 287h232l168 -287h-224l-78 149l-137 -149h-227z" />
<glyph unicode="&#xfc;" horiz-adv-x="1165" d="M84 395l111 629h221l-107 -606q-20 -117 30 -177.5t159 -60.5q110 0 194 67t113 202l100 575h221l-180 -1024h-221l23 123q-64 -75 -151 -112.5t-183 -37.5q-176 0 -269.5 114t-60.5 308zM377 1266q9 51 51.5 87t93.5 36t80.5 -36t20.5 -87t-51 -87t-93 -36t-81 36 t-21 87zM766 1266q9 51 51.5 87t93.5 36t80.5 -36t20.5 -87t-51 -87t-93 -36t-81 36t-21 87z" />
<glyph unicode="&#xfd;" horiz-adv-x="1064" d="M0 -410l37 207q101 -6 168.5 41.5t128.5 155.5l18 29l-252 1001h228l176 -752l395 752h246l-580 -1057q-112 -208 -252.5 -298t-312.5 -79zM473 1157l205 277h272l-258 -277h-219z" />
<glyph unicode="&#xfe;" horiz-adv-x="1292" d="M-35 -410l326 1844h221l-94 -541q149 158 375 158q107 0 196 -46t144 -122.5t78 -179t6 -211.5q-37 -226 -198 -372.5t-376 -146.5q-120 0 -211 51t-141 144l-103 -578h-223zM346 489q-14 -141 66.5 -223t210.5 -82q134 0 239.5 86.5t132.5 237.5q25 143 -51 237.5 t-215 94.5q-133 0 -237 -82t-136 -213z" />
<glyph unicode="&#xff;" horiz-adv-x="1064" d="M0 -410l37 207q101 -6 168.5 41.5t128.5 155.5l18 29l-252 1001h228l176 -752l395 752h246l-580 -1057q-112 -208 -252.5 -298t-312.5 -79zM315 1266q9 51 52 87t94 36t80 -36t20 -87t-50.5 -87t-92.5 -36t-81.5 36t-21.5 87zM705 1266q9 51 51.5 87t93.5 36t80 -36 t20 -87t-50.5 -87t-92.5 -36t-81 36t-21 87z" />
<glyph unicode="&#x152;" horiz-adv-x="1875" d="M100.5 532.5q-9.5 96.5 10.5 200.5q37 205 158.5 371.5t302 261t382.5 94.5q121 0 203 -26h799l-39 -226h-563l-66 -372h522l-38 -222h-523l-69 -389h575l-41 -225h-809q-99 -27 -203 -27q-101 0 -191.5 27.5t-160.5 77t-125 119.5t-85 154.5t-39.5 181zM346 717 q-39 -223 69.5 -368.5t321.5 -145.5q110 0 209 30l170 967q-77 31 -192 31q-214 0 -377 -146t-201 -368z" />
<glyph unicode="&#x153;" horiz-adv-x="2052" d="M76 528q18 107 70.5 201.5t131 166t186.5 113.5t230 42q132 0 233.5 -65t153.5 -175q84 113 208 176.5t272 63.5q140 0 247.5 -72.5t156 -197t22.5 -271.5q-16 -64 -25 -92h-815q3 -119 78.5 -180.5t197.5 -61.5q182 0 289 129l162 -123q-82 -101 -204 -155t-255 -54 q-154 0 -260.5 64.5t-157.5 177.5q-83 -114 -206 -178t-267 -64q-122 0 -217.5 46t-151.5 122.5t-77 177t-2 209.5zM297 512q-25 -140 48 -232t212 -92q136 0 244 92.5t133 231.5t-50.5 231.5t-211.5 92.5q-139 0 -244.5 -92t-130.5 -232zM1178 600h600q1 126 -67 188 t-181 62q-121 0 -214.5 -66.5t-137.5 -183.5z" />
<glyph unicode="&#x178;" horiz-adv-x="1214" d="M172 1434h252l231 -564l430 564h281l-618 -791l-113 -643h-236l113 647zM489 1675q9 51 52 87t94 36t80 -36t20 -87t-50.5 -87t-92.5 -36t-81.5 36t-21.5 87zM879 1675q9 51 51.5 87t93.5 36t80 -36t20 -87t-50.5 -87t-92.5 -36t-81 36t-21 87z" />
<glyph unicode="&#x2c6;" horiz-adv-x="747" d="M154 1147l266 287h231l168 -287h-223l-78 149l-137 -149h-227z" />
<glyph unicode="&#x2dc;" horiz-adv-x="735" d="M168 1161q13 107 54 175.5t95.5 90.5t114.5 11.5t115 -52.5q58 -52 91.5 -45t49.5 93h182q-13 -107 -54 -175.5t-95.5 -91t-114.5 -12t-114 52.5q-26 20 -44 31t-34.5 14.5t-28 -5.5t-20.5 -30t-15 -57h-182z" />
<glyph unicode="&#x2000;" horiz-adv-x="930" />
<glyph unicode="&#x2001;" horiz-adv-x="1861" />
<glyph unicode="&#x2002;" horiz-adv-x="930" />
<glyph unicode="&#x2003;" horiz-adv-x="1861" />
<glyph unicode="&#x2004;" horiz-adv-x="620" />
<glyph unicode="&#x2005;" horiz-adv-x="465" />
<glyph unicode="&#x2006;" horiz-adv-x="310" />
<glyph unicode="&#x2007;" horiz-adv-x="310" />
<glyph unicode="&#x2008;" horiz-adv-x="232" />
<glyph unicode="&#x2009;" horiz-adv-x="372" />
<glyph unicode="&#x200a;" horiz-adv-x="103" />
<glyph unicode="&#x2010;" horiz-adv-x="1044" d="M145 516l37 213h758l-37 -213h-758z" />
<glyph unicode="&#x2011;" horiz-adv-x="1044" d="M145 516l37 213h758l-37 -213h-758z" />
<glyph unicode="&#x2012;" horiz-adv-x="1044" d="M145 516l37 213h758l-37 -213h-758z" />
<glyph unicode="&#x2013;" horiz-adv-x="1294" d="M145 516l37 213h1008l-37 -213h-1008z" />
<glyph unicode="&#x2014;" horiz-adv-x="1499" d="M145 516l37 213h1213l-37 -213h-1213z" />
<glyph unicode="&#x2018;" horiz-adv-x="544" d="M176 901l238 533h186l-178 -533h-246z" />
<glyph unicode="&#x2019;" horiz-adv-x="544" d="M176 901l178 533h246l-238 -533h-186z" />
<glyph unicode="&#x201a;" horiz-adv-x="542" d="M-35 -287l178 533h246l-237 -533h-187z" />
<glyph unicode="&#x201c;" horiz-adv-x="892" d="M176 901l238 533h186l-178 -533h-246zM524 901l238 533h186l-178 -533h-246z" />
<glyph unicode="&#x201d;" horiz-adv-x="892" d="M176 901l178 533h246l-238 -533h-186zM524 901l178 533h246l-237 -533h-187z" />
<glyph unicode="&#x201e;" horiz-adv-x="890" d="M-35 -287l178 533h246l-237 -533h-187zM313 -287l179 533h245l-237 -533h-187z" />
<glyph unicode="&#x2022;" horiz-adv-x="696" d="M131 729q20 105 104.5 174.5t196.5 69.5q105 0 166 -77.5t41 -182.5q-19 -109 -102.5 -180.5t-196.5 -71.5q-105 0 -166.5 80t-42.5 188z" />
<glyph unicode="&#x2026;" horiz-adv-x="1402" d="M41 133q11 64 61.5 107t118.5 43q63 0 100.5 -46.5t26.5 -109.5q-12 -66 -62 -109t-120 -43q-63 0 -99.5 46.5t-25.5 111.5zM481 133q11 64 62 107t119 43q63 0 100 -46.5t26 -109.5q-12 -66 -62 -109t-120 -43q-63 0 -99.5 46.5t-25.5 111.5zM922 133q11 64 61.5 107 t118.5 43q63 0 100.5 -46.5t26.5 -109.5q-12 -66 -62 -109t-120 -43q-63 0 -99.5 46.5t-25.5 111.5z" />
<glyph unicode="&#x202f;" horiz-adv-x="372" />
<glyph unicode="&#x2039;" horiz-adv-x="716" d="M154 633l290 379h228l-297 -387l155 -371h-217z" />
<glyph unicode="&#x203a;" horiz-adv-x="718" d="M88 254l297 387l-156 371h217l160 -379l-291 -379h-227z" />
<glyph unicode="&#x205f;" horiz-adv-x="465" />
<glyph unicode="&#x20ac;" horiz-adv-x="1247" d="M41 532l25 146h133q4 38 8 55q5 30 8 39h-133l27 146h143q83 256 249.5 399t393.5 143q149 0 256.5 -77t153.5 -212l-209 -108q-56 168 -236 168q-124 0 -216 -80t-148 -233h452l-26 -146h-469q-2 -9 -5.5 -27.5t-5.5 -27.5l-6 -39h469l-24 -146h-457q-2 -160 63 -244.5 t191 -84.5q181 0 297 182l184 -115q-86 -143 -217.5 -220t-296.5 -77q-220 0 -340 152t-117 407h-147z" />
<glyph unicode="&#x2122;" horiz-adv-x="964" d="M217 1333l19 101h339l-18 -101h-115l-53 -309h-110l53 309h-115zM547 1024l71 410h107l72 -174l137 174h121l-72 -410h-106l41 238l-138 -166h-10l-76 166l-41 -238h-106z" />
<glyph unicode="&#x25fc;" horiz-adv-x="1024" d="M0 0v1024h1024v-1024h-1024z" />
<glyph unicode="&#xfb03;" horiz-adv-x="1675" d="M100 811l37 213h156l4 20q37 220 173 325.5t364 90.5l-37 -213q-241 22 -279 -203l-4 -20h342l6 41q38 216 169 316t360 100q114 0 231 -27l-35 -203q-99 17 -201 17q-132 0 -208 -46.5t-95 -156.5l-6 -41h561l-180 -1024h-221l143 811h-342l-141 -811h-221l141 811h-340 l-143 -811h-221l143 811h-156z" />
<glyph unicode="&#xfb04;" horiz-adv-x="1675" d="M100 811l37 213h156l4 20q37 220 173 325.5t364 90.5l-37 -213q-241 22 -279 -203l-4 -20h342l6 41q38 216 170.5 316t368.5 100q150 0 311 -37l-254 -1444h-221l225 1284q-33 2 -96 2q-120 0 -191 -52.5t-92 -168.5l-6 -41h191l-37 -213h-193l-141 -811h-221l141 811 h-340l-143 -811h-221l143 811h-156z" />
</font>
</defs>
</svg>
