<?xml version="1.0" standalone="no"?>
<!DOCTYPE svg PUBLIC "-//W3C//DTD SVG 1.1//EN" "http://www.w3.org/Graphics/SVG/1.1/DTD/svg11.dtd" >
<svg xmlns="http://www.w3.org/2000/svg">
<metadata></metadata>
<defs>
<font id="gilroylight_italic" horiz-adv-x="1323" >
<font-face units-per-em="2048" ascent="1638" descent="-410" />
<missing-glyph horiz-adv-x="546" />
<glyph unicode="&#xfb01;" horiz-adv-x="1044" d="M127 924l18 100h177l10 55q33 194 152 285.5t325 91.5q88 0 192 -22l-14 -95q-104 19 -196 19q-160 0 -244.5 -65.5t-110.5 -213.5l-10 -55h553l-180 -1024h-105l162 924h-446l-164 -924h-105l164 924h-178z" />
<glyph unicode="&#xfb02;" horiz-adv-x="1044" d="M127 924l18 100h177l10 55q33 194 152 285.5t325 91.5q113 0 242 -22l-252 -1434h-105l238 1354q-60 8 -141 8q-158 0 -243.5 -67.5t-111.5 -215.5l-10 -55h244l-17 -100h-243l-164 -924h-105l164 924h-178z" />
<glyph horiz-adv-x="0" />
<glyph horiz-adv-x="682" />
<glyph unicode=" "  horiz-adv-x="546" />
<glyph unicode="&#x09;" horiz-adv-x="546" />
<glyph unicode="&#xa0;" horiz-adv-x="546" />
<glyph unicode="!" horiz-adv-x="450" d="M57 74q6 40 36 65t71 25q38 0 60.5 -28t15.5 -66q-8 -40 -37.5 -65t-71.5 -25q-38 0 -60 28t-14 66zM160 369l94 655l72 410h123l-72 -410l-135 -655h-82z" />
<glyph unicode="&#x22;" horiz-adv-x="600" d="M217 1051l53 383h111l-82 -383h-82zM492 1051l53 383h108l-80 -383h-81z" />
<glyph unicode="#" horiz-adv-x="1234" d="M72 485l30 95h246l94 274h-247l32 94h248l131 383h103l-131 -383h315l131 383h102l-131 -383h242l-33 -94h-241l-95 -274h246l-33 -95h-245l-131 -383h-103l131 383h-315l-131 -383h-103l131 383h-243zM451 580h315l94 274h-315z" />
<glyph unicode="$" horiz-adv-x="1142" d="M47 276l98 50q27 -106 111 -169.5t217 -72.5l107 602q-30 12 -53.5 22.5t-52.5 25t-51.5 28.5t-47.5 31.5t-43 37t-35 42t-27.5 48.5t-17 55t-6 63t7.5 71q21 110 94 190.5t168 118t199 37.5l33 182h96l-33 -190q120 -20 199 -86t116 -166l-96 -49q-34 80 -90 131.5 t-147 67.5l-105 -588q30 -12 51.5 -21.5t52.5 -24t51.5 -27t48.5 -31.5t44 -36.5t38 -42t29.5 -49t19 -56t7 -63.5t-7.5 -73q-31 -164 -159.5 -256t-311.5 -101l-33 -182h-96l33 185q-160 13 -265.5 90t-142.5 206zM362 1100q-12 -62 2 -110.5t53 -84.5t79 -59t102 -49 l98 555q-122 -5 -216.5 -73.5t-117.5 -178.5zM569 84q139 10 229.5 80t114.5 182q8 27 5.5 52.5t-5.5 46.5t-15.5 41t-24 35.5t-31 31.5t-37 28t-42 24.5t-45.5 22.5t-48 21z" />
<glyph unicode="%" horiz-adv-x="1466" d="M145 184l1166 1096l71 -41l-1167 -1096zM244 1157q23 129 126 214t240 85q133 0 208 -91.5t52 -219.5q-24 -129 -125.5 -214t-240.5 -85q-132 0 -207.5 91.5t-52.5 219.5zM344 1151q-15 -90 34 -150.5t142 -60.5t163 60t87 151q15 90 -34 150.5t-142 60.5 q-91 0 -162 -60.5t-88 -150.5zM670 289q23 129 126 214t240 85q132 0 207 -91.5t53 -220.5q-22 -128 -125.5 -213.5t-240.5 -85.5q-131 0 -207 92t-53 220zM770 283q-14 -91 35 -151t141 -60q93 0 163 60t87 151q15 90 -34 150.5t-142 60.5q-92 0 -163.5 -60.5t-86.5 -150.5 z" />
<glyph unicode="&#x26;" horiz-adv-x="1351" d="M111 399q23 131 116 234.5t246 171.5q-43 67 -61 136.5t-4 156.5q28 160 151 259t293 99q144 0 245.5 -72.5t143.5 -197.5l-94 -51q-33 101 -110.5 159t-186.5 58q-124 0 -218 -71.5t-114 -190.5q-16 -86 12 -158t91 -150l358 -456q91 127 141 284l84 -55 q-57 -171 -162 -309l170 -217l-94 -47l-147 186q-194 -191 -459 -191q-209 0 -322.5 117.5t-78.5 304.5zM219 389q-26 -140 58.5 -223.5t242.5 -83.5q222 0 389 164l-372 473q0 2 -2 2q-137 -56 -217 -142t-99 -190z" />
<glyph unicode="'" horiz-adv-x="321" d="M217 1051l53 383h111l-82 -383h-82z" />
<glyph unicode="(" horiz-adv-x="514" d="M162 727q83 477 387 911h102q-305 -449 -387 -921t62 -922h-103q-145 449 -61 932z" />
<glyph unicode=")" horiz-adv-x="514" d="M-66 -205q306 450 388 922t-62 921h102q145 -451 62 -931q-83 -479 -387 -912h-103z" />
<glyph unicode="*" horiz-adv-x="792" d="M246 1163l14 88l195 -4l-82 162l86 47l69 -170l129 170l76 -47l-135 -162l195 4l-15 -88l-194 4l80 -161l-84 -48l-70 172l-129 -172l-78 48l137 161z" />
<glyph unicode="+" horiz-adv-x="1091" d="M158 668l16 98h367l65 367h101l-66 -367h367l-19 -98h-364l-66 -367h-100l65 367h-366z" />
<glyph unicode="," horiz-adv-x="456" d="M-14 -287l151 426h129l-186 -426h-94z" />
<glyph unicode="-" horiz-adv-x="1091" d="M190 584l17 98h737l-16 -98h-738z" />
<glyph unicode="." horiz-adv-x="436" d="M49 74q6 39 36.5 64.5t70.5 25.5t62.5 -28t14.5 -66q-8 -40 -37 -65t-71 -25q-39 0 -60.5 27.5t-15.5 66.5z" />
<glyph unicode="/" horiz-adv-x="1079" d="M-39 -205l1141 1843h86l-1139 -1843h-88z" />
<glyph unicode="0" horiz-adv-x="1294" d="M131 425q-15 138 16 304q60 338 232.5 532.5t433.5 194.5q123 0 214.5 -55t142 -154.5t65.5 -237.5t-16 -304q-60 -338 -232.5 -533t-433.5 -195q-123 0 -214.5 55.5t-142 155t-65.5 237.5zM256 717q-52 -300 31.5 -467.5t283.5 -167.5t342.5 167.5t196.5 467.5 q52 300 -31.5 467.5t-283.5 167.5t-342.5 -167.5t-196.5 -467.5z" />
<glyph unicode="1" horiz-adv-x="679" d="M174 1305l397 129h93l-252 -1434h-109l232 1311l-351 -103z" />
<glyph unicode="2" horiz-adv-x="1079" d="M-2 0l18 98l621 541q129 113 206.5 210t96.5 195q25 143 -51 225.5t-211 82.5q-232 0 -377 -219l-86 57q86 130 210.5 198t266.5 68q83 0 155 -29.5t123.5 -83t73.5 -135t5 -178.5q-23 -122 -109.5 -232.5t-234.5 -236.5l-529 -457h742l-19 -104h-901z" />
<glyph unicode="3" horiz-adv-x="1103" d="M33 250l92 51q28 -107 112 -163t218 -56q163 0 281.5 90t144.5 242q27 152 -60 241.5t-250 89.5h-30l-37 74l446 512h-692l16 103h828l-19 -103l-426 -493q81 -10 149 -44.5t115 -89t66.5 -132.5t3.5 -169q-24 -133 -106.5 -231t-197.5 -146.5t-247 -48.5 q-156 0 -265 71.5t-142 201.5z" />
<glyph unicode="4" horiz-adv-x="1161" d="M20 301l19 102l725 1031h123l-723 -1031h645l80 451h110l-79 -451h184l-19 -102h-184l-53 -301h-109l54 301h-773z" />
<glyph unicode="5" horiz-adv-x="1114" d="M49 266l96 51q21 -114 108.5 -174.5t221.5 -60.5q163 0 282 89.5t146 242.5q26 152 -60.5 241.5t-250.5 89.5h-383l168 689h758l-17 -103h-659l-117 -481h268q91 0 171.5 -31.5t138 -88t83.5 -142t9 -185.5q-36 -200 -190 -313t-361 -113q-157 0 -268.5 75.5 t-143.5 213.5z" />
<glyph unicode="6" horiz-adv-x="1099" d="M59 459q35 188 160 307l574 668h133l-457 -531q74 19 152 19q136 0 235 -62t142.5 -173t19.5 -249q-37 -209 -191.5 -335t-371.5 -126q-205 0 -319.5 137t-76.5 345zM168 449q-30 -162 53 -264.5t252 -102.5q170 0 288 102t148 265t-53 264.5t-254 101.5 q-170 0 -288 -101.5t-146 -264.5z" />
<glyph unicode="7" horiz-adv-x="1003" d="M156 0l784 1331h-747l16 103h868l-18 -103l-785 -1331h-118z" />
<glyph unicode="8" horiz-adv-x="1128" d="M68 393q21 125 105.5 215.5t211.5 134.5q-87 52 -129.5 139t-22.5 197q16 92 64 165.5t116 119t148.5 69t167.5 23.5q82 0 153.5 -26.5t124 -75t76 -125t7.5 -168.5q-20 -113 -91.5 -196t-175.5 -128q107 -51 160.5 -147t32.5 -217q-34 -189 -184 -292.5t-363 -103.5 q-129 0 -227.5 49t-147.5 145t-26 222zM176 383q-26 -140 60 -220.5t251 -80.5q169 0 281 80t137 221q24 138 -63 218.5t-248 80.5q-166 0 -280 -80t-138 -219zM342 1069q-23 -128 55.5 -204.5t214.5 -76.5q141 0 243 75.5t126 205.5q22 133 -54.5 208t-213.5 75 q-139 0 -243 -75t-128 -208z" />
<glyph unicode="9" horiz-adv-x="1103" d="M154 997q37 209 192 334t373 125q135 0 234 -62t143 -173.5t20 -249.5q-30 -174 -149 -293l-584 -678h-131l455 530q-73 -18 -156 -18q-135 0 -234.5 62t-143 173.5t-19.5 249.5zM262 985q-28 -163 54.5 -265t252.5 -102t289.5 102t149.5 265q28 162 -55.5 264.5 t-252.5 102.5q-171 0 -290.5 -102.5t-147.5 -264.5z" />
<glyph unicode=":" horiz-adv-x="436" d="M49 74q6 39 36.5 64.5t70.5 25.5t62.5 -28t14.5 -66q-8 -40 -37 -65t-71 -25q-39 0 -60.5 27.5t-15.5 66.5zM201 934q6 40 36 65t70 25t63 -28t15 -66q-8 -40 -37.5 -65t-71.5 -25q-39 0 -60 27.5t-15 66.5z" />
<glyph unicode=";" horiz-adv-x="471" d="M-14 -287l151 426h129l-186 -426h-94zM236 934q6 40 36 65t70 25t63 -28t15 -66q-8 -40 -37.5 -65t-71.5 -25q-39 0 -60 27.5t-15 66.5z" />
<glyph unicode="&#x3c;" horiz-adv-x="1079" d="M158 664l8 53l10 53l883 365l-23 -121l-751 -303l645 -303l-19 -109z" />
<glyph unicode="=" horiz-adv-x="1099" d="M121 463l18 98h840l-18 -98h-840zM195 872l16 99h840l-17 -99h-839z" />
<glyph unicode="&#x3e;" horiz-adv-x="1079" d="M92 299l23 121l751 303l-645 303l19 109l753 -365l-8 -53l-10 -53z" />
<glyph unicode="?" horiz-adv-x="1083" d="M227 1186q68 130 197 200t276 70q82 0 153 -25.5t122 -72.5t73.5 -119.5t6.5 -159.5q-11 -63 -42.5 -120.5t-74.5 -102.5t-93 -88t-100 -86.5t-93 -88.5t-74.5 -103t-42.5 -121h-111q13 73 46 138.5t76.5 115t93.5 95t100 87.5t92 83.5t73 92.5t41 106q21 127 -50.5 196 t-213.5 69q-116 0 -214 -57t-149 -162zM336 74q6 40 36 65t70 25t63 -28t15 -66q-8 -40 -37 -65t-71 -25q-39 0 -60.5 27.5t-15.5 66.5z" />
<glyph unicode="@" horiz-adv-x="1654" d="M98 526q36 202 162.5 369t314.5 262.5t398 95.5q93 0 175.5 -21.5t145.5 -60t116 -91.5t86 -115.5t55 -133t23 -143t-9 -145.5q-20 -113 -59 -197t-89 -130.5t-102.5 -68.5t-108.5 -22q-83 0 -133 48t-51 134q-50 -58 -120 -90.5t-148 -32.5q-137 0 -218.5 98t-56.5 236 q25 139 134 230.5t255 91.5q73 0 130.5 -34.5t88.5 -94.5l21 114h98l-80 -456q-30 -187 103 -187q96 0 172 93t108 278q24 136 -5 256.5t-101 206.5t-186 136t-252 50q-191 0 -364.5 -88.5t-293 -245.5t-153.5 -350q-27 -147 5.5 -276.5t112.5 -221.5t206 -145t280 -53 q208 0 360 57l-4 -53q-160 -55 -366 -55q-163 0 -298 58t-221.5 158t-122.5 240t-8 299zM578 512q-18 -103 39 -168t159 -65q99 0 179 65.5t98 167.5t-38.5 167.5t-156.5 65.5t-181 -65.5t-99 -167.5z" />
<glyph unicode="A" horiz-adv-x="1288" d="M-59 0l809 1434h114l303 -1434h-110l-74 365h-719l-205 -365h-118zM322 467h639l-170 833z" />
<glyph unicode="B" horiz-adv-x="1275" d="M88 0l252 1434h543q163 0 263 -114q80 -91 80 -209q0 -30 -5 -62q-17 -101 -80.5 -183t-157.5 -127q101 -43 151 -139q37 -70 37 -153q0 -31 -6 -64q-26 -159 -154.5 -271t-308.5 -112h-614zM215 102h498q127 0 225 84.5t119 204.5q5 27 5 53q0 86 -52 152 q-68 84 -185 84h-510zM334 782h463q110 0 202.5 80.5t112.5 194.5q5 26 5 51q0 82 -52 144q-67 80 -186 79h-449z" />
<glyph unicode="C" horiz-adv-x="1538" d="M133 731q36 205 159 371t304 260t383 94q204 0 355 -93t225 -253l-97 -51q-64 136 -185 214.5t-300 78.5q-137 0 -263.5 -50t-222.5 -136t-162 -202.5t-89 -246.5q-10 -61 -10 -119q0 -108 36 -202q54 -145 183 -229.5t309 -84.5q173 0 325.5 81.5t251.5 223.5l92 -57 q-115 -162 -294.5 -257.5t-384.5 -95.5q-159 0 -288.5 60.5t-209.5 162.5t-112 240q-17 75 -17 155q0 66 12 136z" />
<glyph unicode="D" horiz-adv-x="1490" d="M88 0l252 1434h539q141 0 257.5 -59.5t189 -159t101.5 -234.5q15 -71 16 -145q0 -67 -13 -136q-35 -197 -147.5 -356t-284.5 -251.5t-371 -92.5h-539zM215 102h430q124 0 240 48.5t204.5 131.5t150 196t83.5 239q11 64 11 124q0 99 -29 185q-46 140 -162 222.5t-281 82.5 h-432z" />
<glyph unicode="E" horiz-adv-x="1091" d="M88 0l252 1434h815l-16 -103h-709l-98 -557h657l-18 -102h-656l-100 -570h717l-19 -102h-825z" />
<glyph unicode="F" horiz-adv-x="1060" d="M88 0l252 1434h795l-19 -103h-686l-100 -573h661l-18 -103h-662l-114 -655h-109z" />
<glyph unicode="G" horiz-adv-x="1638" d="M135 741q27 150 104.5 282.5t189.5 227.5t256.5 150t299.5 55q207 0 355 -93t227 -253l-97 -51q-68 135 -189 214t-300 79q-138 0 -265 -49t-223.5 -133.5t-162.5 -200t-88 -244.5q-10 -59 -10 -115q0 -69 15 -134q27 -117 95 -204.5t181.5 -138.5t256.5 -51 q166 0 306 66.5t229.5 174.5t126.5 242h-608l18 103h719l-10 -54q-24 -132 -91.5 -248t-168 -202.5t-237 -136.5t-288.5 -50q-167 0 -302 61.5t-217.5 165t-115.5 243.5q-18 77 -18 158q0 67 12 136z" />
<glyph unicode="H" horiz-adv-x="1406" d="M88 0l252 1434h109l-113 -646h833l113 646h109l-252 -1434h-109l121 686h-834l-120 -686h-109z" />
<glyph unicode="I" horiz-adv-x="464" d="M88 0l252 1434h109l-252 -1434h-109z" />
<glyph unicode="J" horiz-adv-x="1132" d="M39 223l96 53q55 -194 309 -194q157 0 266 80.5t136 230.5l182 1041h109l-183 -1043q-24 -139 -103.5 -234.5t-184 -137.5t-228.5 -42q-154 0 -258.5 63t-140.5 183z" />
<glyph unicode="K" horiz-adv-x="1169" d="M88 0l252 1434h109l-117 -668l815 668h147l-850 -707l615 -727h-131l-606 715l-125 -715h-109z" />
<glyph unicode="L" horiz-adv-x="1009" d="M88 0l252 1434h109l-234 -1332h676l-19 -102h-784z" />
<glyph unicode="M" horiz-adv-x="1652" d="M88 0l252 1434h129l365 -854l663 854h139l-252 -1434h-108l221 1264l-678 -871h-18l-379 889l-225 -1282h-109z" />
<glyph unicode="N" horiz-adv-x="1406" d="M88 0l252 1434h86l639 -1233l217 1233h109l-252 -1434h-88l-637 1233l-217 -1233h-109z" />
<glyph unicode="O" horiz-adv-x="1677" d="M133 733q36 202 160.5 367.5t310 260.5t393.5 95q202 0 357 -104t225 -280q47 -117 46 -246q0 -64 -11 -132q-37 -202 -161.5 -366.5t-310 -257.5t-394.5 -93q-202 0 -356 103t-224 277q-46 116 -47 244q0 64 12 132zM244 717q-11 -61 -11 -119q0 -106 37 -200 q57 -146 188 -231t308 -85q179 0 338 83.5t264 227.5t135 318q10 60 10 116q0 107 -37 204q-57 147 -188.5 234t-308.5 87t-336 -85t-264.5 -230.5t-134.5 -319.5z" />
<glyph unicode="P" horiz-adv-x="1200" d="M88 0l252 1434h477q200 0 306 -128q81 -97 81 -230q0 -42 -8 -87q-32 -190 -181 -316t-372 -126h-350l-96 -547h-109zM311 649h344q171 0 290.5 101t144.5 254q6 36 6 68q0 100 -58 168q-78 90 -229 91h-379z" />
<glyph unicode="Q" horiz-adv-x="1687" d="M133 733q36 202 160.5 367.5t310 260.5t393.5 95q202 0 357 -104.5t225 -279.5q47 -118 47 -246q0 -65 -12 -132q-29 -156 -111 -290t-205 -232l129 -154l-77 -67l-136 162q-217 -136 -466 -136q-202 0 -356.5 103t-223.5 277q-47 116 -47 244q0 64 12 132zM244 717 q-11 -61 -11 -119q0 -106 37 -200q57 -146 188 -231t308 -85q204 0 383 108l-266 318l78 67l272 -323q105 85 175 204t95 255q10 60 10 116q0 108 -37 204q-57 147 -188.5 234t-308.5 87t-336 -85t-264.5 -230.5t-134.5 -319.5z" />
<glyph unicode="R" horiz-adv-x="1255" d="M88 0l252 1434h565q111 0 199 -60.5t129 -162.5q27 -67 27 -140q0 -37 -7 -76q-24 -146 -130 -253.5t-253 -141.5l248 -600h-112l-242 588h-6h-459l-102 -588h-109zM317 690h459q130 0 239 94t134 226q6 32 6 63q-1 93 -59 164q-78 94 -207 94h-459z" />
<glyph unicode="S" horiz-adv-x="1173" d="M47 315l96 50q26 -132 126 -207.5t268 -75.5q166 0 273 71t132 191q5 25 5 49q0 29 -8 56q-15 48 -40 78.5t-81 62t-93 47t-109 41.5q-87 30 -146 58t-126 78q-67 52 -93 126q-15 43 -15 93q0 37 8 77q17 84 64 151t112.5 109t141.5 64t157 22q174 0 282 -83.5 t150 -215.5l-96 -49q-75 244 -342 244q-132 0 -233.5 -68t-125.5 -184q-5 -26 -5 -51q0 -111 111 -185q62 -40 218 -98q74 -27 117.5 -45.5t107 -57.5t95.5 -80t50 -107q10 -36 9 -75q0 -33 -6 -69q-34 -173 -176.5 -264t-342.5 -91q-195 0 -322.5 89.5t-162.5 248.5z" />
<glyph unicode="T" horiz-adv-x="1105" d="M193 1331l16 103h1012l-19 -103h-450l-234 -1331h-110l233 1331h-448z" />
<glyph unicode="U" horiz-adv-x="1366" d="M152 479l167 955h109l-168 -955q-8 -45 -8 -86q0 -119 66 -201q88 -110 286 -110q200 0 330 111.5t160 285.5l168 955h108l-168 -955q-41 -232 -202.5 -367t-393.5 -135q-240 0 -366 140q-96 107 -97 263q0 47 9 99z" />
<glyph unicode="V" horiz-adv-x="1239" d="M188 1434h111l248 -1297l704 1297h121l-786 -1434h-115z" />
<glyph unicode="W" horiz-adv-x="2033" d="M229 1434h109l145 -1293l627 1293h129l174 -1293l600 1293h115l-668 -1434h-131l-174 1292l-631 -1292h-131z" />
<glyph unicode="X" horiz-adv-x="1173" d="M-43 0l610 743l-331 691h112l289 -605l496 605h129l-576 -703l350 -731h-112l-310 645l-528 -645h-129z" />
<glyph unicode="Y" horiz-adv-x="1167" d="M188 1434h113l320 -664l553 664h129l-637 -764l-119 -670h-109l119 674z" />
<glyph unicode="Z" horiz-adv-x="1071" d="M-2 0l18 102l988 1229h-750l16 103h875l-17 -103l-987 -1229h791l-19 -102h-915z" />
<glyph unicode="[" horiz-adv-x="567" d="M2 -205l326 1843h397l-18 -100h-293l-289 -1642h293l-19 -101h-397z" />
<glyph unicode="\" horiz-adv-x="1079" d="M287 1638h82l493 -1843h-80z" />
<glyph unicode="]" horiz-adv-x="567" d="M-86 -205l18 101h293l289 1642h-291l17 100h395l-326 -1843h-395z" />
<glyph unicode="^" horiz-adv-x="1028" d="M156 819l467 615h102l254 -615h-113l-202 498l-379 -498h-129z" />
<glyph unicode="_" horiz-adv-x="1038" d="M-57 -272l18 98h873l-17 -98h-874z" />
<glyph unicode="`" horiz-adv-x="370" d="M203 1427l143 -260h98l-118 260h-123z" />
<glyph unicode="a" d="M92 535q28 160 119.5 278.5t213.5 176t259 57.5q145 0 260 -74.5t164 -206.5l45 258h102l-180 -1024h-102l37 209q-81 -109 -203.5 -170.5t-269.5 -61.5q-106 0 -198 45t-153 120q-60 74 -86 178q-15 60 -16 124q0 45 8 91zM197 526q-7 -41 -7 -81q0 -75 26 -143 q40 -104 132 -165t213 -61q184 0 325.5 119t172.5 303q8 44 8 85q0 53 -13 101q-23 86 -75.5 142.5t-127.5 89t-161 32.5q-113 0 -216 -48.5t-178.5 -146.5t-98.5 -227z" />
<glyph unicode="b" horiz-adv-x="1320" d="M68 0l251 1434h103l-111 -627q84 113 207.5 176.5t269.5 63.5q105 0 196 -43.5t152 -115.5q62 -73 88 -175q15 -59 14 -122q0 -45 -7 -91q-40 -227 -212.5 -375t-404.5 -148q-142 0 -248 76t-151 203l-45 -256h-102zM262 518q-7 -41 -7 -79q0 -75 27 -143 q41 -102 132 -161t211 -59q185 0 326.5 125.5t174.5 310.5q7 43 7 82q-1 130 -81 228q-106 126 -288.5 126t-326 -123t-175.5 -307z" />
<glyph unicode="c" horiz-adv-x="1150" d="M92 528q40 226 216.5 372.5t406.5 146.5q148 0 258.5 -71t152.5 -190l-88 -47q-35 97 -121 153t-212 56q-187 0 -331.5 -123t-176.5 -307q-8 -44 -8 -86q0 -73 24 -137q37 -101 126 -160t212 -59t229.5 58.5t171.5 156.5l82 -55q-78 -122 -210.5 -190.5t-291.5 -68.5 q-148 0 -258 75q-112 74 -160 200q-32 82 -31 175q0 49 9 101z" />
<glyph unicode="d" d="M92 535q28 160 119.5 278.5t213.5 176t259 57.5q145 0 260 -74.5t164 -204.5l117 666h102l-252 -1434h-102l37 209q-81 -109 -203.5 -170.5t-269.5 -61.5q-106 0 -198 45t-153 120q-60 74 -86 178q-15 60 -16 124q0 45 8 91zM197 526q-7 -41 -7 -81q0 -75 26 -143 q40 -104 132 -165t213 -61q184 0 325 119t173 303q8 44 8 85q0 53 -13 101q-23 86 -75.5 142.5t-127.5 89t-161 32.5q-113 0 -216 -48.5t-178.5 -146.5t-98.5 -227z" />
<glyph unicode="e" horiz-adv-x="1204" d="M92 526q40 227 211 374t397 147q92 0 169.5 -28.5t130 -79t87.5 -118.5q35 -67 42 -147q2 -26 2 -54q0 -54 -9 -112q-7 -36 -12 -49h-924q-1 -19 -1 -36q0 -148 89 -242q100 -105 275 -105q124 0 225 50t164 138l80 -53q-74 -110 -204.5 -172t-278.5 -62q-154 0 -265 72 q-111 71 -158 197q-30 80 -30 171q0 53 10 109zM203 559h821q3 30 3 58q0 143 -77 229q-92 102 -258 102q-176 0 -309.5 -107t-179.5 -282z" />
<glyph unicode="f" horiz-adv-x="643" d="M127 924l18 100h177l10 55q35 198 157 295q106 84 268 84q25 0 52 -2l-18 -98q-22 2 -42 2q-120 0 -197 -61q-90 -71 -116 -220l-10 -55h305l-16 -100h-305l-164 -924h-105l164 924h-178z" />
<glyph unicode="g" horiz-adv-x="1331" d="M57 -186l93 47q32 -86 121.5 -140.5t236.5 -54.5q198 0 322 100.5t157 282.5l29 160q-83 -110 -202 -171t-257 -61q-153 0 -267 75t-164 203q-34 86 -34 184q0 47 8 96q17 115 74 213t138 162.5t178.5 100.5t197.5 36q145 0 261 -74t165 -205l45 256h105l-172 -975 q-41 -228 -199 -354.5t-389 -126.5q-166 0 -283 67t-164 179zM203 526q-6 -41 -6 -80q0 -139 83 -240q105 -130 293 -130q171 0 308.5 108.5t179.5 282.5l12 65q3 25 3 49q0 65 -20 123q-27 80 -80.5 132.5t-126.5 82t-155 29.5q-173 0 -317 -117t-174 -305z" />
<glyph unicode="h" horiz-adv-x="1155" d="M68 0l251 1434h103l-103 -588q145 201 394 201q181 0 273 -112q68 -84 69 -209q0 -42 -8 -89l-113 -637h-105l113 637q7 41 7 77q1 90 -45 150q-64 84 -210 84q-158 0 -276 -104.5t-152 -302.5v2l-96 -543h-102z" />
<glyph unicode="i" horiz-adv-x="417" d="M68 0l180 1024h102l-180 -1024h-102zM276 1354q5 33 32 56.5t63 23.5q33 0 53 -24q15 -18 16 -41q0 -7 -2 -15q-6 -35 -32.5 -58.5t-63.5 -23.5q-36 0 -54 24q-14 18 -13 42q0 8 1 16z" />
<glyph unicode="j" horiz-adv-x="456" d="M-207 -432l17 98q22 -2 43 -2q89 0 144 43q67 53 89 176l201 1141h102l-201 -1141q-54 -318 -336 -318q-28 0 -59 3zM315 1354q5 33 32 56.5t63 23.5q34 0 54 -24q14 -18 14 -41q0 -7 -1 -15q-6 -35 -32.5 -58.5t-63.5 -23.5q-35 0 -53 24q-14 18 -14 42q0 8 1 16z" />
<glyph unicode="k" horiz-adv-x="989" d="M68 0l251 1434h103l-154 -869l600 459h146l-641 -494l479 -530h-127l-465 514l-90 -514h-102z" />
<glyph unicode="l" horiz-adv-x="419" d="M70 0l108 627l154 868h102l-151 -868l-111 -627h-102z" />
<glyph unicode="m" horiz-adv-x="1755" d="M68 0l180 1024h102l-28 -158q72 93 164.5 137t191.5 44q109 0 186 -53.5t101 -155.5q71 105 173 157t208 52q157 0 246 -106q65 -78 66 -199q0 -44 -9 -93l-115 -649h-102l112 649q8 43 8 80q0 86 -42 141q-60 78 -185 78q-128 0 -227 -84t-137 -254l-109 -610h-102 l112 649q8 45 8 84q0 85 -39 137q-57 78 -178 78q-135 0 -242 -94.5t-139 -278.5l-102 -575h-102z" />
<glyph unicode="n" horiz-adv-x="1155" d="M68 0l180 1024h102l-31 -178q145 201 394 201q181 0 273 -112q68 -84 69 -209q0 -42 -8 -89l-113 -637h-105l113 637q7 41 7 77q1 90 -45 150q-64 84 -210 84q-158 0 -276 -104.5t-152 -302.5v2l-96 -543h-102z" />
<glyph unicode="o" horiz-adv-x="1253" d="M90 522q21 121 84 222t150 166.5t190.5 101t208.5 35.5q103 0 192.5 -39.5t152 -108.5t89.5 -173q15 -58 16 -121q0 -49 -10 -101q-28 -164 -125.5 -286t-226.5 -181.5t-270 -59.5q-104 0 -195 39t-155.5 108t-92.5 173q-16 60 -17 125q0 49 9 100zM195 512 q-8 -44 -8 -85q0 -51 12 -97q21 -84 71.5 -138.5t123 -85t157.5 -30.5q115 0 221.5 51.5t185.5 153.5t103 235q8 43 8 84q-1 50 -13 96q-22 82 -71.5 136.5t-122 85t-157.5 30.5q-114 -1 -220.5 -52t-186 -152t-103.5 -232z" />
<glyph unicode="p" d="M-4 -410l252 1434h102l-37 -209q84 110 205.5 171t267.5 61q106 0 198 -45t152.5 -120t87.5 -178q15 -61 15 -124q0 -45 -8 -91q-28 -160 -119.5 -278.5t-213.5 -176t-259 -57.5q-145 0 -260 74.5t-164 206.5l-117 -668h-102zM264 526q-8 -44 -8 -85q0 -53 13 -101 q23 -85 75.5 -142t127.5 -89.5t161 -32.5q113 0 216 48.5t178.5 146.5t98.5 227q7 41 7 81q0 75 -27 143q-40 104 -131.5 165t-212.5 61q-184 0 -325 -119t-173 -303z" />
<glyph unicode="q" d="M92 535q28 160 119.5 278.5t213.5 176t259 57.5q145 0 260 -74.5t164 -206.5l45 258h102l-251 -1434h-103l109 619q-81 -109 -203.5 -170.5t-269.5 -61.5q-106 0 -198 45t-152.5 120t-86.5 178q-16 61 -16 124q0 45 8 91zM197 526q-7 -41 -7 -81q0 -75 26 -143 q41 -104 132.5 -165t212.5 -61q184 0 325.5 119t172.5 301q8 44 8 85q0 53 -13 101q-23 87 -75.5 144t-127.5 89.5t-161 32.5q-113 0 -216 -48.5t-178.5 -146.5t-98.5 -227z" />
<glyph unicode="r" horiz-adv-x="651" d="M68 0l180 1024h102l-31 -174q73 103 171 148q88 40 184 40h22l-18 -98q-68 0 -132 -21.5t-120 -65t-97.5 -116.5t-58.5 -168l-100 -569h-102z" />
<glyph unicode="s" horiz-adv-x="966" d="M53 211l92 47q22 -85 95 -133.5t186 -48.5q112 0 191 47.5t96 134.5q3 15 3 29q0 38 -20 68q-28 40 -79 63.5t-114 43.5t-125.5 43.5t-111.5 54.5q-50 32 -74 88q-16 36 -15 79q0 25 5 53q20 118 123.5 192.5t249.5 74.5q121 0 209.5 -54t126.5 -151l-90 -47 q-25 75 -94 114t-156 39q-95 0 -171.5 -46.5t-92.5 -135.5q-3 -15 -3 -28q0 -37 20 -66q28 -39 78.5 -62.5t113 -43t124.5 -43.5t111 -56.5t73 -89.5q16 -36 16 -81q0 -26 -5 -54q-22 -124 -129 -194.5t-268 -70.5q-148 0 -239.5 63t-125.5 171z" />
<glyph unicode="t" horiz-adv-x="772" d="M121 924l18 100h226l45 256l108 31l-51 -287h307l-18 -100h-305l-119 -666q-5 -31 -5 -56q0 -45 17 -71q27 -40 94 -44q21 -1 45 -1q54 0 125 6l-14 -92q-71 -11 -129 -11q-109 0 -171 40q-72 46 -72 154q0 34 7 75l117 666h-225z" />
<glyph unicode="u" horiz-adv-x="1155" d="M109 387l112 637h105l-113 -637q-7 -41 -7 -77q0 -90 46 -150q64 -84 209 -84q158 0 276 104.5t152 302.5v-2l96 543h102l-180 -1024h-102l31 178q-145 -201 -394 -201q-182 0 -273 112q-68 84 -68 208q0 43 8 90z" />
<glyph unicode="v" horiz-adv-x="976" d="M117 1024h106l189 -913l512 913h116l-579 -1024h-125z" />
<glyph unicode="w" horiz-adv-x="1576" d="M158 1024h102l117 -893l444 893h107l-2 -4l131 -889l430 893h112l-503 -1024h-113l-131 872l-438 -872h-113z" />
<glyph unicode="x" horiz-adv-x="1038" d="M-43 0l504 535l-299 489h117l251 -416l392 416h133l-471 -502l315 -522h-115l-272 446l-420 -446h-135z" />
<glyph unicode="y" horiz-adv-x="1044" d="M8 -410l17 97q12 -1 24 -1q176 0 318 240l34 58l-284 1040h104l248 -922l522 922h117l-639 -1118q-91 -159 -211 -242q-106 -75 -222 -75q-14 0 -28 1z" />
<glyph unicode="z" horiz-adv-x="948" d="M6 0l12 68l758 856h-588l19 100h737l-12 -68l-760 -856h629l-17 -100h-778z" />
<glyph unicode="{" horiz-adv-x="714" d="M137 670l19 98q117 0 177 43t81 162l67 383q30 173 129.5 245.5t266.5 57.5l-19 -100q-122 14 -186.5 -33t-85.5 -170l-68 -383q-21 -119 -71.5 -180t-137.5 -82q156 -42 119 -246l-68 -383q-23 -123 26 -170t175 -35l-16 -98q-168 -15 -241.5 63.5t-45.5 239.5l66 383 q22 119 -23.5 162t-163.5 43z" />
<glyph unicode="|" horiz-adv-x="458" d="M16 -410l332 1885h103l-332 -1885h-103z" />
<glyph unicode="}" horiz-adv-x="716" d="M-88 -221l18 100q122 -14 187 33t86 170l67 383q21 119 71.5 180t137.5 82q-156 42 -119 246l68 383q23 123 -26 170t-175 35l17 98q168 15 241 -63.5t45 -239.5l-65 -383q-22 -119 23 -162t163 -43l-18 -98q-117 0 -177 -43t-81 -162l-68 -383q-30 -173 -129 -245.5 t-266 -57.5z" />
<glyph unicode="~" horiz-adv-x="1202" d="M152 637q30 71 78 122t112.5 77.5t149.5 8.5t176 -85q249 -183 368 82l86 -45q-24 -56 -58 -100.5t-82 -74.5t-103.5 -38t-125.5 14t-145 76q-253 184 -368 -82z" />
<glyph unicode="&#xa1;" horiz-adv-x="450" d="M2 -410l72 410l135 655h82l-94 -655l-72 -410h-123zM211 954q8 40 37 65t71 25q38 0 60 -28t14 -66q-6 -40 -35.5 -65t-70.5 -25q-38 0 -60.5 28t-15.5 66z" />
<glyph unicode="&#xa2;" horiz-adv-x="1153" d="M129 733q40 226 216.5 372t406.5 146q50 0 108 -10l96 193h88l-108 -215q82 -32 140.5 -91t86.5 -137l-88 -47q-49 136 -184 184l-416 -833q49 -14 113 -14q123 0 229.5 58.5t171.5 156.5l82 -56q-78 -122 -210.5 -190t-291.5 -68q-73 0 -141 21l-100 -203h-88l114 231 q-129 65 -191.5 201.5t-33.5 300.5zM233 723q-23 -131 22.5 -238t145.5 -161l412 823q-35 6 -72 6q-187 0 -331.5 -123t-176.5 -307z" />
<glyph unicode="&#xa3;" horiz-adv-x="1208" d="M-2 0l18 104h205l88 496h-164l17 96h164l61 348q35 198 157.5 305t299.5 107q131 0 226.5 -71t135.5 -195l-90 -49q-37 104 -104 157.5t-178 53.5q-130 0 -221 -80t-117 -228l-62 -348h494l-19 -96h-491l-88 -496h772l-19 -104h-1085z" />
<glyph unicode="&#xa4;" horiz-adv-x="1132" d="M51 293l172 145q-81 125 -55 285q26 158 149 278l-116 142l61 51l117 -141q138 96 299 96q153 0 258 -100l170 145l49 -53l-172 -148q82 -121 55 -282q-26 -157 -149 -277l117 -143l-64 -51l-117 141q-135 -96 -299 -96q-150 0 -256 98l-170 -143zM272 717 q-26 -139 53.5 -236.5t219.5 -97.5q139 0 251.5 97t137.5 237t-54 237t-218 97q-140 0 -253.5 -97.5t-136.5 -236.5z" />
<glyph unicode="&#xa5;" horiz-adv-x="1167" d="M125 365l16 90h377l27 157h-375l14 93h357l-353 729h113l320 -664l553 664h129l-609 -729h359l-17 -93h-381l-28 -157h381l-15 -90h-381l-65 -365h-109l64 365h-377z" />
<glyph unicode="&#xa6;" horiz-adv-x="458" d="M16 -410l134 758h102l-133 -758h-103zM215 717l133 758h103l-134 -758h-102z" />
<glyph unicode="&#xa7;" horiz-adv-x="1046" d="M49 37l94 51q53 -217 306 -217q113 0 191 49t95 143q7 42 -6.5 80t-38 65.5t-69.5 56.5t-82.5 48t-96.5 45q-53 24 -92.5 46.5t-80 55t-64 67t-34.5 82.5t-1 102q26 148 192 243q-79 92 -57 217q22 127 127.5 206t259.5 79q123 0 213.5 -62.5t128.5 -176.5l-90 -48 q-33 94 -101.5 141.5t-162.5 47.5q-103 0 -179 -52t-93 -143q-7 -41 5 -77.5t34 -62.5t62.5 -53.5t76.5 -46t89 -44.5q10 -5 15 -7q54 -26 92.5 -48t79 -55t63 -67.5t33 -82.5t0.5 -103q-13 -73 -61.5 -135.5t-120.5 -104.5q84 -94 62 -223q-24 -128 -131 -205t-271 -77 q-149 0 -248 69t-139 197zM274 702q-7 -47 6.5 -86t47.5 -69.5t73 -53t97 -47.5q143 -62 209 -108q129 71 149 188q8 47 -4.5 85.5t-47.5 69.5t-73 53.5t-98 49.5q-136 60 -203 109q-66 -35 -106.5 -85t-49.5 -106z" />
<glyph unicode="&#xa8;" horiz-adv-x="600" d="M174 1255q4 32 30.5 54t57.5 22t48.5 -22t13.5 -54q-6 -31 -31.5 -52t-56.5 -21t-49.5 21.5t-12.5 51.5zM543 1255q4 32 30.5 54t57.5 22t48.5 -22t12.5 -54q-6 -31 -31.5 -52t-56.5 -21t-49 21t-12 52z" />
<glyph unicode="&#xa9;" horiz-adv-x="1675" d="M133 727q35 202 163 369.5t315.5 263.5t392.5 96q149 0 276 -60t209 -160.5t117 -239t8 -289.5q-36 -202 -164 -369.5t-315 -264t-392 -96.5q-149 0 -276 60t-209.5 161t-117 239.5t-7.5 289.5zM188 717q-33 -188 30.5 -347t205 -251t328.5 -92q188 0 362 92t292.5 250.5 t152.5 347.5q33 188 -30.5 347t-205 251t-328.5 92q-141 0 -278 -54.5t-244.5 -146.5t-184 -220t-100.5 -269zM483 727q30 166 157.5 274.5t299.5 108.5q104 0 187.5 -52.5t123.5 -139.5l-88 -44q-35 67 -98 103.5t-141 36.5q-129 0 -223 -87t-115 -210 q-22 -122 43.5 -209.5t191.5 -87.5q82 0 157.5 38.5t121.5 108.5l82 -53q-64 -88 -161.5 -139t-209.5 -51q-81 0 -149 32.5t-112 86.5t-62.5 128.5t-4.5 155.5z" />
<glyph unicode="&#xab;" horiz-adv-x="968" d="M184 633l283 354h135l-289 -362l154 -346h-125zM473 633l281 354h135l-287 -362l154 -346h-127z" />
<glyph unicode="&#xac;" horiz-adv-x="1064" d="M160 682l16 100h807l-61 -354h-105l45 254h-702z" />
<glyph unicode="&#xad;" horiz-adv-x="1091" d="M190 584l17 98h737l-16 -98h-738z" />
<glyph unicode="&#xae;" horiz-adv-x="1675" d="M133 727q35 202 163 369.5t315.5 263.5t392.5 96q149 0 276 -60t209 -160.5t117 -239t8 -289.5q-36 -202 -164 -369.5t-315 -264t-392 -96.5q-149 0 -276 60t-209.5 161t-117 239.5t-7.5 289.5zM188 717q-33 -188 30.5 -347t205 -251t328.5 -92q188 0 362 92t292.5 250.5 t152.5 347.5q33 188 -30.5 347t-205 251t-328.5 92q-141 0 -278 -54.5t-244.5 -146.5t-184 -220t-100.5 -269zM588 338l133 758h231q130 0 190 -72.5t44 -171.5q-28 -172 -197 -215l123 -299h-102l-113 285h-27h-135l-49 -285h-98zM754 717h139q85 0 134 37.5t60 103.5 q12 65 -24 104t-121 39h-139z" />
<glyph unicode="&#xaf;" horiz-adv-x="600" d="M162 1202l16 90h518l-14 -90h-520z" />
<glyph unicode="&#xb0;" horiz-adv-x="790" d="M240 1366q22 126 123 209.5t235 83.5q128 0 201.5 -91t50.5 -216q-21 -128 -118 -210.5t-240 -82.5q-128 0 -201 90.5t-51 216.5zM340 1358q-14 -88 32 -146.5t138 -58.5q89 0 157.5 59t82.5 146q15 88 -32 147.5t-136 59.5q-90 0 -158.5 -59.5t-83.5 -147.5z" />
<glyph unicode="&#xb1;" horiz-adv-x="1093" d="M74 190l16 101h834l-17 -101h-833zM180 797l19 100h364l62 346h102l-61 -346h364l-16 -100h-367l-61 -346h-101l62 346h-367z" />
<glyph unicode="&#xb4;" horiz-adv-x="366" d="M156 1167h102l229 260h-127z" />
<glyph unicode="&#xb5;" horiz-adv-x="1243" d="M-4 -410l252 1434h102l-112 -637h2q-25 -144 38 -227.5t209 -83.5q150 0 265.5 95t156.5 278l101 575h104l-147 -840q-7 -39 11.5 -61.5t57.5 -22.5h66l-17 -100h-77q-72 0 -114.5 45.5t-33.5 120.5q-74 -95 -174 -142t-211 -47q-100 0 -172.5 39.5t-109.5 112.5 l-95 -539h-102z" />
<glyph unicode="&#xb6;" horiz-adv-x="1167" d="M182 1047q29 164 164 275.5t301 111.5h594l-18 -97h-121l-307 -1747h-103l307 1747h-268l-307 -1747h-100l184 1051q-108 1 -190 57t-118 149t-18 200z" />
<glyph unicode="&#xb7;" horiz-adv-x="438" d="M162 709q6 40 36 65t70 25t63 -28t15 -66q-8 -40 -37 -65.5t-71 -25.5q-39 0 -60.5 28t-15.5 67z" />
<glyph unicode="&#xb8;" horiz-adv-x="481" d="M-125 -432l16 84q147 -15 229 7t91 73q8 44 -37.5 67.5t-134.5 20.5l33 180h92l-21 -115q78 -9 124 -53t36 -108q-34 -190 -428 -156z" />
<glyph unicode="&#xbb;" horiz-adv-x="970" d="M123 279l287 362l-154 346h127l156 -354l-281 -354h-135zM410 279l288 362l-153 346h125l157 -354l-282 -354h-135z" />
<glyph unicode="&#xbc;" horiz-adv-x="1697" d="M174 1341l266 93h80l-145 -820h-99l125 703l-217 -66zM182 0l1075 1434h105l-1075 -1434h-105zM942 164l14 92l408 563h113l-406 -563h324l37 213h98l-37 -213h111l-17 -92h-110l-29 -164h-98l28 164h-436z" />
<glyph unicode="&#xbd;" horiz-adv-x="1669" d="M174 1341l266 93h80l-145 -820h-99l125 703l-217 -66zM182 0l1075 1434h105l-1075 -1434h-105zM946 0l15 80l413 340q113 89 129 178q11 65 -27 108.5t-114 43.5q-133 0 -211 -140l-80 49q45 85 125.5 135t177.5 50q117 0 180 -72t48 -178q-18 -122 -170 -244l-314 -256 h408l-15 -94h-565z" />
<glyph unicode="&#xbe;" horiz-adv-x="1910" d="M100 756l86 43q37 -115 183 -115q93 0 150.5 46t70.5 120q14 73 -28.5 120.5t-133.5 47.5h-6l-37 72l236 249h-394l17 95h514l-17 -95l-233 -245q99 -19 147 -88t33 -164q-20 -115 -109.5 -183.5t-224.5 -68.5q-97 0 -161 43.5t-93 122.5zM395 0l1075 1434h105 l-1075 -1434h-105zM1155 164l14 92l408 563h113l-406 -563h324l37 213h98l-37 -213h111l-17 -92h-110l-29 -164h-98l28 164h-436z" />
<glyph unicode="&#xbf;" horiz-adv-x="1083" d="M29 -55q11 63 42.5 120.5t74.5 102.5t93 88t100 86.5t93 88.5t74.5 103t42.5 121h110q-13 -73 -46 -138.5t-76.5 -115t-93.5 -95t-100 -87.5t-92 -83.5t-73 -92.5t-41 -106q-21 -127 50.5 -196t213.5 -69q116 0 214 57t149 162l92 -53q-68 -130 -197 -200t-276 -70 q-82 0 -153 25.5t-121.5 72.5t-73 119.5t-6.5 159.5zM563 954q8 40 37.5 65t71.5 25q39 0 60.5 -27.5t15.5 -66.5t-36.5 -64.5t-70.5 -25.5t-63 28t-15 66z" />
<glyph unicode="&#xc0;" horiz-adv-x="1288" d="M-59 0l809 1434h114l303 -1434h-110l-74 365h-719l-205 -365h-118zM322 467h639l-170 833zM664 1837h122l119 -260h-98z" />
<glyph unicode="&#xc1;" horiz-adv-x="1288" d="M-59 0l809 1434h114l303 -1434h-110l-74 365h-719l-205 -365h-118zM322 467h639l-170 833zM748 1577l204 260h127l-229 -260h-102z" />
<glyph unicode="&#xc2;" horiz-adv-x="1288" d="M-59 0l809 1434h114l303 -1434h-110l-74 365h-719l-205 -365h-118zM322 467h639l-170 833zM549 1577l266 260h121l178 -260h-113l-131 195l-198 -195h-123z" />
<glyph unicode="&#xc3;" horiz-adv-x="1288" d="M-59 0l809 1434h114l303 -1434h-110l-74 365h-719l-205 -365h-118zM322 467h639l-170 833zM559 1604q18 114 69 170.5t115 49.5t125 -69q50 -51 87 -64.5t65.5 15.5t42.5 106h90q-19 -112 -70 -168.5t-114.5 -50t-124.5 67.5q-73 79 -123.5 68t-71.5 -125h-90z" />
<glyph unicode="&#xc4;" horiz-adv-x="1288" d="M-59 0l809 1434h114l303 -1434h-110l-74 365h-719l-205 -365h-118zM322 467h639l-170 833zM588 1665q4 32 30.5 54t57.5 22t48.5 -22t12.5 -54q-6 -31 -31.5 -52.5t-56.5 -21.5t-49 21.5t-12 52.5zM956 1665q4 32 30.5 54t57.5 22t48.5 -22t13.5 -54q-6 -31 -31.5 -52.5 t-56.5 -21.5t-49.5 21.5t-12.5 52.5z" />
<glyph unicode="&#xc5;" horiz-adv-x="1288" d="M-59 0l782 1384q-59 21 -86 73t-16 118q13 86 80.5 140t158.5 54q94 0 143 -58t37 -144q-10 -66 -55 -115.5t-111 -69.5l293 -1382h-110l-74 365h-719l-205 -365h-118zM322 467h639l-170 833zM709 1571q-9 -52 17.5 -84.5t82.5 -32.5t96 32.5t49 84.5q9 53 -20 85t-84 32 q-54 0 -93 -31.5t-48 -85.5z" />
<glyph unicode="&#xc6;" horiz-adv-x="1787" d="M-84 0l1131 1434h802l-16 -103h-659l-99 -557h623l-19 -102h-620l-101 -570h668l-18 -102h-779l66 375h-553l-295 -375h-131zM422 477h491l142 805z" />
<glyph unicode="&#xc7;" horiz-adv-x="1538" d="M133 731q36 205 159 371t304 260t383 94q204 0 355 -93t225 -253l-97 -51q-64 136 -185 214.5t-300 78.5q-137 0 -263.5 -50t-222.5 -136t-162 -202.5t-89 -246.5q-29 -176 25.5 -321t183.5 -229.5t309 -84.5q173 0 325.5 81.5t251.5 223.5l92 -57q-108 -152 -275 -246 t-359 -104l-17 -95q78 -9 124 -53t36 -108q-34 -190 -428 -156l16 84q147 -15 229 7t91 73q8 44 -37.5 67.5t-134.5 20.5l28 160q-199 11 -341.5 115.5t-201.5 272t-24 363.5z" />
<glyph unicode="&#xc8;" horiz-adv-x="1091" d="M88 0l252 1434h815l-16 -103h-709l-98 -557h657l-18 -102h-656l-100 -570h717l-19 -102h-825zM600 1837h123l119 -260h-99z" />
<glyph unicode="&#xc9;" horiz-adv-x="1091" d="M88 0l252 1434h815l-16 -103h-709l-98 -557h657l-18 -102h-656l-100 -570h717l-19 -102h-825zM684 1577l205 260h127l-230 -260h-102z" />
<glyph unicode="&#xca;" horiz-adv-x="1091" d="M88 0l252 1434h815l-16 -103h-709l-98 -557h657l-18 -102h-656l-100 -570h717l-19 -102h-825zM485 1577l267 260h120l179 -260h-113l-131 195l-199 -195h-123z" />
<glyph unicode="&#xcb;" horiz-adv-x="1091" d="M88 0l252 1434h815l-16 -103h-709l-98 -557h657l-18 -102h-656l-100 -570h717l-19 -102h-825zM524 1665q4 32 30.5 54t57.5 22t48.5 -22t13.5 -54q-6 -31 -31.5 -52.5t-56.5 -21.5t-49.5 21.5t-12.5 52.5zM893 1665q4 32 30.5 54t57.5 22t48.5 -22t12.5 -54 q-6 -31 -31.5 -52.5t-56.5 -21.5t-49 21.5t-12 52.5z" />
<glyph unicode="&#xcc;" horiz-adv-x="464" d="M88 0l252 1434h109l-252 -1434h-109zM250 1837l143 -260h99l-119 260h-123z" />
<glyph unicode="&#xcd;" horiz-adv-x="464" d="M88 0l252 1434h109l-252 -1434h-109zM334 1577h102l230 260h-127z" />
<glyph unicode="&#xce;" horiz-adv-x="464" d="M88 0l252 1434h109l-252 -1434h-109zM135 1577l266 260h121l178 -260h-112l-131 195l-199 -195h-123z" />
<glyph unicode="&#xcf;" horiz-adv-x="464" d="M88 0l252 1434h109l-252 -1434h-109zM174 1665q4 32 30.5 54t57.5 22t48.5 -22t13.5 -54q-6 -31 -31.5 -52.5t-56.5 -21.5t-49.5 21.5t-12.5 52.5zM543 1665q4 32 30.5 54t57.5 22t48.5 -22t12.5 -54q-6 -31 -31.5 -52.5t-56.5 -21.5t-49 21.5t-12 52.5z" />
<glyph unicode="&#xd0;" horiz-adv-x="1531" d="M109 668l16 98h139l117 668h539q141 0 257.5 -59.5t188.5 -159t101 -234.5t3 -281q-26 -147 -98 -276t-176.5 -222.5t-241.5 -147.5t-286 -54h-539l117 668h-137zM256 102h430q124 0 240 48.5t204.5 131.5t150 196t83.5 239q28 169 -18 308.5t-162 222.5t-281 83h-432 l-98 -565h489l-16 -98h-492z" />
<glyph unicode="&#xd1;" horiz-adv-x="1406" d="M88 0l252 1434h86l639 -1233l217 1233h109l-252 -1434h-88l-637 1233l-217 -1233h-109zM616 1604q18 114 69.5 170.5t115.5 49.5t125 -69q50 -51 87 -64.5t65 15.5t42 106h90q-19 -112 -70 -168.5t-114.5 -50t-124.5 67.5q-73 79 -123 68t-71 -125h-91z" />
<glyph unicode="&#xd2;" horiz-adv-x="1677" d="M133 733q36 202 160.5 367.5t310 260.5t393.5 95q202 0 357 -104.5t225 -280t35 -377.5q-37 -202 -161.5 -366.5t-310 -257.5t-394.5 -93q-202 0 -356.5 103t-224 277t-34.5 376zM244 717q-31 -174 26 -319.5t188 -230.5t308 -85q179 0 338 83.5t264 227.5t135 318 q30 173 -27 320t-188.5 234t-308.5 87t-336 -85t-264.5 -230.5t-134.5 -319.5zM856 1837l143 -260h99l-119 260h-123z" />
<glyph unicode="&#xd3;" horiz-adv-x="1677" d="M133 733q36 202 160.5 367.5t310 260.5t393.5 95q202 0 357 -104.5t225 -280t35 -377.5q-37 -202 -161.5 -366.5t-310 -257.5t-394.5 -93q-202 0 -356.5 103t-224 277t-34.5 376zM244 717q-31 -174 26 -319.5t188 -230.5t308 -85q179 0 338 83.5t264 227.5t135 318 q30 173 -27 320t-188.5 234t-308.5 87t-336 -85t-264.5 -230.5t-134.5 -319.5zM940 1577h102l230 260h-127z" />
<glyph unicode="&#xd4;" horiz-adv-x="1677" d="M133 733q36 202 160.5 367.5t310 260.5t393.5 95q202 0 357 -104.5t225 -280t35 -377.5q-37 -202 -161.5 -366.5t-310 -257.5t-394.5 -93q-202 0 -356.5 103t-224 277t-34.5 376zM244 717q-31 -174 26 -319.5t188 -230.5t308 -85q179 0 338 83.5t264 227.5t135 318 q30 173 -27 320t-188.5 234t-308.5 87t-336 -85t-264.5 -230.5t-134.5 -319.5zM741 1577l267 260h120l179 -260h-113l-131 195l-199 -195h-123z" />
<glyph unicode="&#xd5;" horiz-adv-x="1677" d="M133 733q36 202 160.5 367.5t310 260.5t393.5 95q202 0 357 -104.5t225 -280t35 -377.5q-37 -202 -161.5 -366.5t-310 -257.5t-394.5 -93q-202 0 -356.5 103t-224 277t-34.5 376zM244 717q-31 -174 26 -319.5t188 -230.5t308 -85q179 0 338 83.5t264 227.5t135 318 q30 173 -27 320t-188.5 234t-308.5 87t-336 -85t-264.5 -230.5t-134.5 -319.5zM752 1604q18 114 69 170.5t115 49.5t125 -69q50 -51 87 -64.5t65 15.5t42 106h91q-19 -112 -70 -168.5t-115 -50t-125 67.5q-73 79 -123 68t-71 -125h-90z" />
<glyph unicode="&#xd6;" horiz-adv-x="1677" d="M133 733q36 202 160.5 367.5t310 260.5t393.5 95q202 0 357 -104.5t225 -280t35 -377.5q-37 -202 -161.5 -366.5t-310 -257.5t-394.5 -93q-202 0 -356.5 103t-224 277t-34.5 376zM244 717q-31 -174 26 -319.5t188 -230.5t308 -85q179 0 338 83.5t264 227.5t135 318 q30 173 -27 320t-188.5 234t-308.5 87t-336 -85t-264.5 -230.5t-134.5 -319.5zM780 1665q4 32 30.5 54t57.5 22t48.5 -22t13.5 -54q-6 -31 -31.5 -52.5t-56.5 -21.5t-49.5 21.5t-12.5 52.5zM1149 1665q4 32 30.5 54t57.5 22t48.5 -22t12.5 -54q-6 -31 -31.5 -52.5 t-56.5 -21.5t-49 21.5t-12 52.5z" />
<glyph unicode="&#xd7;" horiz-adv-x="960" d="M100 422l349 299l-244 291l76 65l243 -291l340 291l68 -65l-348 -299l243 -291l-75 -66l-244 293l-340 -293z" />
<glyph unicode="&#xd8;" horiz-adv-x="1697" d="M147 45l146 141q-92 106 -129 248t-10 299q36 202 160.5 367.5t310 260.5t393.5 95q241 0 416 -151l131 129l71 -48l-143 -141q92 -106 130 -250t11 -301q-37 -202 -161.5 -366.5t-310 -257.5t-394.5 -93q-242 0 -418 152l-131 -129zM264 717q-24 -131 4.5 -248 t102.5 -207l985 967q-142 123 -357 123q-177 0 -336 -85t-264.5 -230.5t-134.5 -319.5zM428 205q145 -123 358 -123q179 0 338 83.5t264.5 227.5t135.5 318q23 131 -6.5 250t-102.5 208z" />
<glyph unicode="&#xd9;" horiz-adv-x="1366" d="M152 479l167 955h109l-168 -955q-30 -178 58.5 -287.5t285.5 -109.5q200 0 330 111.5t160 285.5l168 955h108l-168 -955q-41 -232 -202.5 -367t-393.5 -135q-241 0 -366.5 140t-87.5 362zM696 1837l144 -260h98l-119 260h-123z" />
<glyph unicode="&#xda;" horiz-adv-x="1366" d="M152 479l167 955h109l-168 -955q-30 -178 58.5 -287.5t285.5 -109.5q200 0 330 111.5t160 285.5l168 955h108l-168 -955q-41 -232 -202.5 -367t-393.5 -135q-241 0 -366.5 140t-87.5 362zM780 1577h103l229 260h-127z" />
<glyph unicode="&#xdb;" horiz-adv-x="1366" d="M152 479l167 955h109l-168 -955q-30 -178 58.5 -287.5t285.5 -109.5q200 0 330 111.5t160 285.5l168 955h108l-168 -955q-41 -232 -202.5 -367t-393.5 -135q-241 0 -366.5 140t-87.5 362zM582 1577l266 260h121l178 -260h-113l-131 195l-198 -195h-123z" />
<glyph unicode="&#xdc;" horiz-adv-x="1366" d="M152 479l167 955h109l-168 -955q-30 -178 58.5 -287.5t285.5 -109.5q200 0 330 111.5t160 285.5l168 955h108l-168 -955q-41 -232 -202.5 -367t-393.5 -135q-241 0 -366.5 140t-87.5 362zM621 1665q4 32 30.5 54t57.5 22t48.5 -22t12.5 -54q-6 -31 -31.5 -52.5 t-56.5 -21.5t-49 21.5t-12 52.5zM989 1665q4 32 30.5 54t57.5 22t48.5 -22t13.5 -54q-6 -31 -31.5 -52.5t-56.5 -21.5t-49.5 21.5t-12.5 52.5z" />
<glyph unicode="&#xdd;" horiz-adv-x="1167" d="M188 1434h113l320 -664l553 664h129l-637 -764l-119 -670h-109l119 674zM682 1577l205 260h127l-230 -260h-102z" />
<glyph unicode="&#xde;" horiz-adv-x="1202" d="M88 0l252 1434h109l-48 -273h371q200 0 305 -127t72 -317q-30 -190 -180 -317.5t-373 -127.5h-352l-47 -272h-109zM262 375h346q173 0 291 100.5t143 255.5q26 146 -51.5 237t-228.5 91h-379z" />
<glyph unicode="&#xdf;" horiz-adv-x="1056" d="M68 0l186 1061q34 195 157.5 295t295.5 100q158 0 243 -89t60 -218q-9 -48 -37 -94t-61.5 -80.5t-66.5 -66t-57 -61.5t-28 -54q-5 -35 18.5 -79t59 -89.5t69.5 -96t53.5 -116t8.5 -133.5q-24 -145 -144.5 -222.5t-322.5 -64.5l16 94q145 -9 238 43.5t110 159.5 q9 57 -12 115t-56.5 106.5t-71 95.5t-57.5 99t-14 100q5 34 30 68.5t58.5 65t67 62.5t60.5 73t34 85q17 91 -42.5 145t-168.5 54q-56 0 -108 -17t-99.5 -52t-82 -95t-48.5 -139l-186 -1055h-102z" />
<glyph unicode="&#xe0;" d="M92 535q28 160 119.5 278.5t213.5 176t259 57.5q145 0 260 -74.5t164 -206.5l45 258h102l-180 -1024h-102l37 209q-81 -109 -203.5 -170.5t-269.5 -61.5q-106 0 -198 45t-152.5 120t-87 178.5t-7.5 214.5zM197 526q-21 -121 19.5 -224.5t132 -164.5t212.5 -61 q184 0 325.5 119t172.5 303q18 100 -5 185.5t-75.5 142.5t-127.5 89.5t-161 32.5q-113 0 -216 -48.5t-178.5 -146.5t-98.5 -227zM571 1427h123l119 -260h-98z" />
<glyph unicode="&#xe1;" d="M92 535q28 160 119.5 278.5t213.5 176t259 57.5q145 0 260 -74.5t164 -206.5l45 258h102l-180 -1024h-102l37 209q-81 -109 -203.5 -170.5t-269.5 -61.5q-106 0 -198 45t-152.5 120t-87 178.5t-7.5 214.5zM197 526q-21 -121 19.5 -224.5t132 -164.5t212.5 -61 q184 0 325.5 119t172.5 303q18 100 -5 185.5t-75.5 142.5t-127.5 89.5t-161 32.5q-113 0 -216 -48.5t-178.5 -146.5t-98.5 -227zM655 1167l205 260h127l-229 -260h-103z" />
<glyph unicode="&#xe2;" d="M92 535q28 160 119.5 278.5t213.5 176t259 57.5q145 0 260 -74.5t164 -206.5l45 258h102l-180 -1024h-102l37 209q-81 -109 -203.5 -170.5t-269.5 -61.5q-106 0 -198 45t-152.5 120t-87 178.5t-7.5 214.5zM197 526q-21 -121 19.5 -224.5t132 -164.5t212.5 -61 q184 0 325.5 119t172.5 303q18 100 -5 185.5t-75.5 142.5t-127.5 89.5t-161 32.5q-113 0 -216 -48.5t-178.5 -146.5t-98.5 -227zM457 1167l266 260h121l178 -260h-113l-131 195l-198 -195h-123z" />
<glyph unicode="&#xe3;" d="M92 535q28 160 119.5 278.5t213.5 176t259 57.5q145 0 260 -74.5t164 -206.5l45 258h102l-180 -1024h-102l37 209q-81 -109 -203.5 -170.5t-269.5 -61.5q-106 0 -198 45t-152.5 120t-87 178.5t-7.5 214.5zM197 526q-21 -121 19.5 -224.5t132 -164.5t212.5 -61 q184 0 325.5 119t172.5 303q18 100 -5 185.5t-75.5 142.5t-127.5 89.5t-161 32.5q-113 0 -216 -48.5t-178.5 -146.5t-98.5 -227zM467 1194q13 86 46.5 140.5t76.5 71t92 1.5t94 -61q50 -51 87 -64.5t65.5 15.5t42.5 106h90q-19 -112 -70 -168.5t-114.5 -50.5t-124.5 67 q-73 79 -123.5 68t-71.5 -125h-90z" />
<glyph unicode="&#xe4;" d="M92 535q28 160 119.5 278.5t213.5 176t259 57.5q145 0 260 -74.5t164 -206.5l45 258h102l-180 -1024h-102l37 209q-81 -109 -203.5 -170.5t-269.5 -61.5q-106 0 -198 45t-152.5 120t-87 178.5t-7.5 214.5zM197 526q-21 -121 19.5 -224.5t132 -164.5t212.5 -61 q184 0 325.5 119t172.5 303q18 100 -5 185.5t-75.5 142.5t-127.5 89.5t-161 32.5q-113 0 -216 -48.5t-178.5 -146.5t-98.5 -227zM496 1255q4 32 30.5 54t57.5 22t48.5 -22t12.5 -54q-6 -31 -31.5 -52t-56.5 -21t-49 21t-12 52zM864 1255q4 32 30.5 54t57.5 22t48.5 -22 t13.5 -54q-6 -31 -31.5 -52t-56.5 -21t-49.5 21.5t-12.5 51.5z" />
<glyph unicode="&#xe5;" d="M92 535q28 160 119.5 278.5t213.5 176t259 57.5q145 0 260 -74.5t164 -206.5l45 258h102l-180 -1024h-102l37 209q-81 -109 -203.5 -170.5t-269.5 -61.5q-106 0 -198 45t-152.5 120t-87 178.5t-7.5 214.5zM197 526q-21 -121 19.5 -224.5t132 -164.5t212.5 -61 q184 0 325.5 119t172.5 303q18 100 -5 185.5t-75.5 142.5t-127.5 89.5t-161 32.5q-113 0 -216 -48.5t-178.5 -146.5t-98.5 -227zM561 1335q13 86 81 140.5t159 54.5q94 0 143 -58.5t37 -144.5q-14 -85 -81.5 -139.5t-160.5 -54.5q-94 0 -143 58t-35 144zM649 1331 q-9 -52 18 -84.5t83 -32.5t96 32.5t49 84.5q9 53 -20 85t-84 32q-54 0 -93.5 -31.5t-48.5 -85.5z" />
<glyph unicode="&#xe6;" horiz-adv-x="2174" d="M92 528q28 159 121.5 279.5t218 180t260.5 59.5q142 0 255.5 -72t162.5 -199l43 248h102l-41 -229q80 119 201.5 185.5t272.5 66.5q145 0 248 -76.5t143.5 -199.5t13.5 -263q-3 -26 -12 -49h-922q-13 -173 85.5 -278t273.5 -105q128 0 229 50.5t162 135.5l82 -53 q-81 -107 -207.5 -169.5t-272.5 -62.5q-150 0 -252.5 69.5t-142.5 191.5l-41 -238h-102l37 215q-83 -112 -207.5 -175t-272.5 -63q-142 0 -252.5 74t-161 201t-24.5 276zM197 518q-21 -121 17.5 -222t128.5 -160.5t212 -59.5q183 0 328.5 122.5t177.5 305.5q18 100 -4 185 t-74 141t-126.5 87t-160.5 31q-113 0 -217.5 -50t-181.5 -150t-100 -230zM1176 559h819q18 182 -74.5 285.5t-253.5 103.5q-179 0 -312.5 -108t-178.5 -281z" />
<glyph unicode="&#xe7;" horiz-adv-x="1150" d="M92 528q40 226 216.5 372.5t406.5 146.5q148 0 258.5 -71t152.5 -190l-88 -47q-35 97 -121 153t-212 56q-187 0 -331.5 -123t-176.5 -307q-21 -122 16 -223t126 -160t212 -59t229.5 58.5t171.5 156.5l82 -55q-74 -114 -195.5 -182t-269.5 -77l-16 -92q78 -9 124 -53 t36 -108q-34 -190 -428 -156l16 84q147 -15 229 7t91 73q8 44 -37.5 67.5t-134.5 20.5l28 160q-201 22 -311.5 179t-73.5 369z" />
<glyph unicode="&#xe8;" horiz-adv-x="1204" d="M92 526q40 227 211 374t397 147q92 0 169.5 -28.5t130 -79t87.5 -118.5t42 -147.5t-7 -165.5q-7 -36 -12 -49h-924q-12 -173 88 -278t275 -105q124 0 225 50t164 138l80 -53q-74 -110 -204.5 -172t-278.5 -62q-154 0 -265 72t-158 197.5t-20 279.5zM203 559h821 q18 184 -74 286.5t-258 102.5q-176 0 -309.5 -107t-179.5 -282zM563 1427h123l119 -260h-98z" />
<glyph unicode="&#xe9;" horiz-adv-x="1204" d="M92 526q40 227 211 374t397 147q92 0 169.5 -28.5t130 -79t87.5 -118.5t42 -147.5t-7 -165.5q-7 -36 -12 -49h-924q-12 -173 88 -278t275 -105q124 0 225 50t164 138l80 -53q-74 -110 -204.5 -172t-278.5 -62q-154 0 -265 72t-158 197.5t-20 279.5zM203 559h821 q18 184 -74 286.5t-258 102.5q-176 0 -309.5 -107t-179.5 -282zM647 1167l205 260h127l-229 -260h-103z" />
<glyph unicode="&#xea;" horiz-adv-x="1204" d="M92 526q40 227 211 374t397 147q92 0 169.5 -28.5t130 -79t87.5 -118.5t42 -147.5t-7 -165.5q-7 -36 -12 -49h-924q-12 -173 88 -278t275 -105q124 0 225 50t164 138l80 -53q-74 -110 -204.5 -172t-278.5 -62q-154 0 -265 72t-158 197.5t-20 279.5zM203 559h821 q18 184 -74 286.5t-258 102.5q-176 0 -309.5 -107t-179.5 -282zM449 1167l266 260h121l178 -260h-113l-131 195l-199 -195h-122z" />
<glyph unicode="&#xeb;" horiz-adv-x="1204" d="M92 526q40 227 211 374t397 147q92 0 169.5 -28.5t130 -79t87.5 -118.5t42 -147.5t-7 -165.5q-7 -36 -12 -49h-924q-12 -173 88 -278t275 -105q124 0 225 50t164 138l80 -53q-74 -110 -204.5 -172t-278.5 -62q-154 0 -265 72t-158 197.5t-20 279.5zM203 559h821 q18 184 -74 286.5t-258 102.5q-176 0 -309.5 -107t-179.5 -282zM487 1255q4 32 30.5 54t57.5 22t48.5 -22t13.5 -54q-6 -31 -31.5 -52t-56.5 -21t-49.5 21.5t-12.5 51.5zM856 1255q4 32 30.5 54t57.5 22t48.5 -22t13.5 -54q-6 -31 -31.5 -52t-56.5 -21t-49.5 21.5 t-12.5 51.5z" />
<glyph unicode="&#xec;" horiz-adv-x="417" d="M68 0l180 1024h102l-180 -1024h-102zM186 1427l93 -260h100l-68 260h-125z" />
<glyph unicode="&#xed;" horiz-adv-x="417" d="M68 0l180 1024h102l-180 -1024h-102zM270 1167h101l180 260h-123z" />
<glyph unicode="&#xee;" horiz-adv-x="417" d="M68 0l180 1024h102l-180 -1024h-102zM92 1167l217 260h121l129 -260h-117l-86 176l-147 -176h-117z" />
<glyph unicode="&#xef;" horiz-adv-x="417" d="M68 0l180 1024h102l-180 -1024h-102zM129 1255q6 32 32 54t58 22q31 0 48.5 -22t13.5 -54q-6 -31 -31.5 -52t-56.5 -21q-32 0 -51 21t-13 52zM399 1255q6 32 32 54t58 22q31 0 49.5 -22t12.5 -54q-6 -31 -31.5 -52t-56.5 -21q-32 0 -50.5 21t-13.5 52z" />
<glyph unicode="&#xf0;" horiz-adv-x="1204" d="M86 500q36 206 191.5 326t355.5 120q135 0 229 -57l-170 305l-284 -158l16 97l229 127l-96 174h107l73 -127l248 137l-18 -96l-193 -107l279 -485q35 -60 49.5 -145.5t1.5 -168.5q-40 -220 -200.5 -342.5t-375.5 -122.5q-99 0 -188.5 39.5t-153 107.5t-92 167t-8.5 209z M190 492q-21 -116 20 -212t130.5 -150t206.5 -54q170 0 295 100t157 275q25 155 -28 245q-43 73 -127 115.5t-203 42.5q-175 0 -298.5 -97.5t-152.5 -264.5z" />
<glyph unicode="&#xf1;" horiz-adv-x="1155" d="M68 0l180 1024h102l-31 -178q145 201 394 201q182 0 273.5 -112t60.5 -298l-113 -637h-105l113 637q25 144 -38.5 227.5t-209.5 83.5q-158 0 -276 -104.5t-152 -302.5v2l-96 -543h-102zM412 1194q13 86 46.5 140.5t76.5 71t92 1.5t94 -61q50 -51 87 -64.5t65 15.5t42 106 h91q-19 -112 -70 -168.5t-115 -50.5t-125 67q-73 79 -123 68t-71 -125h-90z" />
<glyph unicode="&#xf2;" horiz-adv-x="1253" d="M90 522q21 121 84 222t150 166.5t190.5 101t208.5 35.5q103 0 192.5 -39.5t152 -108.5t89.5 -172.5t6 -222.5q-28 -164 -125.5 -286t-226.5 -181.5t-270 -59.5q-104 0 -195 39t-155.5 108t-93 173t-7.5 225zM195 512q-17 -99 4 -182.5t71.5 -138t123 -85t157.5 -30.5 q115 0 221.5 51.5t185.5 153.5t103 235q17 98 -4.5 180.5t-71.5 136.5t-122.5 84.5t-157.5 30.5q-114 -1 -220.5 -52t-186 -152t-103.5 -232zM569 1427l144 -260h98l-119 260h-123z" />
<glyph unicode="&#xf3;" horiz-adv-x="1253" d="M90 522q21 121 84 222t150 166.5t190.5 101t208.5 35.5q103 0 192.5 -39.5t152 -108.5t89.5 -172.5t6 -222.5q-28 -164 -125.5 -286t-226.5 -181.5t-270 -59.5q-104 0 -195 39t-155.5 108t-93 173t-7.5 225zM195 512q-17 -99 4 -182.5t71.5 -138t123 -85t157.5 -30.5 q115 0 221.5 51.5t185.5 153.5t103 235q17 98 -4.5 180.5t-71.5 136.5t-122.5 84.5t-157.5 30.5q-114 -1 -220.5 -52t-186 -152t-103.5 -232zM653 1167h103l229 260h-127z" />
<glyph unicode="&#xf4;" horiz-adv-x="1253" d="M90 522q21 121 84 222t150 166.5t190.5 101t208.5 35.5q103 0 192.5 -39.5t152 -108.5t89.5 -172.5t6 -222.5q-28 -164 -125.5 -286t-226.5 -181.5t-270 -59.5q-104 0 -195 39t-155.5 108t-93 173t-7.5 225zM195 512q-17 -99 4 -182.5t71.5 -138t123 -85t157.5 -30.5 q115 0 221.5 51.5t185.5 153.5t103 235q17 98 -4.5 180.5t-71.5 136.5t-122.5 84.5t-157.5 30.5q-114 -1 -220.5 -52t-186 -152t-103.5 -232zM455 1167l266 260h121l178 -260h-113l-131 195l-198 -195h-123z" />
<glyph unicode="&#xf5;" horiz-adv-x="1253" d="M90 522q21 121 84 222t150 166.5t190.5 101t208.5 35.5q103 0 192.5 -39.5t152 -108.5t89.5 -172.5t6 -222.5q-28 -164 -125.5 -286t-226.5 -181.5t-270 -59.5q-104 0 -195 39t-155.5 108t-93 173t-7.5 225zM195 512q-17 -99 4 -182.5t71.5 -138t123 -85t157.5 -30.5 q115 0 221.5 51.5t185.5 153.5t103 235q17 98 -4.5 180.5t-71.5 136.5t-122.5 84.5t-157.5 30.5q-114 -1 -220.5 -52t-186 -152t-103.5 -232zM465 1194q13 86 46.5 140.5t76.5 71t92 1.5t94 -61q50 -51 87 -64.5t65.5 15.5t42.5 106h90q-19 -112 -70 -168.5t-114.5 -50.5 t-124.5 67q-73 79 -123.5 68t-71.5 -125h-90z" />
<glyph unicode="&#xf6;" horiz-adv-x="1253" d="M90 522q21 121 84 222t150 166.5t190.5 101t208.5 35.5q103 0 192.5 -39.5t152 -108.5t89.5 -172.5t6 -222.5q-28 -164 -125.5 -286t-226.5 -181.5t-270 -59.5q-104 0 -195 39t-155.5 108t-93 173t-7.5 225zM195 512q-17 -99 4 -182.5t71.5 -138t123 -85t157.5 -30.5 q115 0 221.5 51.5t185.5 153.5t103 235q17 98 -4.5 180.5t-71.5 136.5t-122.5 84.5t-157.5 30.5q-114 -1 -220.5 -52t-186 -152t-103.5 -232zM494 1255q4 32 30.5 54t57.5 22t48.5 -22t12.5 -54q-6 -31 -31.5 -52t-56.5 -21t-49 21t-12 52zM862 1255q4 32 30.5 54t57.5 22 t48.5 -22t13.5 -54q-6 -31 -31.5 -52t-56.5 -21t-49.5 21.5t-12.5 51.5z" />
<glyph unicode="&#xf7;" horiz-adv-x="1187" d="M158 668l16 98h928l-17 -98h-927zM471 338q6 38 36.5 63t70.5 25q38 0 60.5 -28t16.5 -68q-8 -38 -38 -63t-70 -25q-38 0 -60.5 28t-15.5 68zM606 1104q6 38 36.5 63t70.5 25q38 0 61 -28t17 -68q-7 -38 -38 -63t-71 -25q-38 0 -60.5 28t-15.5 68z" />
<glyph unicode="&#xf8;" horiz-adv-x="1253" d="M61 35l115 106q-125 154 -86 381q21 121 84 222t150 166.5t190.5 101t208.5 35.5q181 0 307 -111l100 94l66 -41l-115 -106q121 -154 82 -379q-28 -164 -125.5 -286t-226.5 -181.5t-270 -59.5q-185 0 -314 111l-100 -94zM195 512q-29 -180 59 -299l698 651 q-101 84 -247 84q-114 -1 -220.5 -52t-186 -152t-103.5 -232zM305 160q96 -84 246 -84q115 0 221.5 51.5t185.5 153.5t103 235q29 176 -57 293z" />
<glyph unicode="&#xf9;" horiz-adv-x="1155" d="M109 387l112 637h105l-113 -637q-25 -144 38.5 -227.5t209.5 -83.5q158 0 276 104.5t152 302.5v-2l96 543h102l-180 -1024h-102l31 178q-145 -201 -394 -201q-182 0 -273 112t-60 298zM508 1427h123l119 -260h-99z" />
<glyph unicode="&#xfa;" horiz-adv-x="1155" d="M109 387l112 637h105l-113 -637q-25 -144 38.5 -227.5t209.5 -83.5q158 0 276 104.5t152 302.5v-2l96 543h102l-180 -1024h-102l31 178q-145 -201 -394 -201q-182 0 -273 112t-60 298zM592 1167l205 260h127l-230 -260h-102z" />
<glyph unicode="&#xfb;" horiz-adv-x="1155" d="M109 387l112 637h105l-113 -637q-25 -144 38.5 -227.5t209.5 -83.5q158 0 276 104.5t152 302.5v-2l96 543h102l-180 -1024h-102l31 178q-145 -201 -394 -201q-182 0 -273 112t-60 298zM393 1167l266 260h121l178 -260h-112l-131 195l-199 -195h-123z" />
<glyph unicode="&#xfc;" horiz-adv-x="1155" d="M109 387l112 637h105l-113 -637q-25 -144 38.5 -227.5t209.5 -83.5q158 0 276 104.5t152 302.5v-2l96 543h102l-180 -1024h-102l31 178q-145 -201 -394 -201q-182 0 -273 112t-60 298zM432 1255q4 32 30.5 54t57.5 22t48.5 -22t13.5 -54q-6 -31 -31.5 -52t-56.5 -21 t-49.5 21.5t-12.5 51.5zM801 1255q4 32 30.5 54t57.5 22t48.5 -22t12.5 -54q-6 -31 -31.5 -52t-56.5 -21t-49 21t-12 52z" />
<glyph unicode="&#xfd;" horiz-adv-x="1044" d="M8 -410l17 97q191 -17 342 239l34 58l-284 1040h104l248 -922l522 922h117l-639 -1118q-91 -159 -210.5 -242.5t-250.5 -73.5zM520 1167l205 260h127l-229 -260h-103z" />
<glyph unicode="&#xfe;" d="M-4 -410l323 1844h103l-109 -619q81 109 203.5 170.5t269.5 61.5q106 0 198 -45t152.5 -120t87 -178.5t7.5 -214.5q-28 -160 -119.5 -278.5t-213.5 -176t-259 -57.5q-145 0 -260 74.5t-164 204.5l-117 -666h-102zM264 526q-18 -100 5 -185.5t75.5 -142.5t127.5 -89.5 t161 -32.5q113 0 216 48.5t178.5 146.5t98.5 227q21 121 -19.5 224.5t-132 164.5t-212.5 61q-184 0 -325 -119t-173 -303z" />
<glyph unicode="&#xff;" horiz-adv-x="1044" d="M8 -410l17 97q191 -17 342 239l34 58l-284 1040h104l248 -922l522 922h117l-639 -1118q-91 -159 -210.5 -242.5t-250.5 -73.5zM360 1255q4 32 31 54t58 22t48.5 -22t12.5 -54q-6 -31 -31.5 -52t-56.5 -21t-49.5 21.5t-12.5 51.5zM729 1255q4 32 30.5 54t57.5 22t48.5 -22 t13.5 -54q-6 -31 -31.5 -52t-56.5 -21t-49.5 21.5t-12.5 51.5z" />
<glyph unicode="&#x152;" horiz-adv-x="1875" d="M126.5 490q-12.5 111 6.5 235q36 204 155.5 370.5t302 263.5t392.5 97q102 0 188 -22h768l-18 -103h-659l-99 -557h623l-19 -102h-620l-100 -570h669l-18 -102h-778l233 1323q-89 29 -188 29q-132 0 -255.5 -50t-218 -135.5t-160 -202t-87.5 -247.5q-23 -131 1 -247.5 t87.5 -202t169.5 -135.5t239 -50q99 0 197 29l-18 -111q-100 -23 -197 -23q-122 0 -228 38.5t-180.5 107t-125 162.5t-63 205z" />
<glyph unicode="&#x153;" horiz-adv-x="2172" d="M90 520q40 228 218.5 377.5t412.5 149.5q157 0 271 -88.5t151 -231.5q79 147 220 233.5t312 86.5q109 0 197.5 -44.5t142.5 -118t75 -172t1 -204.5l-12 -49h-924q-13 -173 86.5 -278t276.5 -105q122 0 223 50t164 138l82 -53q-75 -110 -205.5 -172t-270.5 -62 q-170 0 -285 87.5t-149 234.5q-83 -149 -227 -235.5t-318 -86.5q-147 0 -258 72.5t-160.5 197.5t-23.5 273zM195 512q-33 -185 68 -310.5t288 -125.5q183 0 329 126.5t177 309.5q34 183 -67.5 309.5t-284.5 126.5q-187 0 -332 -125.5t-178 -310.5zM1171 559h822 q18 184 -74.5 286.5t-257.5 102.5q-176 0 -310 -107t-180 -282z" />
<glyph unicode="&#x178;" horiz-adv-x="1167" d="M188 1434h113l320 -664l553 664h129l-637 -764l-119 -670h-109l119 674zM522 1665q4 32 30.5 54t57.5 22t48.5 -22t13.5 -54q-6 -31 -31.5 -52.5t-56.5 -21.5t-49.5 21.5t-12.5 52.5zM891 1665q4 32 30.5 54t57.5 22t48.5 -22t12.5 -54q-6 -31 -31.5 -52.5t-56.5 -21.5 t-49 21.5t-12 52.5z" />
<glyph unicode="&#x2c6;" horiz-adv-x="645" d="M156 1167l266 260h121l178 -260h-113l-131 195l-198 -195h-123z" />
<glyph unicode="&#x2dc;" horiz-adv-x="638" d="M162 1194q13 86 46.5 140.5t76.5 71t92 1.5t94 -61q50 -51 87 -64.5t65.5 15.5t42.5 106h90q-19 -112 -70 -168.5t-115 -50.5t-125 67q-73 79 -123 68t-71 -125h-90z" />
<glyph unicode="&#x2000;" horiz-adv-x="918" />
<glyph unicode="&#x2001;" horiz-adv-x="1837" />
<glyph unicode="&#x2002;" horiz-adv-x="918" />
<glyph unicode="&#x2003;" horiz-adv-x="1837" />
<glyph unicode="&#x2004;" horiz-adv-x="612" />
<glyph unicode="&#x2005;" horiz-adv-x="459" />
<glyph unicode="&#x2006;" horiz-adv-x="306" />
<glyph unicode="&#x2007;" horiz-adv-x="306" />
<glyph unicode="&#x2008;" horiz-adv-x="229" />
<glyph unicode="&#x2009;" horiz-adv-x="367" />
<glyph unicode="&#x200a;" horiz-adv-x="102" />
<glyph unicode="&#x2010;" horiz-adv-x="1091" d="M190 584l17 98h737l-16 -98h-738z" />
<glyph unicode="&#x2011;" horiz-adv-x="1091" d="M190 584l17 98h737l-16 -98h-738z" />
<glyph unicode="&#x2012;" horiz-adv-x="1091" d="M190 584l17 98h737l-16 -98h-738z" />
<glyph unicode="&#x2013;" horiz-adv-x="1361" d="M190 584l17 98h1007l-16 -98h-1008z" />
<glyph unicode="&#x2014;" horiz-adv-x="1566" d="M190 584l17 98h1212l-16 -98h-1213z" />
<glyph unicode="&#x2018;" horiz-adv-x="458" d="M213 1008l186 426h95l-152 -426h-129z" />
<glyph unicode="&#x2019;" horiz-adv-x="458" d="M215 1008l152 426h129l-187 -426h-94z" />
<glyph unicode="&#x201a;" horiz-adv-x="456" d="M-14 -287l151 426h129l-186 -426h-94z" />
<glyph unicode="&#x201c;" horiz-adv-x="718" d="M213 1008l186 426h95l-152 -426h-129zM473 1008l186 426h95l-152 -426h-129z" />
<glyph unicode="&#x201d;" horiz-adv-x="718" d="M215 1008l152 426h129l-187 -426h-94zM475 1008l152 426h129l-187 -426h-94z" />
<glyph unicode="&#x201e;" horiz-adv-x="716" d="M-14 -287l151 426h129l-186 -426h-94zM246 -287l151 426h129l-186 -426h-94z" />
<glyph unicode="&#x2022;" horiz-adv-x="573" d="M147 725q13 73 72.5 121.5t136.5 48.5q72 0 115 -55t29 -127q-13 -75 -72.5 -124.5t-134.5 -49.5q-73 0 -116.5 56t-29.5 130z" />
<glyph unicode="&#x2026;" horiz-adv-x="1214" d="M49 74q6 39 36.5 64.5t70.5 25.5t62.5 -28t14.5 -66q-8 -40 -37 -65t-71 -25q-39 0 -60.5 27.5t-15.5 66.5zM438 74q6 39 36.5 64.5t70.5 25.5t63 -28t15 -66q-8 -40 -37.5 -65t-71.5 -25q-39 0 -60.5 27.5t-15.5 66.5zM827 74q6 39 36.5 64.5t70.5 25.5t63 -28t15 -66 q-8 -40 -37.5 -65t-71.5 -25q-39 0 -60.5 27.5t-15.5 66.5z" />
<glyph unicode="&#x202f;" horiz-adv-x="367" />
<glyph unicode="&#x2039;" horiz-adv-x="681" d="M184 633l283 354h135l-289 -362l154 -346h-125z" />
<glyph unicode="&#x203a;" horiz-adv-x="684" d="M123 279l289 362l-154 346h125l158 -354l-283 -354h-135z" />
<glyph unicode="&#x205f;" horiz-adv-x="459" />
<glyph unicode="&#x20ac;" horiz-adv-x="1234" d="M55 549l15 92h159q2 35 13 86q4 30 16 78h-158l15 90h166q81 264 243 412.5t383 148.5q141 0 239.5 -72t141.5 -202l-98 -49q-31 106 -108 162.5t-193 56.5q-167 0 -296 -119t-200 -338h549l-16 -90h-557l-19 -88q-9 -58 -10 -76h557l-16 -92h-549q-9 -223 77.5 -345 t256.5 -122q115 0 211.5 58t162.5 167l88 -53q-83 -133 -205.5 -205t-275.5 -72q-212 0 -323.5 155t-102.5 417h-166z" />
<glyph unicode="&#x2122;" horiz-adv-x="980" d="M254 1370l12 64h307l-10 -64h-119l-61 -346h-70l62 346h-121zM557 1024l72 410h69l90 -224l177 224h75l-71 -410h-68l51 295l-174 -217h-8l-92 215l-51 -293h-70z" />
<glyph unicode="&#x25fc;" horiz-adv-x="1024" d="M0 0v1024h1024v-1024h-1024z" />
<glyph unicode="&#xfb03;" horiz-adv-x="1597" d="M127 924l18 100h177l10 55q34 197 156 294.5t321 82.5l-18 -98q-302 23 -355 -279l-10 -55h448l13 76q33 194 152 285.5t325 91.5q87 0 195 -23l-17 -94q-99 18 -196 18q-159 0 -244 -65t-111 -213l-12 -76h551l-180 -1024h-103l162 924h-448l-162 -924h-105l162 924 h-446l-164 -924h-105l164 924h-178z" />
<glyph unicode="&#xfb04;" horiz-adv-x="1597" d="M127 924l18 100h177l10 55q34 197 156 294.5t321 82.5l-18 -98q-302 23 -355 -279l-10 -55h448l13 76q33 194 152 285.5t325 91.5q107 0 242 -23l-256 -1454h-103l242 1374q-63 8 -141 8q-158 0 -244.5 -67t-112.5 -215l-12 -76h244l-19 -100h-243l-162 -924h-105 l162 924h-446l-164 -924h-105l164 924h-178z" />
</font>
</defs>
</svg>
